<?xml version="1.0" encoding="UTF-8"?>
<svg version="1.1" xmlns="http://www.w3.org/2000/svg" width="1024" height="1024">
<path d="M0 0 C1.31508545 0.59482178 1.31508545 0.59482178 2.65673828 1.20166016 C41.82541887 18.97782339 76.81486641 43.47124423 109.4375 71.3125 C110.32489868 72.06829346 110.32489868 72.06829346 111.23022461 72.83935547 C112.83183474 74.2134759 114.4166013 75.60498839 116 77 C116.81597656 77.69480469 117.63195312 78.38960938 118.47265625 79.10546875 C120 81 120 81 119.9161768 82.77514267 C118.59284554 85.98873994 116.30614257 88.09633155 113.86851501 90.49224854 C113.05869001 91.30591845 113.05869001 91.30591845 112.2325049 92.13602614 C110.4184902 93.95498906 108.59394794 95.76301045 106.76928711 97.57128906 C105.46801931 98.87171082 104.16741141 100.17279319 102.86741638 101.4744873 C99.33295307 105.00981287 95.78930307 108.53579968 92.24396586 112.06021595 C88.54170082 115.74375261 84.8479054 119.4357622 81.1532135 123.12689209 C74.1539605 130.11681335 67.14709388 137.09905084 60.13747841 144.07857871 C52.15830732 152.02424098 44.1876328 159.97840314 36.21767032 167.9333005 C19.82123525 184.29836096 3.41412739 200.65268631 -13 217 C-17.37976835 215.38260923 -19.8451289 213.48164064 -23.1875 210.1875 C-35.89530314 198.12093478 -50.89834908 188.76137152 -66 180 C-66.60811523 179.64099609 -67.21623047 179.28199219 -67.84277344 178.91210938 C-124.71117761 145.58754312 -197.961121 140.18917116 -260.86474609 156.171875 C-297.21810122 165.77400711 -331.73750702 182.2757775 -361 206 C-361.92941406 206.73734375 -362.85882813 207.4746875 -363.81640625 208.234375 C-379.22922975 220.59971278 -393.8827673 234.363571 -406 250 C-407.01815501 251.28912108 -408.03638973 252.57817919 -409.0546875 253.8671875 C-441.88374378 295.74866063 -462.89759104 346.04900558 -469 399 C-469.14139404 400.1758667 -469.14139404 400.1758667 -469.28564453 401.37548828 C-470.23355889 410.27299566 -470.24352162 419.18680737 -470.25 428.125 C-470.25067474 428.96492493 -470.25134949 429.80484985 -470.25204468 430.67022705 C-470.23389004 444.9614919 -469.4435577 458.89422645 -467 473 C-466.83371094 473.97469238 -466.66742188 474.94938477 -466.49609375 475.95361328 C-458.06300271 523.73332076 -437.88301979 569.50124228 -407 607 C-406.5155542 607.59111572 -406.0311084 608.18223145 -405.53198242 608.79125977 C-392.63367022 624.44005451 -392.63367022 624.44005451 -377.94921875 638.35546875 C-376.58471018 639.50668741 -375.25611628 640.70121352 -373.95703125 641.92578125 C-359.63914998 655.40578307 -342.91584894 666.10422837 -326 676 C-325.29230469 676.41588379 -324.58460938 676.83176758 -323.85546875 677.26025391 C-299.57498028 691.32761458 -272.50643725 700.19008864 -245.125 705.8125 C-244.17608887 706.00763184 -243.22717773 706.20276367 -242.24951172 706.40380859 C-225.87708367 709.56339997 -209.64217569 710.37651376 -193 710.3125 C-192.01310181 710.31067719 -191.02620361 710.30885437 -190.00939941 710.30697632 C-174.48429461 710.2588153 -159.33126122 709.64109962 -144 707 C-142.46520996 706.74259033 -142.46520996 706.74259033 -140.89941406 706.47998047 C-111.3612168 701.39330107 -83.44695162 692.11773504 -57 678 C-56.35401855 677.66033203 -55.70803711 677.32066406 -55.04248047 676.97070312 C-39.01068787 668.49512092 -24.53016673 658.0455707 -11 646 C-10.48598633 645.5477002 -9.97197266 645.09540039 -9.44238281 644.62939453 C26.88074727 612.59362201 45.48458034 571.88987209 58 526 C-25.16 526 -108.32 526 -194 526 C-194 465.61 -194 405.22 -194 343 C-47.81 343 98.38 343 249 343 C255.03799003 384.05833221 255.03799003 384.05833221 256 398 C256.08540039 399.16692383 256.17080078 400.33384766 256.25878906 401.53613281 C257.11037186 413.89331905 257.24197506 426.24180225 257.25 438.625 C257.25100708 439.71282776 257.25201416 440.80065552 257.25305176 441.92144775 C257.23427395 472.18630781 255.08968135 502.14384792 250 532 C249.72567139 533.61140869 249.72567139 533.61140869 249.44580078 535.25537109 C235.43146414 615.75632809 201.86051463 694.68131445 146.3359375 755.41796875 C145.06349746 756.82446183 143.7972297 758.23708262 142.56445312 759.6784668 C137.70839082 765.34459804 132.52421792 770.66194529 127.24951172 775.93579102 C125.76106763 777.42641615 124.28082723 778.92487017 122.80078125 780.42382812 C116.52644311 786.73452887 109.96350276 792.44569363 103 798 C101.89823934 798.93485909 100.80189432 799.8762011 99.71484375 800.828125 C75.3074586 822.11163948 47.03802194 838.94714058 17.97119141 853.04101562 C16.02057424 853.98999063 14.07876524 854.95550718 12.13671875 855.921875 C-73.54487027 897.99123932 -177.36716452 907.82136686 -346.65258789 874.04174805 C-376.79818003 863.69046425 -405.53944445 850.13750143 -433 834 C-433.80276367 833.53094238 -434.60552734 833.06188477 -435.43261719 832.57861328 C-459.59087217 818.39521495 -482.01417619 801.52660125 -503 783 C-504.26650391 781.88431641 -504.26650391 781.88431641 -505.55859375 780.74609375 C-508.05809276 778.5174764 -510.53144208 776.26284476 -513 774 C-513.54205078 773.50838379 -514.08410156 773.01676758 -514.64257812 772.51025391 C-524.61044978 763.45874806 -533.91897823 753.93689645 -543 744 C-543.87785156 743.04867187 -544.75570312 742.09734375 -545.66015625 741.1171875 C-550.69987548 735.60202306 -555.39217039 729.87788685 -560 724 C-560.99277001 722.77155354 -561.9863208 721.54373785 -562.98046875 720.31640625 C-577.10396163 702.71094998 -589.89620526 683.65465309 -601 664 C-601.64316162 662.87754883 -601.64316162 662.87754883 -602.29931641 661.73242188 C-616.11166793 637.5284677 -627.61687448 612.23200736 -637 586 C-637.38494629 584.93281738 -637.76989258 583.86563477 -638.16650391 582.76611328 C-649.89003456 549.95299711 -657.3709921 516.04617053 -661.25 481.4375 C-661.37489807 480.32864441 -661.37489807 480.32864441 -661.50231934 479.1973877 C-663.32761905 462.74399474 -664.21591373 446.30330716 -664.1875 429.75 C-664.18656342 429.0263324 -664.18562683 428.30266479 -664.18466187 427.55706787 C-663.99919928 360.34652318 -649.5093142 294.16138334 -621.04394531 233.24804688 C-620.0491118 231.10575807 -619.07977679 228.95380686 -618.1171875 226.796875 C-600.40800205 187.54143632 -575.07443276 150.13584253 -546.109375 118.32421875 C-544.25373343 116.27957665 -542.43243624 114.21215851 -540.625 112.125 C-527.26993835 96.84879259 -527.26993835 96.84879259 -520.08203125 90.83203125 C-517.48710947 88.54869483 -515.10396108 86.09614761 -512.6875 83.625 C-508.31762599 79.18347635 -503.72639949 75.17224044 -498.8515625 71.29296875 C-496.37492596 69.30148156 -493.96482377 67.252082 -491.56640625 65.16772461 C-478.2604113 53.65563328 -463.79918686 43.4921379 -449 34 C-448.27248535 33.52804199 -447.5449707 33.05608398 -446.79541016 32.56982422 C-421.81770646 16.42741601 -395.55028816 3.12290365 -368 -8 C-366.88625 -8.45068848 -365.7725 -8.90137695 -364.625 -9.36572266 C-321.73762855 -26.48876099 -275.98832354 -36.3828301 -230 -40 C-228.93797363 -40.08677002 -228.93797363 -40.08677002 -227.85449219 -40.17529297 C-150.18211397 -46.22605382 -70.7638097 -32.41901428 0 0 Z " fill="#34A853" transform="translate(706,83)"/>
<path d="M0 0 C1.31508545 0.59482178 1.31508545 0.59482178 2.65673828 1.20166016 C41.82541887 18.97782339 76.81486641 43.47124423 109.4375 71.3125 C110.32489868 72.06829346 110.32489868 72.06829346 111.23022461 72.83935547 C112.83183474 74.2134759 114.4166013 75.60498839 116 77 C116.81597656 77.69480469 117.63195312 78.38960938 118.47265625 79.10546875 C120 81 120 81 119.9161768 82.77514267 C118.59284554 85.98873994 116.30614257 88.09633155 113.86851501 90.49224854 C113.05869001 91.30591845 113.05869001 91.30591845 112.2325049 92.13602614 C110.4184902 93.95498906 108.59394794 95.76301045 106.76928711 97.57128906 C105.46801931 98.87171082 104.16741141 100.17279319 102.86741638 101.4744873 C99.33295307 105.00981287 95.78930307 108.53579968 92.24396586 112.06021595 C88.54170082 115.74375261 84.8479054 119.4357622 81.1532135 123.12689209 C74.1539605 130.11681335 67.14709388 137.09905084 60.13747841 144.07857871 C52.15830732 152.02424098 44.1876328 159.97840314 36.21767032 167.9333005 C19.82123525 184.29836096 3.41412739 200.65268631 -13 217 C-17.37976835 215.38260923 -19.8451289 213.48164064 -23.1875 210.1875 C-35.89530314 198.12093478 -50.89834908 188.76137152 -66 180 C-66.60811523 179.64099609 -67.21623047 179.28199219 -67.84277344 178.91210938 C-124.71117761 145.58754312 -197.961121 140.18917116 -260.86474609 156.171875 C-297.21810122 165.77400711 -331.73750702 182.2757775 -361 206 C-361.92941406 206.73734375 -362.85882813 207.4746875 -363.81640625 208.234375 C-379.22922975 220.59971278 -393.8827673 234.363571 -406 250 C-407.01815501 251.28912108 -408.03638973 252.57817919 -409.0546875 253.8671875 C-441.88374378 295.74866063 -462.89759104 346.04900558 -469 399 C-469.14139404 400.1758667 -469.14139404 400.1758667 -469.28564453 401.37548828 C-470.23355889 410.27299566 -470.24352162 419.18680737 -470.25 428.125 C-470.25067474 428.96492493 -470.25134949 429.80484985 -470.25204468 430.67022705 C-470.21383489 460.748833 -464.7087715 489.27003216 -456 518 C-464.80487826 524.87069699 -473.61886471 531.72802951 -482.5 538.5 C-490.61868101 544.69266151 -498.6812423 550.95570064 -506.73388672 557.23388672 C-510.48696238 560.15887587 -514.24367544 563.07918521 -518 566 C-519.4948004 567.16274919 -520.98959205 568.32550962 -522.484375 569.48828125 C-525.53572258 571.86162523 -528.58789658 574.23390119 -531.640625 576.60546875 C-538.43929352 581.88821794 -545.23468481 587.17457332 -552 592.5 C-559.53683409 598.43274019 -567.11097871 604.31721918 -574.68554688 610.20166016 C-578.45815634 613.13299363 -582.22900394 616.06659147 -586 619 C-587.47655371 620.1484488 -588.95311626 621.29688624 -590.4296875 622.4453125 C-591.953125 623.63020833 -593.4765625 624.81510417 -595 626 C-596.7109375 627.33072917 -598.421875 628.66145833 -600.1328125 629.9921875 C-600.968125 630.641875 -601.8034375 631.2915625 -602.6640625 631.9609375 C-606.1796875 634.6953125 -606.1796875 634.6953125 -609.6953125 637.4296875 C-610.33484863 637.92710449 -610.97438477 638.42452148 -611.63330078 638.93701172 C-612.08431152 639.28779785 -612.53532227 639.63858398 -613 640 C-644.28798748 600.58944099 -655.76455597 530.37886074 -661.25 481.4375 C-661.37489807 480.32864441 -661.37489807 480.32864441 -661.50231934 479.1973877 C-663.32761905 462.74399474 -664.21591373 446.30330716 -664.1875 429.75 C-664.18656342 429.0263324 -664.18562683 428.30266479 -664.18466187 427.55706787 C-663.99919928 360.34652318 -649.5093142 294.16138334 -621.04394531 233.24804688 C-620.0491118 231.10575807 -619.07977679 228.95380686 -618.1171875 226.796875 C-600.40800205 187.54143632 -575.07443276 150.13584253 -546.109375 118.32421875 C-544.25373343 116.27957665 -542.43243624 114.21215851 -540.625 112.125 C-527.26993835 96.84879259 -527.26993835 96.84879259 -520.08203125 90.83203125 C-517.48710947 88.54869483 -515.10396108 86.09614761 -512.6875 83.625 C-508.31762599 79.18347635 -503.72639949 75.17224044 -498.8515625 71.29296875 C-496.37492596 69.30148156 -493.96482377 67.252082 -491.56640625 65.16772461 C-478.2604113 53.65563328 -463.79918686 43.4921379 -449 34 C-448.27248535 33.52804199 -447.5449707 33.05608398 -446.79541016 32.56982422 C-421.81770646 16.42741601 -395.55028816 3.12290365 -368 -8 C-366.88625 -8.45068848 -365.7725 -8.90137695 -364.625 -9.36572266 C-321.73762855 -26.48876099 -275.98832354 -36.3828301 -230 -40 C-228.93797363 -40.08677002 -228.93797363 -40.08677002 -227.85449219 -40.17529297 C-150.18211397 -46.22605382 -70.7638097 -32.41901428 0 0 Z " fill="#EA4334" transform="translate(706,83)"/>
<path d="M0 0 C146.19 0 292.38 0 443 0 C449.03799003 41.05833221 449.03799003 41.05833221 450 55 C450.08540039 56.16692383 450.17080078 57.33384766 450.25878906 58.53613281 C451.11037186 70.89331905 451.24197506 83.24180225 451.25 95.625 C451.25100708 96.71282776 451.25201416 97.80065552 451.25305176 98.92144775 C451.23427395 129.18630781 449.08968135 159.14384792 444 189 C443.81711426 190.07427246 443.63422852 191.14854492 443.44580078 192.25537109 C429.43146414 272.75632809 395.86051463 351.68131445 340.3359375 412.41796875 C339.04819562 413.84137575 337.76733278 415.27150259 336.51831055 416.72900391 C331.62952717 422.42579751 326.39524716 427.71997202 321.0625 433 C320.18787109 433.87011719 319.31324219 434.74023438 318.41210938 435.63671875 C316.27702551 437.76013549 314.13962795 439.88116378 312 442 C309.34034633 440.73674614 306.99006361 439.3685394 304.63671875 437.6015625 C304.00483643 437.12831543 303.3729541 436.65506836 302.72192383 436.16748047 C302.05056396 435.65846191 301.3792041 435.14944336 300.6875 434.625 C299.98326904 434.09406738 299.27903809 433.56313477 298.5534668 433.01611328 C293.10862727 428.89007408 287.75919758 424.65321717 282.44067383 420.36621094 C276.37053477 415.47550927 270.19427733 410.73184597 264 406 C252.84102908 397.44241975 241.74249762 388.80818827 230.64746094 380.16796875 C219.59301287 371.55907251 219.59301287 371.55907251 208.5 363 C198.6702533 355.45193854 188.9035225 347.82235321 179.12890625 340.203125 C178.33250732 339.58276367 177.5361084 338.96240234 176.71557617 338.32324219 C175.20613855 337.14743327 173.69715251 335.9710443 172.1887207 334.79394531 C167.49908707 331.14155214 162.76735618 327.55032899 158 324 C161.43322729 320.42818371 164.95226963 317.40757711 168.9375 314.4375 C183.52681104 303.39449437 196.68716966 291.44107386 208 277 C208.73089844 276.07445312 209.46179688 275.14890625 210.21484375 274.1953125 C231.4790717 246.61534725 242.90900799 216.33363735 252 183 C168.84 183 85.68 183 0 183 C0 122.61 0 62.22 0 0 Z " fill="#4185F3" transform="translate(512,426)"/>
<path d="M0 0 C5.83553744 3.62510659 11.12085055 7.68072156 16.35791016 12.12353516 C20.65373821 15.75246784 25.10610768 19.12467483 29.625 22.47265625 C33.67147268 25.4842973 37.64694555 28.58636967 41.625 31.6875 C42.39021973 32.28401367 43.15543945 32.88052734 43.94384766 33.49511719 C45.51387575 34.71962796 47.08369832 35.9444023 48.65332031 37.16943359 C52.43222339 40.11722961 56.21627954 43.05839183 60 46 C64.55954742 49.54565133 69.11854845 53.091999 73.67578125 56.640625 C80.27201386 61.77594703 86.86968837 66.9087193 93.5 72 C100.91613129 77.69469554 108.29198584 83.44087592 115.66943359 89.18554688 C118.70025607 91.54518155 121.73218686 93.90338874 124.7644043 96.26123047 C126.24925758 97.41609834 127.73379782 98.57136882 129.21801758 99.72705078 C133.13613754 102.77719744 137.05996316 105.81961459 140.9921875 108.8515625 C141.80945313 109.48320312 142.62671875 110.11484375 143.46875 110.765625 C145.03208044 111.97365307 146.59709312 113.17950837 148.1640625 114.3828125 C151.6567245 117.08516412 154.97987002 119.75849924 158 123 C157.8141333 123.59087402 157.6282666 124.18174805 157.43676758 124.79052734 C152.48794482 140.69081272 148.68082608 156.56332358 146 173 C145.86722656 173.78487793 145.73445312 174.56975586 145.59765625 175.37841797 C138.87538942 216.92995773 145.93647958 260.20281922 158 300 C149.19512174 306.87069699 140.38113529 313.72802951 131.5 320.5 C123.38131899 326.69266151 115.3187577 332.95570064 107.26611328 339.23388672 C103.51303762 342.15887587 99.75632456 345.07918521 96 348 C94.5051996 349.16274919 93.01040795 350.32550962 91.515625 351.48828125 C88.46427742 353.86162523 85.41210342 356.23390119 82.359375 358.60546875 C75.56070648 363.88821794 68.76531519 369.17457332 62 374.5 C54.46316591 380.43274019 46.88902129 386.31721918 39.31445312 392.20166016 C35.54184366 395.13299363 31.77099606 398.06659147 28 401 C26.52344629 402.1484488 25.04688374 403.29688624 23.5703125 404.4453125 C22.046875 405.63020833 20.5234375 406.81510417 19 408 C17.2890625 409.33072917 15.578125 410.66145833 13.8671875 411.9921875 C13.031875 412.641875 12.1965625 413.2915625 11.3359375 413.9609375 C8.9921875 415.78385417 6.6484375 417.60677083 4.3046875 419.4296875 C3.66515137 419.92710449 3.02561523 420.42452148 2.36669922 420.93701172 C1.91568848 421.28779785 1.46467773 421.63858398 1 422 C-30.28798748 382.58944099 -41.76455597 312.37886074 -47.25 263.4375 C-47.37489807 262.32864441 -47.37489807 262.32864441 -47.50231934 261.1973877 C-49.32761905 244.74399474 -50.21591373 228.30330716 -50.1875 211.75 C-50.18656342 211.0263324 -50.18562683 210.30266479 -50.18466187 209.55706787 C-49.99614585 141.23997943 -34.83127927 74.87324028 -6 13 C-5.36757413 11.6267233 -4.73601882 10.25304525 -4.10546875 8.87890625 C-2.74366068 5.91609665 -1.37568859 2.95638174 0 0 Z " fill="#FABB05" transform="translate(92,301)"/>
</svg>
