<?xml version="1.0" encoding="UTF-8"?>
<svg version="1.1" xmlns="http://www.w3.org/2000/svg" width="512" height="512">
<path d="M0 0 C3.05455775 1.66668567 4.44891301 3.89782603 6 7 C6.09555417 8.45579587 6.12984691 9.9160796 6.125 11.375 C6.12757813 12.14585938 6.13015625 12.91671875 6.1328125 13.7109375 C6.00361066 15.93776918 5.56899317 17.85116083 5 20 C6.9490625 20.16048828 6.9490625 20.16048828 8.9375 20.32421875 C13.88274807 20.8765929 18.31824591 22.17146238 23 23.8125 C24.1746582 24.21299561 24.1746582 24.21299561 25.37304688 24.62158203 C30.72415212 26.47397338 35.86299279 28.61496094 41 31 C41.66 31 42.32 31 43 31 C44.49825323 29.47970115 44.49825323 29.47970115 46.0625 27.5 C55.613262 16.3607129 68.75577136 5.18984496 83.90771484 3.82861328 C97.26835397 2.95733466 108.44875933 5.24790516 119 14 C129.81983479 24.26048953 133.88093885 34.79559326 134.28588867 49.51293945 C134.48109793 66.83999955 129.1156174 81.05006574 118.3828125 94.71875 C114.94277625 98.01216175 111.01416727 100.45930618 107 103 C107.19634033 103.56807373 107.39268066 104.13614746 107.5949707 104.72143555 C111.26302435 115.3849838 114.83995481 125.91176802 117 137 C118.35416667 136.72916667 119.70833333 136.45833333 121.0625 136.1875 C121.97773438 136.00703125 122.89296875 135.8265625 123.8359375 135.640625 C126.05356923 135.19162302 128.26688195 134.72100128 130.4765625 134.234375 C154.63578504 129.04649984 178.9452837 130.0904532 201 142 C201.66 142 202.32 142 203 142 C204.40414831 140.53798428 204.40414831 140.53798428 205.8125 138.6875 C210.25978054 133.33128622 214.42020837 131.34421073 221.25 130.6875 C227.09867787 131.17488982 231.28296251 133.23777731 235.375 137.4375 C240.72552984 145.87487397 241.10826301 156.05084406 239.25 165.6875 C238.5197478 168.77619634 237.49388539 170.90667444 235.6875 173.5 C233.82128109 177.31160319 233.82128109 177.31160319 234.9375 181 C235.61591576 182.67038501 236.30487682 184.33649833 237 186 C237.87581725 188.45337626 238.73250425 190.90636611 239.5625 193.375 C239.77986816 194.01574463 239.99723633 194.65648926 240.22119141 195.31665039 C242.0400467 200.81566086 243.15421103 206.28425419 244 212 C244.58378418 211.90912109 245.16756836 211.81824219 245.76904297 211.72460938 C248.46990248 211.30868234 251.17237664 210.9043008 253.875 210.5 C254.7928125 210.35691406 255.710625 210.21382812 256.65625 210.06640625 C265.98000723 208.68754074 276.4160253 207.29651423 285 212.125 C286.75607569 215.41764191 286.59704662 218.43494277 286 222 C283.58139518 229.93884638 279.55558013 236.58250211 274.76953125 243.30859375 C273.07954172 245.87901932 271.8166839 248.03465965 271 251 C271.50411359 252.9447042 271.50411359 252.9447042 272.6875 254.6875 C279.34249389 266.73843487 280.21494949 279.70919555 276.94140625 292.96484375 C274.51413992 300.79051154 269.18553958 305.63681614 262.21875 309.5703125 C238.48842165 321.25926136 210.85617076 321.44032233 184.96484375 321.44140625 C182.45999903 321.4532164 179.95516124 321.46658928 177.45033264 321.48143005 C170.93822737 321.51718514 164.42618378 321.53769855 157.91400146 321.55297852 C147.43537588 321.57806893 136.95686833 321.61754145 126.47836494 321.67487907 C122.8384029 321.69113359 119.19857223 321.69497592 115.55857849 321.69789124 C113.33193737 321.7076646 111.10529833 321.7179274 108.87866211 321.72875977 C107.87554993 321.72620682 106.87243774 321.72365387 105.83892822 321.72102356 C100.47922864 321.76019923 96.07741469 322.27868828 91 324 C88.296875 324.484375 88.296875 324.484375 85.75 324.75 C84.91984375 324.84796875 84.0896875 324.9459375 83.234375 325.046875 C80.29718105 325.00430697 77.92282482 324.60967377 75.06451416 324.00927734 C68.91004811 322.86600257 62.97822005 322.74515167 56.73339844 322.8046875 C55.55929413 322.80760803 54.38518982 322.81052856 53.17550659 322.8135376 C50.6422124 322.82110813 48.10892856 322.83329692 45.57567596 322.84967041 C41.54426031 322.87541584 37.51298304 322.88857857 33.48150635 322.89794922 C24.18167214 322.92190369 14.88195317 322.96576317 5.5821991 323.01040649 C-2.91960618 323.05108126 -11.42136862 323.08718392 -19.92325187 323.10683632 C-24.53913372 323.11817429 -29.15476335 323.14521125 -33.77056885 323.17529297 C-88.25472881 323.40043344 -88.25472881 323.40043344 -110 312 C-111.04027344 311.46632813 -111.04027344 311.46632813 -112.1015625 310.921875 C-117.48248961 307.67042117 -119.97866892 302.83012021 -122 297 C-125.44878881 282.821646 -119.56043842 269.97284976 -112.94921875 257.76953125 C-111.57528696 255.208251 -110.28683872 252.60584841 -109 250 C-109.68964844 249.443125 -110.37929687 248.88625 -111.08984375 248.3125 C-114.07267279 245.89023005 -117.03710789 243.44660141 -120 241 C-120.77472656 240.37738281 -121.54945312 239.75476563 -122.34765625 239.11328125 C-138.9615916 225.21305585 -150.53337394 204.57134297 -153 183 C-153.53603504 170.65872809 -151.8708811 160.55844897 -148.09448242 148.84106445 C-146.19051004 142.84768459 -144.65133748 136.78626653 -143.125 130.6875 C-140.47025952 120.15702943 -136.98169009 110.095587 -133 100 C-134.17755859 99.00033203 -134.17755859 99.00033203 -135.37890625 97.98046875 C-146.92979623 87.94725424 -155.82345029 75.61341269 -158 60 C-158.95399361 43.15498143 -158.26535797 28.37850978 -147.21875 14.8125 C-139.90252264 6.89658187 -129.87703471 1.28635141 -118.984375 0.6640625 C-110.26377897 0.478279 -102.93189283 0.99640219 -95 5 C-94.1853125 5.40089844 -93.370625 5.80179687 -92.53125 6.21484375 C-82.52607158 11.67653134 -74.07134821 20.16081474 -67 29 C-61.48700389 28.10304428 -56.34923152 26.11870275 -51.09472656 24.28613281 C-46.3205605 22.66010689 -41.74558124 21.54422835 -36.75 20.75 C-33.19013042 20.00149175 -31.53498409 19.62433662 -29.15234375 16.84375 C-28.17799711 15.11850689 -27.25760545 13.36163785 -26.39453125 11.578125 C-20.79059237 1.21790186 -11.01765519 -1.41037158 0 0 Z " fill="#20201F" transform="translate(193,94)"/>
<path d="M0 0 C2.6875 1.5 2.6875 1.5 4 4 C4.11379436 10.37248421 1.72290296 15.50557825 -0.84375 21.265625 C-1.80081979 23.52896571 -2.49799904 25.60408633 -3 28 C-2.566875 27.505 -2.13375 27.01 -1.6875 26.5 C0 25 0 25 3 25 C2.52379711 29.37653129 1.33100111 31.06538005 -2.0625 33.8125 C-2.79597656 34.41707031 -3.52945313 35.02164063 -4.28515625 35.64453125 C-4.85105469 36.09183594 -5.41695312 36.53914063 -6 37 C-5.45730469 36.72285156 -4.91460937 36.44570312 -4.35546875 36.16015625 C-3.28232422 35.61681641 -3.28232422 35.61681641 -2.1875 35.0625 C-1.47980469 34.70285156 -0.77210938 34.34320313 -0.04296875 33.97265625 C2 33 2 33 5 32 C5.76522801 28.64541845 5.76522801 28.64541845 6 25 C4.70735301 23.03568595 4.70735301 23.03568595 3 22 C3.33 21.01 3.66 20.02 4 19 C12.37847216 20.1089835 19.93870624 22.07541812 27.8125 25.125 C28.85567383 25.52460937 29.89884766 25.92421875 30.97363281 26.3359375 C44.32004613 31.55718988 55.83437282 37.90268003 67 47 C67.77730469 47.61230469 68.55460938 48.22460938 69.35546875 48.85546875 C76.3382691 54.65181099 81.67295537 61.71356079 87 69 C87.43489746 69.59200195 87.86979492 70.18400391 88.31787109 70.79394531 C103.97217244 92.39058858 111.40170981 116.34051374 116.46533203 142.21337891 C117.87002057 149.29609644 119.57864273 155.97840846 122.19726562 162.73120117 C127.05976204 176.47426053 120.47432658 194.24793685 114.62109375 206.76953125 C113 210 113 210 111 213 C108.53125 213.3359375 108.53125 213.3359375 105.5 213.375 C91.98045857 214.27630276 83.25494358 223.18358904 74.51953125 232.703125 C69.58017158 238.51813707 65.64929446 244.62347652 61.921875 251.25 C58.09875857 256.72047554 51.75872905 258.48273109 45.75 260.875 C44.86973145 261.22578613 43.98946289 261.57657227 43.08251953 261.93798828 C34.87522601 265.14799789 26.55769007 267.88643385 18 270 C17.27192139 270.18691406 16.54384277 270.37382812 15.79370117 270.56640625 C8.3965214 272.27572076 1.127578 272.30603407 -6.4375 272.25 C-7.09818481 272.24656586 -7.75886963 272.24313171 -8.4395752 272.23959351 C-49.27438628 271.99126205 -85.43470626 258.13827832 -117 232 C-117.59039062 231.5565625 -118.18078125 231.113125 -118.7890625 230.65625 C-134.32415739 218.58157909 -144.41829031 198.17841483 -147 179 C-147.52451349 168.70489795 -146.82186882 159.58035649 -143.1015625 149.95703125 C-140.91656936 144.02414038 -139.49389881 138.03840686 -138.125 131.875 C-131.8498314 104.88023539 -121.06639295 81.18985578 -103 60 C-101.93845703 58.73736328 -101.93845703 58.73736328 -100.85546875 57.44921875 C-84.40729734 38.46612775 -58.00262015 23.6955934 -32.875 20.25 C-30.16878361 19.70875672 -29.25047053 19.29578178 -27.4453125 17.1640625 C-26.46663674 15.61405171 -25.51931612 14.0438734 -24.6015625 12.45703125 C-18.69274856 3.39204596 -10.72469824 -1.3872744 0 0 Z " fill="#FDFDFD" transform="translate(191,98)"/>
<path d="M0 0 C0.83402344 0.19722656 1.66804688 0.39445313 2.52734375 0.59765625 C15.32082483 4.71225561 24.19582853 23.65894625 30.00048828 34.9453125 C42.21519463 59.58331385 42.46184943 83.55621413 34.07788086 109.49584961 C24.4372894 138.06262896 10.30884404 162.64817437 -17.3671875 176.7109375 C-24.01582302 179.09976885 -31.53081389 178.30910893 -38.5 178.1875 C-40.00519497 178.1724286 -41.51040451 178.15874453 -43.015625 178.14648438 C-46.67738941 178.11366687 -50.33860021 178.06201989 -54 178 C-53.54181885 177.29439941 -53.0836377 176.58879883 -52.61157227 175.86181641 C-45.76868265 165.23370897 -40.02397789 154.39110068 -35.6875 142.5 C-35.45732178 141.88560059 -35.22714355 141.27120117 -34.98999023 140.63818359 C-30.36715748 127.31045673 -29.48281001 113.78784752 -29.625 99.8125 C-29.62932037 99.00462036 -29.63364075 98.19674072 -29.63809204 97.36437988 C-29.75224104 79.12125413 -31.71794354 62.24527967 -37.40332031 44.86230469 C-37.94824069 43.16154666 -38.44176538 41.4445404 -38.9296875 39.7265625 C-42.17362222 28.32972989 -46.75001055 17.08117913 -52.3125 6.61328125 C-54 3 -54 3 -53 0 C-35.52751306 -4.20541233 -17.41166649 -4.90316015 0 0 Z " fill="#FDFDFD" transform="translate(375,233)"/>
<path d="M0 0 C20.54002505 41.78706579 35.44284394 93.37394048 20.17041016 139.50585938 C16.15235992 151.11791567 10.89291814 161.82905875 4 172 C3.484375 172.95390625 2.96875 173.9078125 2.4375 174.890625 C-1.59488572 178.38018957 -6.12179447 177.52400594 -11.25 177.3125 C-12.796875 177.27866211 -12.796875 177.27866211 -14.375 177.24414062 C-16.91814065 177.18527163 -19.45833113 177.10310065 -22 177 C-20.948125 176.17048828 -20.948125 176.17048828 -19.875 175.32421875 C-8.45511148 166.09210779 0.42592781 155.90148234 9 144 C6.26133009 146.72841272 3.53747382 149.4691771 0.8359375 152.234375 C-12.49489624 165.82267944 -26.29791243 179.61514586 -46.4375 180.3125 C-56.18521691 180.07015345 -62.21460011 176.89334944 -69 170 C-70.1446875 168.8553125 -70.1446875 168.8553125 -71.3125 167.6875 C-76.74402919 159.03728685 -76.87280158 149.86614661 -75.0625 140.125 C-71.33608836 125.23676659 -63.46429481 111.92315572 -54 100 C-53.35546875 99.16082031 -52.7109375 98.32164062 -52.046875 97.45703125 C-46.37308708 90.53167247 -36.94070703 81.95859415 -27.765625 80.69140625 C-23.21393576 80.45816752 -19.80948921 80.53221803 -16.0625 83.3125 C-8.76316983 90.83563039 -9.64447942 101.70752664 -9.70532227 111.49072266 C-9.87412983 120.07725447 -10.73904423 128.51106563 -12 137 C-11.51707679 134.66738977 -11.03860141 132.33400412 -10.5625 130 C-10.42779297 129.35160156 -10.29308594 128.70320312 -10.15429688 128.03515625 C-8.46049685 119.69009271 -7.77482815 111.56826196 -7.6875 103.0625 C-7.65849609 102.12470703 -7.62949219 101.18691406 -7.59960938 100.22070312 C-7.53000626 92.51617317 -9.09170188 86.31222842 -14.25 80.4375 C-14.8275 79.963125 -15.405 79.48875 -16 79 C-14.571966 75.3937206 -13.0783846 71.82012074 -11.5625 68.25 C-4.08903933 50.28283054 -1.89537995 31.9619012 -8.90625 13.48046875 C-10.06380795 9.79695399 -10.19648704 6.83640939 -10 3 C-8.70990357 2.49596232 -7.41786211 1.99690074 -6.125 1.5 C-5.04605469 1.08234375 -5.04605469 1.08234375 -3.9453125 0.65625 C-2 0 -2 0 0 0 Z " fill="#5B5261" transform="translate(321,234)"/>
<path d="M0 0 C9.11192148 6.49733232 15.12343152 15.91789682 18.4609375 26.49609375 C18.65042969 27.0890625 18.83992188 27.68203125 19.03515625 28.29296875 C21.53621026 41.23420235 19.25859467 54.29199769 12.62890625 65.62890625 C4.6541141 77.17426608 -5.90316114 84.78484473 -19.5390625 88.49609375 C-30.70108368 89.92218262 -40.04350736 88.89828328 -49.5390625 82.49609375 C-50.6321875 81.77421875 -51.7253125 81.05234375 -52.8515625 80.30859375 C-62.70680764 69.99496512 -67.16971548 57.54889795 -66.94384766 43.3815918 C-66.3318169 28.72999996 -60.68148831 16.04634438 -50.5390625 5.49609375 C-35.05955348 -7.56162112 -17.88414276 -10.59291533 0 0 Z " fill="#5B5261" transform="translate(138.5390625,188.50390625)"/>
<path d="M0 0 C9.98757663 7.90321281 18.40560926 19.18972743 20.91796875 32 C22.2950136 46.96561954 20.6195189 62.04276141 11.125 74.25 C5.69955875 80.73725683 -1.38836435 85.76296119 -9.875 87.25 C-19.53134474 87.8623046 -28.23946438 88.14733396 -36.875 83.25 C-37.78765625 82.75242187 -38.7003125 82.25484375 -39.640625 81.7421875 C-51.82133871 74.58685021 -58.86096571 64.25999861 -63.875 51.25 C-67.08770986 37.32825729 -64.889602 23.57687155 -57.625 11.375 C-51.29057784 2.14790302 -42.30860361 -4.64478881 -31.29296875 -7.39453125 C-19.91469531 -9.06726612 -9.47170359 -6.60030922 0 0 Z " fill="#5B5261" transform="translate(265.875,191.75)"/>
<path d="M0 0 C0.99257812 0.50789063 1.98515625 1.01578125 3.0078125 1.5390625 C14.81608255 7.54279593 26.52512757 13.19649617 39.3125 16.8125 C40.04130371 17.01963623 40.77010742 17.22677246 41.52099609 17.44018555 C45.95851722 18.63327841 50.29179072 19.35137937 54.86401367 19.79174805 C59.05447615 20.20030497 63.21114777 20.883133 67.375 21.5 C68.57125 21.665 69.7675 21.83 71 22 C71.63671631 22.09120117 72.27343262 22.18240234 72.92944336 22.27636719 C80.12231025 23.203831 87.31852208 23.23238244 94.5625 23.25 C95.5605365 23.25300613 95.5605365 23.25300613 96.57873535 23.256073 C105.59445347 23.26272176 114.10040139 22.76149453 122.890625 20.71484375 C125.6583133 20.0785536 128.17437959 19.77736188 131 19.625 C137.61243266 19.09735257 143.82764128 16.69551897 150.08349609 14.61767578 C153.03453917 13.66657527 156.01360626 12.83278165 159 12 C158.566875 13.216875 158.13375 14.43375 157.6875 15.6875 C156.70443265 18.51271157 155.98495338 21.10374246 155.5546875 24.0703125 C154.01810732 34.19222954 148.90301876 40.01101067 141 46 C130.49827369 53.24459617 120.8964581 57.17927753 108 56 C103.60285537 55.07243144 99.41737295 54.02922028 96.7421875 50.19921875 C96.11373576 48.83933369 95.51664039 47.46458511 94.94921875 46.078125 C91.01272422 37.45995591 81.38325129 33.26470217 73 30 C68.07821665 28.35307274 63.06564197 27.12301479 58 26 C57.23042969 25.80535156 56.46085937 25.61070312 55.66796875 25.41015625 C51.57617714 24.78111069 47.50904972 24.80866365 43.375 24.8125 C42.48361328 24.81330566 41.59222656 24.81411133 40.67382812 24.81494141 C32.77351915 24.88830553 25.0740232 25.17359654 18 29 C18.99 28.67 19.98 28.34 21 28 C25.74469967 27.73235028 30.49846557 27.7547912 35.25 27.75 C35.93228668 27.74899292 36.61457336 27.74798584 37.3175354 27.74694824 C69.77951607 27.77951607 69.77951607 27.77951607 78 36 C78.51668705 42.09690716 78.0778286 45.15069031 74 50 C67.92736736 56.07263264 60.64888442 57.33542876 52.3125 57.5 C32.15638838 57.42613626 4.84093006 54.22940723 -13 44 C-15.94012061 38.11975878 -14.22905552 29.81777713 -12.5625 23.75 C-10.03250574 16.1966838 -5.73547204 5.73547204 0 0 Z " fill="#5B5161" transform="translate(89,346)"/>
<path d="M0 0 C3.64462436 1.3843922 7.11970994 3.00683048 10.6184082 4.71557617 C19.86981561 9.20512069 29.18663495 12.93525128 39 16 C39.68674805 16.22284668 40.37349609 16.44569336 41.08105469 16.67529297 C67.16513814 24.93505043 95.76800323 25.36882492 122.875 25.4375 C123.90288635 25.4436734 124.93077271 25.4498468 125.98980713 25.45620728 C146.04300146 25.53386439 165.65519075 23.59815449 185.171875 18.91796875 C189.76080902 17.8175611 194.36770895 16.89657246 199 16 C196.60956061 20.30279089 194.12040126 24.54454226 191.5625 28.75 C191.00691406 29.67296875 190.45132813 30.5959375 189.87890625 31.546875 C185.92218007 36.71282934 179.62922275 38.53429172 173.75 40.875 C172.86973145 41.22578613 171.98946289 41.57657227 171.08251953 41.93798828 C162.87522601 45.14799789 154.55769007 47.88643385 146 50 C145.27192139 50.18691406 144.54384277 50.37382812 143.79370117 50.56640625 C136.3965214 52.27572076 129.127578 52.30603407 121.5625 52.25 C120.90181519 52.24656586 120.24113037 52.24313171 119.5604248 52.23959351 C78.78869684 51.99164568 42.47793984 38.18615446 11 12 C10.32839844 11.46375 9.65679687 10.9275 8.96484375 10.375 C5.14416091 7.26004839 2.52473801 4.24155986 0 0 Z " fill="#C6D9F1" transform="translate(63,318)"/>
<path d="M0 0 C13.55909265 3.21136405 25.57252961 16.15243398 32.83203125 27.41015625 C39.16670609 37.68082897 44.00703599 48.28151656 47 60 C47.21269531 60.80953125 47.42539062 61.6190625 47.64453125 62.453125 C54.29180088 89.80735688 49.21741053 118.24677401 35.05273438 142.31494141 C32.41804101 146.53216164 29.26260421 150.26368434 26 154 C25.22462891 154.99 25.22462891 154.99 24.43359375 156 C18.92854879 162.84336416 10.8959845 170.05200775 3 174 C0.44637396 174.08658569 -2.0795442 174.11562516 -4.6328125 174.09765625 C-5.76056595 174.09553383 -5.76056595 174.09553383 -6.91110229 174.09336853 C-9.3157751 174.08776465 -11.72035527 174.07521157 -14.125 174.0625 C-15.75390491 174.0574855 -17.38281127 174.0529225 -19.01171875 174.04882812 C-23.00784827 174.03779397 -27.00390842 174.02052679 -31 174 C-27.93738157 171.95825438 -24.90962166 170.58866807 -21.5625 169.0625 C2.50404658 157.44902848 14.88763569 131.31125295 23.46972656 107.33081055 C32.45027714 81.22370935 32.53315666 56.26012701 20.29711914 31.09960938 C15.05200222 20.87399842 8.41798299 11.44516801 1.1796875 2.5390625 C0 1 0 1 0 0 Z " fill="#5C5262" transform="translate(384,237)"/>
<path d="M0 0 C1.16595703 0.32871094 1.16595703 0.32871094 2.35546875 0.6640625 C12.94053908 4.17600831 20.76335755 12.33517919 26 22 C31.81125837 35.55960287 29.96156487 52.63089327 24.8125 66.0625 C21.09152598 74.57381887 14.10399415 85.31740891 5.2890625 89.19140625 C4.53367187 89.45824219 3.77828125 89.72507812 3 90 C1.96427104 88.25877451 0.9468748 86.50663405 -0.0625 84.75 C-0.63097656 83.77546875 -1.19945312 82.8009375 -1.78515625 81.796875 C-3 79 -3 79 -2.921875 76.90234375 C-1.71635432 74.41468031 -0.12292204 72.78382968 1.8125 70.8125 C9.04121113 62.80511263 10.70842516 56.37805783 10.3828125 45.53515625 C9.68955696 39.1331536 7.65003956 35.18457119 2.75 31.0625 C1.8425 30.381875 0.935 29.70125 0 29 C0 28.67 0 28.34 0 28 C2.64 28 5.28 28 8 28 C0.35348421 25.13398958 -8.13199069 24.42478779 -15.8125 27.625 C-22.38575889 31.03827021 -27.94470053 35.62874432 -33 41 C-36.96 37.535 -36.96 37.535 -41 34 C-39.27818019 22.32988795 -33.34236513 14.12475949 -24.03515625 7.01953125 C-16.45867768 1.97829647 -9.13348524 -2.69512679 0 0 Z " fill="#5B5160" transform="translate(294,103)"/>
<path d="M0 0 C10.01045766 6.1586972 15.55708553 15.13450586 19.41113281 26.01416016 C19.74104591 28.66377472 19.12451002 29.81776074 17.66113281 32.02197266 C12.32779948 36.02197266 12.32779948 36.02197266 9.66113281 36.02197266 C8.61615923 34.85231473 7.62503682 33.63429174 6.66113281 32.39697266 C2.08740211 26.99862803 -4.18935705 22.19830888 -11.33886719 21.02197266 C-13.67004233 20.90376448 -16.00472969 20.84683567 -18.33886719 20.83447266 C-19.55574219 20.82029297 -20.77261719 20.80611328 -22.02636719 20.79150391 C-25.11082348 21.00610641 -26.76560595 21.39438492 -29.33886719 23.02197266 C-27.02886719 23.02197266 -24.71886719 23.02197266 -22.33886719 23.02197266 C-22.72558594 23.43447266 -23.11230469 23.84697266 -23.51074219 24.27197266 C-30.50111388 32.02367195 -33.13291656 37.89820624 -32.78027344 48.55712891 C-31.576577 58.0056133 -25.78569646 64.39917533 -19.33886719 71.02197266 C-20.75178813 75.84945256 -22.76860872 79.73820855 -25.33886719 84.02197266 C-31.51644312 82.89877703 -35.60493713 78.31636495 -39.27246094 73.46337891 C-43.13759398 67.60333848 -46.05028065 61.64911187 -48.33886719 55.02197266 C-48.69722656 54.13380859 -49.05558594 53.24564453 -49.42480469 52.33056641 C-50.63015811 47.96759912 -50.68104518 43.90336415 -50.65136719 39.39697266 C-50.64572754 38.50905029 -50.64008789 37.62112793 -50.63427734 36.70629883 C-50.39049322 23.45626962 -47.06548434 14.02415242 -38.02636719 4.27197266 C-26.13365397 -7.068203 -13.9280252 -8.03129423 0 0 Z " fill="#5B5161" transform="translate(89.3388671875,104.97802734375)"/>
<path d="M0 0 C1.47654053 -0.01353516 1.47654053 -0.01353516 2.98291016 -0.02734375 C3.90894043 -0.02347656 4.8349707 -0.01960938 5.7890625 -0.015625 C6.6238916 -0.01336914 7.4587207 -0.01111328 8.31884766 -0.00878906 C10.375 0.25 10.375 0.25 12.375 2.25 C12.375 12.37837212 5.02569527 23.97127298 -1.625 31.25 C-2.615 31.25 -3.605 31.25 -4.625 31.25 C-4.22667969 32.20519531 -3.82835937 33.16039062 -3.41796875 34.14453125 C2.74323475 49.08360565 8.09051018 64.13482114 2.26953125 80.2421875 C-1.51309936 88.73245883 -10.27519663 92.50007563 -18.5625 95.6875 C-23.20376712 97.39041096 -23.20376712 97.39041096 -26.625 96.25 C-26.04492188 95.60998047 -26.04492188 95.60998047 -25.453125 94.95703125 C-17.36529253 85.24762841 -15.9712282 73.89610571 -16.25 61.625 C-16.26651611 60.40151855 -16.28303223 59.17803711 -16.30004883 57.91748047 C-16.62740027 40.80296216 -19.01138906 25.01500421 -23.19775391 8.42211914 C-23.625 6.25 -23.625 6.25 -23.625 2.25 C-15.74216043 0.38738812 -8.07129616 0.0314211 0 0 Z " fill="#5B5160" transform="translate(462.625,307.75)"/>
<path d="M0 0 C0.66 0 1.32 0 2 0 C2.62653984 2.47878625 3.25125672 4.95800986 3.875 7.4375 C4.04902344 8.12521484 4.22304688 8.81292969 4.40234375 9.52148438 C8.49494411 25.81609692 10.17625427 41.54972272 10.375 58.375 C10.40094238 59.52653564 10.42688477 60.67807129 10.45361328 61.86450195 C10.47774368 73.09559586 8.01090482 84.01990429 1.09765625 93.10546875 C-2.77308873 96.60139299 -6.9798424 96.62136653 -12 97 C-14.06401291 97.36658144 -16.12648693 97.74191207 -18.1875 98.125 C-25.79419369 99.29808047 -33.32854445 99.17726085 -41 99 C-38.52745713 96.5097328 -36.04426773 94.04178543 -33.4921875 91.6328125 C-15.30512552 74.20580684 -1.0040995 50.21377048 0.15869141 24.48925781 C0.19570121 20.76163073 0.17524027 17.03994123 0.125 13.3125 C0.11597656 12.02666016 0.10695313 10.74082031 0.09765625 9.41601562 C0.0743189 6.27714268 0.04158033 3.13867524 0 0 Z " fill="#3D3641" transform="translate(437,311)"/>
<path d="M0 0 C4.72202382 3.28488613 9.03291886 7.47375658 10.875 13 C11.51506979 20.67034455 11.77143266 27.71481305 6.875 34 C2.65113825 38.47409053 -1.56339595 41.55415146 -7.80859375 42.3359375 C-13.76043859 42.42036083 -17.55829211 42.23255853 -22.125 38 C-26.72108257 31.99955887 -28.42144871 27.55944198 -28.125 20 C-28.9603125 19.9071875 -28.9603125 19.9071875 -29.8125 19.8125 C-33.18302012 18.6282632 -34.8937468 16.74125393 -37.125 14 C-36.9375 11.6875 -36.9375 11.6875 -36.125 10 C-35.5990625 10.7734375 -35.5990625 10.7734375 -35.0625 11.5625 C-33.08235938 13.30676036 -33.08235938 13.30676036 -29.8125 13.1875 C-25.23094899 11.71208527 -24.3219508 9.91866308 -21.7109375 6.078125 C-16.10682447 -1.26519552 -8.51529381 -2.72489402 0 0 Z " fill="#1F1E1D" transform="translate(135.125,212)"/>
<path d="M0 0 C5.57304366 2.27692445 8.00809327 6.280831 10.921875 11.3984375 C12.6458147 13.77447582 12.6458147 13.77447582 15.8203125 13.8046875 C18.62729164 13.46128048 20.37024812 12.91458289 22.7578125 11.4453125 C22.46602016 14.94682054 21.97494783 16.22817717 19.4453125 18.7578125 C16.7578125 20.4453125 16.7578125 20.4453125 12.7578125 20.4453125 C12.8403125 21.6003125 12.9228125 22.7553125 13.0078125 23.9453125 C12.98814144 29.50238734 11.10997947 34.02114042 7.2265625 38.0234375 C2.59026264 41.97792856 -0.47043207 42.93482017 -6.4453125 42.83984375 C-12.55274715 41.97832015 -17.08689335 38.78951689 -21.203125 34.3125 C-25.33332656 28.43714286 -26.15273202 22.8956795 -25.828125 15.79296875 C-24.67558674 9.2081335 -21.26739274 5.37632215 -16.5546875 0.8828125 C-11.08244107 -1.49193595 -5.76632367 -1.42651213 0 0 Z " fill="#1E1E1C" transform="translate(238.2421875,213.5546875)"/>
<path d="M0 0 C7.82397863 3.43491745 13.54906577 8.13186995 17 16 C17.62847712 20.47789947 17.33104782 22.40411393 15.125 26.375 C13 29 13 29 11 30 C9.48282588 30.10503408 7.9611844 30.14870038 6.44042969 30.16113281 C5.01558258 30.17554413 5.01558258 30.17554413 3.56195068 30.19024658 C2.00761322 30.1966214 2.00761322 30.1966214 0.421875 30.203125 C-1.19361237 30.21167511 -1.19361237 30.21167511 -2.84173584 30.22039795 C-5.13845841 30.22987093 -7.43519471 30.236391 -9.73193359 30.24023438 C-13.1666042 30.24976851 -16.60063075 30.28069424 -20.03515625 30.3125 C-69.99636298 30.55453162 -69.99636298 30.55453162 -86 17 C-88.82775885 14.02722788 -90.13989934 11.94978265 -91 8 C-90.38979004 8.18828369 -89.77958008 8.37656738 -89.15087891 8.57055664 C-49.30923208 21.48001187 -49.30923208 21.48001187 -9.140625 17.25 C-4.87634581 14.75990996 -2.65014126 12.31007639 -1.265625 7.390625 C-0.7514503 4.93092438 -0.32976534 2.49046657 0 0 Z " fill="#3D3641" transform="translate(167,382)"/>
<path d="M0 0 C5.90895246 2.5582821 10.9481231 7.04379116 15 12 C15.495 13.485 15.495 13.485 16 15 C15.50113281 15.45246094 15.00226563 15.90492188 14.48828125 16.37109375 C5.8748081 24.55157364 -1.41768454 34.12652681 -8 44 C-11.53480483 42.54403414 -13.31988133 40.70852557 -15.625 37.6875 C-16.21539062 36.92824219 -16.80578125 36.16898438 -17.4140625 35.38671875 C-22.00790596 28.47332379 -21.94368653 21.00880866 -21 13 C-19.07538598 8.02066053 -16.06037276 4.39441517 -11.625 1.4375 C-7.55849104 -0.17508114 -4.27219976 -0.93300914 0 0 Z " fill="#3D3641" transform="translate(81,129)"/>
<path d="M0 0 C4.3717041 4.05943952 8.18454979 8.27119707 8.625 14.4375 C8.71007812 15.06011719 8.79515625 15.68273437 8.8828125 16.32421875 C9.5414493 24.29945132 5.90457292 31.47098951 0.890625 37.53515625 C-0.75 39.1875 -0.75 39.1875 -3.375 41.4375 C-7.15799242 39.96995984 -8.39729576 38.1690835 -10.375 34.6875 C-13.82302761 29.00088366 -17.87182695 24.15087222 -22.28710938 19.20996094 C-24.76130863 16.42129893 -26.95480108 13.94065734 -28.375 10.4375 C-20.82044918 0.97708986 -12.51053198 -5.79191295 0 0 Z " fill="#3D3641" transform="translate(293.375,134.5625)"/>
<path d="M0 0 C9.98757663 7.90321281 18.40560926 19.18972743 20.91796875 32 C22.2950136 46.96561954 20.6195189 62.04276141 11.125 74.25 C5.69955875 80.73725683 -1.38836435 85.76296119 -9.875 87.25 C-19.53134474 87.8623046 -28.23946438 88.14733396 -36.875 83.25 C-37.78765625 82.75242187 -38.7003125 82.25484375 -39.640625 81.7421875 C-51.82133871 74.58685021 -58.86096571 64.25999861 -63.875 51.25 C-67.08770986 37.32825729 -64.889602 23.57687155 -57.625 11.375 C-51.29057784 2.14790302 -42.30860361 -4.64478881 -31.29296875 -7.39453125 C-19.91469531 -9.06726612 -9.47170359 -6.60030922 0 0 Z M-40.875 0.25 C-41.55820313 0.67410156 -42.24140625 1.09820312 -42.9453125 1.53515625 C-52.84005453 8.28841174 -58.80046478 18.18982391 -61.125 29.8125 C-63.29960292 43.9572145 -60.07900488 55.49092633 -51.875 67.25 C-45.10017204 75.8488201 -34.71109081 82.47046603 -23.875 84.25 C-12.72805898 85.35093245 -3.55830374 83.20917831 5.2421875 76.13671875 C13.56654849 67.79508731 17.43850068 57.08776404 17.59326172 45.4621582 C17.58311035 44.587771 17.57295898 43.71338379 17.5625 42.8125 C17.55492676 41.89235107 17.54735352 40.97220215 17.53955078 40.02416992 C17.37211751 33.11968628 16.42425153 27.39767366 13.125 21.25 C12.68929687 20.3940625 12.25359375 19.538125 11.8046875 18.65625 C6.0225891 8.16632284 -2.28114377 0.57641104 -13.72265625 -3.390625 C-22.9298481 -4.92794197 -32.87386179 -4.90736017 -40.875 0.25 Z " fill="#282826" transform="translate(265.875,191.75)"/>
<path d="M0 0 C9.11192148 6.49733232 15.12343152 15.91789682 18.4609375 26.49609375 C18.65042969 27.0890625 18.83992188 27.68203125 19.03515625 28.29296875 C21.53621026 41.23420235 19.25859467 54.29199769 12.62890625 65.62890625 C4.6541141 77.17426608 -5.90316114 84.78484473 -19.5390625 88.49609375 C-30.70108368 89.92218262 -40.04350736 88.89828328 -49.5390625 82.49609375 C-50.6321875 81.77421875 -51.7253125 81.05234375 -52.8515625 80.30859375 C-62.70680764 69.99496512 -67.16971548 57.54889795 -66.94384766 43.3815918 C-66.3318169 28.72999996 -60.68148831 16.04634438 -50.5390625 5.49609375 C-35.05955348 -7.56162112 -17.88414276 -10.59291533 0 0 Z M-51.76953125 12.00390625 C-58.13395739 20.19526897 -62.92192354 30.00473145 -63.5390625 40.49609375 C-63.6628125 42.25953125 -63.6628125 42.25953125 -63.7890625 44.05859375 C-63.56867634 55.43051942 -60.36107517 67.03522669 -52.65234375 75.58984375 C-44.38097862 83.25995051 -36.17791364 85.90258409 -25.046875 85.765625 C-12.84681122 84.82820362 -3.02026557 78.47630751 5.2734375 69.74609375 C13.63837496 59.53121819 17.56359615 47.58797743 16.4609375 34.49609375 C14.55978658 22.29038532 9.36957185 11.17572073 -0.5390625 3.49609375 C-18.81759835 -7.39498036 -37.71700144 -3.79596089 -51.76953125 12.00390625 Z " fill="#292927" transform="translate(138.5390625,188.50390625)"/>
<path d="M0 0 C0.33 0 0.66 0 1 0 C1.07476562 0.88300781 1.14953125 1.76601563 1.2265625 2.67578125 C2.46367229 13.96744024 5.95179313 21.18974141 13 30 C-9.44 30 -31.88 30 -55 30 C-54.34 28.02 -53.68 26.04 -53 24 C-52.62468554 21.67305036 -52.28082798 19.34023315 -52 17 C-50.783125 17.495 -49.56625 17.99 -48.3125 18.5 C-38.73592956 21.62214209 -29.90306233 20.79420644 -20.84765625 16.546875 C-13.39984371 12.50114967 -7.30512694 7.66358531 -1.49609375 1.50390625 C-1.00238281 1.00761719 -0.50867188 0.51132812 0 0 Z " fill="#3E3742" transform="translate(240,381)"/>
<path d="M0 0 C11.22 0 22.44 0 34 0 C35 4 35 4 34.03125 5.9296875 C30.50896325 10.40442934 26.84778548 14.90117345 22 18 C21.01 18 20.02 18 19 18 C19.11306697 19.95894361 19.11306697 19.95894361 20 22 C25.4393147 24.7781446 31.03689074 24.54870288 37 24 C40.52248006 22.74505538 40.52248006 22.74505538 43 21 C43.66 20.67 44.32 20.34 45 20 C43.73026444 23.80920668 41.29054969 25.83859023 38.05859375 28.015625 C33.81048923 30.04697669 29.4418425 29.75797861 25.01171875 28.3828125 C23.30347443 27.67317782 21.64797892 26.84014612 20 26 C19.195625 25.608125 18.39125 25.21625 17.5625 24.8125 C17.046875 24.544375 16.53125 24.27625 16 24 C15.443125 24.45375 14.88625 24.9075 14.3125 25.375 C10.09606514 28.33790018 6.3518235 29.50941644 1.125 29.390625 C-4.1515585 28.42066939 -8.3862134 24.7916961 -12 21 C-11.67 20.34 -11.34 19.68 -11 19 C-10.55011719 19.3609375 -10.10023438 19.721875 -9.63671875 20.09375 C-4.63189683 23.70444317 -0.72501638 24.71604242 5.4375 24.43359375 C9.23057939 23.79177696 11.14480908 22.55464451 14 20 C14.33 19.34 14.66 18.68 15 18 C14.41089844 17.88785156 13.82179687 17.77570313 13.21484375 17.66015625 C7.01099096 15.8110361 3.05524138 10.06877306 -0.25 4.83203125 C-1 3 -1 3 0 0 Z " fill="#20201E" transform="translate(162,245)"/>
<path d="M0 0 C4.72158103 2.35584127 7.06357506 6.22532937 9 11 C9.43942703 13.94845942 9.47478498 16.83529405 9.4375 19.8125 C9.43427734 20.60769043 9.43105469 21.40288086 9.42773438 22.22216797 C9.28294895 28.31438934 8.13993745 32.70135556 5 38 C1.9995107 35.15847702 -0.34722596 32.21252078 -2.6875 28.8125 C-7.58834365 21.9696398 -13.15524001 15.93316036 -20 11 C-16.24173071 2.50631141 -9.28133552 -2.20762084 0 0 Z " fill="#5A5160" transform="translate(419,230)"/>
<path d="M0 0 C12.30902035 -1.22545557 21.55585892 4.00896031 31.0234375 11.453125 C44.25948592 22.77845777 44.25948592 22.77845777 46 28 C41.38 30.64 36.76 33.28 32 36 C31.46375 34.39125 30.9275 32.7825 30.375 31.125 C24.88242858 16.26835716 16.49714624 8.76691056 2.2734375 2.03125 C1.52320312 1.6909375 0.77296875 1.350625 0 1 C0 0.67 0 0.34 0 0 Z " fill="#3D3641" transform="translate(77,99)"/>
<path d="M0 0 C-3.00171021 2.00114014 -6.04556735 3.59561849 -9.25 5.25 C-20.47393006 11.25054523 -27.78699849 18.8334251 -31.9375 31.1875 C-32.288125 32.445625 -32.63875 33.70375 -33 35 C-39.93 31.04 -39.93 31.04 -47 27 C-44.45404074 22.75673457 -42.0878437 19.86110555 -38.5 16.625 C-37.97027588 16.14603271 -37.44055176 15.66706543 -36.89477539 15.17358398 C-26.23200175 5.74509659 -14.58883888 -1.13925857 0 0 Z " fill="#3D3641" transform="translate(286,102)"/>
<path d="M0 0 C3.375 1.0625 3.375 1.0625 5.3125 2.625 C6.85167861 6.1560568 6.9265313 9.27169329 6.375 13.0625 C5.3125 15.5625 5.3125 15.5625 3.375 17.0625 C-1.00790313 17.79298385 -2.90297254 17.56945545 -6.5625 15 C-8.625 12.0625 -8.625 12.0625 -9.25 8.5625 C-8.625 5.0625 -8.625 5.0625 -6.5625 2.0625 C-3.625 0.0625 -3.625 0.0625 0 0 Z " fill="#F6F6F6" transform="translate(227.625,219.9375)"/>
<path d="M0 0 C1.32 0 2.64 0 4 0 C4.061875 0.61875 4.12375 1.2375 4.1875 1.875 C4.80800719 4.20855135 4.80800719 4.20855135 7.1796875 5.11328125 C13.22364427 7.01352805 19.75902009 6.88866445 25.625 4.5625 C26.40875 4.046875 27.1925 3.53125 28 3 C28.66 2.67 29.32 2.34 30 2 C28.73026444 5.80920668 26.29054969 7.83859023 23.05859375 10.015625 C18.81048923 12.04697669 14.4418425 11.75797861 10.01171875 10.3828125 C8.30347443 9.67317782 6.64797892 8.84014612 5 8 C4.195625 7.608125 3.39125 7.21625 2.5625 6.8125 C2.046875 6.544375 1.53125 6.27625 1 6 C0.443125 6.45375 -0.11375 6.9075 -0.6875 7.375 C-4.90393486 10.33790018 -8.6481765 11.50941644 -13.875 11.390625 C-19.1515585 10.42066939 -23.3862134 6.7916961 -27 3 C-26.67 2.34 -26.34 1.68 -26 1 C-25.55011719 1.3609375 -25.10023438 1.721875 -24.63671875 2.09375 C-19.63189683 5.70444317 -15.72501638 6.71604242 -9.5625 6.43359375 C-5.76942061 5.79177696 -3.85519092 4.55464451 -1 2 C-0.67 1.34 -0.34 0.68 0 0 Z " fill="#343432" transform="translate(177,263)"/>
<path d="M0 0 C4.15099737 0.84714232 5.59192103 2.20978789 8.0625 5.625 C8.6875 9.125 8.6875 9.125 8.0625 12.625 C5.59192103 16.04021211 4.15099737 17.40285768 0 18.25 C-2.9375 17.625 -2.9375 17.625 -5.3125 15.5625 C-7.35299207 11.87391818 -7.53205887 9.78691207 -6.9375 5.625 C-4.97641618 2.07996386 -3.99360495 0.84970318 0 0 Z " fill="#F9F9F9" transform="translate(131.9375,218.375)"/>
<path d="M0 0 C2.80125118 1.54246109 3.50236711 2.37855067 5.375 5.1875 C4.116875 4.8575 2.85875 4.5275 1.5625 4.1875 C-5.34713374 2.69910405 -12.49518616 1.52250056 -18.875 5.1875 C-23.52263071 8.53187757 -28.04678629 13.03107259 -30.625 18.1875 C-31.285 18.1875 -31.945 18.1875 -32.625 18.1875 C-30.60281179 9.86763995 -26.81533258 4.30588704 -19.9375 -0.8125 C-13.32503678 -2.80871531 -6.32524219 -3.00102732 0 0 Z " fill="#1C1C1A" transform="translate(419.625,198.8125)"/>
<path d="M0 0 C5.94 0.99 5.94 0.99 12 2 C12.390625 8.73828125 12.390625 8.73828125 12 11 C9.26055806 13.70743912 6.07868165 14.93257324 2.5 16.25 C1.09234375 16.78367188 1.09234375 16.78367188 -0.34375 17.328125 C-3.07674477 18.01941191 -4.39280344 17.95925156 -7 17 C-1.25 13 -1.25 13 1 13 C1.76522801 9.64541845 1.76522801 9.64541845 2 6 C0.70735301 4.03568595 0.70735301 4.03568595 -1 3 C-0.67 2.01 -0.34 1.02 0 0 Z " fill="#C2D4EB" transform="translate(195,117)"/>
<path d="M0 0 C4.25014075 1.51790741 5.95899274 4.06377171 8 8 C8.81073912 14.38457059 7.74715699 17.79561529 4 23 C1.75 24.4375 1.75 24.4375 0 25 C0.33 24.0925 0.66 23.185 1 22.25 C3.03490282 15.11330512 3.02980788 6.81706773 0 0 Z " fill="#1C1C1A" transform="translate(340,131)"/>
<path d="M0 0 C3.1875 1.4375 3.1875 1.4375 5 3 C5 3.33 5 3.66 5 4 C4.154375 4.02578125 3.30875 4.0515625 2.4375 4.078125 C-4.80984762 4.44049238 -9.7596804 5.30203283 -16 9 C-16.99 9.33 -17.98 9.66 -19 10 C-17.89596362 6.13587266 -16.17401795 3.44575416 -12.9765625 0.94921875 C-8.86945473 -1.023167 -4.41441082 -0.63733895 0 0 Z " fill="#1C1C1A" transform="translate(408,187)"/>
<path d="M0 0 C1.17852539 0.00290039 1.17852539 0.00290039 2.38085938 0.00585938 C3.59805664 0.02422852 3.59805664 0.02422852 4.83984375 0.04296875 C6.0628418 0.04393555 6.0628418 0.04393555 7.31054688 0.04492188 C10.79134696 0.07066321 13.44296711 0.11900987 16.77734375 1.23046875 C16.77734375 1.89046875 16.77734375 2.55046875 16.77734375 3.23046875 C12.75651996 4.18056889 8.96734628 4.39556103 4.83984375 4.41796875 C3.65519531 4.43214844 2.47054687 4.44632813 1.25 4.4609375 C-2.24033091 4.22929574 -4.97276565 3.48577001 -8.22265625 2.23046875 C-5.34860502 0.59883539 -3.29851398 -0.0189805 0 0 Z " fill="#323232" transform="translate(175.22265625,245.76953125)"/>
<path d="M0 0 C2.58656673 0.22288501 5.15952778 0.41314385 7.75 0.5625 C8.44738281 0.60568359 9.14476563 0.64886719 9.86328125 0.69335938 C11.57531922 0.79889596 13.28763561 0.8998991 15 1 C15 1.33 15 1.66 15 2 C14.33468262 2.02505615 13.66936523 2.0501123 12.98388672 2.07592773 C9.94742513 2.19251136 6.91122654 2.31495351 3.875 2.4375 C2.82828125 2.47681641 1.7815625 2.51613281 0.703125 2.55664062 C-4.27193842 2.76131096 -9.10770149 2.99276207 -14 4 C-12.66065756 1.32131513 -11.48307603 1.25045922 -8.6875 0.3125 C-7.90761719 0.04050781 -7.12773438 -0.23148437 -6.32421875 -0.51171875 C-3.69608498 -1.06384769 -2.55850278 -0.72057654 0 0 Z " fill="#302D30" transform="translate(118,372)"/>
<path d="M0 0 C5.92759664 0.30397931 11.51163045 2.90035684 17 5 C12.90913548 6.67641098 9.28488982 5.2409319 5.25 4.0625 C4.20392578 3.76956055 4.20392578 3.76956055 3.13671875 3.47070312 C1.42201027 2.9891754 -0.28934877 2.49574843 -2 2 C-1.34 1.34 -0.68 0.68 0 0 Z " fill="#2C2B2D" transform="translate(124,360)"/>
<path d="M0 0 C0 0.66 0 1.32 0 2 C-3.3 2.33 -6.6 2.66 -10 3 C-9 1 -9 1 -5.5625 -0.1875 C-2 -1 -2 -1 0 0 Z " fill="#383A3D" transform="translate(225,364)"/>
<path d="M0 0 C0.33 0.66 0.66 1.32 1 2 C-3.455 2.495 -3.455 2.495 -8 3 C-5.45189726 -0.82215411 -4.39145359 -1.46381786 0 0 Z " fill="#2B2B2C" transform="translate(232,362)"/>
</svg>
