<?xml version="1.0" encoding="UTF-8"?>
<svg version="1.1" xmlns="http://www.w3.org/2000/svg" width="512" height="512">
<path d="M0 0 C0.88945312 0.40734375 1.77890625 0.8146875 2.6953125 1.234375 C21.70489655 10.65603473 35.76791455 28.1667132 42.71582031 48.04833984 C48.41021327 66.19429714 48.80488792 85.05984095 42 103 C44.33327683 103.31292645 46.66661934 103.62534946 49 103.9375 C50.90494792 104.19262695 52.80989583 104.44775391 54.71484375 104.70288086 C56.68830855 104.95947345 58.66594388 105.18360429 60.64404297 105.40161133 C65.42056286 105.99990027 70.07015476 107.02894013 74.7578125 108.109375 C75.66449677 108.31806213 76.57118103 108.52674927 77.50534058 108.74176025 C79.41023221 109.1830718 81.31453323 109.62693977 83.21826172 110.07324219 C85.15791705 110.52484009 87.09935623 110.96884285 89.04248047 111.40527344 C91.86837561 112.04003793 94.68825126 112.69711188 97.5078125 113.359375 C98.37044708 113.54916931 99.23308167 113.73896362 100.12185669 113.93450928 C107.38685412 115.68790945 111.8618798 118.755487 116.04296875 125.1171875 C116.55335693 125.88087646 117.06374512 126.64456543 117.58959961 127.43139648 C118.11690674 128.23778564 118.64421387 129.0441748 119.1875 129.875 C120.33649133 131.59382029 121.48755909 133.31125422 122.640625 135.02734375 C123.20845703 135.87409668 123.77628906 136.72084961 124.36132812 137.59326172 C126.6381021 140.93718869 129.02141946 144.19345951 131.4375 147.4375 C136.30859486 153.99869416 140.99656902 160.67814058 145.66552734 167.38427734 C149.57304129 172.98728385 153.5428874 178.53948899 157.5625 184.0625 C162.02596463 190.19942511 166.3632312 196.40892255 170.625 202.6875 C174.88660101 208.96528788 179.24925211 215.14095642 183.77050781 221.23388672 C188.18578972 227.20292887 192.42353964 233.29140872 196.66552734 239.38427734 C200.57304129 244.98728385 204.5428874 250.53948899 208.5625 256.0625 C213.59782496 262.98568966 218.4548433 270.01573991 223.26147461 277.09912109 C227.04197634 282.65117887 230.95286092 288.0863904 234.95507812 293.47998047 C238.44024684 298.19317071 241.80476725 302.98183794 245.125 307.8125 C245.5988916 308.50110107 246.0727832 309.18970215 246.56103516 309.89916992 C251.36687198 316.9268408 251.21382051 321.38720105 251.25 329.8125 C251.2809375 331.59624023 251.2809375 331.59624023 251.3125 333.41601562 C251.31765625 334.56392578 251.3228125 335.71183594 251.328125 336.89453125 C251.3374707 337.94487549 251.34681641 338.99521973 251.35644531 340.07739258 C250.94816829 343.42498455 249.96118464 345.28393406 248 348 C244.54862531 350.58853102 241.19119032 350.18349888 237 350 C234.04751657 349.47464004 231.17007692 348.72404574 228.2734375 347.95214844 C227.42844193 347.73424149 226.58344635 347.51633453 225.71284485 347.29182434 C222.93140118 346.57239653 220.15326181 345.84098513 217.375 345.109375 C215.4257261 344.6025644 213.47625978 344.09649332 211.52661133 343.59112549 C206.39464095 342.25868991 201.26540459 340.91600977 196.13665771 339.57122803 C190.96385401 338.21690385 185.78843677 336.87264717 180.61328125 335.52734375 C173.87125778 333.77319634 167.12959391 332.01769078 160.39025879 330.25323868 C158.66296827 329.80125928 156.93535659 329.35050518 155.20739746 328.90108871 C151.31226623 327.88492974 147.42732147 326.84654702 143.55712891 325.7388916 C142.87101028 325.54560902 142.18489166 325.35232643 141.47798157 325.1531868 C139.66366389 324.63944535 137.85278394 324.11360501 136.04223633 323.58673096 C132.87966485 322.97679195 131.0424514 323.00663751 128 324 C125.71192358 325.71322554 123.61823171 327.41297203 121.5 329.3125 C120.38589719 330.28830931 119.27132078 331.2635782 118.15625 332.23828125 C117.62225586 332.70733887 117.08826172 333.17639648 116.53808594 333.65966797 C113.35120914 336.43680347 110.71678193 338.72431464 106.75 340.25 C102.57432331 341.9238704 99.71304552 344.73214255 96.4453125 347.76171875 C92.13288909 351.70903283 87.54133024 355.3212688 83 359 C81.29072718 360.39468273 79.58240549 361.79053187 77.875 363.1875 C76.9675 363.93 76.06 364.6725 75.125 365.4375 C71.3697459 368.51444904 67.62246725 371.60107613 63.875 374.6875 C63.15393066 375.28103271 62.43286133 375.87456543 61.68994141 376.48608398 C57.98349794 379.53799227 54.28106932 382.59455933 50.5859375 385.66015625 C47.0606883 388.5842369 43.51666475 391.48441909 39.96630859 394.37792969 C38.0868874 395.92832383 36.23923508 397.51015365 34.39453125 399.1015625 C33.28454316 400.02686881 32.17390709 400.95139857 31.0625 401.875 C30.12535156 402.67679687 29.18820312 403.47859375 28.22265625 404.3046875 C20.42694663 408.40570323 10.47993173 405.44948799 2.21061707 403.96284485 C0.10810139 403.58509945 -1.99607643 403.21823293 -4.10095215 402.85388184 C-9.32430628 401.94750767 -14.54443356 401.02308866 -19.76470947 400.09918213 C-24.1914259 399.31644921 -28.61926746 398.54074502 -33.04878235 397.77400208 C-35.10488474 397.41521321 -37.15902194 397.04643083 -39.21325684 396.67712402 C-45.48544869 395.58803167 -51.4013383 394.82332173 -57.76571655 394.99597168 C-61.43155323 395.00258103 -64.94055345 394.35420268 -68.53515625 393.6875 C-69.29871933 393.55432373 -70.06228241 393.42114746 -70.84898376 393.28393555 C-73.25498039 392.86393146 -75.65886135 392.43328016 -78.0625 392 C-81.23939052 391.42860072 -84.41791513 390.86778787 -87.59765625 390.3125 C-88.30729019 390.18125732 -89.01692413 390.05001465 -89.74806213 389.91479492 C-98.42499536 388.39934428 -105.11754539 388.41689196 -113.13671875 392.26171875 C-113.8852713 392.6034613 -114.63382385 392.94520386 -115.40505981 393.29730225 C-117.83975912 394.4123843 -120.26317915 395.55005599 -122.6875 396.6875 C-124.4003724 397.47537749 -126.11417195 398.26124222 -127.82885742 399.04516602 C-130.42795726 400.23367286 -133.02647709 401.42327533 -135.62220764 402.61912537 C-142.97254295 406.00489227 -150.37517271 409.24755998 -157.8125 412.4375 C-160.20218225 413.46661391 -162.59149383 414.4965889 -164.98046875 415.52734375 C-165.59525589 415.79258347 -166.21004303 416.05782318 -166.84346008 416.33110046 C-172.42212353 418.74197506 -177.98728203 421.18327262 -183.55078125 423.62890625 C-184.46598038 424.03120956 -185.3811795 424.43351288 -186.32411194 424.8480072 C-190.84818133 426.83744163 -195.37135726 428.82888973 -199.89379883 430.82202148 C-203.89199167 432.58305196 -207.89322888 434.33692923 -211.89804077 436.08285522 C-213.24249563 436.66947923 -214.5861812 437.2578715 -215.92886353 437.84854126 C-217.5939041 438.57954369 -219.26357702 439.29996972 -220.93359375 440.01953125 C-222.2647522 440.59731323 -222.2647522 440.59731323 -223.62280273 441.18676758 C-227.66829772 442.5707199 -229.92785272 442.35738243 -234 441 C-237.96939419 437.51096827 -239.30726792 435.12184494 -239.70539856 429.83770752 C-239.73999016 427.72183911 -239.73463253 425.60510024 -239.69848633 423.48925781 C-239.67968147 421.72445509 -239.67968147 421.72445509 -239.66049671 419.92399979 C-239.21351793 404.00662384 -236.16979373 388.43097504 -233.30437446 372.80717754 C-232.48087383 368.2874493 -231.68484052 363.76287376 -230.88545227 359.23883057 C-229.36226806 350.64157696 -227.81588461 342.04867599 -226.26048261 333.45719934 C-224.36412817 322.97629368 -222.49729229 312.49017379 -220.63085938 302.00390625 C-218.64729407 290.8648017 -216.66015804 279.72638271 -214.65475464 268.59118652 C-211.73844367 252.39137517 -208.83804117 236.19018454 -206.06654346 219.96487188 C-205.67659607 217.68268773 -205.28545692 215.40071098 -204.89395237 213.11879349 C-203.44905234 204.69903518 -203.44905234 204.69903518 -202.02890587 196.27507782 C-201.41045731 192.57671906 -200.78018305 188.88055099 -200.14770508 185.18457031 C-199.97243853 184.11124199 -199.79717197 183.03791367 -199.61659431 181.93206024 C-198.57151576 175.89983678 -197.51542929 171.46096133 -193.015625 167.05859375 C-188.48239306 163.96401703 -183.63670062 161.54931524 -178.75 159.0625 C-170.74315217 154.97779615 -170.74315217 154.97779615 -162.84375 150.69140625 C-158.55292897 148.28227898 -154.2107115 145.97698013 -149.859375 143.6796875 C-149.1239447 143.29137253 -148.3885144 142.90305756 -147.63079834 142.50297546 C-144.55759157 140.88141495 -141.48358396 139.2613787 -138.40917969 137.64208984 C-136.14194745 136.44748051 -133.87562157 135.25116538 -131.609375 134.0546875 C-130.91970642 133.6921286 -130.23003784 133.3295697 -129.51947021 132.95602417 C-126.68653322 131.45965344 -123.92267699 129.95189899 -121.20019531 128.25830078 C-118.60985184 126.77687266 -116.93698849 126.74825813 -114 127 C-114 127.66 -114 128.32 -114 129 C-108.72 129.33 -103.44 129.66 -98 130 C-98.99 128.989375 -99.98 127.97875 -101 126.9375 C-114.98800938 110.79748918 -120.12923679 88.91179236 -119 68 C-116.64084374 44.0209431 -105.55124586 24.44023423 -87.3125 8.75 C-62.32696031 -10.25643273 -28.1533619 -13.56976446 0 0 Z M-63 55 C-68.15187725 63.07048661 -69.86573056 70.48933138 -69 80 C-66.89505295 89.24401444 -62.14692525 97.43777278 -54.25 102.875 C-45.90484405 107.50583798 -37.3423785 109.03758107 -28 107 C-24.80180506 105.96288567 -21.93112314 104.64076153 -19 103 C-18.37222656 102.65066406 -17.74445313 102.30132812 -17.09765625 101.94140625 C-9.70230988 97.26469924 -5.62500225 89.78572295 -3.46875 81.46875 C-1.89942685 73.20364809 -2.99521218 65.12635012 -7.2890625 57.80078125 C-12.85207279 49.99174274 -19.54126392 44.2906871 -29 42 C-43.3019167 40.39082912 -53.48474677 44.15193648 -63 55 Z " fill="#C5C845" transform="translate(250,38)"/>
<path d="M0 0 C6.03347631 0.65522701 11.84644011 1.74689224 17.7578125 3.109375 C18.66449677 3.31806213 19.57118103 3.52674927 20.50534058 3.74176025 C22.41023221 4.1830718 24.31453323 4.62693977 26.21826172 5.07324219 C28.15791705 5.52484009 30.09935623 5.96884285 32.04248047 6.40527344 C34.86837561 7.04003793 37.68825126 7.69711188 40.5078125 8.359375 C41.37044708 8.54916931 42.23308167 8.73896362 43.12185669 8.93450928 C50.38685412 10.68790945 54.8618798 13.755487 59.04296875 20.1171875 C59.80855103 21.26272095 59.80855103 21.26272095 60.58959961 22.43139648 C61.11690674 23.23778564 61.64421387 24.0441748 62.1875 24.875 C63.33649133 26.59382029 64.48755909 28.31125422 65.640625 30.02734375 C66.20845703 30.87409668 66.77628906 31.72084961 67.36132812 32.59326172 C69.6381021 35.93718869 72.02141946 39.19345951 74.4375 42.4375 C79.30859486 48.99869416 83.99656902 55.67814058 88.66552734 62.38427734 C92.57304129 67.98728385 96.5428874 73.53948899 100.5625 79.0625 C105.02596463 85.19942511 109.3632312 91.40892255 113.625 97.6875 C117.88660101 103.96528788 122.24925211 110.14095642 126.77050781 116.23388672 C131.18578972 122.20292887 135.42353964 128.29140872 139.66552734 134.38427734 C143.57304129 139.98728385 147.5428874 145.53948899 151.5625 151.0625 C156.59782496 157.98568966 161.4548433 165.01573991 166.26147461 172.09912109 C170.04197634 177.65117887 173.95286092 183.0863904 177.95507812 188.47998047 C181.44024684 193.19317071 184.80476725 197.98183794 188.125 202.8125 C188.5988916 203.50110107 189.0727832 204.18970215 189.56103516 204.89916992 C194.36687198 211.9268408 194.21382051 216.38720105 194.25 224.8125 C194.2809375 226.59624023 194.2809375 226.59624023 194.3125 228.41601562 C194.31765625 229.56392578 194.3228125 230.71183594 194.328125 231.89453125 C194.3374707 232.94487549 194.34681641 233.99521973 194.35644531 235.07739258 C193.94816829 238.42498455 192.96118464 240.28393406 191 243 C187.54862531 245.58853102 184.19119032 245.18349888 180 245 C177.04751657 244.47464004 174.17007692 243.72404574 171.2734375 242.95214844 C170.42844193 242.73424149 169.58344635 242.51633453 168.71284485 242.29182434 C165.93140118 241.57239653 163.15326181 240.84098513 160.375 240.109375 C158.4257261 239.6025644 156.47625978 239.09649332 154.52661133 238.59112549 C149.39464095 237.25868991 144.26540459 235.91600977 139.13665771 234.57122803 C133.96385401 233.21690385 128.78843677 231.87264717 123.61328125 230.52734375 C116.87125778 228.77319634 110.12959391 227.01769078 103.39025879 225.25323868 C101.66296827 224.80125928 99.93535659 224.35050518 98.20739746 223.90108871 C94.31226623 222.88492974 90.42732147 221.84654702 86.55712891 220.7388916 C85.87101028 220.54560902 85.18489166 220.35232643 84.47798157 220.1531868 C82.66366389 219.63944535 80.85278394 219.11360501 79.04223633 218.58673096 C75.87966485 217.97679195 74.0424514 218.00663751 71 219 C68.71192358 220.71322554 66.61823171 222.41297203 64.5 224.3125 C63.38589719 225.28830931 62.27132078 226.2635782 61.15625 227.23828125 C60.62225586 227.70733887 60.08826172 228.17639648 59.53808594 228.65966797 C56.35120914 231.43680347 53.71678193 233.72431464 49.75 235.25 C45.57432331 236.9238704 42.71304552 239.73214255 39.4453125 242.76171875 C35.13288909 246.70903283 30.54133024 250.3212688 26 254 C24.29072718 255.39468273 22.58240549 256.79053187 20.875 258.1875 C19.9675 258.93 19.06 259.6725 18.125 260.4375 C14.3697459 263.51444904 10.62246725 266.60107613 6.875 269.6875 C6.15393066 270.28103271 5.43286133 270.87456543 4.68994141 271.48608398 C0.98349794 274.53799227 -2.71893068 277.59455933 -6.4140625 280.66015625 C-9.9393117 283.5842369 -13.48333525 286.48441909 -17.03369141 289.37792969 C-18.9131126 290.92832383 -20.76076492 292.51015365 -22.60546875 294.1015625 C-23.71545684 295.02686881 -24.82609291 295.95139857 -25.9375 296.875 C-26.87464844 297.67679687 -27.81179688 298.47859375 -28.77734375 299.3046875 C-36.57305337 303.40570323 -46.52006827 300.44948799 -54.78938293 298.96284485 C-56.89189861 298.58509945 -58.99607643 298.21823293 -61.10095215 297.85388184 C-66.32430628 296.94750767 -71.54443356 296.02308866 -76.76470947 295.09918213 C-81.1914259 294.31644921 -85.61926746 293.54074502 -90.04878235 292.77400208 C-92.10488474 292.41521321 -94.15902194 292.04643083 -96.21325684 291.67712402 C-102.48544869 290.58803167 -108.4013383 289.82332173 -114.76571655 289.99597168 C-118.43155323 290.00258103 -121.94055345 289.35420268 -125.53515625 288.6875 C-126.29871933 288.55432373 -127.06228241 288.42114746 -127.84898376 288.28393555 C-130.25498039 287.86393146 -132.65886135 287.43328016 -135.0625 287 C-138.23939052 286.42860072 -141.41791513 285.86778787 -144.59765625 285.3125 C-145.30729019 285.18125732 -146.01692413 285.05001465 -146.74806213 284.91479492 C-155.42499536 283.39934428 -162.11754539 283.41689196 -170.13671875 287.26171875 C-170.8852713 287.6034613 -171.63382385 287.94520386 -172.40505981 288.29730225 C-174.83975912 289.4123843 -177.26317915 290.55005599 -179.6875 291.6875 C-181.4003724 292.47537749 -183.11417195 293.26124222 -184.82885742 294.04516602 C-187.42795726 295.23367286 -190.02647709 296.42327533 -192.62220764 297.61912537 C-199.97254295 301.00489227 -207.37517271 304.24755998 -214.8125 307.4375 C-217.20218225 308.46661391 -219.59149383 309.4965889 -221.98046875 310.52734375 C-222.59525589 310.79258347 -223.21004303 311.05782318 -223.84346008 311.33110046 C-229.42212353 313.74197506 -234.98728203 316.18327262 -240.55078125 318.62890625 C-241.46598038 319.03120956 -242.3811795 319.43351288 -243.32411194 319.8480072 C-247.84818133 321.83744163 -252.37135726 323.82888973 -256.89379883 325.82202148 C-260.89199167 327.58305196 -264.89322888 329.33692923 -268.89804077 331.08285522 C-270.24249563 331.66947923 -271.5861812 332.2578715 -272.92886353 332.84854126 C-274.5939041 333.57954369 -276.26357702 334.29996972 -277.93359375 335.01953125 C-279.2647522 335.59731323 -279.2647522 335.59731323 -280.62280273 336.18676758 C-284.66829772 337.5707199 -286.92785272 337.35738243 -291 336 C-294.96939419 332.51096827 -296.30726792 330.12184494 -296.70539856 324.83770752 C-296.73999016 322.72183911 -296.73463253 320.60510024 -296.69848633 318.48925781 C-296.67968147 316.72445509 -296.67968147 316.72445509 -296.66049671 314.92399979 C-296.21351793 299.00662384 -293.16979373 283.43097504 -290.30437446 267.80717754 C-289.48087383 263.2874493 -288.68484052 258.76287376 -287.88545227 254.23883057 C-286.36226806 245.64157696 -284.81588461 237.04867599 -283.26048261 228.45719934 C-281.36412817 217.97629368 -279.49729229 207.49017379 -277.63085938 197.00390625 C-275.64729407 185.8648017 -273.66015804 174.72638271 -271.65475464 163.59118652 C-268.73844367 147.39137517 -265.83804117 131.19018454 -263.06654346 114.96487188 C-262.67659607 112.68268773 -262.28545692 110.40071098 -261.89395237 108.11879349 C-260.44905234 99.69903518 -260.44905234 99.69903518 -259.02890587 91.27507782 C-258.41045731 87.57671906 -257.78018305 83.88055099 -257.14770508 80.18457031 C-256.97243853 79.11124199 -256.79717197 78.03791367 -256.61659431 76.93206024 C-255.57151576 70.89983678 -254.51542929 66.46096133 -250.015625 62.05859375 C-245.48239306 58.96401703 -240.63670062 56.54931524 -235.75 54.0625 C-227.74315217 49.97779615 -227.74315217 49.97779615 -219.84375 45.69140625 C-215.55292897 43.28227898 -211.2107115 40.97698013 -206.859375 38.6796875 C-206.1239447 38.29137253 -205.3885144 37.90305756 -204.63079834 37.50297546 C-201.55759157 35.88141495 -198.48358396 34.2613787 -195.40917969 32.64208984 C-193.14194745 31.44748051 -190.87562157 30.25116538 -188.609375 29.0546875 C-187.91970642 28.6921286 -187.23003784 28.3295697 -186.51947021 27.95602417 C-183.68653322 26.45965344 -180.92267699 24.95189899 -178.20019531 23.25830078 C-175.60985184 21.77687266 -173.93698849 21.74825813 -171 22 C-171.09057617 23.76245117 -171.09057617 23.76245117 -172 26 C-174.17914845 27.4591848 -176.22107825 28.63366366 -178.55078125 29.80078125 C-179.22837997 30.15409012 -179.9059787 30.50739899 -180.60411072 30.87141418 C-182.83404552 32.03086774 -185.07314826 33.1713569 -187.3125 34.3125 C-188.85918297 35.11355865 -190.40507559 35.91614507 -191.95019531 36.72021484 C-195.1023248 38.35952377 -198.25733883 39.99306133 -201.41455078 41.62255859 C-211.39266938 46.78307804 -221.27090264 52.13146628 -231.14990234 57.47851562 C-233.66273231 58.81995441 -236.19127884 60.11573321 -238.73828125 61.390625 C-240.01302638 62.05207265 -241.2877666 62.71352975 -242.5625 63.375 C-243.57441406 63.87773437 -244.58632812 64.38046875 -245.62890625 64.8984375 C-251.15136368 69.79313618 -251.70960496 78.98311561 -252.83203125 85.96484375 C-252.98917603 86.90371933 -253.1463208 87.84259491 -253.30822754 88.80992126 C-253.81607904 91.85141836 -254.31419358 94.89442604 -254.8125 97.9375 C-255.3411695 101.11467982 -255.87247144 104.29141266 -256.40385437 107.46813965 C-256.75959492 109.59601191 -257.11450434 111.72402328 -257.46858215 113.85217285 C-259.02575634 123.20347691 -260.65264103 132.54144446 -262.3125 141.875 C-262.54235596 143.17042725 -262.77221191 144.46585449 -263.0090332 145.80053711 C-263.22906006 147.03940674 -263.44908691 148.27827637 -263.67578125 149.5546875 C-263.88799316 150.75319336 -264.10020508 151.95169922 -264.31884766 153.18652344 C-264.81647883 155.97254455 -265.32172564 158.75662321 -265.83349609 161.54003906 C-266.04198433 162.68752121 -266.04198433 162.68752121 -266.25468445 163.85818481 C-266.52297584 165.3348028 -266.79460213 166.8108202 -267.07014465 168.28610229 C-267.72306085 171.90219105 -268.15238531 175.32398368 -268 179 C-266.9171875 178.51853516 -266.9171875 178.51853516 -265.8125 178.02734375 C-256.60477571 174.66396668 -246.81680471 177.73864358 -237.73828125 180.22094727 C-229.23147669 182.47194655 -221.63923981 183.49862545 -213.69140625 179.16796875 C-210.33188372 176.8481137 -208.70831979 174.95620126 -207.7890625 170.9453125 C-207.59570312 170.16542969 -207.40234375 169.38554687 -207.203125 168.58203125 C-206.81985766 166.95314505 -206.44218505 165.32293159 -206.0703125 163.69140625 C-204.77611799 158.52314267 -203.41774069 155.34534257 -199 152 C-194.85570992 151.85458631 -192.86646253 152.22981109 -189.75 155 C-187.90095508 158.16979128 -186.7903747 161.15746204 -185.72265625 164.65234375 C-185.0209533 166.93193009 -184.22443553 169.14677057 -183.375 171.375 C-182.54299959 173.56845562 -181.74185391 175.77443827 -181 178 C-174.09177801 180.30274066 -167.76675861 179.13113696 -161.09375 176.6875 C-157.85218891 175.62310681 -155.36752397 175.4916945 -152 176 C-148.53236682 178.04300736 -146.29961342 180.10115974 -145 184 C-144.87216971 186.39468734 -144.77163412 188.79087957 -144.6875 191.1875 C-144.38363519 197.40481243 -143.26827234 201.68905744 -140 207 C-139.67 207.99 -139.34 208.98 -139 210 C-135.37671381 211.20776206 -132.80388473 211.40040892 -129 211 C-125.70646033 208.10567726 -124.08156467 204.27064816 -122.0625 200.4375 C-119.89258945 196.36136423 -118.09509918 193.38880786 -114 191 C-113.34 191 -112.68 191 -112 191 C-112 191.66 -112 192.32 -112 193 C-114.475 193.99 -114.475 193.99 -117 195 C-117 195.66 -117 196.32 -117 197 C-116.236875 197.20625 -115.47375 197.4125 -114.6875 197.625 C-111.17770897 199.42070704 -110.47400219 201.43136312 -109 205 C-108.566875 204.21625 -108.13375 203.4325 -107.6875 202.625 C-106 200 -106 200 -103 198 C-101.09248437 206.30344735 -100.16776178 214.65229486 -99.375 223.125 C-99.31062744 223.80954254 -99.24625488 224.49408508 -99.17993164 225.19937134 C-97.68085796 241.34395067 -97.68085796 241.34395067 -97.5 248.6875 C-97.45359375 250.42580078 -97.45359375 250.42580078 -97.40625 252.19921875 C-98 255 -98 255 -100.109375 257.29296875 C-103.35329843 259.20863705 -106.05601244 259.93133265 -109.75 260.625 C-111.84543859 261.02435489 -113.93401493 261.46891344 -116 262 C-116.33 262.66 -116.66 263.32 -117 264 C-100.27602156 267.62730711 -83.44805703 270.49162756 -66.5625 273.25 C-65.47752228 273.42821289 -64.39254456 273.60642578 -63.27468872 273.79003906 C-60.12255269 274.30666862 -56.96966002 274.81836621 -53.81640625 275.328125 C-52.87539062 275.48210754 -51.934375 275.63609009 -50.96484375 275.79473877 C-48.31262138 276.21927235 -45.65882577 276.61910648 -43 277 C-42.08578278 277.1322699 -41.17156555 277.26453979 -40.22964478 277.40081787 C-39.34392792 277.51218079 -38.45821106 277.6235437 -37.5456543 277.73828125 C-36.75627975 277.84084229 -35.96690521 277.94340332 -35.15361023 278.04907227 C-31.15135174 277.95787661 -28.93208218 275.47449954 -26.25 272.75 C-25.04952992 271.6273626 -23.84633042 270.5076378 -22.640625 269.390625 C-22.03798828 268.82021484 -21.43535156 268.24980469 -20.81445312 267.66210938 C-18.01232047 265.09524728 -15.01857734 262.80426398 -12 260.5 C-6.53797647 256.27395349 -1.2678288 251.86433448 3.9543457 247.34643555 C9.21943103 242.79334936 14.59208191 238.38241659 20 234 C26.55892526 228.67027303 33.06443363 223.28581881 39.49755859 217.80517578 C42.62217171 215.14695208 45.78332207 212.54604212 49 210 C48.443125 209.98582031 47.88625 209.97164062 47.3125 209.95703125 C41.16082844 209.57255178 36.79470794 207.92627869 32 204 C30.3832293 200.76645861 30.52368071 198.57239465 31 195 C34.09431916 191.07147568 38.59315897 188.60440947 42.75 185.9375 C47.17476156 183.02509349 49.04259477 180.60839735 50.87890625 175.60546875 C54.14224978 166.86482705 54.14224978 166.86482705 59 164 C61.85212987 163.04929004 63.71263647 162.86439796 66.67578125 162.82421875 C67.58650391 162.80037109 68.49722656 162.77652344 69.43554688 162.75195312 C71.34157474 162.70925189 73.24789205 162.67785678 75.15429688 162.65820312 C81.03798415 162.47990957 84.50651455 161.90705994 89 158 C90.9102338 154.1795324 90.59426896 150.15452893 90 146 C89.06920425 143.72050021 88.06295542 141.47095155 87 139.25 C83.36009355 131.27687159 81.95328458 123.65623292 85.0078125 115.21484375 C88.94194895 107.94231151 95.49263315 100.70089315 103.3125 97.75 C104.199375 97.5025 105.08625 97.255 106 97 C103.06521131 91.62891543 99.75287912 86.73624634 96.125 81.8125 C91.32601968 75.2348527 86.59578565 68.61556142 81.9375 61.9375 C81.35250732 61.09952881 80.76751465 60.26155762 80.16479492 59.39819336 C79.00164718 57.73187077 77.83864032 56.06544983 76.67578125 54.39892578 C72.65662249 48.64539227 68.61082869 42.91120312 64.54589844 37.18994141 C62.86338343 34.80646705 61.201433 32.40927976 59.5390625 30.01171875 C58.38062738 28.36168489 57.22178285 26.71193837 56.0625 25.0625 C55.53068115 24.28632324 54.9988623 23.51014648 54.45092773 22.71044922 C50.76707026 17.46073744 50.76707026 17.46073744 45 15 C44.29738037 14.82782959 43.59476074 14.65565918 42.87084961 14.47827148 C40.23329394 13.84620765 37.58768871 13.26421785 34.9375 12.6875 C27.20427073 10.96886059 19.49654974 9.17721897 11.8125 7.25 C10.97001709 7.03947998 10.12753418 6.82895996 9.25952148 6.61206055 C6.12954999 5.82270157 3.06427028 5.02142343 0 4 C0 2.68 0 1.36 0 0 Z " fill="#040606" transform="translate(307,143)"/>
<path d="M0 0 C5.50808397 0.59015185 10.64878069 1.56663769 16 3 C16 3.99 16 4.98 16 6 C16.60513428 6.11682129 17.21026855 6.23364258 17.83374023 6.35400391 C24.86841656 7.73345838 31.82832689 9.34522971 38.79296875 11.0390625 C43.17310631 12.10016625 47.55015309 13.13107018 51.96484375 14.0390625 C52.7323999 14.20229004 53.49995605 14.36551758 54.29077148 14.53369141 C55.71815879 14.83497439 57.14863273 15.12213673 58.58227539 15.39208984 C66.41866797 17.08246539 70.12283339 23.2275869 74.625 29.3125 C75.14642578 30.0125415 75.66785156 30.71258301 76.20507812 31.43383789 C80.69484707 37.50276226 84.97927199 43.70158777 89.2265625 49.94140625 C97.28869638 61.77712231 105.68792487 73.38100958 114.08984375 84.9765625 C114.57565918 85.65106445 115.06147461 86.32556641 115.56201172 87.02050781 C116.52532095 88.34657084 117.50110885 89.66365285 118.48876953 90.97167969 C122 95.68045311 122 95.68045311 122 99 C120.09375 100.2890625 120.09375 100.2890625 117.5 101.625 C109.92294905 105.94553118 104.39293155 111.92159154 101 120 C99.5002963 129.39349292 101.65786833 136.30488312 105.6484375 144.73046875 C107.52026313 149.2585556 108.07454607 153.20096798 107 158 C104.86735415 161.65596431 102.85768327 163.40114349 99 165 C96.71337891 165.27124023 96.71337891 165.27124023 94.2265625 165.30859375 C93.3190625 165.33373047 92.4115625 165.35886719 91.4765625 165.38476562 C89.58339914 165.41977618 87.69016296 165.45105772 85.796875 165.47851562 C79.44603513 165.66292386 74.69451116 166.30548884 70 171 C69.42216245 172.88512349 68.88630339 174.78325326 68.375 176.6875 C65.50604958 185.57062055 59.44868443 189.41341725 51.6640625 193.95703125 C49.83201352 195.01890202 49.83201352 195.01890202 48 197 C47.56483774 200.9164603 47.32597311 203.10932162 49.75 206.3125 C53.73862555 209.30396916 56.75945259 210.26853233 61.75 210.625 C62.73484375 210.69976562 63.7196875 210.77453125 64.734375 210.8515625 C65.48203125 210.90054688 66.2296875 210.94953125 67 211 C63.88454358 214.18726658 60.72246438 217.14515205 57.25 219.9375 C55.80753906 221.10539062 55.80753906 221.10539062 54.3359375 222.296875 C53.80581055 222.72548828 53.27568359 223.15410156 52.72949219 223.59570312 C49.42985034 226.27491542 46.15418806 228.9833266 42.875 231.6875 C41.4036807 232.8997819 39.93232608 234.11202093 38.4609375 235.32421875 C37.72198242 235.93313965 36.98302734 236.54206055 36.22167969 237.16943359 C31.94148075 240.69612938 27.66015549 244.22145789 23.37866211 247.74658203 C19.8227364 250.67451075 16.26779942 253.60362394 12.71484375 256.53515625 C9.19444804 259.43949273 5.66992822 262.33876563 2.14355469 265.23583984 C-0.09264923 267.07625095 -2.32356246 268.92296792 -4.5546875 270.76953125 C-6.01540656 271.97161965 -7.47633657 273.17345178 -8.9375 274.375 C-9.61820557 274.940979 -10.29891113 275.50695801 -11.00024414 276.09008789 C-15.77262785 280 -15.77262785 280 -18 280 C-20.47875025 272.33239924 -22.31885784 264.55103469 -24.07272339 256.69250488 C-24.93800707 252.81902735 -25.81638412 248.94852578 -26.6953125 245.078125 C-26.88079147 244.26100037 -27.06627045 243.44387573 -27.25737 242.60198975 C-29.41370471 233.13458173 -31.67558904 223.69262758 -33.9375 214.25 C-37.74894979 198.32951981 -41.47561335 182.39124611 -45.13256836 166.43457031 C-45.3110582 165.65669159 -45.48954803 164.87881287 -45.67344666 164.07736206 C-46.00190514 162.64518594 -46.32966273 161.21284878 -46.6565094 159.78030396 C-47.43115164 156.4010282 -48.2362892 153.03171367 -49.08300781 149.66992188 C-50.55245463 143.78900481 -50.55245463 143.78900481 -50 141 C-48.31756482 138.40868073 -46.32022009 136.16187103 -44.25 133.875 C-43.71117187 133.25496094 -43.17234375 132.63492188 -42.6171875 131.99609375 C-35.90604339 124.38467421 -35.90604339 124.38467421 -31.8515625 123.56640625 C-31.11679687 123.56511719 -30.38203125 123.56382812 -29.625 123.5625 C-28.89539063 123.54316406 -28.16578125 123.52382813 -27.4140625 123.50390625 C-20.83266913 124.85639324 -16.61483869 130.3205099 -12.375 135.125 C-11.263414 136.3825777 -10.14639386 137.63537748 -9.0234375 138.8828125 C-8.29519775 139.70869873 -8.29519775 139.70869873 -7.55224609 140.55126953 C-4.52958746 143.3723542 -2.18283525 143.97968497 1.9375 144.4375 C5.17425362 144.32254987 6.10492646 143.93442096 9 142.125 C11.84561848 137.67872112 11.95367359 134.13880316 11 129 C8.64040642 122.90344244 3.84016099 118.75270489 -0.77734375 114.3125 C-4.60238216 110.33284668 -9.92959291 104.36923685 -10.05004883 98.60498047 C-10.01935303 97.61900879 -9.98865723 96.63303711 -9.95703125 95.6171875 C-9.93576172 94.53179687 -9.91449219 93.44640625 -9.89257812 92.328125 C-9.83972887 90.049162 -9.77487359 87.77044174 -9.69726562 85.4921875 C-9.57199789 77.6235177 -10.2842932 71.96342059 -15.875 66 C-18.95234877 64.55183587 -20.62191551 64.40386744 -24 65 C-28.7001965 67.99199868 -32.27197231 72.28000947 -35.73828125 76.58203125 C-37.37851488 78.42538979 -38.54497445 78.94546845 -40.98828125 79.23828125 C-45.25823718 79.37463278 -47.38463396 79.4018717 -51.0625 77 C-51.701875 76.34 -52.34125 75.68 -53 75 C-52.10628541 71.299708 -51.07919092 67.65044504 -50 64 C-49.80664062 63.34177246 -49.61328125 62.68354492 -49.4140625 62.00537109 C-45.16710067 47.99629561 -45.16710067 47.99629561 -39.8125 44.5 C-38.21271242 43.65829052 -36.60821238 42.82549869 -35 42 C-31.25933776 39.43256938 -27.63260078 36.71751814 -24 34 C-23.37222656 33.55398437 -22.74445313 33.10796875 -22.09765625 32.6484375 C-11.70837529 24.67924787 -5.3403209 11.63553362 0 0 Z " fill="#D2DB5E" transform="translate(291,141)"/>
<path d="M0 0 C1.33417969 0.61101563 1.33417969 0.61101563 2.6953125 1.234375 C21.70489655 10.65603473 35.76791455 28.1667132 42.71582031 48.04833984 C48.60922075 66.82846151 49.00540949 86.74867334 41 105 C40.29230469 106.63388672 40.29230469 106.63388672 39.5703125 108.30078125 C31.86360014 124.87574397 20.46109184 138.08567926 4.125 146.625 C-0.83326476 149.66431346 -2.85721091 151.81954142 -4.71875 157.3203125 C-4.95306732 157.99310242 -5.18738464 158.66589233 -5.42880249 159.35906982 C-6.30663237 161.89935762 -7.15162046 164.44972597 -8 167 C-8.79008422 169.31976831 -9.58206143 171.63889237 -10.37548828 173.95751953 C-12.18929425 179.26759935 -13.99602123 184.58004528 -15.796875 189.89453125 C-16.14445453 190.91968432 -16.14445453 190.91968432 -16.49905586 191.96554756 C-17.68992566 195.48030555 -18.87634123 198.99648654 -20.05566406 202.51513672 C-21.21303006 205.96706833 -22.38184204 209.41493579 -23.55830002 212.86040497 C-24.00029463 214.1618721 -24.4380542 215.46478597 -24.87135696 216.76917267 C-25.47445487 218.58317708 -26.09358707 220.39182666 -26.71337891 222.20019531 C-27.05946198 223.22671204 -27.40554504 224.25322876 -27.76211548 225.31085205 C-29.12735122 228.27665446 -30.45918237 229.96127618 -33 232 C-36.5625 232.5 -36.5625 232.5 -40 232 C-42.57851773 229.23408856 -43.76336002 226.36161718 -44.97363281 222.81445312 C-45.33120667 221.77816772 -45.68878052 220.74188232 -46.05718994 219.67419434 C-46.43534851 218.55452271 -46.81350708 217.43485107 -47.203125 216.28125 C-47.6040033 215.11356079 -48.00488159 213.94587158 -48.41790771 212.74279785 C-49.48567273 209.62866888 -50.54721986 206.51251329 -51.60565186 203.39520264 C-52.65812295 200.29959973 -53.71802851 197.20654753 -54.77734375 194.11328125 C-55.18964233 192.90833008 -55.60194092 191.70337891 -56.0267334 190.46191406 C-56.85009605 188.05729598 -57.67439044 185.65299673 -58.49963379 183.24902344 C-60.3614921 177.8199972 -62.2074873 172.38787312 -63.99414062 166.93359375 C-64.30123962 166.01340454 -64.60833862 165.09321533 -64.92474365 164.1451416 C-65.48452832 162.46739382 -66.03325811 160.78589379 -66.56793213 159.09997559 C-68.81720727 152.43339671 -72.40716023 148.61886302 -78.625 145.25 C-84.61587197 141.77690135 -89.79440899 137.54787381 -95 133 C-95.66128906 132.42378906 -96.32257813 131.84757813 -97.00390625 131.25390625 C-109.74716901 119.36589602 -118.24510101 99.33122263 -119 82 C-119.0515625 81.01128906 -119.103125 80.02257812 -119.15625 79.00390625 C-119.79524473 55.54747453 -112.39542128 34.49579394 -96.24804688 17.27758789 C-71.27546802 -8.54402485 -32.44971181 -15.64058132 0 0 Z M-63 55 C-68.15187725 63.07048661 -69.86573056 70.48933138 -69 80 C-66.89505295 89.24401444 -62.14692525 97.43777278 -54.25 102.875 C-45.90484405 107.50583798 -37.3423785 109.03758107 -28 107 C-24.80180506 105.96288567 -21.93112314 104.64076153 -19 103 C-18.37222656 102.65066406 -17.74445313 102.30132812 -17.09765625 101.94140625 C-9.70230988 97.26469924 -5.62500225 89.78572295 -3.46875 81.46875 C-1.89942685 73.20364809 -2.99521218 65.12635012 -7.2890625 57.80078125 C-12.85207279 49.99174274 -19.54126392 44.2906871 -29 42 C-43.3019167 40.39082912 -53.48474677 44.15193648 -63 55 Z " fill="#FD7942" transform="translate(250,38)"/>
<path d="M0 0 C4.18199344 1.3686524 5.23141774 2.3431447 7.4375 6.125 C8.29481959 8.32057457 9.0261808 10.52319562 9.71484375 12.77734375 C10.4165467 15.05693009 11.21306447 17.27177057 12.0625 19.5 C12.89450041 21.69345562 13.69564609 23.89943827 14.4375 26.125 C21.34572199 28.42774066 27.67074139 27.25613696 34.34375 24.8125 C37.58531109 23.74810681 40.06997603 23.6166945 43.4375 24.125 C46.90513318 26.16800736 49.13788658 28.22615974 50.4375 32.125 C50.56533029 34.51968734 50.66586588 36.91587957 50.75 39.3125 C51.05386481 45.52981243 52.16922766 49.81405744 55.4375 55.125 C55.7675 56.115 56.0975 57.105 56.4375 58.125 C60.06078619 59.33276206 62.63361527 59.52540892 66.4375 59.125 C69.73103967 56.23067726 71.35593533 52.39564816 73.375 48.5625 C75.54491055 44.48636423 77.34240082 41.51380786 81.4375 39.125 C82.0975 39.125 82.7575 39.125 83.4375 39.125 C83.4375 39.785 83.4375 40.445 83.4375 41.125 C81.7875 41.785 80.1375 42.445 78.4375 43.125 C78.4375 43.785 78.4375 44.445 78.4375 45.125 C79.200625 45.33125 79.96375 45.5375 80.75 45.75 C84.25979103 47.54570704 84.96349781 49.55636312 86.4375 53.125 C86.870625 52.34125 87.30375 51.5575 87.75 50.75 C89.4375 48.125 89.4375 48.125 92.4375 46.125 C94.34501563 54.42844735 95.26973822 62.77729486 96.0625 71.25 C96.12687256 71.93454254 96.19124512 72.61908508 96.25756836 73.32437134 C97.75664204 89.46895067 97.75664204 89.46895067 97.9375 96.8125 C97.98390625 98.55080078 97.98390625 98.55080078 98.03125 100.32421875 C97.4375 103.125 97.4375 103.125 95.32421875 105.421875 C92.09208121 107.32879241 89.43305711 108.01976217 85.75 108.6875 C82.37530018 109.24654531 82.37530018 109.24654531 79.4375 110.125 C78.7775 111.115 78.1175 112.105 77.4375 113.125 C76.29273193 112.93800537 75.14796387 112.75101074 73.96850586 112.55834961 C69.70045176 111.86399044 65.43031034 111.18329147 61.15942383 110.5065918 C59.31508077 110.21243485 57.4713155 109.9146302 55.62817383 109.61303711 C52.97101906 109.17890839 50.31202804 108.75815968 47.65234375 108.33984375 C46.83539536 108.20343979 46.01844696 108.06703583 45.17674255 107.92649841 C36.54121654 106.59621981 30.22639346 108.35241312 22.40234375 111.921875 C21.53975449 112.30668533 20.67716522 112.69149567 19.78843689 113.08796692 C16.98037798 114.34248251 14.1778259 115.60884215 11.375 116.875 C9.415341 117.75225951 7.45521281 118.62847162 5.49462891 119.50366211 C2.54823798 120.81894995 -0.39791368 122.13473447 -3.34265137 123.45372009 C-11.09832836 126.92691995 -18.88197982 130.32789053 -26.6875 133.6875 C-40.84581997 139.79412683 -54.9611627 145.99743901 -69.07275391 152.21118164 C-69.93075089 152.58862518 -70.78874786 152.96606873 -71.67274475 153.35494995 C-73.28572289 154.06453566 -74.89840231 154.77480095 -76.51072693 155.48587036 C-88.15251805 160.60588728 -88.15251805 160.60588728 -93.5625 160.125 C-95.5625 158.125 -95.5625 158.125 -95.84570312 155.80786133 C-95.8401823 147.57285605 -94.65603392 139.87725044 -93.0625 131.8125 C-92.50431108 128.88916554 -91.9552807 125.96412906 -91.40625 123.0390625 C-91.18569946 121.87127007 -91.18569946 121.87127007 -90.96069336 120.67988586 C-89.21434105 111.37893808 -87.64657348 102.04793612 -86.07357788 92.71640015 C-85.56344696 89.69311214 -85.05043062 86.67032841 -84.53637695 83.64770508 C-83.09566222 75.1756372 -81.65766658 66.70321237 -80.2416687 58.22697449 C-79.7090991 55.05197745 -79.16816301 51.87845008 -78.62475586 48.70529175 C-78.37780676 47.25209281 -78.13455143 45.79826062 -77.89526367 44.34378052 C-77.56862487 42.36040432 -77.22802541 40.3793423 -76.88671875 38.3984375 C-76.70197998 37.29935059 -76.51724121 36.20026367 -76.3269043 35.06787109 C-75.51437694 31.93973158 -74.43882867 29.74741289 -72.5625 27.125 C-63.18523412 22.0507887 -51.91717195 25.71657673 -42.30078125 28.34594727 C-33.79397669 30.59694655 -26.20173981 31.62362545 -18.25390625 27.29296875 C-14.89438372 24.9731137 -13.27081979 23.08120126 -12.3515625 19.0703125 C-12.06152344 17.90048828 -12.06152344 17.90048828 -11.765625 16.70703125 C-11.38235766 15.07814505 -11.00468505 13.44793159 -10.6328125 11.81640625 C-9.09512756 5.67578283 -7.15142102 0.25092705 0 0 Z " fill="#509CFD" transform="translate(111.5625,294.875)"/>
<path d="M0 0 C1.16771637 5.78053565 1.35297259 11.55892183 1.61328125 17.43359375 C1.72615028 19.82812525 1.83902491 22.22265649 1.9519043 24.6171875 C2.01050629 25.88916992 2.06910828 27.16115234 2.12948608 28.47167969 C2.44474376 35.3031564 2.77118339 42.13408304 3.1015625 48.96484375 C3.13620543 49.68247768 3.17084835 50.40011162 3.20654106 51.13949203 C3.77598739 62.88932101 4.41316344 74.63456703 5.0859375 86.37890625 C5.13173887 87.18004789 5.17754025 87.98118954 5.22472954 88.8066082 C5.67556339 96.68508951 6.13149757 104.56325255 6.59677887 112.44089413 C6.76978352 115.38165666 6.93987587 118.32258342 7.10940933 121.2635479 C7.22574724 123.26261878 7.34617049 125.26145063 7.46676636 127.26026917 C7.81228815 133.26712179 8.09530992 139.27567678 8.2355957 145.29101562 C8.26345657 146.34212524 8.29131744 147.39323486 8.32002258 148.47619629 C8.21441513 149.30905151 8.10880768 150.14190674 8 151 C3.75095012 153.83269992 -0.01313101 153.75800409 -5 153 C-10.50209674 149.25389158 -11.9152007 143.77787663 -13.671875 137.66015625 C-15.17066934 132.65584848 -16.49546902 129.07127112 -21 126 C-24.64407137 125.66339855 -24.64407137 125.66339855 -28 127 C-31.04269667 130.94066325 -31.80085356 135.1669499 -32.75 139.9375 C-34.02544854 145.63942965 -35.24180435 149.77150413 -40.2890625 153.09375 C-40.85367188 153.3928125 -41.41828125 153.691875 -42 154 C-42.763125 154.45375 -43.52625 154.9075 -44.3125 155.375 C-52.2370398 157.21791623 -59.68685323 155.60194403 -67.375 153.5 C-77.52497577 150.90998152 -85.91274558 149.53718533 -96 153 C-95.54499436 140.80409322 -93.15973464 128.96980258 -90.9375 117 C-90.32792458 113.67959811 -89.7204446 110.3588171 -89.11308289 107.03800964 C-88.69777886 104.76818244 -88.28168682 102.49849928 -87.86482239 100.22895813 C-86.43905886 92.45432595 -85.05416224 84.67330753 -83.6953125 76.88671875 C-83.42295525 75.33091599 -83.42295525 75.33091599 -83.14509583 73.74368286 C-82.09602892 67.75048827 -82.09602892 67.75048827 -81.05661011 61.75561523 C-80.5855061 59.02762082 -80.10785677 56.30084473 -79.62890625 53.57421875 C-79.49279938 52.77441086 -79.3566925 51.97460297 -79.21646118 51.15055847 C-77.47405441 41.31632486 -77.47405441 41.31632486 -74.49414062 38.65527344 C-73.88763672 38.31012695 -73.28113281 37.96498047 -72.65625 37.609375 C-71.93824219 37.19494141 -71.22023438 36.78050781 -70.48046875 36.35351562 C-69.66191406 35.90685547 -68.84335938 35.46019531 -68 35 C-67.08863281 34.49662109 -66.17726563 33.99324219 -65.23828125 33.47460938 C-62.00367481 31.7108492 -58.75395424 29.97779579 -55.5 28.25 C-54.28755027 27.60343152 -53.07523227 26.95661595 -51.86303711 26.30957031 C-45.726219 23.03624259 -39.58173994 19.77733732 -33.43728638 16.51837158 C-31.96690986 15.73849599 -30.49659279 14.95850831 -29.02633667 14.17840576 C-25.48484253 12.29939139 -21.94256654 10.4218918 -18.3984375 8.54785156 C-17.10024143 7.86006188 -15.80206345 7.17223805 -14.50390625 6.484375 C-13.36767822 5.88334961 -12.2314502 5.28232422 -11.06079102 4.66308594 C-9.09960329 3.5974713 -7.16796994 2.47435005 -5.28100586 1.28222656 C-3 0 -3 0 0 0 Z " fill="#D2DB5E" transform="translate(134,170)"/>
<path d="M0 0 C5.50846923 0.642269 10.64235597 1.56491678 16 3 C16 3.99 16 4.98 16 6 C16.60513428 6.11682129 17.21026855 6.23364258 17.83374023 6.35400391 C24.86841656 7.73345838 31.82832689 9.34522971 38.79296875 11.0390625 C43.17310631 12.10016625 47.55015309 13.13107018 51.96484375 14.0390625 C53.11617798 14.28390381 53.11617798 14.28390381 54.29077148 14.53369141 C55.71815879 14.83497439 57.14863273 15.12213673 58.58227539 15.39208984 C66.41866797 17.08246539 70.12283339 23.2275869 74.625 29.3125 C75.14642578 30.0125415 75.66785156 30.71258301 76.20507812 31.43383789 C80.69484707 37.50276226 84.97927199 43.70158777 89.2265625 49.94140625 C97.28869638 61.77712231 105.68792487 73.38100958 114.08984375 84.9765625 C114.57565918 85.65106445 115.06147461 86.32556641 115.56201172 87.02050781 C116.52532095 88.34657084 117.50110885 89.66365285 118.48876953 90.97167969 C122 95.68045311 122 95.68045311 122 99 C120.09375 100.2890625 120.09375 100.2890625 117.5 101.625 C109.92294905 105.94553118 104.39293155 111.92159154 101 120 C99.5002963 129.39349292 101.65786833 136.30488312 105.6484375 144.73046875 C107.52026313 149.2585556 108.07454607 153.20096798 107 158 C104.86548731 161.65916461 102.85638505 163.39382741 99 165 C96.71337891 165.30297852 96.71337891 165.30297852 94.2265625 165.37890625 C93.3190625 165.41306641 92.4115625 165.44722656 91.4765625 165.48242188 C90.06503906 165.52206055 90.06503906 165.52206055 88.625 165.5625 C86.76290869 165.62294081 84.90092038 165.68665784 83.0390625 165.75390625 C82.21615723 165.77783447 81.39325195 165.8017627 80.54541016 165.82641602 C77.65217079 166.02372018 74.85232417 166.48519154 72 167 C71.60844727 166.23671387 71.21689453 165.47342773 70.81347656 164.68701172 C63.82892565 151.08691273 56.81174271 137.51836879 49.4296875 124.12841797 C45.01185706 116.0899261 40.79564842 107.95211412 36.60229492 99.79467773 C33.07238463 92.95861045 29.35903186 86.30038314 25.29296875 79.76953125 C23.80190109 76.57567333 23.59083113 74.48533 24 71 C24.66 70.34 25.32 69.68 26 69 C25.34 67.68 24.68 66.36 24 65 C23.34 65 22.68 65 22 65 C22 65.66 22 66.32 22 67 C21.01 67 20.02 67 19 67 C17.65889461 64.79112053 16.93390233 63.54530581 17.25 60.9375 C18 59 18 59 20 56 C19.05125 55.236875 18.1025 54.47375 17.125 53.6875 C14.83390105 51.84465954 13.68775056 50.53162583 12 48 C11.34 48.66 10.68 49.32 10 50 C9.34197388 48.75126099 9.34197388 48.75126099 8.6706543 47.47729492 C7.03684429 44.38314436 5.39815303 41.29168466 3.75610352 38.2019043 C3.04710349 36.86538174 2.3400517 35.52782374 1.63500977 34.18920898 C0.61988453 32.26268872 -0.40224283 30.34002954 -1.42578125 28.41796875 C-2.03848877 27.26063232 -2.65119629 26.1032959 -3.2824707 24.91088867 C-4.80639309 22.04832427 -4.80639309 22.04832427 -6.72338867 20.28637695 C-8 19 -8 19 -8 16 C-7.265625 14.19067383 -7.265625 14.19067383 -6.25 12.20703125 C-5.70859375 11.1387207 -5.70859375 11.1387207 -5.15625 10.04882812 C-4.7746875 9.31083984 -4.393125 8.57285156 -4 7.8125 C-3.6184375 7.06291016 -3.236875 6.31332031 -2.84375 5.54101562 C-1.90120191 3.69126501 -0.95129907 1.84526538 0 0 Z " fill="#C5C845" transform="translate(291,141)"/>
<path d="M0 0 C4.45320578 4.10120606 7.65931256 8.65836559 11 13.6875 C15.41883604 20.24464563 19.91034994 26.73109955 24.5625 33.125 C28.75205265 38.88688925 32.90399048 44.67119303 37 50.5 C41.08019839 56.30403694 45.20878881 62.06991849 49.375 67.8125 C55.1900811 75.83387331 60.88260218 83.93688899 66.55078125 92.0625 C70.43366655 97.62800557 74.34869801 103.17058862 78.26977539 108.70922852 C78.73246826 109.36334717 79.19516113 110.01746582 79.671875 110.69140625 C80.0750293 111.26060791 80.47818359 111.82980957 80.89355469 112.41625977 C84.00929556 116.8760592 84.00929556 116.8760592 83.8125 119.5 C82.49602386 123.55069583 82.49602386 123.55069583 80 125 C73.68818081 124.51774865 67.78283851 123.02617457 61.6875 121.375 C59.63942234 120.83035516 57.59124087 120.28610056 55.54296875 119.7421875 C53.94074463 119.31437988 53.94074463 119.31437988 52.30615234 118.87792969 C46.71096427 117.39215976 41.10500558 115.94820054 35.5 114.5 C33.21478973 113.90776049 30.92963315 113.31531375 28.64453125 112.72265625 C25.40297059 111.88211258 22.16136068 111.04176605 18.91943359 110.20263672 C7.37591129 107.21380758 -4.14994156 104.17166827 -15.64575195 101.00366211 C-17.3185885 100.54344527 -18.99245545 100.08695235 -20.66748047 99.63476562 C-22.1911431 99.22012015 -23.71129123 98.79227364 -25.22705078 98.34960938 C-29.1790144 97.24501753 -32.13098792 96.46118838 -36 98 C-38.28807642 99.71322554 -40.38176829 101.41297203 -42.5 103.3125 C-44.15562269 104.76261036 -45.81258495 106.21112574 -47.47192383 107.65698242 C-48.8431336 108.862131 -50.19442978 110.08984837 -51.54296875 111.3203125 C-55.99567071 114.36428999 -60.83027473 113.79482856 -66 113 C-69.71826475 111.44017067 -73.15365926 109.69268149 -75 106 C-75.5 102.75 -75.5 102.75 -75 99 C-71.90568084 95.07147568 -67.40684103 92.60440947 -63.25 89.9375 C-58.82523844 87.02509349 -56.95740523 84.60839735 -55.12109375 79.60546875 C-51.85775022 70.86482705 -51.85775022 70.86482705 -47 68 C-44.14787013 67.04929004 -42.28736353 66.86439796 -39.32421875 66.82421875 C-38.41349609 66.80037109 -37.50277344 66.77652344 -36.56445312 66.75195312 C-34.65842526 66.70925189 -32.75210795 66.67785678 -30.84570312 66.65820312 C-24.96201585 66.47990957 -21.49348545 65.90705994 -17 62 C-15.0897662 58.1795324 -15.40573104 54.15452893 -16 50 C-16.93079575 47.72050021 -17.93704458 45.47095155 -19 43.25 C-22.63990645 35.27687159 -24.04671542 27.65623292 -20.9921875 19.21484375 C-16.35093302 10.63515333 -8.77465657 4.06848175 0 0 Z " fill="#308BED" transform="translate(413,239)"/>
<path d="M0 0 C4.83536088 3.12876292 7.56729553 6.29228019 9 12 C9.2947364 17.25405682 8.97313206 22.50110343 8.70703125 27.75195312 C8.50611161 35.00689943 9.30652354 39.39239193 14 45 C14.7528125 45.91007812 15.505625 46.82015625 16.28125 47.7578125 C17.0134375 48.53898437 17.745625 49.32015625 18.5 50.125 C19.27472656 50.96546875 20.04945313 51.8059375 20.84765625 52.671875 C21.55792969 53.44015625 22.26820313 54.2084375 23 55 C28.17732308 60.83852337 30.4678298 64.69261609 30.328125 72.5859375 C29.86619552 75.98441866 28.50065533 77.71999073 26 80 C22.83350487 81.58324757 19.42541806 81.64374236 16 81 C10.80847182 78.13399198 7.24398737 74.2592497 3.375 69.875 C2.263414 68.6174223 1.14639386 67.36462252 0.0234375 66.1171875 C-0.46205566 65.56659668 -0.94754883 65.01600586 -1.44775391 64.44873047 C-5.11889404 61.02241 -8.83124891 60.43502452 -13.69921875 60.5625 C-19.47395485 61.66058225 -22.87570671 66.83155166 -26.4375 71.125 C-30.89205002 76.23549475 -34.54269991 78.45670999 -41.28125 79.515625 C-55.66639786 80.42225197 -66.50640594 73.15928764 -77.86328125 65.0546875 C-81.24338128 61.80435365 -82.93742241 58.56443983 -83.125 53.875 C-81.72853388 50.30625326 -80.25533071 49.44427291 -76.984375 47.6640625 C-74.57861525 46.85898542 -72.52000936 46.88703406 -70 47 C-69.57847656 48.14339844 -69.15695313 49.28679687 -68.72265625 50.46484375 C-68.16941479 51.95578259 -67.61602153 53.44666511 -67.0625 54.9375 C-66.64581055 56.06961914 -66.64581055 56.06961914 -66.22070312 57.22460938 C-65.08246549 60.88779139 -65.08246549 60.88779139 -63 64 C-58.42773667 64.52346819 -58.42773667 64.52346819 -54.39225769 62.79252625 C-52.71159446 60.62867901 -51.96955198 58.6685123 -51.09887695 56.06958008 C-50.75875076 55.06876907 -50.41862457 54.06795807 -50.06819153 53.03681946 C-49.71182114 51.95861435 -49.35545074 50.88040924 -48.98828125 49.76953125 C-48.61519333 48.66397385 -48.24210541 47.55841644 -47.85771179 46.4193573 C-46.66762021 42.886482 -45.48993715 39.34961046 -44.3125 35.8125 C-43.50797504 33.41704431 -42.70264633 31.0218584 -41.89648438 28.62695312 C-39.92165143 22.75440105 -37.95699121 16.87852016 -36 11 C-34 12 -32 13 -30 14 C-25.18965293 14.67344859 -21.95281514 14.61652744 -17.8125 11.9375 C-15.13456862 9.33395561 -12.73492252 6.4585401 -10.39453125 3.55078125 C-7.16785529 -0.03742703 -4.64089395 -0.63698544 0 0 Z " fill="#519DFC" transform="translate(273,205)"/>
<path d="M0 0 C3.47449022 2.02095628 5.70394549 4.11183646 7 8 C7.12783029 10.39468734 7.22836588 12.79087957 7.3125 15.1875 C7.61636481 21.40481243 8.73172766 25.68905744 12 31 C12.33 31.99 12.66 32.98 13 34 C16.62328619 35.20776206 19.19611527 35.40040892 23 35 C26.29353967 32.10567726 27.91843533 28.27064816 29.9375 24.4375 C32.10741055 20.36136423 33.90490082 17.38880786 38 15 C38.66 15 39.32 15 40 15 C40 15.66 40 16.32 40 17 C38.35 17.66 36.7 18.32 35 19 C35 19.66 35 20.32 35 21 C36.1446875 21.309375 36.1446875 21.309375 37.3125 21.625 C40.82229103 23.42070704 41.52599781 25.43136312 43 29 C43.433125 28.21625 43.86625 27.4325 44.3125 26.625 C46 24 46 24 49 22 C50.90751563 30.30344735 51.83223822 38.65229486 52.625 47.125 C52.68937256 47.80954254 52.75374512 48.49408508 52.82006836 49.19937134 C54.31914204 65.34395067 54.31914204 65.34395067 54.5 72.6875 C54.5309375 73.84636719 54.561875 75.00523437 54.59375 76.19921875 C54 79 54 79 51.88671875 81.296875 C48.65458121 83.20379241 45.99555711 83.89476217 42.3125 84.5625 C38.93780018 85.12154531 38.93780018 85.12154531 36 86 C35.34 86.99 34.68 87.98 34 89 C28.50021571 88.16718312 23.00097047 87.3309219 17.50219727 86.49145508 C15.63124802 86.20632559 13.76015463 85.92214022 11.88891602 85.63891602 C9.20029931 85.23180911 6.5122181 84.82131712 3.82421875 84.41015625 C2.56782845 84.22103416 2.56782845 84.22103416 1.28605652 84.02809143 C-1.91343591 83.53602853 -4.9227249 83.02575837 -8 82 C-8.52494751 73.046037 -9.0467403 64.09189716 -9.56460571 55.13752174 C-9.80521778 50.97879752 -10.04687958 46.82014005 -10.29101562 42.66162109 C-10.52697321 38.64172944 -10.76007507 34.62168108 -10.99127197 30.60151291 C-11.07957147 29.07462128 -11.16886649 27.54778685 -11.25921631 26.02101517 C-11.73283604 18.00639498 -12.11030215 10.03137509 -12 2 C-7.85663672 -0.00890341 -4.5853527 -0.56311349 0 0 Z " fill="#308CED" transform="translate(155,319)"/>
<path d="M0 0 C1.33417969 0.61101563 1.33417969 0.61101563 2.6953125 1.234375 C21.70489655 10.65603473 35.76791455 28.1667132 42.71582031 48.04833984 C48.60922075 66.82846151 49.00540949 86.74867334 41 105 C40.29230469 106.63388672 40.29230469 106.63388672 39.5703125 108.30078125 C31.86360014 124.87574397 20.46109184 138.08567926 4.125 146.625 C-0.83326476 149.66431346 -2.85721091 151.81954142 -4.71875 157.3203125 C-4.95306732 157.99310242 -5.18738464 158.66589233 -5.42880249 159.35906982 C-6.30663237 161.89935762 -7.15162046 164.44972597 -8 167 C-8.79008422 169.31976831 -9.58206143 171.63889237 -10.37548828 173.95751953 C-12.18929425 179.26759935 -13.99602123 184.58004528 -15.796875 189.89453125 C-16.14445453 190.91968432 -16.14445453 190.91968432 -16.49905586 191.96554756 C-17.68992566 195.48030555 -18.87634123 198.99648654 -20.05566406 202.51513672 C-21.21303006 205.96706833 -22.38184204 209.41493579 -23.55830002 212.86040497 C-24.00029463 214.1618721 -24.4380542 215.46478597 -24.87135696 216.76917267 C-25.47445487 218.58317708 -26.09358707 220.39182666 -26.71337891 222.20019531 C-27.05946198 223.22671204 -27.40554504 224.25322876 -27.76211548 225.31085205 C-29.12735122 228.27665446 -30.45918237 229.96127618 -33 232 C-36.5625 232.5 -36.5625 232.5 -40 232 C-42.57851773 229.23408856 -43.76336002 226.36161718 -44.97363281 222.81445312 C-45.33120667 221.77816772 -45.68878052 220.74188232 -46.05718994 219.67419434 C-46.43534851 218.55452271 -46.81350708 217.43485107 -47.203125 216.28125 C-47.6040033 215.11356079 -48.00488159 213.94587158 -48.41790771 212.74279785 C-49.48567273 209.62866888 -50.54721986 206.51251329 -51.60565186 203.39520264 C-52.65812295 200.29959973 -53.71802851 197.20654753 -54.77734375 194.11328125 C-55.18964233 192.90833008 -55.60194092 191.70337891 -56.0267334 190.46191406 C-56.85009605 188.05729598 -57.67439044 185.65299673 -58.49963379 183.24902344 C-60.3614921 177.8199972 -62.2074873 172.38787312 -63.99414062 166.93359375 C-64.30123962 166.01340454 -64.60833862 165.09321533 -64.92474365 164.1451416 C-65.48452832 162.46739382 -66.03325811 160.78589379 -66.56793213 159.09997559 C-68.81720727 152.43339671 -72.40716023 148.61886302 -78.625 145.25 C-84.61587197 141.77690135 -89.79440899 137.54787381 -95 133 C-95.66128906 132.42378906 -96.32257813 131.84757813 -97.00390625 131.25390625 C-109.74716901 119.36589602 -118.24510101 99.33122263 -119 82 C-119.0515625 81.01128906 -119.103125 80.02257812 -119.15625 79.00390625 C-119.79524473 55.54747453 -112.39542128 34.49579394 -96.24804688 17.27758789 C-71.27546802 -8.54402485 -32.44971181 -15.64058132 0 0 Z M-61 2 C-61.92425781 2.28875 -62.84851563 2.5775 -63.80078125 2.875 C-83.79557076 10.01827408 -97.93066276 26.08221691 -106.875 44.6875 C-111.16939301 54.15106977 -112.46930573 63.31345539 -112.3125 73.625 C-112.31572266 74.69234375 -112.31894531 75.7596875 -112.32226562 76.859375 C-112.27963359 83.16891671 -111.71359496 88.92581778 -110 95 C-109.67902344 96.13824219 -109.35804688 97.27648437 -109.02734375 98.44921875 C-102.56978176 117.63674164 -90.47513618 131.85670329 -73 142 C-63.48804332 147.6576694 -61.21385326 156.76627701 -57.8828125 166.77734375 C-57.50317352 167.9020961 -57.12353455 169.02684845 -56.73239136 170.1856842 C-55.52445028 173.76780674 -54.32442228 177.35251713 -53.125 180.9375 C-52.32738529 183.31073596 -51.52921311 185.68378463 -50.73046875 188.05664062 C-50.34066833 189.2147525 -49.95086792 190.37286438 -49.54925537 191.56607056 C-48.0441571 196.03226125 -46.53433004 200.49684582 -45.02355957 204.96112061 C-44.07200956 207.78620848 -43.13395477 210.61543798 -42.19824219 213.44580078 C-41.67182975 215.00704033 -41.14485968 216.56809202 -40.6171875 218.12890625 C-40.3912088 218.82741196 -40.1652301 219.52591766 -39.93240356 220.24559021 C-39.25116698 222.32627875 -39.25116698 222.32627875 -38 225 C-37.01 225.33 -36.02 225.66 -35 226 C-30.16937173 213.44216561 -25.79662228 200.7490295 -21.5 188 C-14.26556789 166.53383835 -14.26556789 166.53383835 -10.78125 156.9375 C-10.33845703 155.70902344 -9.89566406 154.48054687 -9.43945312 153.21484375 C-6.77664844 147.26779286 -3.47572103 144.40799692 2.125 141.25 C18.21190179 131.79523867 30.01112065 117.8716656 36.3125 100.375 C36.56725098 99.67052734 36.82200195 98.96605469 37.08447266 98.24023438 C41.97653472 83.95421266 42.10486866 65.17789432 37 51 C36.67128906 50.03320312 36.34257812 49.06640625 36.00390625 48.0703125 C28.91244939 29.17611947 14.28234977 13.73679064 -3.85791016 5.1171875 C-22.78601798 -3.46935643 -41.32365891 -4.17970145 -61 2 Z " fill="#070402" transform="translate(250,38)"/>
<path d="M0 0 C2 3 2 3 3 5.625 C3.76047262 8.15139938 3.76047262 8.15139938 6 9 C4.83623779 12.14215798 3.6740086 13.26486801 1 15.4375 C-2.10164629 17.629459 -2.10164629 17.629459 -2.71484375 20.2578125 C-4.6691275 24.42774317 -7.98875569 26.63226885 -11.5625 29.4375 C-13.11610115 30.6859295 -14.66948049 31.93463506 -16.22265625 33.18359375 C-17.01816895 33.81765137 -17.81368164 34.45170898 -18.63330078 35.10498047 C-22.28773347 38.03109008 -25.89248662 41.01640246 -29.5 44 C-30.91639842 45.16699232 -32.33306598 46.33365805 -33.75 47.5 C-34.45125 48.0775 -35.1525 48.655 -35.875 49.25 C-38 51 -40.125 52.75 -42.25 54.5 C-43.3023584 55.3667334 -43.3023584 55.3667334 -44.37597656 56.25097656 C-45.78916243 57.41466203 -47.20257304 58.57807463 -48.61621094 59.74121094 C-52.21304901 62.7012644 -55.80555719 65.66632296 -59.390625 68.640625 C-62.92367243 71.571238 -66.47545005 74.47799271 -70.03369141 77.37792969 C-71.9131126 78.92832383 -73.76076492 80.51015365 -75.60546875 82.1015625 C-76.71545684 83.02686881 -77.82609291 83.95139857 -78.9375 84.875 C-79.87464844 85.67679687 -80.81179688 86.47859375 -81.77734375 87.3046875 C-90.14010174 91.70400504 -101.23307035 88.17614897 -110.08984375 86.62890625 C-111.52556928 86.38402595 -112.96140837 86.13981062 -114.39735413 85.89622498 C-117.38598397 85.38755591 -120.37363299 84.87359219 -123.3605957 84.35522461 C-127.18811972 83.69103662 -131.01716874 83.03621481 -134.84688473 82.3847971 C-138.51175106 81.76101706 -142.17582471 81.13264068 -145.83984375 80.50390625 C-146.88473119 80.32520083 -146.88473119 80.32520083 -147.95072746 80.14288521 C-149.91802849 79.80556158 -151.88468984 79.46451357 -153.85131836 79.12329102 C-154.96921249 78.93009781 -156.08710663 78.7369046 -157.23887634 78.53785706 C-160 78 -160 78 -163 77 C-163.33 76.34 -163.66 75.68 -164 75 C-166.3140622 74.26924352 -168.64828869 73.59861742 -171 73 C-170.505 72.01 -170.505 72.01 -170 71 C-168.41949756 66.25849269 -168.40287909 61.79136272 -170 57 C-164.35315778 57.84756753 -158.70746967 58.70254944 -153.0625 59.5625 C-152.20352112 59.69327942 -151.34454224 59.82405884 -150.45953369 59.95880127 C-134.61886576 62.37815524 -118.82385494 65.03172772 -103.04321289 67.81469727 C-101.78664131 68.03394112 -101.78664131 68.03394112 -100.50468445 68.25761414 C-98.94294415 68.53013912 -97.381786 68.80603157 -95.82136536 69.08601379 C-90.43597734 70.05044956 -90.43597734 70.05044956 -85 70 C-82.59380983 68.23722332 -80.49128922 66.50891245 -78.3125 64.5 C-77.06362431 63.38805886 -75.8136195 62.27738462 -74.5625 61.16796875 C-73.9540625 60.62317871 -73.345625 60.07838867 -72.71875 59.51708984 C-70.47626932 57.5377184 -68.15922003 55.66655926 -65.8125 53.8125 C-56.25199022 46.24763061 -46.88410545 38.4411747 -37.4765625 30.6875 C-34.51533558 28.24716983 -31.55170895 25.80980482 -28.5859375 23.375 C-21.34915308 17.43049851 -14.13042147 11.47048843 -7.02050781 5.37426758 C-4.74085115 3.42784353 -2.49958457 1.66638971 0 0 Z " fill="#C4C744" transform="translate(360,355)"/>
<path d="M0 0 C1.32 0.33 2.64 0.66 4 1 C4 1.99 4 2.98 4 4 C4.60513428 4.11682129 5.21026855 4.23364258 5.83374023 4.35400391 C12.86841656 5.73345838 19.82832689 7.34522971 26.79296875 9.0390625 C31.17310631 10.10016625 35.55015309 11.13107018 39.96484375 12.0390625 C41.11617798 12.28390381 41.11617798 12.28390381 42.29077148 12.53369141 C43.71815879 12.83497439 45.14863273 13.12213673 46.58227539 13.39208984 C54.41866115 15.08246392 58.12284462 21.22756143 62.625 27.3125 C63.14425049 28.00964111 63.66350098 28.70678223 64.19848633 29.42504883 C69.20224218 36.18903418 73.96529154 43.10968207 78.6875 50.07177734 C80.8354956 53.22744498 83.01147775 56.36362254 85.1875 59.5 C85.92355469 60.5621875 86.65960938 61.624375 87.41796875 62.71875 C87.94003906 63.4715625 88.46210938 64.224375 89 65 C86.90087636 69.86331617 83.87117295 72.05459445 79 74 C73.33827438 74.93374009 68.72726216 74.92760375 63.625 72.1875 C60.35703148 68.89086509 58.56772171 64.51385666 56.6875 60.328125 C55.15862319 57.74099421 55.15862319 57.74099421 52.12109375 57.05078125 C48.78777029 56.99654695 47.03851851 57.50495949 44.0625 58.9375 C39.82340944 60.76425524 36.6784779 61.73387889 32 61 C25.68294236 57.4107627 24.38609031 51.42822293 22.5625 44.875 C21.07621536 39.88802464 19.56677503 36.5169496 14.91796875 33.76953125 C13.33957839 32.91882334 11.75881356 32.07250721 10.17578125 31.23046875 C3.81520517 27.63337456 0.36564153 21.74501097 -2 15 C-2.75455433 9.68732154 -2.56910376 4.81706956 0 0 Z " fill="#C5C844" transform="translate(303,143)"/>
<path d="M0 0 C1.14621826 0.17942139 2.29243652 0.35884277 3.47338867 0.54370117 C7.13888938 1.12391061 10.78663767 1.77176593 14.4375 2.4375 C16.29665039 2.76331055 16.29665039 2.76331055 18.19335938 3.09570312 C28.88117289 5.01847022 28.88117289 5.01847022 33 7 C34.57212151 10.14424302 34.5179375 13.57791292 34 17 C32.484375 19.76171875 32.484375 19.76171875 31 22 C27.83242313 21.56893973 24.66601944 21.1298515 21.5 20.6875 C20.54834961 20.55504883 19.59669922 20.42259766 18.61621094 20.28613281 C11.5546499 19.28004383 4.60441756 17.9905857 -2.359375 16.453125 C-9.84939853 15.52089031 -16.07479001 17.02704642 -22.8203125 20.21875 C-23.54425705 20.54814072 -24.2682016 20.87753143 -25.01408386 21.21690369 C-26.57374408 21.92811866 -28.13080987 22.64504602 -29.68545532 23.36715698 C-33.04700141 24.92814664 -36.42138079 26.4604554 -39.79518127 27.99473572 C-41.5593559 28.79726586 -43.32288914 29.60120733 -45.08580017 30.4065094 C-54.90473286 34.88713419 -64.80128151 39.18486131 -74.70513916 43.47360229 C-77.12276539 44.52070765 -79.54004154 45.56861374 -81.95703125 46.6171875 C-82.76257446 46.96662918 -83.56811768 47.31607086 -84.39807129 47.67610168 C-89.76533689 50.01086487 -95.1138643 52.38500902 -100.45365906 54.78190613 C-104.22098664 56.47281291 -107.99225216 58.15484635 -111.76351929 59.83694458 C-113.57178881 60.64679298 -115.37801141 61.46122917 -117.18203735 62.28048706 C-119.68922239 63.4187192 -122.20304625 64.54090583 -124.71875 65.66015625 C-125.45554489 65.99987457 -126.19233978 66.3395929 -126.95146179 66.68960571 C-131.45221926 68.669573 -134.98632513 69.49351698 -140 69 C-141.92578125 67.453125 -141.92578125 67.453125 -143 65 C-143.29296875 61.546875 -143.29296875 61.546875 -143.1875 57.75 C-143.16042969 56.48671875 -143.13335937 55.2234375 -143.10546875 53.921875 C-143.07066406 52.95765625 -143.03585938 51.9934375 -143 51 C-141.7109375 51.24016846 -140.421875 51.48033691 -139.09375 51.7277832 C-133.4424638 52.34031353 -129.56266958 50.70802328 -124.5 48.35546875 C-123.15498161 47.7609491 -123.15498161 47.7609491 -121.78279114 47.15441895 C-118.84625539 45.85118823 -115.92359645 44.51947171 -113 43.1875 C-110.94061986 42.26786933 -108.88030218 41.35033555 -106.8190918 40.43481445 C-102.59405195 38.55512495 -98.37397758 36.66491838 -94.15771484 34.765625 C-88.47865986 32.21001145 -82.7849452 29.68936173 -77.08203125 27.1875 C-76.22062027 26.80949249 -75.35920929 26.43148499 -74.47169495 26.04202271 C-70.23935883 24.18630706 -66.00530336 22.33454062 -61.77075195 20.48388672 C-60.11013845 19.7576021 -58.44957494 19.03120316 -56.7890625 18.3046875 C-55.97839828 17.95026581 -55.16773407 17.59584412 -54.33250427 17.23068237 C-49.38557441 15.06255852 -44.45775077 12.85606893 -39.54090881 10.62059021 C-36.35181879 9.17505467 -33.15379027 7.7500732 -29.95394897 6.32852173 C-28.46951521 5.66306798 -26.98917101 4.98839731 -25.51358032 4.30355835 C-16.64826247 0.19309327 -9.85696187 -1.94276384 0 0 Z " fill="#2382D8" transform="translate(158,406)"/>
<path d="M0 0 C1.72153338 2.58230007 3.26477534 5.18792129 4.8125 7.875 C7.18150532 11.82906443 9.55904292 14.89474605 13 18 C14.14949935 19.16305477 15.29506456 20.33000581 16.4375 21.5 C18.60224313 23.6882219 20.65683521 25.49919476 23.125 27.375 C30.41990654 34.03556684 31.76927613 41.52025425 32.83666992 50.99658203 C33.50479407 56.44316138 34.63632886 61.53335291 38 66 C40.89284825 67.88926154 43.12867393 68.24150441 46.546875 68.1953125 C47.39121094 68.18886719 48.23554688 68.18242187 49.10546875 68.17578125 C49.97816406 68.15902344 50.85085937 68.14226562 51.75 68.125 C52.63816406 68.11597656 53.52632812 68.10695313 54.44140625 68.09765625 C56.62788058 68.07414577 58.81380094 68.04128499 61 68 C60.34 69.32 59.68 70.64 59 72 C60.62339805 73.70884005 62.29319053 75.37446717 64 77 C66.32357511 77.18490007 66.32357511 77.18490007 69 75 C69.58564246 76.58248069 70.1683258 78.1660564 70.75 79.75 C71.30107422 81.24660156 71.30107422 81.24660156 71.86328125 82.7734375 C72.61552026 84.90865889 73.32226063 87.0605071 73.98046875 89.2265625 C75.76668965 95.10286472 77.04437965 99.21807921 82 103 C84.64458379 104.32229189 86.67761301 104.09677194 89.625 104.0625 C90.62789063 104.05347656 91.63078125 104.04445313 92.6640625 104.03515625 C93.43492187 104.02355469 94.20578125 104.01195312 95 104 C93.40498414 108.83535133 91.80563172 113.66924113 90.20263672 118.50195312 C89.66049331 120.13829866 89.11943669 121.77500475 88.57958984 123.41210938 C84.96386011 134.37376302 81.14082598 145.22530701 77 156 C74 155 74 155 73.09910583 153.28385925 C72.72798424 152.16144585 72.72798424 152.16144585 72.34936523 151.01635742 C72.06119431 150.16491653 71.77302338 149.31347565 71.47612 148.43623352 C71.17333633 147.50208115 70.87055267 146.56792877 70.55859375 145.60546875 C70.23450027 144.63832443 69.9104068 143.67118011 69.57649231 142.67472839 C68.88109675 140.5955549 68.19103763 138.51459059 67.5057373 136.43206787 C66.43852315 133.19060762 65.35693918 129.95430402 64.27050781 126.71923828 C62.83611001 122.44763526 61.40542319 118.17482661 59.97802734 113.90087891 C57.45890185 106.37189375 54.88594042 98.86382975 52.25 91.375 C51.6785022 89.71053833 51.6785022 89.71053833 51.09545898 88.01245117 C48.22746501 79.90775828 45.52296166 75.56234465 37.875 71.25 C19.3982347 60.39064322 6.84624373 43.55848519 1 23 C0.03727944 17.80968044 -0.1249845 12.81600478 -0.0625 7.5625 C-0.05798828 6.83095703 -0.05347656 6.09941406 -0.04882812 5.34570312 C-0.03718148 3.56376581 -0.01925191 1.78187137 0 0 Z " fill="#F06535" transform="translate(138,108)"/>
<path d="M0 0 C1.97414936 7.4030601 1.97406027 14.52359945 -1.77734375 21.2734375 C-3 23 -3 23 -5.75 25.4375 C-8.61037689 28.69515145 -8.4638602 30.40844895 -8.26171875 34.59765625 C-8.08765586 36.1953977 -7.86104065 37.78830211 -7.58203125 39.37109375 C-6.8689929 43.55754665 -6.64352305 45.35070269 -8.75 49.1875 C-12.11178276 52.60658587 -16.44029161 54.64538918 -20.671875 56.80078125 C-22.9009051 57.79930043 -22.9009051 57.79930043 -24 59 C-24.62639554 63.90676507 -23.87395498 66.59195528 -21.5 70.9375 C-18.92987221 75.79136992 -18.11850635 78.53473936 -19 84 C-20.80073238 88.23477318 -22.96136169 91.20865653 -26.625 94 C-33.9889057 96.18189799 -41.50972134 94.99442672 -49 94 C-46.37520701 76.38717854 -43.51317621 58.83019082 -40.3125 41.3125 C-40.16247528 40.48167908 -40.01245056 39.65085815 -39.85787964 38.79486084 C-39.4280117 36.42071919 -38.99069064 34.0480804 -38.55078125 31.67578125 C-38.42383881 30.97186752 -38.29689636 30.2679538 -38.16610718 29.54270935 C-36.42040475 20.27772858 -36.42040475 20.27772858 -33.52709961 17.67504883 C-32.92905518 17.33497803 -32.33101074 16.99490723 -31.71484375 16.64453125 C-31.00183105 16.23283691 -30.28881836 15.82114258 -29.55419922 15.39697266 C-28.28987061 14.70547119 -28.28987061 14.70547119 -27 14 C-25.47850342 13.15574463 -25.47850342 13.15574463 -23.92626953 12.29443359 C-21.0733748 10.72764255 -18.21239748 9.17771518 -15.34301758 7.64135742 C-13.53984222 6.67536179 -11.73953447 5.70416875 -9.93945312 4.73242188 C-1.13063823 0 -1.13063823 0 0 0 Z " fill="#D1DA5D" transform="translate(93,191)"/>
<path d="M0 0 C7.22009648 0.63307735 14.23851806 2.84369048 21.1784668 4.82836914 C29.6428444 7.22889527 38.18083008 9.32253098 46.72631836 11.4128418 C52.41962918 12.81530556 58.07582516 14.2866414 63.70703125 15.921875 C71.44444551 18.161142 79.23781153 20.14381219 87.05249023 22.09204102 C89.45992979 22.69309999 91.86571716 23.30048933 94.27148438 23.90820312 C95.82542553 24.29725586 97.37945872 24.68594121 98.93359375 25.07421875 C99.64100204 25.25337326 100.34841034 25.43252777 101.07725525 25.61711121 C109.52530949 27.9832548 109.52530949 27.9832548 118 27 C118.10823773 29.24893954 118.18569645 31.49937575 118.25 33.75 C118.29640625 35.00296875 118.3428125 36.2559375 118.390625 37.546875 C118 41 118 41 116.546875 43.515625 C110.60126567 46.98085743 102.03704893 43.37482439 95.77807617 41.72827148 C94.65506104 41.42606689 93.5320459 41.1238623 92.375 40.8125 C89.96224179 40.1744708 87.54948134 39.53645011 85.13671875 38.8984375 C83.9357959 38.57842773 82.73487305 38.25841797 81.49755859 37.92871094 C77.34056221 36.82489869 73.17745575 35.74585519 69.01342773 34.66894531 C61.65801266 32.76511606 54.31552037 30.82270681 46.99145508 28.80151367 C37.35304727 26.14267284 27.68952504 23.5913222 18 21.125 C16.80028564 20.8144165 15.60057129 20.50383301 14.36450195 20.18383789 C13.23359131 19.89887451 12.10268066 19.61391113 10.9375 19.3203125 C9.93589844 19.06523926 8.93429687 18.81016602 7.90234375 18.54736328 C3.92231264 17.79675513 0.41108655 17.20155601 -3.1953125 19.2421875 C-3.83210938 19.78101563 -4.46890625 20.31984375 -5.125 20.875 C-7.6606234 22.98292789 -9.99481537 24.62429326 -13 26 C-15.75941154 23.77466811 -16.93848471 22.17036608 -18.15234375 18.80859375 C-18 15 -18 15 -16.49682617 13.13549805 C-14.2829169 11.1727978 -12.00083781 9.38808217 -9.625 7.625 C-8.81804687 6.99722656 -8.01109375 6.36945313 -7.1796875 5.72265625 C-5.69158867 4.56663317 -4.19567571 3.42055473 -2.68994141 2.28759766 C-1.0628995 1.10753592 -1.0628995 1.10753592 0 0 Z " fill="#2382D8" transform="translate(379,339)"/>
<path d="M0 0 C20.59340717 3.09098477 41.16103835 6.3018279 61.6875 9.8125 C62.58193817 9.96502228 63.47637634 10.11754456 64.3979187 10.27468872 C66.93623389 10.70828232 69.47408209 11.14448565 72.01171875 11.58203125 C72.76418884 11.71095764 73.51665894 11.83988403 74.29193115 11.97271729 C77.56026555 12.54046945 80.79891805 13.12252756 84 14 C84.50744423 15.89385437 85.00564574 17.79018666 85.5 19.6875 C85.7784375 20.74324219 86.056875 21.79898437 86.34375 22.88671875 C86.9391715 25.71142672 87.12786492 28.12836708 87 31 C79.41276155 34.79361923 67.79720199 31.00674144 59.91015625 29.62890625 C58.47443072 29.38402595 57.03859163 29.13981062 55.60264587 28.89622498 C52.61401603 28.38755591 49.62636701 27.87359219 46.6394043 27.35522461 C42.81188028 26.69103662 38.98283126 26.03621481 35.15311527 25.3847971 C31.48824894 24.76101706 27.82417529 24.13264068 24.16015625 23.50390625 C23.11526881 23.32520083 23.11526881 23.32520083 22.04927254 23.14288521 C20.08197151 22.80556158 18.11531016 22.46451357 16.14868164 22.12329102 C15.03078751 21.93009781 13.91289337 21.7369046 12.76112366 21.53785706 C10 21 10 21 7 20 C6.67 19.34 6.34 18.68 6 18 C3.6859378 17.26924352 1.35171131 16.59861742 -1 16 C-0.67 15.34 -0.34 14.68 0 14 C1.58050244 9.25849269 1.59712091 4.79136272 0 0 Z " fill="#B1B134" transform="translate(190,412)"/>
<path d="M0 0 C4.94568834 -0.31858729 8.74880483 0.73265608 13.25 2.625 C13.90895264 2.89787842 14.56790527 3.17075684 15.24682617 3.4519043 C34.55142887 11.64852215 50.49071867 27.18210911 58.5078125 46.6640625 C61.88670364 55.83533846 63.16603464 63.66346792 63.125 73.375 C63.13080078 74.73625 63.13080078 74.73625 63.13671875 76.125 C63.12896132 81.50865729 62.78587235 86.67353182 62 92 C56.57267766 91.66079235 52.83352703 88.59346271 49 85 C42.81103289 77.50522884 40.65241481 70.22537277 40.91015625 60.6171875 C40.93056374 59.02213828 40.95073915 57.42708608 40.97070312 55.83203125 C41.01426632 53.34572986 41.0628313 50.85964006 41.11645508 48.37353516 C41.16481152 45.95476027 41.19461433 43.53627069 41.22265625 41.1171875 C41.24441422 40.37749725 41.26617218 39.63780701 41.28858948 38.8757019 C41.33152926 34.39164939 40.87902631 31.49918051 38 28 C36.17970387 26.82742721 36.17970387 26.82742721 34.0859375 26.2265625 C33.32885498 25.96270752 32.57177246 25.69885254 31.79174805 25.42700195 C30.59545776 25.03001099 30.59545776 25.03001099 29.375 24.625 C22.18805425 22.04973123 16.67617964 19.2009646 11 14 C10.113125 13.401875 9.22625 12.80375 8.3125 12.1875 C4.65259966 8.72543211 2.43129121 4.37799516 0 0 Z " fill="#FC7842" transform="translate(227,38)"/>
<path d="M0 0 C9.9948015 5.41805738 17.34167156 13.16429698 21.44140625 23.83984375 C24.49504831 35.71511843 22.45841605 46.77926163 16.6328125 57.3828125 C10.15897219 67.59216947 1.52690173 71.52228276 -9.6796875 75.2578125 C-22.02104449 76.32831435 -31.35358183 74.35811596 -41.5546875 66.9453125 C-49.23868089 60.4840884 -54.74477576 52.44731834 -55.90722656 42.26464844 C-56.77807691 30.26444014 -55.07771497 20.71672858 -47.375 11.13671875 C-35.16942914 -2.39065356 -17.20575212 -7.52422799 0 0 Z M-43.6796875 16.2578125 C-48.83156475 24.32829911 -50.54541806 31.74714388 -49.6796875 41.2578125 C-47.57474045 50.50182694 -42.82661275 58.69558528 -34.9296875 64.1328125 C-26.58453155 68.76365048 -18.022066 70.29539357 -8.6796875 68.2578125 C-5.48149256 67.22069817 -2.61081064 65.89857403 0.3203125 64.2578125 C0.94808594 63.90847656 1.57585937 63.55914062 2.22265625 63.19921875 C9.61800262 58.52251174 13.69531025 51.04353545 15.8515625 42.7265625 C17.42088565 34.46146059 16.32510032 26.38416262 12.03125 19.05859375 C6.46823971 11.24955524 -0.22095142 5.5484996 -9.6796875 3.2578125 C-23.9816042 1.64864162 -34.16443427 5.40974898 -43.6796875 16.2578125 Z " fill="#050201" transform="translate(230.6796875,76.7421875)"/>
<path d="M0 0 C0.66 1.32 1.32 2.64 2 4 C7.3086849 3.41825155 7.3086849 3.41825155 12 1 C14.6875 1.375 14.6875 1.375 17 2 C17.20496094 2.71027344 17.40992187 3.42054688 17.62109375 4.15234375 C17.89050781 5.07144531 18.15992187 5.99054688 18.4375 6.9375 C18.70433594 7.85402344 18.97117187 8.77054687 19.24609375 9.71484375 C19.79026051 11.9402493 19.79026051 11.9402493 21 13 C24.58439713 12.64858852 27.73087242 12.09688593 31.125 10.875 C34.28848975 9.91219877 35.89009485 9.96336495 39 11 C41 13 41 13 41.1875 16.5 C41 20 41 20 40 22 C39.77532169 23.53668865 39.59203195 25.07968054 39.4375 26.625 C39.35371094 27.44226563 39.26992188 28.25953125 39.18359375 29.1015625 C39.09271484 30.04128906 39.09271484 30.04128906 39 31 C33.84661939 33.29276274 28.68711846 35.57091674 23.52148438 37.8359375 C21.76615779 38.60802211 20.01255003 39.38402703 18.26074219 40.1640625 C15.7381766 41.28647534 13.20970676 42.39450965 10.6796875 43.5 C9.90132538 43.84998047 9.12296326 44.19996094 8.3210144 44.56054688 C4.08982795 46.39136918 0.70528403 47.62630364 -4 47 C-6.55381948 44.44618052 -6.29780951 43.50455001 -6.3125 39.953125 C-6.17477748 31.72420454 -4.56511566 23.80141712 -3 15.75 C-2.70994253 14.21503143 -2.42087331 12.67987577 -2.1328125 11.14453125 C-1.4332254 7.42743686 -0.72039791 3.71311475 0 0 Z " fill="#2F8AED" transform="translate(22,408)"/>
<path d="M0 0 C0.66 0 1.32 0 2 0 C3.31030345 5.49689204 4.61009405 10.99612273 5.90014648 16.49780273 C6.34061236 18.36957974 6.78395828 20.24068143 7.23022461 22.11108398 C7.87068479 24.79759718 8.50079405 27.48635802 9.12890625 30.17578125 C9.33093155 31.01337479 9.53295685 31.85096832 9.74110413 32.71394348 C11.11387171 38.65838488 11.11387171 38.65838488 10 42 C5.19543692 45.36319415 -1.26340044 44.8956155 -6.8828125 44.37597656 C-16.96601708 42.58537058 -28.79164899 34.93161358 -36 28 C-37.92732013 24.71048206 -38.97220242 22.69493955 -39.125 18.875 C-37.72853388 15.30625326 -36.25533071 14.44427291 -32.984375 12.6640625 C-30.57861525 11.85898542 -28.52000936 11.88703406 -26 12 C-25.57847656 13.14339844 -25.15695313 14.28679687 -24.72265625 15.46484375 C-24.16941479 16.95578259 -23.61602153 18.44666511 -23.0625 19.9375 C-22.64581055 21.06961914 -22.64581055 21.06961914 -22.22070312 22.22460938 C-21.08246549 25.88779139 -21.08246549 25.88779139 -19 29 C-14.46125357 29.51338372 -14.46125357 29.51338372 -10.41479492 27.8581543 C-8.53572912 25.39023888 -7.72751687 22.95856462 -6.73828125 20.01953125 C-6.14370117 18.27446289 -6.14370117 18.27446289 -5.53710938 16.49414062 C-5.13298828 15.27919922 -4.72886719 14.06425781 -4.3125 12.8125 C-3.89677734 11.58595703 -3.48105469 10.35941406 -3.05273438 9.09570312 C-2.02724126 6.0663729 -1.01002691 3.03451483 0 0 Z " fill="#318BEA" transform="translate(229,240)"/>
<path d="M0 0 C3.53192992 4.51028229 6.07244183 9.45304252 8.75 14.5 C9.52923828 15.92505859 9.52923828 15.92505859 10.32421875 17.37890625 C11.05318359 18.75369141 11.05318359 18.75369141 11.796875 20.15625 C12.24385742 20.98962891 12.69083984 21.82300781 13.15136719 22.68164062 C14.13059197 25.35676104 14.12716155 26.40888646 13 29 C10.95687117 30.96232712 8.94961726 32.73356776 6.75 34.5 C6.17636719 34.97308594 5.60273438 35.44617188 5.01171875 35.93359375 C3.87849421 36.86547088 2.73882243 37.78956854 1.5925293 38.70532227 C0.17079463 39.86114918 -1.19821781 41.08114004 -2.55859375 42.30859375 C-6.98963426 45.37841861 -11.83768575 44.79368914 -17 44 C-20.71826475 42.44017067 -24.15365926 40.69268149 -26 37 C-26.5 33.75 -26.5 33.75 -26 30 C-22.90568084 26.07147568 -18.40684103 23.60440947 -14.25 20.9375 C-8.13192889 16.91054626 -6.50599314 12.00393119 -4.0625 5.3046875 C-2.99099623 2.98046976 -1.91596775 1.6655856 0 0 Z " fill="#519DFB" transform="translate(364,308)"/>
<path d="M0 0 C1.32 0.33 2.64 0.66 4 1 C3.835 1.639375 3.67 2.27875 3.5 2.9375 C2.26118038 10.52527017 2.43971884 16.55612444 7 23 C10.64568681 26.56283029 14.68577429 29.1469654 19.0703125 31.69140625 C24.48421462 35.36277712 25.93287445 38.96649333 27.5625 45.0625 C28.97188536 51.32005676 28.97188536 51.32005676 33 56 C37.15407164 56.69234527 39.77314098 55.73534565 43.4375 53.9375 C47.70323298 51.93009624 50.37849587 51.48912365 55 53 C59.50711598 56.4078194 61.94719174 61.03773513 64.66796875 65.890625 C65.82709033 68.1291614 65.82709033 68.1291614 68 69 C73.23480004 69.66990128 77.59827159 69.77571086 82 66.625 C83.7086166 65.12996047 85.39461626 63.60538374 87 62 C87.99 63.98 87.99 63.98 89 66 C85.12463176 70.09681785 81.81941393 73.54464378 76.09765625 74.46875 C71.27590993 74.51839475 67.92976627 74.49931893 63.625 72.1875 C60.35703148 68.89086509 58.56772171 64.51385666 56.6875 60.328125 C55.15862319 57.74099421 55.15862319 57.74099421 52.12109375 57.05078125 C48.78777029 56.99654695 47.03851851 57.50495949 44.0625 58.9375 C39.82340944 60.76425524 36.6784779 61.73387889 32 61 C25.68294236 57.4107627 24.38609031 51.42822293 22.5625 44.875 C21.07621536 39.88802464 19.56677503 36.5169496 14.91796875 33.76953125 C13.33957839 32.91882334 11.75881356 32.07250721 10.17578125 31.23046875 C3.81520517 27.63337456 0.36564153 21.74501097 -2 15 C-2.75455433 9.68732154 -2.56910376 4.81706956 0 0 Z " fill="#B3B335" transform="translate(303,143)"/>
<path d="M0 0 C2.66020416 0.46740036 5.31751307 0.94591621 7.97265625 1.44140625 C9.83062227 1.78423095 11.69219943 2.10884968 13.55859375 2.40234375 C14.32300781 2.53769531 15.08742188 2.67304688 15.875 2.8125 C16.55304688 2.92207031 17.23109375 3.03164062 17.9296875 3.14453125 C23.66972878 5.51635963 27.40035732 11.95663684 31 16.8125 C31.50789063 17.48603516 32.01578125 18.15957031 32.5390625 18.85351562 C35.94941739 23.42251672 39.05344817 28.11977353 42 33 C38.75 33.3125 38.75 33.3125 35 33 C32.6875 30.6875 32.6875 30.6875 31 28 C30.34 27.01 29.68 26.02 29 25 C24.58929085 24.58970147 20.35716395 25.30285377 16 26 C14.22040209 23.20348899 12.90047579 20.71190362 11.8125 17.5625 C9.72366558 13.45685993 7.603933 11.85474888 3.83984375 9.359375 C2 8 2 8 0 5 C-0.125 2.3125 -0.125 2.3125 0 0 Z " fill="#AFAF33" transform="translate(335,154)"/>
<path d="M0 0 C0.33 0 0.66 0 1 0 C1.12117188 0.63808594 1.24234375 1.27617187 1.3671875 1.93359375 C1.53476562 2.75988281 1.70234375 3.58617187 1.875 4.4375 C2.03742187 5.26121094 2.19984375 6.08492188 2.3671875 6.93359375 C2.57601562 7.61550781 2.78484375 8.29742187 3 9 C6.26361921 10.6318096 9.47388579 10.55737246 13 10 C15.54389202 8.86583667 15.54389202 8.86583667 18.0625 7.4375 C21.51827708 5.5660638 22.88213088 5.00187094 26.9375 4.9375 C30.45303457 6.15717526 31.13630992 6.86561213 33 10 C33.66015625 12.91015625 33.66015625 12.91015625 34.0625 16.0625 C34.56079989 19.90178202 34.82026482 21.73039723 37 25 C42.80156787 25.73670703 46.32117281 25.06956431 51.5625 22.5 C56.51345472 20.07984057 59.52114854 19.07138111 65 20 C68.00670355 21.78564054 70.41001321 23.82002641 72 27 C72.42894163 34.13240151 71.95858446 40.14495439 70 47 C69.51303464 55.59208627 69.51303464 55.59208627 71 64 C69.68 64.33 68.36 64.66 67 65 C63.60029636 55.95218314 64.25157705 47.2519308 67.31640625 38.21875 C68.31024829 34.9930227 68.46675822 32.33398727 68 29 C66.52006844 26.43661311 66.52006844 26.43661311 64 25 C59.33273844 24.57451332 56.36871153 25.4849583 52.1875 27.5 C47.01542379 29.75235577 42.623653 31.24457894 37 30 C32.86498372 27.62456512 31.48291862 25.42966249 30 21 C29.7240522 19.07096868 29.51550097 17.1310968 29.375 15.1875 C29.30023438 14.21167969 29.22546875 13.23585938 29.1484375 12.23046875 C29.09945312 11.49441406 29.05046875 10.75835937 29 10 C24.64907593 9.44218922 22.2992057 10.25060435 18.6875 12.5 C14.07074399 15.240469 10.29912115 15.98397607 5 15 C1.9375 13.5 1.9375 13.5 0 12 C-0.66 12.66 -1.32 13.32 -2 14 C-1.85795259 12.41632253 -1.71119847 10.83306682 -1.5625 9.25 C-1.48128906 8.36828125 -1.40007813 7.4865625 -1.31640625 6.578125 C-1.03761535 4.30649548 -0.61209423 2.20148177 0 0 Z " fill="#328BED" transform="translate(31,357)"/>
<path d="M0 0 C1.97414936 7.4030601 1.97406027 14.52359945 -1.77734375 21.2734375 C-3 23 -3 23 -5.75 25.4375 C-8.61037689 28.69515145 -8.4638602 30.40844895 -8.26171875 34.59765625 C-8.08765586 36.1953977 -7.86104065 37.78830211 -7.58203125 39.37109375 C-6.8689929 43.55754665 -6.64352305 45.35070269 -8.75 49.1875 C-12.11178276 52.60658587 -16.44029161 54.64538918 -20.671875 56.80078125 C-22.9009051 57.79930043 -22.9009051 57.79930043 -24 59 C-24.62639554 63.90676507 -23.87395498 66.59195528 -21.5 70.9375 C-18.92987221 75.79136992 -18.11850635 78.53473936 -19 84 C-20.80073238 88.23477318 -22.96136169 91.20865653 -26.625 94 C-33.91657496 96.16046666 -41.57944982 95.12008305 -49 94 C-48.67 91.36 -48.34 88.72 -48 86 C-47.67 86.99 -47.34 87.98 -47 89 C-41.9540157 90.65299486 -37.33204945 91.59244994 -32 91 C-28.29609979 88.97333762 -26.34636989 87.51955484 -24 84 C-23.00925036 78.80638608 -23.75744342 74.92037577 -26.5 70.4375 C-29.26866041 65.87080151 -30.04567605 63.31551991 -29 58 C-25.43843054 53.32475092 -19.93116813 50.65717111 -14.8203125 47.98046875 C-13.03615104 47.13189282 -13.03615104 47.13189282 -12 46 C-11.86431681 42.33655389 -11.83538574 39.49384279 -13 36 C-13.72372057 31.41643642 -13.82587938 29.26278432 -11.25 25.32421875 C-9.22485246 22.82533134 -7.12333826 20.41512893 -5 18 C-3.58365167 15.16730334 -3.6536995 12.52533562 -3.4375 9.375 C-3.35371094 8.18648437 -3.26992187 6.99796875 -3.18359375 5.7734375 C-3.09271484 4.40058594 -3.09271484 4.40058594 -3 3 C-3.66 2.67 -4.32 2.34 -5 2 C-1.125 0 -1.125 0 0 0 Z " fill="#C5C946" transform="translate(93,191)"/>
<path d="M0 0 C1.98 0 3.96 0 6 0 C6.25910156 0.74378906 6.51820313 1.48757812 6.78515625 2.25390625 C10.49651986 10.64325871 18.97823524 15.36887691 27 19 C29.28589198 19.84904559 31.57770238 20.6823178 33.875 21.5 C39.27037816 23.48642189 42.00966889 25.08731317 45 30 C46.2169802 33.65094061 46.14566681 37.013252 46.125 40.8125 C46.13080078 41.86147461 46.13080078 41.86147461 46.13671875 42.93164062 C46.12897591 47.07018618 45.73946469 50.93576659 45 55 C44.1863739 63.89653457 45.44513964 71.86998359 50.61328125 79.328125 C53.26978825 82.50886509 55.92572726 85.10415119 59.4375 87.3125 C60.283125 87.869375 61.12875 88.42625 62 89 C62 89.99 62 90.98 62 92 C56.57267766 91.66079235 52.83352703 88.59346271 49 85 C42.81103289 77.50522884 40.65241481 70.22537277 40.91015625 60.6171875 C40.93056374 59.02213828 40.95073915 57.42708608 40.97070312 55.83203125 C41.01426632 53.34572986 41.0628313 50.85964006 41.11645508 48.37353516 C41.16481152 45.95476027 41.19461433 43.53627069 41.22265625 41.1171875 C41.24441422 40.37749725 41.26617218 39.63780701 41.28858948 38.8757019 C41.33152926 34.39164939 40.87902631 31.49918051 38 28 C36.17970387 26.82742721 36.17970387 26.82742721 34.0859375 26.2265625 C33.32885498 25.96270752 32.57177246 25.69885254 31.79174805 25.42700195 C30.59545776 25.03001099 30.59545776 25.03001099 29.375 24.625 C22.18805425 22.04973123 16.67617964 19.2009646 11 14 C10.113125 13.401875 9.22625 12.80375 8.3125 12.1875 C4.65259966 8.72543211 2.43129121 4.37799516 0 0 Z " fill="#F16636" transform="translate(227,38)"/>
<path d="M0 0 C0.50196078 7.40392157 0.50196078 7.40392157 -2 10.375 C-4.38536626 13.50579322 -4.08367553 14.22946653 -3.75 18 C-3.609375 20.6171875 -3.609375 20.6171875 -4 23 C-6.36484302 25.35437911 -8.9445769 26.70417324 -12 28 C-11.34414811 31.60992379 -11.34414811 31.60992379 -10 35 C-9.6875 38.4375 -9.6875 38.4375 -10 42 C-11.6875 43.9375 -11.6875 43.9375 -14 45 C-16.75 45.1875 -16.75 45.1875 -19 45 C-20.09728785 40.87400561 -19.83186661 37.74512718 -19.07421875 33.5625 C-18.85443359 32.33789062 -18.63464844 31.11328125 -18.40820312 29.8515625 C-18.17037109 28.58054688 -17.93253906 27.30953125 -17.6875 26 C-17.46126953 24.72898438 -17.23503906 23.45796875 -17.00195312 22.1484375 C-14.45849603 8.2217272 -14.45849603 8.2217272 -11.1953125 5.48828125 C-10.51210938 5.10027344 -9.82890625 4.71226562 -9.125 4.3125 C-8.10792969 3.71888672 -8.10792969 3.71888672 -7.0703125 3.11328125 C-1.28070175 0 -1.28070175 0 0 0 Z " fill="#C2C544" transform="translate(71,203)"/>
<path d="M0 0 C3.19219426 1.21607401 4.37069602 2.81314599 5.89453125 5.8359375 C7.44830538 10.43909723 7.77714685 15.49209414 5.71875 19.97265625 C4.625 21.625 4.625 21.625 2.625 24 C-0.46822404 23.6655974 -1.96387768 23.4404882 -4.125 21.125 C-6.23099045 17.54481623 -6.53483867 14.63978072 -6.5625 10.5625 C-6.57667969 9.61503906 -6.59085937 8.66757812 -6.60546875 7.69140625 C-6.36828354 4.92156542 -5.8799543 3.31815768 -4.375 1 C-2.375 0 -2.375 0 0 0 Z " fill="#F7FAFF" transform="translate(130.375,359)"/>
<path d="M0 0 C2.4375 1.5625 2.4375 1.5625 4 4 C4.80607605 8.04700038 4.68432164 10.97351754 2.375 14.4375 C-0.5659132 16.37231132 -2.47650456 16.92809193 -6 17 C-8.82993441 15.77798287 -10.47446153 14.66886714 -12.375 12.25 C-13.32835544 8.81792041 -12.91654656 6.42177384 -12 3 C-8.25027671 -1.41143916 -5.44353178 -1.58357288 0 0 Z " fill="#2485DD" transform="translate(425,307)"/>
<path d="M0 0 C0.33 0.33 0.66 0.66 1 1 C0.71673477 6.66530461 0.21160337 9.90538561 -4 14 C-7.30571194 16.68030698 -8.49249624 17.04159867 -12.8125 16.6875 C-13.864375 16.460625 -14.91625 16.23375 -16 16 C-16.99866059 11.8389142 -17.35099636 9.71603257 -15.4375 5.8125 C-10.60365266 0.23498384 -7.37914972 -1.88095973 0 0 Z " fill="#FFF9F6" transform="translate(176,59)"/>
<path d="M0 0 C3.30704297 1.29406029 4.35930407 1.92519749 5.875 5.125 C6.24915101 9.31549133 6.32061026 12.59245185 3.875 16.125 C1.00029507 17.56235246 -0.94394588 17.50672649 -4.125 17.125 C-6.95498419 14.59290888 -7.97332342 12.91708883 -8.6875 9.1875 C-7.76664445 4.17395313 -5.55669871 0.22226795 0 0 Z " fill="#C6C945" transform="translate(285.125,329.875)"/>
<path d="M0 0 C0.29003906 0.60714844 0.58007812 1.21429688 0.87890625 1.83984375 C2.90979976 5.7530288 5.81716995 8.97631145 9 12 C7.576875 12.8353125 7.576875 12.8353125 6.125 13.6875 C2.91121213 16.06570302 2.04434882 17.24034426 1 21 C0.401875 20.236875 -0.19625 19.47375 -0.8125 18.6875 C-3.68164102 15.16255532 -5.82811265 12.8701564 -10 11 C-9.0925 10.67 -8.185 10.34 -7.25 10 C-3.01932133 7.39650543 -1.81453912 4.49365277 0 0 Z " fill="#FBFBF2" transform="translate(303,186)"/>
<path d="M0 0 C0.66 0 1.32 0 2 0 C3.34331654 1.99330842 4.67594012 3.99384866 6 6 C6.99 6.66 7.98 7.32 9 8 C9 8.66 9 9.32 9 10 C8.030625 10.763125 7.06125 11.52625 6.0625 12.3125 C3.65767752 14.21372436 3.07212198 14.76817935 2.125 17.8125 C2.08375 18.534375 2.0425 19.25625 2 20 C0 18 0 18 -0.8125 15 C-1.7054215 11.79029933 -1.7054215 11.79029933 -4.625 10.625 C-5.40875 10.41875 -6.1925 10.2125 -7 10 C-7 9.34 -7 8.68 -7 8 C-6.21625 7.79375 -5.4325 7.5875 -4.625 7.375 C-1.69083714 6.19323388 -1.69083714 6.19323388 -0.6875 2.875 C-0.460625 1.92625 -0.23375 0.9775 0 0 Z " fill="#F3F8F9" transform="translate(197,330)"/>
<path d="M0 0 C2.5 0.25 2.5 0.25 4.5 2.25 C4.75 4.75 4.75 4.75 4.5 7.25 C2.5 9.25 2.5 9.25 0 9.5 C-2.5 9.25 -2.5 9.25 -4.5 7.25 C-4.75 4.75 -4.75 4.75 -4.5 2.25 C-2.5 0.25 -2.5 0.25 0 0 Z " fill="#2485DD" transform="translate(434.5,322.75)"/>
<path d="M0 0 C0.66 0.99 1.32 1.98 2 3 C2.9793879 4.02019573 3.97895449 5.02149805 5 6 C5.66 6.66 6.32 7.32 7 8 C6.21625 8.598125 5.4325 9.19625 4.625 9.8125 C1.85425677 11.91085249 1.85425677 11.91085249 0 15 C-0.433125 14.236875 -0.86625 13.47375 -1.3125 12.6875 C-2.73686785 10.41906232 -4.03260097 8.7800277 -6 7 C-5.195625 6.21625 -4.39125 5.4325 -3.5625 4.625 C-1.01309583 2.28017144 -1.01309583 2.28017144 0 0 Z " fill="#FEF4F1" transform="translate(202,172)"/>
<path d="M0 0 C2.0625 0.4375 2.0625 0.4375 4 1 C5.125 4.75 5.125 4.75 4 7 C2.35 6.67 0.7 6.34 -1 6 C-1.042721 4.33388095 -1.04063832 2.66617115 -1 1 C-0.67 0.67 -0.34 0.34 0 0 Z " fill="#C6C945" transform="translate(286,318)"/>
<path d="M0 0 C2.0625 0.4375 2.0625 0.4375 4 1 C4 2.65 4 4.3 4 6 C2.68 6.33 1.36 6.66 0 7 C-0.38133299 5.0085944 -0.71325582 3.00720923 -1 1 C-0.67 0.67 -0.34 0.34 0 0 Z " fill="#F6FAFF" transform="translate(127,349)"/>
<path d="M0 0 C1.67542976 0.28604898 3.34385343 0.61781233 5 1 C4.67 2.32 4.34 3.64 4 5 C2.68 5.33 1.36 5.66 0 6 C-0.38218767 4.34385343 -0.71395102 2.67542976 -1 1 C-0.67 0.67 -0.34 0.34 0 0 Z " fill="#FFF2EC" transform="translate(156,78)"/>
<path d="M0 0 C1.625 2 1.625 2 3 4 C2.01 4.99 1.02 5.98 0 7 C-3.875 5.25 -3.875 5.25 -5 3 C-2.25 0 -2.25 0 0 0 Z " fill="#FAFBF0" transform="translate(315,206)"/>
</svg>
