<?xml version="1.0" encoding="UTF-8"?>
<svg version="1.1" xmlns="http://www.w3.org/2000/svg" width="512" height="512">
<path d="M0 0 C6.97183437 6.62993205 11.86570995 15.03798088 15.83203125 23.7421875 C15.83203125 24.7321875 15.83203125 25.7221875 15.83203125 26.7421875 C16.37625732 26.57485107 16.9204834 26.40751465 17.48120117 26.23510742 C20.23219452 25.65828163 22.6372677 25.73127607 25.4453125 25.85546875 C26.52876953 25.88576172 27.61222656 25.91605469 28.72851562 25.94726562 C30.99485298 26.0185341 33.26066175 26.1094946 35.52539062 26.22070312 C42.81611129 26.41857503 42.81611129 26.41857503 48.91015625 22.83984375 C49.40547852 22.3075415 49.90080078 21.77523926 50.41113281 21.22680664 C53.75876094 17.72905293 58.20225587 16.58128372 62.89453125 16.3671875 C67.08979577 16.7667365 69.44031188 17.23877559 72.83203125 19.7421875 C74.46295942 23.06928096 75.18721974 25.32143355 74.2734375 28.9765625 C73.54822776 30.93358784 72.69817772 32.84332794 71.83203125 34.7421875 C72.51007813 35.1546875 73.188125 35.5671875 73.88671875 35.9921875 C79.82355282 39.67598482 85.35191322 43.59221984 90.73828125 48.04296875 C92.92469285 49.87157239 92.92469285 49.87157239 95.83203125 51.7421875 C96.72664062 51.27167969 97.62125 50.80117187 98.54296875 50.31640625 C111.28848821 43.70283093 123.99506313 38.76189823 138.578125 42.43359375 C140.83032667 43.36648145 142.7814988 44.42721679 144.83203125 45.7421875 C145.52683594 46.1546875 146.22164062 46.5671875 146.9375 46.9921875 C154.32989258 51.87421787 158.48677927 59.31427286 160.83203125 67.7421875 C162.14392407 81.01445386 158.86649748 93.67631679 150.859375 104.37890625 C144.05465635 112.40775419 136.99790051 117.05780149 126.83203125 119.7421875 C126.84250488 120.34353516 126.85297852 120.94488281 126.86376953 121.56445312 C127.09531542 137.07509668 126.38688062 152.30948045 124.83203125 167.7421875 C125.61288086 167.885354 126.39373047 168.02852051 127.19824219 168.17602539 C136.99275218 170.28146372 144.48527787 179.79796999 149.8125 187.66796875 C158.42162143 201.82070355 162.715791 217.68308895 159.078125 234.15625 C157.32317335 239.15270058 155.08117947 243.53740746 151.83203125 247.7421875 C151.43628906 248.29261719 151.04054688 248.84304688 150.6328125 249.41015625 C146.35058538 254.96846251 140.90496599 258.35080836 134.83203125 261.7421875 C134.19652344 262.10699219 133.56101562 262.47179687 132.90625 262.84765625 C125.68613589 266.25759928 114.87271885 265.92185133 107.33984375 263.72265625 C106.09847656 263.23732422 106.09847656 263.23732422 104.83203125 262.7421875 C104.95320312 263.43965088 105.074375 264.13711426 105.19921875 264.85571289 C109.97788151 292.93724892 110.79270453 318.04770352 101.13671875 345.046875 C100.22114563 347.64008508 99.46105652 350.0829593 98.83203125 352.7421875 C99.363125 353.10570312 99.89421875 353.46921875 100.44140625 353.84375 C104.86814357 356.99416525 108.42708716 359.73188732 110.83203125 364.7421875 C111.13223713 367.5040816 111.02459192 369.95005777 110.83203125 372.7421875 C98.77078707 379.50825131 78.20014353 377.94425262 65.01953125 374.4921875 C60.94215486 373.02096922 58.40621475 371.33044329 55.83203125 367.7421875 C53.25172607 361.30700916 51.57207599 354.47292536 49.70703125 347.8046875 C49.1854233 345.94089326 48.66207323 344.07758541 48.13671875 342.21484375 C47.90968262 341.40281494 47.68264648 340.59078613 47.44873047 339.75415039 C46.87966422 337.69957092 46.87966422 337.69957092 45.83203125 335.7421875 C44.95804688 335.94714844 44.0840625 336.15210938 43.18359375 336.36328125 C25.34689775 340.27090123 4.2699274 342.40796393 -13.16796875 335.7421875 C-13.56734416 337.15785969 -13.9620082 338.57485999 -14.35546875 339.9921875 C-14.63390625 340.9821875 -14.91234375 341.9721875 -15.19921875 342.9921875 C-15.9471268 345.88731544 -16.59797509 348.75363503 -17.19921875 351.6796875 C-20.71708347 368.22191819 -20.71708347 368.22191819 -26.8125 372.71875 C-33.2948643 375.53529966 -39.81781617 376.14046397 -46.79296875 376.4296875 C-47.66453613 376.46803711 -48.53610352 376.50638672 -49.43408203 376.54589844 C-69.00789755 377.2728539 -69.00789755 377.2728539 -77.16796875 372.7421875 C-77.76349792 366.90600165 -77.51010248 362.95652046 -73.74609375 358.31640625 C-71.12655796 355.70335446 -68.27226934 353.75085259 -65.16796875 351.7421875 C-65.4825 351.07316406 -65.79703125 350.40414063 -66.12109375 349.71484375 C-71.27761068 338.14374402 -74.72326653 325.45325917 -75.16796875 312.7421875 C-75.21953125 311.52789062 -75.27109375 310.31359375 -75.32421875 309.0625 C-75.83233931 291.35418237 -72.31959556 274.60205705 -67.16796875 257.7421875 C-67.77898437 257.45601563 -68.39 257.16984375 -69.01953125 256.875 C-76.80847452 252.76810264 -82.47857954 243.48691271 -85.4140625 235.4296875 C-88.49895931 224.43274964 -87.77677636 211.79435832 -83.04296875 201.3671875 C-77.82229953 192.12478182 -70.94921022 187.48207394 -61.16796875 183.7421875 C-62.02068359 182.75992188 -62.02068359 182.75992188 -62.890625 181.7578125 C-76.44820646 165.73315862 -84.91922151 147.60084852 -84.04296875 126.2421875 C-82.80946004 113.14286132 -78.62355364 104.26079656 -71.04296875 93.8046875 C-68.26814696 89.95978816 -65.85025847 85.970333 -63.48046875 81.8671875 C-60.31872165 76.42348995 -56.84630944 71.55718603 -52.69921875 66.79296875 C-51.10594308 64.6591174 -50.35892565 63.39436661 -50.16796875 60.7421875 C-51.03234457 58.91413564 -51.03234457 58.91413564 -52.41796875 57.1796875 C-59.2511901 46.78710015 -59.90764541 33.31279792 -57.4765625 21.3359375 C-54.20780998 10.72274939 -48.93451499 0.89949538 -38.8984375 -4.47265625 C-25.54682992 -10.69454967 -11.60946333 -9.50510033 0 0 Z " fill="#5B5161" transform="translate(221.16796875,99.2578125)"/>
<path d="M0 0 C1.56427734 -0.00773437 1.56427734 -0.00773437 3.16015625 -0.015625 C5.9375 0.25 5.9375 0.25 8.9375 2.25 C8.66172097 8.86869679 6.05297461 12.22846599 1.9375 17.25 C0.9475 18.735 0.9475 18.735 -0.0625 20.25 C0.9275 19.92 1.9175 19.59 2.9375 19.25 C2.9375 20.57 2.9375 21.89 2.9375 23.25 C0.4375 25 0.4375 25 -2.0625 26.25 C2.41633696 25.80296014 2.41633696 25.80296014 5.9375 23.25 C5.61551034 20.15073181 5.61551034 20.15073181 4.9375 17.25 C13.33839378 17.25 21.83416269 26.07977822 27.9375 31.25 C29.19240234 32.28447266 29.19240234 32.28447266 30.47265625 33.33984375 C49.61157479 49.69814661 59.80666996 74.42596711 61.9375 99.25 C62.09706701 102.75123434 62.12741507 106.2454265 62.125 109.75 C62.12564453 110.73234619 62.12628906 111.71469238 62.12695312 112.72680664 C62.04891354 123.94943077 61.05222559 135.08940296 59.9375 146.25 C59.05707031 146.34796875 58.17664063 146.4459375 57.26953125 146.546875 C55.52736328 146.77117187 55.52736328 146.77117187 53.75 147 C52.02716797 147.20882812 52.02716797 147.20882812 50.26953125 147.421875 C45.82539518 148.52639651 43.17338822 150.37936556 40.64453125 154.20703125 C38.40278028 160.68457687 40.00296447 167.01129144 42.23828125 173.2265625 C43.2934869 176.28017439 43.69897988 178.06562958 42.9375 181.25 C32.86465728 194.68045696 10.13282902 200.32844707 -5.51879883 202.65893555 C-37.53895314 206.90448901 -69.51149183 203.47151086 -96.0625 183.25 C-115.51660571 167.98222083 -137.13654724 147.6251853 -141.62109375 122.06640625 C-143.34145975 107.19209135 -142.73350948 93.99974241 -134.14453125 81.32421875 C-132.16707909 78.40441602 -130.30376495 75.44039945 -128.45751953 72.43725586 C-120.6470433 59.75461596 -112.54613416 47.88340036 -102.0625 37.25 C-101.28390625 36.45851562 -100.5053125 35.66703125 -99.703125 34.8515625 C-84.10693022 19.93573863 -61.23603916 8.10375394 -39.30981445 8.27099609 C-38.32070068 8.3014502 -37.33158691 8.3319043 -36.3125 8.36328125 C-35.2915625 8.39357422 -34.270625 8.42386719 -33.21875 8.45507812 C-31.11382896 8.52671838 -29.00948237 8.61788768 -26.90625 8.72851562 C-20.38114863 8.88093277 -16.68700895 8.17720524 -11.78125 3.74682617 C-8.01678207 0.46842378 -4.92747407 -0.02442366 0 0 Z " fill="#FDFDFD" transform="translate(283.0625,119.75)"/>
<path d="M0 0 C6.97183437 6.62993205 11.86570995 15.03798088 15.83203125 23.7421875 C15.83203125 24.7321875 15.83203125 25.7221875 15.83203125 26.7421875 C16.37625732 26.57485107 16.9204834 26.40751465 17.48120117 26.23510742 C20.23219452 25.65828163 22.6372677 25.73127607 25.4453125 25.85546875 C26.52876953 25.88576172 27.61222656 25.91605469 28.72851562 25.94726562 C30.99485298 26.0185341 33.26066175 26.1094946 35.52539062 26.22070312 C42.81611129 26.41857503 42.81611129 26.41857503 48.91015625 22.83984375 C49.40547852 22.3075415 49.90080078 21.77523926 50.41113281 21.22680664 C53.75876094 17.72905293 58.20225587 16.58128372 62.89453125 16.3671875 C67.08979577 16.7667365 69.44031188 17.23877559 72.83203125 19.7421875 C74.46295942 23.06928096 75.18721974 25.32143355 74.2734375 28.9765625 C73.54822776 30.93358784 72.69817772 32.84332794 71.83203125 34.7421875 C72.51007813 35.1546875 73.188125 35.5671875 73.88671875 35.9921875 C79.82355282 39.67598482 85.35191322 43.59221984 90.73828125 48.04296875 C92.92469285 49.87157239 92.92469285 49.87157239 95.83203125 51.7421875 C96.72664062 51.27167969 97.62125 50.80117187 98.54296875 50.31640625 C111.28848821 43.70283093 123.99506313 38.76189823 138.578125 42.43359375 C140.83032667 43.36648145 142.7814988 44.42721679 144.83203125 45.7421875 C145.52683594 46.1546875 146.22164062 46.5671875 146.9375 46.9921875 C154.32989258 51.87421787 158.48677927 59.31427286 160.83203125 67.7421875 C162.14392407 81.01445386 158.86649748 93.67631679 150.859375 104.37890625 C144.05465635 112.40775419 136.99790051 117.05780149 126.83203125 119.7421875 C126.84250488 120.34353516 126.85297852 120.94488281 126.86376953 121.56445312 C127.09531542 137.07509668 126.38688062 152.30948045 124.83203125 167.7421875 C125.61288086 167.885354 126.39373047 168.02852051 127.19824219 168.17602539 C136.99275218 170.28146372 144.48527787 179.79796999 149.8125 187.66796875 C158.42162143 201.82070355 162.715791 217.68308895 159.078125 234.15625 C157.32317335 239.15270058 155.08117947 243.53740746 151.83203125 247.7421875 C151.43628906 248.29261719 151.04054688 248.84304688 150.6328125 249.41015625 C146.35058538 254.96846251 140.90496599 258.35080836 134.83203125 261.7421875 C134.19652344 262.10699219 133.56101562 262.47179687 132.90625 262.84765625 C125.68613589 266.25759928 114.87271885 265.92185133 107.33984375 263.72265625 C106.09847656 263.23732422 106.09847656 263.23732422 104.83203125 262.7421875 C104.95320312 263.43965088 105.074375 264.13711426 105.19921875 264.85571289 C109.97788151 292.93724892 110.79270453 318.04770352 101.13671875 345.046875 C100.22114563 347.64008508 99.46105652 350.0829593 98.83203125 352.7421875 C99.363125 353.10570312 99.89421875 353.46921875 100.44140625 353.84375 C104.86814357 356.99416525 108.42708716 359.73188732 110.83203125 364.7421875 C111.13223713 367.5040816 111.02459192 369.95005777 110.83203125 372.7421875 C98.77078707 379.50825131 78.20014353 377.94425262 65.01953125 374.4921875 C60.94215486 373.02096922 58.40621475 371.33044329 55.83203125 367.7421875 C53.25172607 361.30700916 51.57207599 354.47292536 49.70703125 347.8046875 C49.1854233 345.94089326 48.66207323 344.07758541 48.13671875 342.21484375 C47.90968262 341.40281494 47.68264648 340.59078613 47.44873047 339.75415039 C46.87966422 337.69957092 46.87966422 337.69957092 45.83203125 335.7421875 C44.95804688 335.94714844 44.0840625 336.15210938 43.18359375 336.36328125 C25.34689775 340.27090123 4.2699274 342.40796393 -13.16796875 335.7421875 C-13.56734416 337.15785969 -13.9620082 338.57485999 -14.35546875 339.9921875 C-14.63390625 340.9821875 -14.91234375 341.9721875 -15.19921875 342.9921875 C-15.9471268 345.88731544 -16.59797509 348.75363503 -17.19921875 351.6796875 C-20.71708347 368.22191819 -20.71708347 368.22191819 -26.8125 372.71875 C-33.2948643 375.53529966 -39.81781617 376.14046397 -46.79296875 376.4296875 C-47.66453613 376.46803711 -48.53610352 376.50638672 -49.43408203 376.54589844 C-69.00789755 377.2728539 -69.00789755 377.2728539 -77.16796875 372.7421875 C-77.76349792 366.90600165 -77.51010248 362.95652046 -73.74609375 358.31640625 C-71.12655796 355.70335446 -68.27226934 353.75085259 -65.16796875 351.7421875 C-65.4825 351.07316406 -65.79703125 350.40414063 -66.12109375 349.71484375 C-71.27761068 338.14374402 -74.72326653 325.45325917 -75.16796875 312.7421875 C-75.21953125 311.52789062 -75.27109375 310.31359375 -75.32421875 309.0625 C-75.83233931 291.35418237 -72.31959556 274.60205705 -67.16796875 257.7421875 C-67.77898437 257.45601563 -68.39 257.16984375 -69.01953125 256.875 C-76.80847452 252.76810264 -82.47857954 243.48691271 -85.4140625 235.4296875 C-88.49895931 224.43274964 -87.77677636 211.79435832 -83.04296875 201.3671875 C-77.82229953 192.12478182 -70.94921022 187.48207394 -61.16796875 183.7421875 C-62.02068359 182.75992188 -62.02068359 182.75992188 -62.890625 181.7578125 C-76.44820646 165.73315862 -84.91922151 147.60084852 -84.04296875 126.2421875 C-82.80946004 113.14286132 -78.62355364 104.26079656 -71.04296875 93.8046875 C-68.26814696 89.95978816 -65.85025847 85.970333 -63.48046875 81.8671875 C-60.31872165 76.42348995 -56.84630944 71.55718603 -52.69921875 66.79296875 C-51.10594308 64.6591174 -50.35892565 63.39436661 -50.16796875 60.7421875 C-51.03234457 58.91413564 -51.03234457 58.91413564 -52.41796875 57.1796875 C-59.2511901 46.78710015 -59.90764541 33.31279792 -57.4765625 21.3359375 C-54.20780998 10.72274939 -48.93451499 0.89949538 -38.8984375 -4.47265625 C-25.54682992 -10.69454967 -11.60946333 -9.50510033 0 0 Z M43.83203125 28.7421875 C41.67163086 28.92163086 41.67163086 28.92163086 38.984375 28.83203125 C37.99477783 28.80971436 37.00518066 28.78739746 35.9855957 28.7644043 C34.92429443 28.73644775 33.86299316 28.70849121 32.76953125 28.6796875 C3.12472196 28.32050338 -20.87927211 39.0607754 -42.16796875 59.7421875 C-52.80065868 70.34159828 -60.47948523 82.66211408 -68.04174805 95.52929688 C-70.06889573 98.9708501 -72.20492126 102.25577694 -74.54296875 105.4921875 C-81.65345093 116.17766212 -81.81849135 131.06679667 -79.54296875 143.4296875 C-79.13109647 144.88118222 -78.66522409 146.31768309 -78.16796875 147.7421875 C-77.78769531 148.86753906 -77.40742188 149.99289063 -77.015625 151.15234375 C-71.82734154 165.64730976 -62.74917293 176.80827651 -52.16796875 187.7421875 C-51.38164062 188.56847656 -50.5953125 189.39476562 -49.78515625 190.24609375 C-44.92651011 195.24863707 -39.78498686 199.61241768 -34.16796875 203.7421875 C-39.43772015 201.3335385 -43.54280076 198.51073091 -47.58569336 194.40136719 C-52.07376981 189.73016324 -52.07376981 189.73016324 -57.83984375 187.04296875 C-64.20961676 187.38915207 -69.53651236 190.50112207 -74.16796875 194.7421875 C-82.47463472 204.5723468 -84.01110024 214.28409418 -83.33642578 226.76416016 C-82.35089576 238.33628217 -75.83885339 247.420444 -67.16796875 254.7421875 C-53.76111349 264.32160183 -37.20773369 267.62993936 -20.95703125 265.27734375 C-13.29517846 263.64654637 -7.69706309 260.76235865 -2.51171875 254.85546875 C-0.97213846 252.43421022 -0.55350049 250.70809674 -0.23046875 247.8671875 C-0.11832031 247.04476562 -0.00617188 246.22234375 0.109375 245.375 C-0.30377993 241.45293775 -1.55801604 239.70536689 -4.16796875 236.7421875 C-7.19763778 234.94316951 -10.38677087 233.69785504 -13.66796875 232.4296875 C-15.5644879 231.65662828 -17.46030452 230.88184366 -19.35546875 230.10546875 C-20.32097656 229.71568848 -21.28648437 229.3259082 -22.28125 228.92431641 C-53.95742736 215.95272889 -53.95742736 215.95272889 -60.16796875 209.7421875 C-59.32093384 210.13990356 -59.32093384 210.13990356 -58.45678711 210.5456543 C-55.67592765 211.84667847 -52.89124401 213.1392213 -50.10546875 214.4296875 C-49.05375488 214.91791992 -48.00204102 215.40615234 -46.91845703 215.90917969 C-40.62618147 218.79788549 -34.30473786 221.53658726 -27.8828125 224.12109375 C-27.18907028 224.40252731 -26.49532806 224.68396088 -25.78056335 224.97392273 C-22.36348322 226.35976636 -18.94084866 227.72608531 -15.50366211 229.0612793 C-7.69331687 232.17338323 -2.07108581 234.93595337 1.83203125 242.7421875 C2.60945186 249.07261246 1.43543243 252.55239344 -2.32421875 257.6953125 C-7.0682596 262.96200192 -13.60644518 266.37289203 -20.70410156 266.94750977 C-23.73688906 267.04810528 -26.75855168 267.07056961 -29.79296875 267.0546875 C-30.86804688 267.05049805 -31.943125 267.04630859 -33.05078125 267.04199219 C-42.39261807 266.90878032 -50.36643968 265.80138316 -58.73046875 261.4921875 C-59.86484375 260.9146875 -60.99921875 260.3371875 -62.16796875 259.7421875 C-63.15796875 260.0721875 -64.14796875 260.4021875 -65.16796875 260.7421875 C-66.033021 262.53384239 -66.033021 262.53384239 -66.51953125 264.75 C-66.7309375 265.57242188 -66.94234375 266.39484375 -67.16015625 267.2421875 C-67.36898437 268.1084375 -67.5778125 268.9746875 -67.79296875 269.8671875 C-68.1178125 271.13175781 -68.1178125 271.13175781 -68.44921875 272.421875 C-70.00648308 278.61248136 -71.3430698 284.76142758 -71.23046875 291.1796875 C-71.20984375 292.3553125 -71.18921875 293.5309375 -71.16796875 294.7421875 C-61.81734743 299.69122829 -51.88144745 302.3311592 -41.71289062 305.05761719 C-39.47962653 305.65835323 -37.25323216 306.27891422 -35.02734375 306.90625 C-31.09101392 307.96727718 -27.15744031 308.9076362 -23.16796875 309.7421875 C-22.45382813 309.89316895 -21.7396875 310.04415039 -21.00390625 310.19970703 C-7.58849083 312.87068858 5.89260976 313.05634137 19.51953125 313.1171875 C20.81248611 313.12897034 20.81248611 313.12897034 22.13156128 313.14099121 C44.88228521 313.3021655 65.91226105 308.79116065 87.45703125 301.6796875 C88.48916748 301.3391333 89.52130371 300.9985791 90.5847168 300.64770508 C95.53623135 298.97741747 100.24535872 297.25468218 104.83203125 294.7421875 C104.44048014 271.49828979 98.51015007 248.87232118 91.83203125 226.7421875 C92.9443801 229.67665233 94.04609188 232.61498913 95.14453125 235.5546875 C95.47066406 236.4216626 95.79679688 237.2886377 96.1328125 238.18188477 C97.85065561 242.81893557 99.29562519 247.33432414 100.33203125 252.1796875 C101.23600016 255.80117784 102.04078198 257.42174661 105.26953125 259.3671875 C113.23813561 262.44278918 121.79972392 263.33453596 130.06640625 260.71875 C140.95867139 255.61123707 150.40169372 247.62480948 154.79296875 236.25390625 C159.14671118 222.45374103 157.16777563 208.83602472 150.64453125 196.1171875 C144.5377402 185.38209165 136.38667939 173.87112286 123.9609375 170.1875 C118.3930091 169.02283241 113.41926688 168.92022619 108.33203125 171.5546875 C105.88751847 173.69363619 104.10983411 175.36684146 103.44995117 178.63378906 C103.15706903 187.42216146 106.30470267 195.31776099 109.14453125 203.4921875 C117.83203125 228.78314614 117.83203125 228.78314614 117.83203125 238.7421875 C117.64092773 238.10829102 117.44982422 237.47439453 117.25292969 236.82128906 C112.26371052 220.21114347 112.26371052 220.21114347 106.83203125 203.7421875 C105.82140625 204.5671875 104.81078125 205.3921875 103.76953125 206.2421875 C89.72679596 216.78049687 73.64828837 221.61744519 56.83203125 225.7421875 C59.49399723 222.31828198 62.46526393 221.88071286 66.58203125 220.9296875 C79.89722121 217.62363436 95.85054277 212.6942104 104.83203125 201.7421875 C105.17498201 199.57554973 105.17498201 199.57554973 104.70703125 197.3671875 C104.58199219 196.57441406 104.45695313 195.78164063 104.328125 194.96484375 C103.84772044 192.59099261 103.84772044 192.59099261 102.76953125 189.8046875 C101.01299387 184.06666538 100.89884829 178.79519 103.39453125 173.3046875 C107.49180369 168.99729852 111.79867702 167.74460328 117.5703125 167.16796875 C118.37122314 167.08587158 119.17213379 167.00377441 119.99731445 166.91918945 C120.602771 166.86077881 121.20822754 166.80236816 121.83203125 166.7421875 C123.93770289 145.66027026 126.05014882 124.50315953 120.83203125 103.7421875 C120.53039062 102.53175781 120.22875 101.32132812 119.91796875 100.07421875 C113.93974366 77.78953418 102.34561031 60.77305309 84.14453125 46.7421875 C83.44400635 46.20215088 82.74348145 45.66211426 82.02172852 45.10571289 C77.4983883 41.72690273 72.94815037 39.13085815 67.83203125 36.7421875 C66.4987103 39.4088294 67.16101092 40.90899053 67.83203125 43.7421875 C63.20703125 46.7421875 63.20703125 46.7421875 59.83203125 46.7421875 C61.81203125 45.4221875 63.79203125 44.1021875 65.83203125 42.7421875 C65.50203125 41.7521875 65.17203125 40.7621875 64.83203125 39.7421875 C63.84203125 39.7421875 62.85203125 39.7421875 61.83203125 39.7421875 C62.31414062 39.21109375 62.79625 38.68 63.29296875 38.1328125 C63.92460937 37.42640625 64.55625 36.72 65.20703125 35.9921875 C65.83351563 35.29609375 66.46 34.6 67.10546875 33.8828125 C69.42124056 31.0116746 70.70723299 28.79049288 71.14453125 25.1171875 C71.04140625 24.3334375 70.93828125 23.5496875 70.83203125 22.7421875 C61.71939883 16.66709922 50.84333117 21.73088758 43.83203125 28.7421875 Z " fill="#20201E" transform="translate(221.16796875,99.2578125)"/>
<path d="M0 0 C7.23635333 34.56909361 7.23635333 34.56909361 7 46 C-20.13494869 58.64136688 -48.23954084 64.44319619 -78.0625 64.3125 C-78.96962738 64.31001251 -79.87675476 64.30752502 -80.81137085 64.30496216 C-94.40446756 64.24733448 -107.66908302 63.89461842 -121 61 C-122.63533691 60.64542725 -122.63533691 60.64542725 -124.30371094 60.28369141 C-163.45543747 51.54456253 -163.45543747 51.54456253 -169 46 C-169.22089488 40.54329951 -168.75955923 35.48463807 -167.6875 30.125 C-167.55432373 29.43535156 -167.42114746 28.74570312 -167.28393555 28.03515625 C-166.19635647 22.58133266 -164.78608322 17.26957886 -163 12 C-158.5073095 12 -155.95681455 13.14837982 -151.92578125 14.9296875 C-144.03134527 17.81763871 -136.42487392 18.36447467 -128.0625 18.375 C-127.04220703 18.39949219 -126.02191406 18.42398437 -124.97070312 18.44921875 C-116.61881689 18.48119789 -109.30326643 16.75925481 -102.5625 11.625 C-99.89886618 8.8963995 -98.61586765 6.42017468 -97 3 C-96.3834404 3.00444122 -95.7668808 3.00888245 -95.13163757 3.01345825 C-53.90091557 4.30978261 -53.90091557 4.30978261 -12.96875 0.43359375 C-8.6477798 -0.19749532 -4.35873118 -0.07752684 0 0 Z " fill="#FDFDFD" transform="translate(319,348)"/>
<path d="M0 0 C0.39082764 0.93815552 0.39082764 0.93815552 0.78955078 1.89526367 C2.7691285 5.33736523 6.29483742 6.06189779 9.875 7.3125 C10.70217529 7.60737305 11.52935059 7.90224609 12.3815918 8.20605469 C24.35252926 12.32082632 36.63869701 15.31982981 49 18 C49.90459961 18.1964209 50.80919922 18.3928418 51.74121094 18.59521484 C64.92982949 21.28598142 78.28122871 21.3005065 91.6875 21.375 C92.55055756 21.38312714 93.41361511 21.39125427 94.30282593 21.39962769 C120.39227821 21.58355062 143.98659222 15.29991702 168.51660156 6.84277344 C170.54859884 6.15318883 172.59665551 5.51108835 174.6484375 4.8828125 C177.16168214 4.24345596 177.16168214 4.24345596 178 2 C178.92704182 22.8584409 174.74899478 41.66910326 167.57910156 61.19433594 C166.89820256 63.00136645 166.89820256 63.00136645 167 65 C167.680625 65.020625 168.36125 65.04125 169.0625 65.0625 C173.49900071 66.47840448 176.27816419 69.26572931 179 73 C179.82492653 75.49407612 179.94569738 77.33917168 180 80 C173.99823979 84.00117347 164.97719786 82.83744098 158 82 C149.84339452 79.5733176 144.18555515 74.31046554 140 67 C136.48301479 59.1593816 134.93628817 51.73231375 134.4375 43.1875 C134.39431641 42.49462891 134.35113281 41.80175781 134.30664062 41.08789062 C134.20138547 39.39211314 134.10027137 37.69607948 134 36 C133.27296875 36.32613281 132.5459375 36.65226562 131.796875 36.98828125 C108.22154576 47.23448204 75.91193952 49.66239005 51.41796875 40.6875 C48.5760206 39.52292986 45.79196337 38.27733586 43 37 C42.67 37 42.34 37 42 37 C42.02320313 37.90621094 42.04640625 38.81242187 42.0703125 39.74609375 C42.26920752 53.17150732 40.57602737 65.12915548 30.9453125 75.203125 C23.25368961 82.30783691 16.21182833 82.64005869 6.109375 82.37109375 C2.74045171 82.1748532 0.05373558 81.52076032 -3 80 C-2.86120413 74.44816534 -0.47006998 71.60838489 3.14453125 67.703125 C5.27316041 65.7492675 7.18537081 64.68233435 10 64 C9.60564015 62.66623011 9.20934067 61.33303387 8.8125 60 C8.54179687 59.08476562 8.27109375 58.16953125 7.9921875 57.2265625 C7.28247708 54.91860658 6.53307181 52.62270867 5.7578125 50.3359375 C0.1296768 33.64401683 -0.31400921 17.46857388 0 0 Z " fill="#5C5262" transform="translate(149,390)"/>
<path d="M0 0 C7.49708521 4.19107888 12.16429656 10.10189526 15.3671875 18.01953125 C16.38295728 21.74551861 16.59395316 25.23758578 16.5625 29.0703125 C16.55512817 30.13088867 16.55512817 30.13088867 16.54760742 31.21289062 C16.30909338 41.86896408 12.21450261 50.15383672 5.0625 57.9453125 C-3.38272602 66.00415563 -14.21713506 68.7522843 -25.609375 68.4921875 C-34.74135603 67.81069638 -40.82386163 63.13945174 -46.75 56.2578125 C-52.27030961 47.40308768 -53.22533524 38.22660191 -51.0859375 28.12109375 C-48.00848317 17.67112927 -41.87426185 8.3841026 -32.75 2.2578125 C-29.48979322 0.6665211 -26.19230368 -0.6049433 -22.75 -1.7421875 C-15.18545322 -4.26370309 -7.15906915 -3.28124003 0 0 Z " fill="#5B5261" transform="translate(221.75,167.7421875)"/>
<path d="M0 0 C7.92263106 5.44960639 12.75198481 12.86142317 15.765625 21.90234375 C17.11927474 35.84150907 15.71653298 47.10972094 7.578125 58.77734375 C2.75408482 64.60860111 -4.31746476 69.34344316 -11.94921875 70.2109375 C-22.74108617 70.6426122 -30.71601546 67.48246152 -38.671875 60.15234375 C-46.73439099 51.38582429 -49.70812238 40.81735612 -49.48046875 29.11328125 C-48.68928881 18.7902668 -43.36018894 10.62683938 -35.984375 3.58984375 C-25.02243095 -5.57866037 -12.55799477 -6.98579552 0 0 Z " fill="#5B5261" transform="translate(315.234375,199.09765625)"/>
<path d="M0 0 C2.625 1.9375 2.625 1.9375 4.1875 5.125 C4.7517528 10.04206013 3.66042638 12.47521909 1.625 16.9375 C2.30304688 17.35 2.98109375 17.7625 3.6796875 18.1875 C9.61652157 21.87129732 15.14488197 25.78753234 20.53125 30.23828125 C22.7176616 32.06688489 22.7176616 32.06688489 25.625 33.9375 C26.40875 33.4425 27.1925 32.9475 28 32.4375 C30.625 30.9375 30.625 30.9375 32.625 30.9375 C32.625 31.5975 32.625 32.2575 32.625 32.9375 C33.15867187 32.75574219 33.69234375 32.57398438 34.2421875 32.38671875 C35.82697728 31.85205784 37.41448027 31.32540428 39.00390625 30.8046875 C40.68572007 30.24826027 42.36110781 29.67178303 44.02734375 29.0703125 C53.3363057 25.9019462 62.31805424 25.52858736 71.375 29.6796875 C79.02704986 33.95739593 83.2827269 39.91834335 86.9375 47.75 C89.41974589 59.2585946 86.54387849 70.18655249 80.8125 80.3125 C75.74001035 88.13681529 69.94086787 92.83336558 61.625 96.9375 C60.93792969 97.31261719 60.25085938 97.68773437 59.54296875 98.07421875 C57.625 98.9375 57.625 98.9375 54.625 98.9375 C54.295 96.9575 53.965 94.9775 53.625 92.9375 C52.635 93.4325 52.635 93.4325 51.625 93.9375 C51.33367187 92.65617187 51.04234375 91.37484375 50.7421875 90.0546875 C44.93631961 65.24320399 34.44526305 45.77713137 14 30 C13.29560791 29.45609619 12.59121582 28.91219238 11.86547852 28.35180664 C7.32427467 24.95107084 2.76732335 22.33532493 -2.375 19.9375 C-2.148125 20.865625 -1.92125 21.79375 -1.6875 22.75 C-1.375 25.9375 -1.375 25.9375 -2.3125 27.75 C-5.54125367 29.60897939 -8.67885339 29.63453716 -12.375 29.9375 C-10.077779 28.19478062 -7.77633271 26.53838848 -5.375 24.9375 C-5.705 24.2775 -6.035 23.6175 -6.375 22.9375 C-7.695 23.2675 -9.015 23.5975 -10.375 23.9375 C-9.98828125 23.51339844 -9.6015625 23.08929688 -9.203125 22.65234375 C-2.89510806 15.70611953 -2.89510806 15.70611953 -0.125 7 C-0.24875 5.9790625 -0.24875 5.9790625 -0.375 4.9375 C-4.584241 2.8328795 -9.80599373 3.40064176 -14.375 3.9375 C-16.80627721 5.023977 -18.73650812 6.23737958 -20.8515625 7.84375 C-22.375 8.9375 -22.375 8.9375 -24.375 8.9375 C-22.98302671 5.55493279 -21.5724504 4.10061318 -18.4375 2.25 C-17.74785156 1.83363281 -17.05820312 1.41726562 -16.34765625 0.98828125 C-10.96064708 -1.88123453 -5.67289422 -1.78591114 0 0 Z " fill="#262625" transform="translate(291.375,117.0625)"/>
<path d="M0 0 C0.9075 0.78375 1.815 1.5675 2.75 2.375 C3.39839844 2.92542969 4.04679688 3.47585938 4.71484375 4.04296875 C6.32676462 5.42343432 7.92166737 6.82389298 9.50390625 8.23828125 C36.12035708 31.44901097 72.71157731 44.97124524 107 52 C107.65129883 52.14518066 108.30259766 52.29036133 108.97363281 52.43994141 C125.28773185 56.0305859 142.47347617 56.28014954 159 54 C160.6657469 53.94084706 162.33340656 53.91145948 164 53.9375 C164.763125 53.94652344 165.52625 53.95554687 166.3125 53.96484375 C166.869375 53.97644531 167.42625 53.98804688 168 54 C149.06261551 69.83597661 114.32420328 70.87359008 91 69 C59.8653377 64.72141495 30.00852468 45.06153154 11.1015625 20.30859375 C0 5.18630478 0 5.18630478 0 0 Z " fill="#C5D9F1" transform="translate(147,255)"/>
<path d="M0 0 C0.69480469 0.4125 1.38960938 0.825 2.10546875 1.25 C9.49786133 6.13203037 13.65474802 13.57208536 16 22 C17.31189282 35.27226636 14.03446623 47.93412929 6.02734375 58.63671875 C-0.7773749 66.66556669 -7.83413074 71.31561399 -18 74 C-17.98952637 74.60134766 -17.97905273 75.20269531 -17.96826172 75.82226562 C-17.73671583 91.33290918 -18.44515063 106.56729295 -20 122 C-19.21915039 122.1431665 -18.43830078 122.28633301 -17.63378906 122.43383789 C-7.83927907 124.53927622 -0.34675338 134.05578249 4.98046875 141.92578125 C13.58959018 156.07851605 17.88375975 171.94090145 14.24609375 188.4140625 C12.4911421 193.41051308 10.24914822 197.79521996 7 202 C6.60425781 202.55042969 6.20851563 203.10085938 5.80078125 203.66796875 C1.51855413 209.22627501 -3.92706526 212.60862086 -10 216 C-10.63550781 216.36480469 -11.27101563 216.72960937 -11.92578125 217.10546875 C-19.14589536 220.51541178 -29.9593124 220.17966383 -37.4921875 217.98046875 C-38.73355469 217.49513672 -38.73355469 217.49513672 -40 217 C-39.87882812 217.69746338 -39.75765625 218.39492676 -39.6328125 219.11352539 C-34.85414974 247.19506142 -34.03932672 272.30551602 -43.6953125 299.3046875 C-44.61088562 301.89789758 -45.37097473 304.3407718 -46 307 C-45.20335937 307.54527344 -45.20335937 307.54527344 -44.390625 308.1015625 C-39.96388768 311.25197775 -36.40494409 313.98969982 -34 319 C-33.69979412 321.7618941 -33.80743933 324.20787027 -34 327 C-46.06124418 333.76606381 -66.63188772 332.20206512 -79.8125 328.75 C-83.88987639 327.27878172 -86.4258165 325.58825579 -89 322 C-91.47451299 315.85329707 -93.04240158 309.34394069 -94.6875 302.9375 C-95.02491211 301.6390918 -95.02491211 301.6390918 -95.36914062 300.31445312 C-95.91551056 298.21034762 -96.45815403 296.10527504 -97 294 C-96.01 294 -95.02 294 -94 294 C-91.50360736 300.24098161 -89.93351595 306.30996364 -88.71484375 312.90820312 C-87.64841018 317.96236908 -86.17012734 320.66009558 -82 324 C-73.93833556 327.10064017 -65.04686787 327.18052866 -56.5 327.1875 C-55.70980469 327.19974609 -54.91960937 327.21199219 -54.10546875 327.22460938 C-48.4995381 327.23837189 -43.41659525 326.42776144 -38 325 C-38 321.10488087 -38.15473626 319.00193734 -40.70703125 315.9765625 C-45.11765935 311.81324464 -45.11765935 311.81324464 -51 311 C-50.46121457 306.84550994 -49.41275501 303.12395365 -47.98095703 299.19140625 C-42.25892787 283.38804201 -35.44870048 260.65389857 -41 244 C-41.27202022 241.79427084 -41.51734443 239.58522793 -41.75 237.375 C-43.69818757 220.78629926 -47.22627332 204.39679125 -52.20800781 188.46020508 C-52.45647461 187.65091553 -52.70494141 186.84162598 -52.9609375 186.0078125 C-53.18571777 185.30285645 -53.41049805 184.59790039 -53.64208984 183.87158203 C-54 182 -54 182 -53 179 C-51.70341623 182.35228626 -50.4136327 185.70715014 -49.125 189.0625 C-48.76019531 190.00544922 -48.39539063 190.94839844 -48.01953125 191.91992188 C-43 205.01633523 -43 205.01633523 -43 211 C-33.64570397 214.85176895 -24.72022269 217.18910248 -14.73828125 213.9375 C-4.12863296 208.93833154 4.67346278 201.59243218 8.96484375 190.5078125 C13.3064163 176.70281224 11.33756037 163.09737799 4.8125 150.375 C-1.05425275 140.0928086 -8.20759403 130.2586425 -19.4375 125.5625 C-28.31260055 124.07069152 -28.31260055 124.07069152 -36.5625 126.875 C-38.91849345 128.92894301 -39.80520171 129.77134948 -40.28442383 132.79394531 C-40.71073338 141.63774174 -37.54264048 149.53149829 -34.6875 157.75 C-25.72000552 183.85607562 -25.72000552 183.85607562 -26 196 C-27.87104502 193.19343248 -28.6712887 191.21222319 -29.62109375 188.02734375 C-29.91693359 187.04443359 -30.21277344 186.06152344 -30.51757812 185.04882812 C-30.97293945 183.5087207 -30.97293945 183.5087207 -31.4375 181.9375 C-31.73720703 180.93783203 -32.03691406 179.93816406 -32.34570312 178.90820312 C-33.23479201 175.9400734 -34.11743257 172.97007425 -35 170 C-35.99824389 166.6661389 -36.99885951 163.3329923 -38 160 C-41.02216824 160 -42.38811924 161.7212113 -44.75 163.5625 C-57.66591908 173.06444568 -71.9836061 178.69253927 -88 180 C-87.67 179.01 -87.34 178.02 -87 177 C-85.02905273 176.14379883 -85.02905273 176.14379883 -82.43359375 175.45703125 C-81.00370117 175.05955688 -81.00370117 175.05955688 -79.54492188 174.65405273 C-78.00674805 174.23748413 -78.00674805 174.23748413 -76.4375 173.8125 C-56.78834208 168.23414671 -56.78834208 168.23414671 -41 156 C-40.50428866 151.71674424 -41.61531431 148.0635428 -43.0625 144.0625 C-44.83342192 138.27748838 -45.016053 132.99581839 -42.25 127.5625 C-39.07635953 123.94807613 -36.72565728 121.93493219 -32 121 C-30.41788427 120.93451508 -28.83329919 120.91421619 -27.25 120.9375 C-26.45078125 120.94652344 -25.6515625 120.95554687 -24.828125 120.96484375 C-24.22484375 120.97644531 -23.6215625 120.98804688 -23 121 C-23.01160156 120.10539062 -23.02320313 119.21078125 -23.03515625 118.2890625 C-23.04417969 117.07992187 -23.05320312 115.87078125 -23.0625 114.625 C-23.07410156 113.44164062 -23.08570313 112.25828125 -23.09765625 111.0390625 C-23.07526384 108.17638829 -22.83791996 105.40438588 -22.5 102.5625 C-21.7075133 95.18892806 -21.89391977 87.7803495 -21.9375 80.375 C-21.94252697 78.87890775 -21.94708775 77.38281387 -21.95117188 75.88671875 C-21.96207815 72.25777781 -21.97927618 68.62889973 -22 65 C-21.34 64.67 -20.68 64.34 -20 64 C-20 66.31 -20 68.62 -20 71 C-6.31676787 65.31542194 3.08972168 58.57634104 8.96484375 44.69140625 C12.2344925 36.19031949 13.97853532 27.02104369 10.375 18.3125 C9.62339427 16.85365416 8.83092536 15.41516975 8 14 C7.5875 13.28714844 7.175 12.57429688 6.75 11.83984375 C2.3940281 5.21926146 -3.64189421 2.45270193 -11 0 C-20.43961811 -0.91399477 -29.79733159 0.61068476 -38.1875 5.1953125 C-40 6 -40 6 -43 5 C-42.67 4.01 -42.34 3.02 -42 2 C-39.19921875 0.6484375 -39.19921875 0.6484375 -35.6875 -0.625 C-33.96080078 -1.26308594 -33.96080078 -1.26308594 -32.19921875 -1.9140625 C-21.8911308 -5.41302276 -9.42888781 -6.04658136 0 0 Z " fill="#1F1F1D" transform="translate(366,145)"/>
<path d="M0 0 C0.33 0 0.66 0 1 0 C1.32684437 4.03108051 0.7208317 7.34382902 -0.375 11.1875 C-7.06725338 34.9751305 -4.9732303 58.96626985 3.34375 82.01708984 C3.69824219 83.00789551 4.05273438 83.99870117 4.41796875 85.01953125 C4.74563232 85.90745361 5.0732959 86.79537598 5.41088867 87.71020508 C6 90 6 90 5 93 C4.0925 93.433125 3.185 93.86625 2.25 94.3125 C-1.64772976 96.33632122 -3.52295474 98.3905912 -6 102 C-6.873938 105.22433127 -6.873938 105.22433127 -7 108 C1.06950569 110.22770164 12.6284655 110.91075049 20.1875 107 C27.64572993 101.77923905 32.92765553 94.90379158 35 86 C35.9893413 79.03378528 36.52352541 72.01734738 37 65 C36.01 64.67 35.02 64.34 34 64 C34.66 63.67 35.32 63.34 36 63 C38.14453125 63.890625 38.14453125 63.890625 40.8125 65.25 C52.76218835 70.91037869 65.49942318 72.18689713 78.5559082 72.18530273 C80.53275708 72.18746743 82.50956647 72.20591427 84.48632812 72.22460938 C95.86411696 72.241736 106.68760988 71.14090688 117.5 67.5 C118.49386719 67.18095703 118.49386719 67.18095703 119.5078125 66.85546875 C123.0626143 65.70122036 126.54868413 64.43362352 130 63 C130.05607422 64.52367187 130.05607422 64.52367187 130.11328125 66.078125 C130.66671828 78.57695903 131.70687015 90.95530394 140 101 C142.82732914 103.36592473 145.75780559 105.25510992 149 107 C149.62132812 107.36867188 150.24265625 107.73734375 150.8828125 108.1171875 C153.68270827 109.28467172 156.23020984 109.42805716 159.25 109.625 C160.86648438 109.73714844 160.86648438 109.73714844 162.515625 109.8515625 C163.74539063 109.92503906 163.74539063 109.92503906 165 110 C165 110.33 165 110.66 165 111 C135.78765867 111.56057798 135.78765867 111.56057798 128.3125 107.3125 C123.48247033 102.48247033 122.31953629 95.79043965 120.9375 89.3125 C119.64253819 82.92109083 119.64253819 82.92109083 117 77 C116.34 77 115.68 77 115 77 C114.34 75.68 113.68 74.36 113 73 C112.12601562 73.20496094 111.25203125 73.40992188 110.3515625 73.62109375 C92.5148665 77.52871373 71.43789615 79.66577643 54 73 C53.60062459 74.41567219 53.20596055 75.83267249 52.8125 77.25 C52.5340625 78.24 52.255625 79.23 51.96875 80.25 C51.22084195 83.14512794 50.56999366 86.01144753 49.96875 88.9375 C46.45088528 105.47973069 46.45088528 105.47973069 40.35546875 109.9765625 C33.87310445 112.79311216 27.35015258 113.39827647 20.375 113.6875 C19.50343262 113.72584961 18.63186523 113.76419922 17.73388672 113.80371094 C-1.8399288 114.5306664 -1.8399288 114.5306664 -10 110 C-10.59552917 104.16381415 -10.34213373 100.21433296 -6.578125 95.57421875 C-3.95858921 92.96116696 -1.10430059 91.00866509 2 89 C1.52820313 87.99646484 1.52820313 87.99646484 1.046875 86.97265625 C-4.10964193 75.40155652 -7.55529778 62.71107167 -8 50 C-8.0515625 48.78570312 -8.103125 47.57140625 -8.15625 46.3203125 C-8.56692747 31.87615022 -7.32867415 15.55882533 -2 2 C-1.34 1.34 -0.68 0.68 0 0 Z " fill="#201F1E" transform="translate(154,362)"/>
<path d="M0 0 C5.55762651 4.30267859 8.80043677 10.04584155 11.00390625 16.65625 C11.8885101 26.18386857 10.28023029 33.4593222 5.19140625 41.53125 C-1.75337511 48.27760904 -10.10375502 49.10900729 -19.27929688 50.72265625 C-26.34388281 52.05526397 -31.35368777 53.42884608 -36.078125 59.19921875 C-36.64917969 60.07191406 -37.22023438 60.94460937 -37.80859375 61.84375 C-38.68451172 63.16439453 -38.68451172 63.16439453 -39.578125 64.51171875 C-40.04605469 65.21941406 -40.51398438 65.92710938 -40.99609375 66.65625 C-41.99609375 67.65625 -41.99609375 67.65625 -45.87109375 67.90625 C-49.68847675 67.84478945 -49.68847675 67.84478945 -51.93359375 66.46875 C-54.16716817 62.65853481 -54.15602515 60.36979009 -53.18359375 56.03125 C-49.88193647 48.06486592 -43.07052208 41.11084939 -35.29125977 37.48291016 C-30.02151911 35.58488422 -24.39140663 35.06666706 -18.86523438 34.32226562 C-14.30022813 33.61201448 -11.59943702 33.12333004 -7.8828125 30.24609375 C-5.46778814 26.93106032 -4.99609375 24.74524682 -4.99609375 20.65625 C-6.33152047 17.87317394 -6.33152047 17.87317394 -7.99609375 15.65625 C-7.99609375 14.99625 -7.99609375 14.33625 -7.99609375 13.65625 C-13.6240202 10.60778984 -18.87086469 8.61367569 -25.24609375 8.21875 C-28.46154571 7.95656699 -29.82221905 7.76388672 -32.62109375 6.03125 C-34.56595192 2.67194952 -34.54111486 0.47139776 -33.99609375 -3.34375 C-32.11174239 -5.99580006 -30.86992491 -7.09581175 -27.73828125 -7.984375 C-17.65506711 -9.30582187 -8.20522209 -5.52367201 0 0 Z " fill="#DB4864" transform="translate(372.99609375,44.34375)"/>
<path d="M0 0 C3.5672611 -0.31654877 6.01869566 -0.29003614 9.125 1.61328125 C11.21841077 3.40591461 13.10454697 5.27478228 14.9765625 7.296875 C15.54632813 7.895 16.11609375 8.493125 16.703125 9.109375 C24.09550521 17.2664842 25.16265258 24.64838681 24.9765625 35.296875 C19.3515625 38.296875 19.3515625 38.296875 15.9765625 38.296875 C15.76902344 37.72839844 15.56148437 37.15992188 15.34765625 36.57421875 C12.49474889 29.42404508 8.56850714 23.78582016 1.4765625 20.359375 C-2.21336298 19.23921905 -5.1896986 19.06215629 -9.0234375 19.296875 C-7.3734375 19.626875 -5.7234375 19.956875 -4.0234375 20.296875 C-4.5390625 20.668125 -5.0546875 21.039375 -5.5859375 21.421875 C-6.3903125 22.040625 -7.1946875 22.659375 -8.0234375 23.296875 C-8.590625 23.72226563 -9.1578125 24.14765625 -9.7421875 24.5859375 C-14.62029626 28.45121859 -17.38319756 32.00726743 -18.3359375 38.390625 C-18.64807086 43.93099211 -17.17618925 48.06839406 -14.80078125 53.03515625 C-13.88798331 55.69098542 -13.89473902 56.74162706 -15.0234375 59.296875 C-16.65234375 61 -16.65234375 61 -18.5859375 62.546875 C-19.22660156 63.06765625 -19.86726562 63.5884375 -20.52734375 64.125 C-21.02105469 64.51171875 -21.51476562 64.8984375 -22.0234375 65.296875 C-29.72299935 57.32232879 -31.39991487 45.64245313 -31.30078125 35.03515625 C-30.52851711 24.6259058 -25.98630647 14.5128988 -18.1484375 7.484375 C-12.28401093 3.3792764 -7.05289185 1.03478722 0 0 Z " fill="#5A5060" transform="translate(197.0234375,93.703125)"/>
<path d="M0 0 C6.56883882 4.55153707 12.08433434 12.09354668 13.66015625 19.97265625 C14.97408795 32.35235651 10.96061234 44.02227499 3.66015625 53.97265625 C-0.84402959 59.50544222 -5.98744347 62.83755297 -12.33984375 65.97265625 C-13.02691406 66.34777344 -13.71398437 66.72289062 -14.421875 67.109375 C-16.33984375 67.97265625 -16.33984375 67.97265625 -19.33984375 67.97265625 C-19.83484375 62.03265625 -19.83484375 62.03265625 -20.33984375 55.97265625 C-18.79296875 55.10640625 -17.24609375 54.24015625 -15.65234375 53.34765625 C-9.96636619 49.93767819 -5.89122909 46.23921674 -3.33984375 39.97265625 C-2.75381086 33.78483835 -2.78190464 27.72801924 -5.33984375 21.97265625 C-4.67984375 21.64265625 -4.01984375 21.31265625 -3.33984375 20.97265625 C-9.54785571 17.58646791 -15.33525164 17.09935645 -22.33984375 17.97265625 C-24.85075534 18.8667494 -27.08180017 19.89000674 -29.40234375 21.1953125 C-31.33984375 21.97265625 -31.33984375 21.97265625 -33.46484375 21.78125 C-35.33984375 20.97265625 -35.33984375 20.97265625 -37.33984375 17.97265625 C-37.33984375 13.53932729 -35.06822129 10.82475527 -32.2109375 7.6796875 C-24.20843454 0.37886538 -10.41871323 -4.57449345 0 0 Z " fill="#5A5060" transform="translate(365.33984375,148.02734375)"/>
<path d="M0 0 C4.95979287 2.85749384 8.8723289 6.99198669 10.6875 12.4375 C11.17519439 18.07412166 10.97480095 23.17530515 9.1875 28.5625 C7.64227411 33.25760944 6.68264426 37.51993166 7.6875 42.4375 C8.87004276 44.60748586 10.20629977 46.56374602 11.640625 48.57421875 C12.6875 50.4375 12.6875 50.4375 12.5 53.9375 C12.231875 54.7625 11.96375 55.5875 11.6875 56.4375 C12.80125 56.540625 13.915 56.64375 15.0625 56.75 C16.856875 57.0903125 16.856875 57.0903125 18.6875 57.4375 C20.6875 60.4375 20.6875 60.4375 20.4375 63.5 C19.6875 66.4375 19.6875 66.4375 17.6875 68.4375 C14.25 68.8125 14.25 68.8125 10.6875 68.4375 C8.6875 66.8125 8.6875 66.8125 7.6875 64.4375 C8 61.1875 8 61.1875 8.6875 58.4375 C7.800625 58.39625 6.91375 58.355 6 58.3125 C0.52888979 56.86730108 -1.40092784 52.97774261 -4.125 48.375 C-7.22428048 40.37000127 -5.65194986 31.45644502 -3 23.58984375 C-2.06730161 20.66986186 -1.73652795 18.46135324 -2.3125 15.4375 C-4.20402427 12.80692449 -4.20402427 12.80692449 -7.3125 11.4375 C-11.76663105 11.4375 -14.17997755 11.77905671 -18 14 C-20.06963916 16.18151155 -21.32274123 18.05136102 -22.8125 20.625 C-24.99429339 24.29779954 -24.99429339 24.29779954 -27.875 25.5625 C-30.75499269 25.41480807 -32.10064886 25.3333724 -34.3125 23.4375 C-35.4400236 20.12125412 -35.83641572 17.77348509 -34.53125 14.4453125 C-27.54736914 2.31789776 -13.85323125 -6.15699167 0 0 Z " fill="#211D1C" transform="translate(124.3125,114.5625)"/>
<path d="M0 0 C0.33 1.32 0.66 2.64 1 4 C1.66 4 2.32 4 3 4 C3.06316406 5.24652344 3.12632812 6.49304688 3.19140625 7.77734375 C4.78812356 32.07385869 15.31613125 48.74510598 32 66 C32.70125 66.74121094 33.4025 67.48242188 34.125 68.24609375 C39.0340993 73.32344847 44.41023219 77.69312972 50 82 C49.01 82.495 49.01 82.495 48 83 C42.50877092 79.36644204 37.63149834 75.6976626 33 71 C29.65054355 67.92938452 29.65054355 67.92938452 25.46484375 66.44140625 C18.99761888 66.75127328 13.64388699 69.58697546 9 74 C3.31694606 81.508446 0.61476206 88.81409668 0.6875 98.25 C0.69241455 99.00144287 0.6973291 99.75288574 0.70239258 100.52709961 C0.93690732 111.68879845 4.58009941 120.4448069 12.1875 128.625 C23.96568005 139.81554851 39.85451598 143.56655075 55.7265625 143.24609375 C64.56282358 142.5817925 72.77878391 140.67338468 79 134 C81.68309744 129.96171098 82.62762005 125.8117537 82 121 C80.46673366 117.03531967 78.5570971 115.55831196 74.81640625 113.859375 C73.07118517 113.14128925 71.31937717 112.43907646 69.5625 111.75 C67.65688784 110.96776204 65.75195608 110.18386481 63.84765625 109.3984375 C62.87586426 109.00237305 61.90407227 108.60630859 60.90283203 108.19824219 C28.00835515 94.61993331 28.00835515 94.61993331 21 87 C25.81891024 88.50529281 30.34329829 90.4084481 34.93359375 92.484375 C36.06608299 92.99149017 36.06608299 92.99149017 37.22145081 93.5088501 C40.42193862 94.94205748 43.6194977 96.38174371 46.81713867 97.82128906 C49.16734944 98.87814256 51.51887559 99.93199744 53.87109375 100.984375 C54.63903259 101.32901794 55.40697144 101.67366089 56.19818115 102.02874756 C59.88682045 103.67054352 63.58272322 105.25228618 67.35058594 106.70410156 C68.03290787 106.96725159 68.7152298 107.23040161 69.41822815 107.50152588 C71.25577822 108.20021282 73.09972312 108.88201644 74.9440918 109.5625 C80.13305275 112.00338856 83.46295415 115.92590831 86 121 C86.77192225 127.28565258 85.64299146 130.77723509 81.91015625 135.88671875 C76.83595822 141.5005043 70.09880334 145.59081858 62.46582031 146.20336914 C59.43227636 146.30597884 56.41023675 146.3283864 53.375 146.3125 C52.29992187 146.30831055 51.22484375 146.30412109 50.1171875 146.29980469 C39.17540663 146.14377808 30.62226114 144.16751061 21 139 C20.34 139 19.68 139 19 139 C18.34 139.99 17.68 140.98 17 142 C16.34 142 15.68 142 15 142 C15.495 139.03 15.495 139.03 16 136 C15.1646875 135.6596875 15.1646875 135.6596875 14.3125 135.3125 C5.65517727 130.39888439 -0.3732909 120.36360549 -3 111 C-5.14184576 99.74358434 -4.23131671 87.33720022 1.46875 77.24609375 C6.8631568 69.33337969 13.13214299 65.39065121 22 62 C21.43152344 61.34515625 20.86304688 60.6903125 20.27734375 60.015625 C7.18658062 44.54273636 -2.30165392 25.82646279 -1 5 C-0.71479595 3.32442621 -0.40044304 1.65182755 0 0 Z " fill="#232221" transform="translate(138,221)"/>
<path d="M0 0 C5.55762651 4.30267859 8.80043677 10.04584155 11.00390625 16.65625 C11.8885101 26.18386857 10.28023029 33.4593222 5.19140625 41.53125 C-1.75337511 48.27760904 -10.10375502 49.10900729 -19.27929688 50.72265625 C-26.34388281 52.05526397 -31.35368777 53.42884608 -36.078125 59.19921875 C-36.64917969 60.07191406 -37.22023438 60.94460937 -37.80859375 61.84375 C-38.68451172 63.16439453 -38.68451172 63.16439453 -39.578125 64.51171875 C-40.04605469 65.21941406 -40.51398438 65.92710938 -40.99609375 66.65625 C-41.99609375 67.65625 -41.99609375 67.65625 -45.87109375 67.90625 C-49.68847675 67.84478945 -49.68847675 67.84478945 -51.93359375 66.46875 C-54.16716817 62.65853481 -54.15602515 60.36979009 -53.18359375 56.03125 C-49.88193647 48.06486592 -43.07052208 41.11084939 -35.29125977 37.48291016 C-30.02151911 35.58488422 -24.39140663 35.06666706 -18.86523438 34.32226562 C-14.30022813 33.61201448 -11.59943702 33.12333004 -7.8828125 30.24609375 C-5.46778814 26.93106032 -4.99609375 24.74524682 -4.99609375 20.65625 C-6.33152047 17.87317394 -6.33152047 17.87317394 -7.99609375 15.65625 C-7.99609375 14.99625 -7.99609375 14.33625 -7.99609375 13.65625 C-13.6240202 10.60778984 -18.87086469 8.61367569 -25.24609375 8.21875 C-28.46154571 7.95656699 -29.82221905 7.76388672 -32.62109375 6.03125 C-34.56595192 2.67194952 -34.54111486 0.47139776 -33.99609375 -3.34375 C-32.11174239 -5.99580006 -30.86992491 -7.09581175 -27.73828125 -7.984375 C-17.65506711 -9.30582187 -8.20522209 -5.52367201 0 0 Z M-30.99609375 -2.34375 C-31.32942708 0.15625 -31.32942708 0.15625 -30.99609375 2.65625 C-28.46216268 5.19018107 -27.50060112 4.87416813 -23.99609375 4.96875 C-17.2318141 5.48361643 -11.31555248 7.54282663 -6.296875 12.25 C-2.87351632 16.25209267 -1.56325588 19.11173468 -1.66015625 24.421875 C-2.26673047 28.45629888 -3.94010152 31.9440569 -6.99609375 34.65625 C-11.69793793 36.12996235 -16.36827837 36.90549754 -21.23657227 37.59179688 C-32.24757076 39.21391355 -39.57246982 42.13401137 -46.62109375 51.15625 C-49.51886909 55.14212279 -50.59471951 57.70018558 -49.99609375 62.65625 C-49.33609375 63.31625 -48.67609375 63.97625 -47.99609375 64.65625 C-45.50619637 64.7031986 -45.50619637 64.7031986 -42.99609375 63.65625 C-41.09526667 61.51251556 -41.09526667 61.51251556 -39.55859375 58.84375 C-36.43970019 53.75582002 -33.33658294 50.61631565 -27.45532227 48.92602539 C-24.47806666 48.25203986 -21.49623489 47.65698762 -18.49609375 47.09375 C-6.92212179 45.16703055 -6.92212179 45.16703055 2.25390625 38.34375 C2.97320312 37.51423828 2.97320312 37.51423828 3.70703125 36.66796875 C7.82987421 30.27259488 7.74606153 22.99534114 7.00390625 15.65625 C4.35563285 7.51101992 -3.51355496 1.63485874 -10.80078125 -2.32421875 C-16.404887 -4.80072191 -26.34787323 -6.99197052 -30.99609375 -2.34375 Z " fill="#231E1D" transform="translate(372.99609375,44.34375)"/>
<path d="M0 0 C4.68800944 5.06811832 5.52500851 9.40121129 5.48046875 16.14453125 C4.65015703 21.07914808 1.5796327 23.73163971 -2 27 C-2.96147613 27.97608083 -3.92029376 28.95479651 -4.875 29.9375 C-5.57625 30.618125 -6.2775 31.29875 -7 32 C-8.63377133 33.63377133 -8.31761765 35.62778885 -8.5 37.875 C-8.74279416 40.84922849 -9.05025071 43.15075214 -10 46 C-9.62875 46.969375 -9.2575 47.93875 -8.875 48.9375 C-8 52 -8 52 -9 54.375 C-11 56 -11 56 -14.0625 56.4375 C-15.031875 56.293125 -16.00125 56.14875 -17 56 C-19.20106023 52.69840966 -19.18529289 51.79850432 -19 48 C-18.7018576 44.2236068 -18.7018576 44.2236068 -20 42 C-20.47359283 36.19848782 -19.88725871 31.07481962 -17 26 C-14.63985694 23.52992306 -12.28170392 21.18308501 -9.67260742 18.98144531 C-7.97953178 17.54500673 -7.97953178 17.54500673 -6 15 C-5.87417742 11.76304221 -5.87417742 11.76304221 -7 9 C-10.16850205 7.41574897 -13.54117502 7.70313478 -17 8 C-19.15028304 8.94978897 -19.15028304 8.94978897 -21 10 C-23.87787098 10.35095988 -25.37531218 10.37481269 -27.875 8.875 C-29 7 -29 7 -29.125 4.0625 C-27.80783852 0.47689375 -26.2855988 -0.59537279 -22.88671875 -2.25 C-15.38589772 -5.23169283 -6.75268287 -4.39709582 0 0 Z " fill="#231D1D" transform="translate(270,42)"/>
<path d="M0 0 C4.9976683 3.22229768 9.25773967 7.22876267 11 13 C11.70213355 18.71281391 12.14282646 24.12479199 8.8125 29.0625 C6.01825969 32.25369367 3.47668318 34.68339308 -0.89453125 35.2421875 C-5.48403426 35.39103625 -9.63997702 34.68742032 -14.125 33.75 C-18.13511619 33.00606485 -20.42839468 32.68849864 -23.9375 34.875 C-24.948125 35.57625 -25.95875 36.2775 -27 37 C-29.9375 37.25 -29.9375 37.25 -32 37 C-32.12375 37.78375 -32.2475 38.5675 -32.375 39.375 C-33 42 -33 42 -35 44 C-37.4375 44.375 -37.4375 44.375 -40 44 C-41.875 42.3125 -41.875 42.3125 -43 40 C-42.75925978 36.62963689 -42.41201979 35.41201979 -40 33 C-37.375 32.875 -37.375 32.875 -35 33 C-34.938125 32.1646875 -34.938125 32.1646875 -34.875 31.3125 C-33.27531436 27.08475939 -29.44459144 24.79832685 -25.625 22.6875 C-18.78471599 20.89599704 -12.40032877 22.3745759 -5.63671875 23.85546875 C-2.99556455 24.26410361 -2.99556455 24.26410361 -1.14453125 22.765625 C0.31163451 20.86994239 0.31163451 20.86994239 0 17.5625 C-1.184839 13.34151108 -2.34452055 12.29530105 -6 10 C-6.7425 9.690625 -7.485 9.38125 -8.25 9.0625 C-10 8 -10 8 -10.8125 5.5625 C-11 3 -11 3 -10 0 C-6.64803116 -1.67598442 -3.44979389 -1.08145903 0 0 Z " fill="#231E1D" transform="translate(414,203)"/>
<path d="M0 0 C1.03769531 -0.02578125 2.07539062 -0.0515625 3.14453125 -0.078125 C7.80020501 0.42389887 10.19653728 2.19865604 13.3671875 5.5625 C15.30065542 8.41706208 16.25310369 10.98005233 17.3125 14.25 C19.20366068 19.09089558 20.72316267 21.1319962 25.4375 23.375 C26.30890625 23.70757812 27.1803125 24.04015625 28.078125 24.3828125 C30.1875 25.25 30.1875 25.25 31.1875 27.25 C31.6825 26.755 31.6825 26.755 32.1875 26.25 C35.125 26.0625 35.125 26.0625 38.1875 26.25 C40.1875 28.25 40.1875 28.25 40.5625 31.1875 C40.1875 34.25 40.1875 34.25 38.5625 36.25 C36.1875 37.25 36.1875 37.25 33 36.5625 C30.1875 35.25 30.1875 35.25 29.1875 33.25 C28.5275 33.476875 27.8675 33.70375 27.1875 33.9375 C23.03057057 34.37051348 19.80056568 33.31656408 16.1875 31.25 C11.8287738 27.50904601 9.4159779 23.47606149 6.875 18.4375 C6.51599609 17.74462891 6.15699219 17.05175781 5.78710938 16.33789062 C4.91213149 14.64626671 4.04861381 12.94872328 3.1875 11.25 C-0.25043339 11.43129815 -0.25043339 11.43129815 -3.8125 12.25 C-6.6560293 15.70230658 -5.85406751 19.58491989 -5.58984375 23.8125 C-5.86499804 26.82471534 -6.73486544 28.08886712 -8.8125 30.25 C-11.3125 30.75 -11.3125 30.75 -13.8125 30.25 C-17.00174352 27.03781229 -17.24474959 24.43134871 -17.25 20 C-17.1078091 14.24126868 -16.35083451 9.86917625 -12.8125 5.25 C-8.46730567 1.21517669 -5.86364882 0.08676176 0 0 Z " fill="#231D1D" transform="translate(103.8125,246.75)"/>
<path d="M0 0 C4.30002497 2.5239277 6.32402774 5.32491949 8 10 C9.00851992 15.97354108 8.03098673 20.30984189 4.5703125 25.2734375 C2.04190667 28.05342599 -0.60939767 29.40065928 -4 31 C-4.99 31.495 -4.99 31.495 -6 32 C-10.94805801 32.48510373 -14.35302279 31.9726427 -18.48828125 29.32421875 C-21.68346126 26.52534014 -22.8035674 23.01621388 -23.20703125 18.875 C-23.27196121 15.66391844 -23.0180663 13.05419891 -22 10 C-22.99 9.67 -23.98 9.34 -25 9 C-26.95542188 6.01540871 -27 4.73585209 -27 1 C-26.34 1 -25.68 1 -25 1 C-24.67 1.99 -24.34 2.98 -24 4 C-21.84977164 4.96877472 -21.84977164 4.96877472 -19 5 C-17.05415674 3.89721356 -15.3853497 2.63338279 -13.6484375 1.2265625 C-9.42555701 -1.9155808 -4.84312876 -1.0914093 0 0 Z " fill="#201F1E" transform="translate(220,190)"/>
<path d="M0 0 C5.15507139 3.58613662 7.8582366 9.13305193 9.875 15 C12.185 15 14.495 15 16.875 15 C15.50516497 18.16115776 14.8859362 18.9927092 11.875 21 C9.1875 21.125 9.1875 21.125 6.875 21 C6.854375 21.70125 6.83375 22.4025 6.8125 23.125 C5.42905081 27.36757751 2.40779256 29.42179573 -1.125 32 C-4.23453379 33.5547669 -6.68766761 33.28644437 -10.125 33 C-15.40338327 30.2055618 -19.21364461 26.73406618 -21.125 21 C-21.62942239 15.7325072 -21.7966659 11.36820832 -19.4375 6.5625 C-13.57822865 0.06979391 -8.77602173 -2.80832695 0 0 Z " fill="#201F1E" transform="translate(296.125,215)"/>
<path d="M0 0 C5.76183158 1.93462958 8.98076213 5.97114319 12.25 10.875 C14.19853629 16.39585282 12.91104808 20.54846173 11 25.875 C9.21788222 30.99779017 7.77022033 35.59703358 9 41 C10.18327827 43.19184431 11.50925883 45.17522307 12.953125 47.203125 C14 49 14 49 13.8125 52 C13.544375 52.66 13.27625 53.32 13 54 C9.6595514 53.72162928 8.27974867 53.27974867 5.875 50.875 C2.12736294 45.12862318 -0.06151407 39.89984147 1 33 C1.98527049 29.45302622 3.05616129 25.95647344 4.22265625 22.46484375 C5.09585635 18.57274077 4.89246386 15.87047484 4 12 C1.80384489 9.23709518 0.17023452 8.20988978 -3.30859375 7.5859375 C-8.61395783 7.27908235 -12.32393443 7.95371504 -16.4609375 11.35546875 C-19.16670627 14.24665822 -21.12946631 17.52615172 -23 21 C-24.65 20.67 -26.3 20.34 -28 20 C-27.87591659 14.0439964 -26.03520835 11.11078353 -21.98046875 6.796875 C-19.17783501 4.25405149 -16.39549426 2.66445797 -13 1 C-9.04474536 -0.97762732 -4.31019688 -0.42863836 0 0 Z " fill="#D74763" transform="translate(120,116)"/>
<path d="M0 0 C0.33 0 0.66 0 1 0 C1.03738281 1.01578125 1.07476562 2.0315625 1.11328125 3.078125 C1.66671828 15.57695903 2.70687015 27.95530394 11 38 C13.82732914 40.36592473 16.75780559 42.25510992 20 44 C20.62132812 44.36867188 21.24265625 44.73734375 21.8828125 45.1171875 C24.68270827 46.28467172 27.23020984 46.42805716 30.25 46.625 C31.32765625 46.69976562 32.4053125 46.77453125 33.515625 46.8515625 C34.33546875 46.90054688 35.1553125 46.94953125 36 47 C36 47.33 36 47.66 36 48 C6.78765867 48.56057798 6.78765867 48.56057798 -0.6875 44.3125 C-5.47990651 39.52009349 -6.67378456 32.86673814 -8.0625 26.4375 C-9.14735077 21.50992483 -10.39821362 16.7912465 -12 12 C-12.125 9.125 -12.125 9.125 -12 7 C-11.38511719 6.74605469 -10.77023437 6.49210937 -10.13671875 6.23046875 C-9.32847656 5.88628906 -8.52023437 5.54210937 -7.6875 5.1875 C-6.88699219 4.85105469 -6.08648437 4.51460938 -5.26171875 4.16796875 C-3.03043459 3.01571666 -1.69512228 1.82030054 0 0 Z " fill="#3D3641" transform="translate(283,425)"/>
<path d="M0 0 C3.69093513 2.10910579 5.41233378 4.12057211 7 8 C7.71465433 14.14417099 7.73363375 19.86625359 4 25 C-0.01255551 29.17757402 -3.10975294 32.20984491 -9 33 C-9.58007812 31.31583984 -9.58007812 31.31583984 -10.171875 29.59765625 C-10.69719086 28.08568513 -11.2232828 26.57398351 -11.75 25.0625 C-12.15508789 23.89521362 -12.15508789 23.89521362 -12.56835938 22.7043457 C-14.01931764 18.58022948 -15.56851792 14.6166108 -17.5 10.6875 C-19 7 -19 7 -18.24609375 4.87890625 C-14.25890887 -1.13311859 -6.43913321 -0.89323342 0 0 Z " fill="#3D3641" transform="translate(353,168)"/>
<path d="M0 0 C5.06043342 2.99877536 8.29176712 7.36872196 10 13 C8.64823366 17.05529902 6.07744995 17.86421243 2.5 19.75 C-2.85441783 22.66910069 -7.64635984 25.80746092 -12.328125 29.75 C-14 31 -14 31 -16 31 C-19.36279482 24.27441037 -21.29508863 17.15945278 -19 9.75 C-15.26976441 1.52006318 -8.88919517 -1.92476788 0 0 Z " fill="#3D3641" transform="translate(201,118)"/>
<path d="M0 0 C1.32 0.33 2.64 0.66 4 1 C4 1.99 4 2.98 4 4 C4.66 4.103125 5.32 4.20625 6 4.3125 C9.83841009 5.19213564 13.33096691 6.56969896 17 8 C16.20603902 12.5318222 14.89535908 16.85542839 13.5625 21.25 C12.15620134 25.89870837 10.8337443 30.45799393 10 35.25 C8.82509542 39.65589217 7.61632622 41.26766463 4 44 C-6.49719843 49.76316776 -19.39458766 48.11377855 -31 48 C-31 47.67 -31 47.34 -31 47 C-29.85724609 46.97873047 -29.85724609 46.97873047 -28.69140625 46.95703125 C-19.15833828 46.5166773 -12.83144686 44.26612235 -6.1875 37.3125 C2.08420274 26.89628173 2.13180715 14.78643366 3 2 C2.01 1.67 1.02 1.34 0 1 C0 0.67 0 0.34 0 0 Z " fill="#3D3641" transform="translate(188,425)"/>
<path d="M0 0 C9.38659352 -0.8987164 16.18417149 0.62385807 24 6 C30.23632817 11.53321274 36.35818102 19.39088941 37.19287109 27.98608398 C37.70621953 42.38628546 36.56814449 53.50004512 27.03515625 65.0234375 C19.91541172 71.93819898 12.29586469 74.49997247 2.5546875 74.40234375 C-6.14876272 73.41722796 -13.46919253 68.56481249 -19.31640625 62.20703125 C-26.45201929 52.85292134 -29.52075349 41.69181447 -28 30 C-27.01 29.34 -26.02 28.68 -25 28 C-25.03480469 29.14275391 -25.03480469 29.14275391 -25.0703125 30.30859375 C-25.29650863 43.25024379 -22.76424147 53.67728007 -13.765625 63.42578125 C-6.78407265 69.6504839 0.32799721 70.77544484 9.51171875 70.40625 C17.69713766 69.45296493 22.01591352 65.66290551 27.23828125 59.4453125 C33.98828764 50.07612403 34.79935051 40.23594091 34 29 C32.03706361 19.95927582 27.67282666 12.12483882 19.8125 7.0625 C15.16461819 4.35811117 11.16471955 3.78122052 5.8125 3.4375 C4.54019531 3.35371094 3.26789063 3.26992187 1.95703125 3.18359375 C0.98121094 3.12300781 0.00539063 3.06242188 -1 3 C-0.67 2.01 -0.34 1.02 0 0 Z " fill="#282826" transform="translate(294,195)"/>
<path d="M0 0 C0.79921875 0.00902344 1.5984375 0.01804687 2.421875 0.02734375 C3.02515625 0.03894531 3.6284375 0.05054688 4.25 0.0625 C2.25 3.0625 2.25 3.0625 0.04296875 3.6171875 C-0.81683594 3.72289062 -1.67664063 3.82859375 -2.5625 3.9375 C-6.05439582 4.57422775 -7.81750441 5.10570283 -10.875 7.0625 C-13.63233187 11.474231 -13.38894466 14.96038526 -12.75 20.0625 C-11.25985942 25.74384465 -9.36414635 31.2666621 -7.4375 36.8125 C1.52999448 62.91857562 1.52999448 62.91857562 1.25 75.0625 C-0.62104502 72.25593248 -1.4212887 70.27472319 -2.37109375 67.08984375 C-2.66693359 66.10693359 -2.96277344 65.12402344 -3.26757812 64.11132812 C-3.57115234 63.08458984 -3.87472656 62.05785156 -4.1875 61 C-4.63706055 59.50049805 -4.63706055 59.50049805 -5.09570312 57.97070312 C-5.98479201 55.0025734 -6.86743257 52.03257425 -7.75 49.0625 C-8.74824389 45.7286389 -9.74885951 42.3954923 -10.75 39.0625 C-13.77216824 39.0625 -15.13811924 40.7837113 -17.5 42.625 C-30.41591908 52.12694568 -44.7336061 57.75503927 -60.75 59.0625 C-60.42 58.0725 -60.09 57.0825 -59.75 56.0625 C-57.77905273 55.20629883 -57.77905273 55.20629883 -55.18359375 54.51953125 C-53.75370117 54.12205688 -53.75370117 54.12205688 -52.29492188 53.71655273 C-51.26947266 53.43884033 -50.24402344 53.16112793 -49.1875 52.875 C-29.53834208 47.29664671 -29.53834208 47.29664671 -13.75 35.0625 C-13.25428866 30.77924424 -14.36531431 27.1260428 -15.8125 23.125 C-17.58342192 17.33998838 -17.766053 12.05831839 -15 6.625 C-10.42045449 1.4094065 -6.87967321 -0.10117166 0 0 Z " fill="#252524" transform="translate(338.75,265.9375)"/>
<path d="M0 0 C5.79150802 0.47945467 10.96990354 2.16360067 16.4375 4.0625 C17.26443359 4.34416016 18.09136719 4.62582031 18.94335938 4.91601562 C20.96412338 5.60517792 22.98233282 6.3018231 25 7 C25 11 25 11 23.125 13 C18.97788729 15.65415214 14.61179667 17.31647034 10 19 C9.78721942 23.46839215 10.40861915 26.82262526 12 31 C11.38125 30.319375 10.7625 29.63875 10.125 28.9375 C5.63446019 26.15336532 2.04104078 27.09946456 -3 28 C-0.28922757 25.02873292 2.13151386 24.11756266 6 23 C6.454782 17.20152948 5.57621118 15.39363088 2 11 C0.79014777 7.71973118 -0.13231132 4.38530053 -1 1 C-0.67 0.67 -0.34 0.34 0 0 Z " fill="#222220" transform="translate(235,223)"/>
<path d="M0 0 C3.34987687 1.04218392 4.51766679 2.16931504 6.265625 5.1796875 C7.90919031 8.43711513 9.43784767 11.73753927 10.921875 15.0703125 C13.47659047 20.2469728 16.84294202 21.98474191 22 24 C22 25.32 22 26.64 22 28 C15.96061553 27.42482053 12.03927227 25.28128707 7.9921875 20.75390625 C5.87083621 17.82145006 4.57921826 15.04746838 3.25 11.6875 C2.82203125 10.61886719 2.3940625 9.55023438 1.953125 8.44921875 C1.63859375 7.64097656 1.3240625 6.83273437 1 6 C-2.02780512 5.33375094 -4.894332 4.86474478 -8 5 C-10.80665387 7.16346236 -12.424034 8.84806801 -14 12 C-14.07033769 13.87379605 -14.0843022 15.75001102 -14.0625 17.625 C-14.04896484 19.12933594 -14.04896484 19.12933594 -14.03515625 20.6640625 C-14.02355469 21.43492187 -14.01195313 22.20578125 -14 23 C-15.9375 23.5625 -15.9375 23.5625 -18 24 C-19.77209714 22.22790286 -19.25586963 19.77731982 -19.3125 17.375 C-19.24438213 10.20559375 -17.57812658 6.95726284 -12.875 1.5625 C-8.59366608 -0.76431191 -4.76546751 -0.60651405 0 0 Z " fill="#D64762" transform="translate(109,250)"/>
<path d="M0 0 C5.51522058 0.13451758 7.84898664 2.33870009 11.484375 6.11328125 C14.93468694 10.40838606 15.54121731 14.02620953 15.4609375 19.453125 C14.6951155 23.68461603 12.21271539 26.27834733 9 29 C6.66062093 30.16968953 5.22630632 30.13364221 2.625 30.125 C1.46871094 30.12886719 1.46871094 30.12886719 0.2890625 30.1328125 C-2 30 -2 30 -3.9453125 29.5078125 C-6.49779351 28.87697119 -8.8723501 28.79331291 -11.5 28.75 C-12.4384375 28.72421875 -13.376875 28.6984375 -14.34375 28.671875 C-17.44364728 29.05480349 -18.58099838 30.1163512 -21 32 C-22.32 32 -23.64 32 -25 32 C-24.62293934 29.47908015 -24.29542054 28.27380441 -22.3984375 26.515625 C-16.99095839 23.13334077 -13.23269407 22.03425162 -6.80859375 23.5 C-6.04675781 23.685625 -5.28492188 23.87125 -4.5 24.0625 C-0.37630112 25.040647 2.84713505 25.16280219 7 24 C9.7216611 21.7173165 9.96664287 20.19643643 10.5625 16.6875 C9.80700696 11.73482343 7.64802077 9.3062858 4 6 C1.31345292 4.09961951 1.31345292 4.09961951 -1 3 C-0.67 2.01 -0.34 1.02 0 0 Z " fill="#D64763" transform="translate(407,205)"/>
<path d="M0 0 C1.11246094 -0.01675781 2.22492188 -0.03351562 3.37109375 -0.05078125 C8.03073847 0.47963118 11.6298507 2.64668838 14.5625 6.3125 C16.08052307 10.03855664 16.34164077 14.38004421 15.5625 18.3125 C12.80310174 22.89606423 8.74069179 26.06279528 4.5625 29.3125 C2.45422945 32.47490582 2.22432535 33.81907469 1.9375 37.5 C1.86273438 38.40105469 1.78796875 39.30210938 1.7109375 40.23046875 C1.63746094 41.26107422 1.63746094 41.26107422 1.5625 42.3125 C-0.375 42.875 -0.375 42.875 -2.4375 43.3125 C-3.4375 42.3125 -3.4375 42.3125 -3.6875 38.6875 C-3.54078735 32.78755566 -2.23404412 29.09143094 1.953125 24.9453125 C3.73988234 23.34744094 5.54923768 21.7743919 7.3828125 20.23046875 C10.04115185 17.89132069 10.47097622 16.99892836 10.9375 13.5 C10.78786555 10.19240403 10.78786555 10.19240403 8.6875 7.4375 C4.38034785 4.50863654 0.64053499 4.52808809 -4.4375 5.3125 C-5.77894992 5.96268023 -7.11390017 6.6267116 -8.4375 7.3125 C-10.6875 6.9375 -10.6875 6.9375 -12.4375 6.3125 C-11.51216668 3.99916671 -10.86394502 2.59580264 -8.76171875 1.19921875 C-5.75335855 0.05149141 -3.21560841 0.0111524 0 0 Z " fill="#D64762" transform="translate(256.4375,41.6875)"/>
<path d="M0 0 C7.50171029 4.19366443 12.12614872 10.09567397 15.375 17.9921875 C16.43071482 21.93226602 16.5080369 25.45379677 16.4375 29.5078125 C16.4365332 30.58675781 16.4365332 30.58675781 16.43554688 31.6875 C16.39098214 36.97584821 16.39098214 36.97584821 15.25 39.2578125 C14.59 39.2578125 13.93 39.2578125 13.25 39.2578125 C13.28480469 38.36320312 13.31960937 37.46859375 13.35546875 36.546875 C13.59373047 25.90451838 12.7947428 17.46801311 5.93359375 9.015625 C1.00704379 3.87189535 -3.90566743 1.17642544 -11.09375 0.86328125 C-22.0222505 0.63900232 -29.93396884 3.49100596 -38.1875 10.9453125 C-43.03931317 16.18122755 -45.5198386 22.56732831 -47.75 29.2578125 C-48.41 29.2578125 -49.07 29.2578125 -49.75 29.2578125 C-49.58499386 20.5124873 -45.40557662 14.30529937 -39.63671875 7.91796875 C-34.55220038 3.0682594 -29.40884642 0.38527787 -22.75 -1.7421875 C-15.18545322 -4.26370309 -7.15906915 -3.28124003 0 0 Z " fill="#2B2B2A" transform="translate(221.75,167.7421875)"/>
<path d="M0 0 C0.01417969 1.03898438 0.02835938 2.07796875 0.04296875 3.1484375 C0.3047149 12.42761686 1.00257711 20.32799386 7.41796875 27.609375 C14.43225256 34.00309214 21.98155898 34.63420686 31.05078125 34.34765625 C39.55901188 33.59866265 46.88521949 29.97012979 53 24 C55.23776349 21.12794981 57.15112239 18.13330037 59 15 C59.61875 13.989375 60.2375 12.97875 60.875 11.9375 C61.24625 11.298125 61.6175 10.65875 62 10 C62.86151566 12.40574185 63.12825384 13.62715276 62.28515625 16.078125 C56.05194641 27.15053609 48.33766951 32.6963951 36.6875 37.3125 C28.55258136 38.82917975 19.28147008 39.50757671 12 35 C4.16938288 29.48956573 -0.77268533 23.41183223 -3 14 C-3.35051302 9.62559756 -3.31750192 5.37447091 -3 1 C-1 0 -1 0 0 0 Z " fill="#272725" transform="translate(173,198)"/>
<path d="M0 0 C0 0.33 0 0.66 0 1 C-1.485 1.14695313 -1.485 1.14695313 -3 1.296875 C-13.88881383 2.48284003 -22.33373985 4.72530651 -30 13 C-31.92913345 16.18310846 -31.92913345 16.18310846 -33 19 C-36.60133581 15.5987384 -39.31072073 12.14884537 -42 8 C-39.50494359 6.69796813 -37.00462318 5.40839734 -34.5 4.125 C-33.80390625 3.76019531 -33.1078125 3.39539063 -32.390625 3.01953125 C-22.49254763 -2.0211563 -10.58060826 -4.70249256 0 0 Z " fill="#3D3741" transform="translate(361,146)"/>
<path d="M0 0 C7.51598954 0.88423406 12.14712741 5.66333434 16.8984375 11.1484375 C27 24.85501859 27 24.85501859 27 31 C25.39658445 31.33692785 23.79223445 31.66941093 22.1875 32 C21.29417969 32.185625 20.40085938 32.37125 19.48046875 32.5625 C17 33 17 33 14 33 C14.03480469 32.38253906 14.06960937 31.76507813 14.10546875 31.12890625 C14.43866163 20.70472894 11.64552611 13.92478989 5 6 C4.505 5.39542969 4.01 4.79085937 3.5 4.16796875 C2.34600923 2.76809926 1.17496513 1.38231191 0 0 Z " fill="#3D3641" transform="translate(207,96)"/>
<path d="M0 0 C7.70286805 -0.64190567 12.95189716 0.64956618 18.94921875 5.61328125 C22.56261717 9.02972295 25.18328291 12.29790871 27 17 C27 17.99 27 18.98 27 20 C27.66386719 19.79503906 28.32773438 19.59007812 29.01171875 19.37890625 C29.89472656 19.10949219 30.77773437 18.84007812 31.6875 18.5625 C32.55761719 18.29566406 33.42773438 18.02882812 34.32421875 17.75390625 C36.87025921 17.03655471 39.4003423 16.482459 42 16 C42 16.99 42 17.98 42 19 C41.06800781 19.27972656 40.13601562 19.55945313 39.17578125 19.84765625 C30.12141204 22.65981712 22.2190127 26.21596778 14 31 C12.56254425 31.81257829 11.12505365 32.62509493 9.6875 33.4375 C8.800625 33.953125 7.91375 34.46875 7 35 C8.13764194 30.71887374 9.92331304 29.01582615 13.69921875 26.765625 C14.29347656 26.43046875 14.88773438 26.0953125 15.5 25.75 C16.09425781 25.399375 16.68851563 25.04875 17.30078125 24.6875 C19.50392345 23.39445943 21.7147893 22.14260535 24 21 C22.32497468 15.13741138 20.16787202 10.44524801 15 7 C12.26127045 6.54227937 12.26127045 6.54227937 9.3125 6.375 C7.82169922 6.26285156 7.82169922 6.26285156 6.30078125 6.1484375 C5.54152344 6.09945312 4.78226563 6.05046875 4 6 C4.33 5.01 4.66 4.02 5 3 C2.525 2.01 2.525 2.01 0 1 C0 0.67 0 0.34 0 0 Z " fill="#252423" transform="translate(186,112)"/>
<path d="M0 0 C1.90625 0.4140625 1.90625 0.4140625 4.40625 1.9765625 C6.47476618 5.3379013 6.39130011 7.53366161 5.90625 11.4140625 C4.78125 13.7890625 4.78125 13.7890625 2.90625 15.4140625 C-0.92355483 16.69066411 -2.62873554 16.59831351 -6.40625 15.1015625 C-9.09375 13.4140625 -9.09375 13.4140625 -10.09375 11.4140625 C-10.49991229 7.75860185 -10.30809253 5.82488568 -8.59375 2.5390625 C-5.55206021 -0.04637382 -3.89367767 -0.27604431 0 0 Z " fill="#201D1C" transform="translate(321.09375,111.5859375)"/>
<path d="M0 0 C1.0725 0.66 2.145 1.32 3.25 2 C2.26 2.33 1.27 2.66 0.25 3 C0.745 3.7425 1.24 4.485 1.75 5.25 C4.19701572 10.21461843 3.9988264 15.62399157 3.25 21 C1.04609648 26.73580018 -2.90992801 30.39808596 -7.75 34 C-7.75 30.41628085 -7.00521663 29.72412796 -4.8125 27 C-0.30228659 21.37023007 0.00548472 16.06126387 -0.75 9 C-2.03763451 5.84499033 -3.62911386 3.56044307 -6.75 2 C-8.51867455 1.90316436 -10.29118303 1.87020618 -12.0625 1.875 C-13.00738281 1.87242187 -13.95226562 1.86984375 -14.92578125 1.8671875 C-17.63595736 1.994637 -20.10973585 2.39403774 -22.75 3 C-21.75 0 -21.75 0 -19.55078125 -1.1640625 C-13.06783698 -3.09899984 -6.09272026 -3.06265083 0 0 Z " fill="#212020" transform="translate(359.75,167)"/>
<path d="M0 0 C0.33 0 0.66 0 1 0 C0.96519531 1.14275391 0.96519531 1.14275391 0.9296875 2.30859375 C0.70142695 15.36835829 3.33529542 25.47153343 12.17578125 35.42578125 C15.65225393 38.42582084 19.80860365 40.20250394 24 42 C24 42.99 24 43.98 24 45 C15.40683274 42.54480935 8.1930074 37.22644895 3.515625 29.5703125 C-1.15864962 20.52421633 -2.97181464 12.21834508 -2 2 C-1.34 1.34 -0.68 0.68 0 0 Z " fill="#272725" transform="translate(268,223)"/>
<path d="M0 0 C2.875 0.9375 2.875 0.9375 4.875 3.9375 C4.6875 7.5 4.6875 7.5 3.875 10.9375 C0.42254176 13.23913882 -1.07238713 13.28240322 -5.125 12.9375 C-7.125 10.9375 -7.125 10.9375 -7.5 7.5625 C-7.125 3.9375 -7.125 3.9375 -5.5 1.4375 C-3.125 -0.0625 -3.125 -0.0625 0 0 Z " fill="#F2F2F2" transform="translate(219.125,196.0625)"/>
<path d="M0 0 C6.25925926 -0.48148148 6.25925926 -0.48148148 9.5 1.625 C11 4 11 4 10.875 7.125 C10 10 10 10 8 12 C4.5625 12.375 4.5625 12.375 1 12 C-1 10.375 -1 10.375 -2 8 C-1.7586135 4.98266875 -1.35358479 2.70716958 0 0 Z " fill="#241E1E" transform="translate(134,171)"/>
<path d="M0 0 C2.875 0.9375 2.875 0.9375 4.875 3.9375 C4.68058481 7.04814304 4.36544181 9.20183729 2.625 11.8125 C0.19892716 13.37211825 -1.29495526 13.36200671 -4.125 12.9375 C-5.9375 11.8125 -5.9375 11.8125 -7.125 9.9375 C-7.66900387 6.28490261 -7.56274093 4.5941114 -5.5 1.5 C-3.125 -0.0625 -3.125 -0.0625 0 0 Z " fill="#F5F5F5" transform="translate(288.125,219.0625)"/>
<path d="M0 0 C0.86151566 2.40574185 1.12825384 3.62715276 0.28515625 6.078125 C-5.95318905 17.15965851 -13.77161807 23.02075827 -25.625 27.3125 C-29.55797144 28.11366085 -32.99459654 28.14054047 -37 28 C-37 27.34 -37 26.68 -37 26 C-35.97261719 25.79246094 -34.94523438 25.58492187 -33.88671875 25.37109375 C-22.52299664 22.91548483 -13.0578294 19.73541863 -6 9.875 C-4.97262922 8.26716472 -3.97156632 6.6421583 -3 5 C-2.443125 4.07445312 -1.88625 3.14890625 -1.3125 2.1953125 C-0.879375 1.47085938 -0.44625 0.74640625 0 0 Z " fill="#272725" transform="translate(235,208)"/>
<path d="M0 0 C0.66 0.33 1.32 0.66 2 1 C1.7834375 1.61746094 1.566875 2.23492187 1.34375 2.87109375 C-1.89959872 12.56726241 -1.89959872 12.56726241 0.125 22.234375 C1.00845392 23.60975212 1.9332481 24.95988493 2.90625 26.2734375 C4 28 4 28 4 31 C3.01 31.33 2.02 31.66 1 32 C0.566875 30.948125 0.13375 29.89625 -0.3125 28.8125 C-1.2901077 26.48020735 -2.20837784 24.70672748 -3.6875 22.625 C-6.87602447 16.24795106 -4.83689971 9.46621723 -2.8515625 2.96875 C-2 1 -2 1 0 0 Z " fill="#2D2020" transform="translate(133,137)"/>
<path d="M0 0 C2.97 1.65 5.94 3.3 9 5 C6.125 10.875 6.125 10.875 5 12 C2.13732433 12.07325168 -0.700719 12.09238205 -3.5625 12.0625 C-4.36880859 12.05798828 -5.17511719 12.05347656 -6.00585938 12.04882812 C-8.00393756 12.03700518 -10.00197783 12.01906914 -12 12 C-9.34884159 9.34884159 -7.48610041 9.60927209 -3.875 9.34375 C-1.76097714 9.13964634 -1.76097714 9.13964634 0 7 C-0.28674418 4.99279077 -0.61866701 2.9914056 -1 1 C-0.67 0.67 -0.34 0.34 0 0 Z " fill="#BFD1E6" transform="translate(289,136)"/>
<path d="M0 0 C0 0.66 0 1.32 0 2 C-0.72445313 2.35191406 -1.44890625 2.70382813 -2.1953125 3.06640625 C-12.77810177 8.47068397 -17.13532125 14.30201177 -22 25 C-22.66 25 -23.32 25 -24 25 C-23.57802275 16.77144364 -18.21772889 10.87494821 -12.375 5.5625 C-8.1977069 1.93485073 -5.63821885 0 0 0 Z " fill="#262624" transform="translate(292,197)"/>
<path d="M0 0 C0.625 2.3125 0.625 2.3125 1 5 C0.01 6.485 0.01 6.485 -1 8 C-4 8.3125 -4 8.3125 -7 8 C-7.66 7.34 -8.32 6.68 -9 6 C-8.75 2.9375 -8.75 2.9375 -8 0 C-5.13822943 -1.43088528 -3.06624227 -0.59991697 0 0 Z " fill="#D44762" transform="translate(323,116)"/>
<path d="M0 0 C0.66 0.66 1.32 1.32 2 2 C1.89094649 5.92592626 0.30801513 8.585974 -2.265625 11.5078125 C-5.8131491 14.55996161 -11.21232269 18 -16 18 C-16 17.34 -16 16.68 -16 16 C-16.66 15.67 -17.32 15.34 -18 15 C-17.41992188 14.84144531 -16.83984375 14.68289063 -16.2421875 14.51953125 C-10.29189781 12.74229951 -5.12600493 10.87351656 -1.96875 5.12109375 C-1.23731952 3.44489889 -0.60867147 1.72456916 0 0 Z " fill="#292828" transform="translate(220,348)"/>
<path d="M0 0 C2.07691455 2.07691455 2.64572198 3.29882725 3.65625 6 C3.95587646 6.80074951 4.25550293 7.60149902 4.56420898 8.42651367 C4.87302002 9.27576416 5.18183105 10.12501465 5.5 11 C5.81461182 11.85762939 6.12922363 12.71525879 6.45336914 13.59887695 C8.52106231 19.35580163 10.10504181 24.93417225 11 31 C10.01 31.33 9.02 31.66 8 32 C7.03888216 28.35489502 6.08162202 24.70878721 5.125 21.0625 C4.85558594 20.04091797 4.58617187 19.01933594 4.30859375 17.96679688 C2.74550909 12.00038834 1.2953535 6.0303107 0 0 Z " fill="#2A2829" transform="translate(312,324)"/>
<path d="M0 0 C0 0.66 0 1.32 0 2 C-5.21389404 2.86440875 -10.21955649 3.1533387 -15.5 3.125 C-16.22058594 3.12886719 -16.94117188 3.13273437 -17.68359375 3.13671875 C-22.22161372 3.12851257 -26.52268939 2.74229097 -31 2 C-31 1.67 -31 1.34 -31 1 C-20.64305688 0.23785964 -10.3864793 -0.13430792 0 0 Z " fill="#292A2B" transform="translate(277,323)"/>
<path d="M0 0 C0.721875 0.763125 1.44375 1.52625 2.1875 2.3125 C7.37260747 7.26715825 10.53286287 8.33375292 17.59765625 8.203125 C19.83905191 8.01360862 21.84173914 7.61807009 24 7 C20.74932693 10.76393723 17.47436102 11.78157615 12.625 12.5 C7.72353611 11.82393602 5.13349736 9.76019683 2 6 C0.5625 2.625 0.5625 2.625 0 0 Z " fill="#333535" transform="translate(220,273)"/>
<path d="M0 0 C0.98806641 0.29293945 0.98806641 0.29293945 1.99609375 0.59179688 C3.62433552 1.07554986 5.24993182 1.56819075 6.875 2.0625 C6.875 2.7225 6.875 3.3825 6.875 4.0625 C7.535 4.7225 8.195 5.3825 8.875 6.0625 C1.87495111 5.77561275 -3.03526866 4.55845688 -9.125 1.0625 C-9.125 0.4025 -9.125 -0.2575 -9.125 -0.9375 C-5.98181547 -2.50909226 -3.19566611 -0.97768399 0 0 Z " fill="#333332" transform="translate(248.125,225.9375)"/>
<path d="M0 0 C0.66 0.33 1.32 0.66 2 1 C0.65582646 5.03252061 -1.15176454 5.51301932 -4.8125 7.5625 C-6.39998047 8.46162109 -6.39998047 8.46162109 -8.01953125 9.37890625 C-10.32775439 10.63436182 -12.63795344 11.85043255 -15 13 C-13.66251301 7.98442378 -10.78623515 6.10748326 -6.5 3.625 C-5.90574219 3.25761719 -5.31148437 2.89023438 -4.69921875 2.51171875 C-3.17499627 1.59993781 -1.59027957 0.79095484 0 0 Z " fill="#2B2A29" transform="translate(208,134)"/>
<path d="M0 0 C0.66 0.33 1.32 0.66 2 1 C1.52949219 1.59167969 1.05898437 2.18335937 0.57421875 2.79296875 C-4.0558124 8.66012063 -4.0558124 8.66012063 -8 15 C-8.99 14.67 -9.98 14.34 -11 14 C-5.03416856 3.25740319 -5.03416856 3.25740319 0 0 Z " fill="#2C2021" transform="translate(107,124)"/>
<path d="M0 0 C3.3566285 2.23775234 3.57996014 2.93320048 4.6875 6.625 C5.06455078 7.85089844 5.06455078 7.85089844 5.44921875 9.1015625 C5.63097656 9.72804687 5.81273437 10.35453125 6 11 C5.38125 10.319375 4.7625 9.63875 4.125 8.9375 C-0.36553981 6.15336532 -3.95895922 7.09946456 -9 8 C-6.28922757 5.02873292 -3.86848614 4.11756266 0 3 C0 2.01 0 1.02 0 0 Z " fill="#3C3C3A" transform="translate(241,243)"/>
<path d="M0 0 C0 5.28 0 10.56 0 16 C-0.66 16.33 -1.32 16.66 -2 17 C-3.14077657 13.57767028 -3.09815117 10.91326783 -3.0625 7.3125 C-3.05347656 6.13300781 -3.04445312 4.95351562 -3.03515625 3.73828125 C-3.02355469 2.83464844 -3.01195312 1.93101562 -3 1 C-1 0 -1 0 0 0 Z " fill="#383837" transform="translate(173,198)"/>
<path d="M0 0 C1.95825873 -0.02694851 3.91662226 -0.04637218 5.875 -0.0625 C6.96554687 -0.07410156 8.05609375 -0.08570313 9.1796875 -0.09765625 C12 0 12 0 14 1 C14 1.66 14 2.32 14 3 C9.05 3 4.1 3 -1 3 C-0.67 2.01 -0.34 1.02 0 0 Z " fill="#343432" transform="translate(294,195)"/>
<path d="M0 0 C1.2065625 0.0309375 1.2065625 0.0309375 2.4375 0.0625 C3.0625 2.4375 3.0625 2.4375 3.4375 5.0625 C2.7775 5.7225 2.1175 6.3825 1.4375 7.0625 C-0.6875 6.6875 -0.6875 6.6875 -2.5625 6.0625 C-2.94468767 4.40635343 -3.27645102 2.73792976 -3.5625 1.0625 C-2.5625 0.0625 -2.5625 0.0625 0 0 Z " fill="#D84863" transform="translate(138.5625,173.9375)"/>
<path d="M0 0 C0.99 0.33 1.98 0.66 3 1 C4.31286211 5.41599073 4.31286211 5.41599073 3.0625 7.75 C-0.15353583 9.69911262 -3.27157208 9.69439115 -7 10 C-4.702779 8.25728062 -2.40133271 6.60088848 0 5 C-0.2784375 4.0409375 -0.2784375 4.0409375 -0.5625 3.0625 C-0.706875 2.381875 -0.85125 1.70125 -1 1 C-0.67 0.67 -0.34 0.34 0 0 Z " fill="#303130" transform="translate(286,137)"/>
<path d="M0 0 C1.95766281 -0.08082094 3.91626728 -0.13910778 5.875 -0.1875 C7.51082031 -0.23970703 7.51082031 -0.23970703 9.1796875 -0.29296875 C10.11039062 -0.19628906 11.04109375 -0.09960938 12 0 C12.66 0.99 13.32 1.98 14 3 C9.71 3 5.42 3 1 3 C0.67 2.01 0.34 1.02 0 0 Z " fill="#383836" transform="translate(292,266)"/>
<path d="M0 0 C0.66 0.33 1.32 0.66 2 1 C1.52949219 1.36738281 1.05898438 1.73476563 0.57421875 2.11328125 C-1.5790884 4.69404391 -1.72575192 6.88422526 -2.1875 10.1875 C-2.34605469 11.27417969 -2.50460937 12.36085938 -2.66796875 13.48046875 C-2.77753906 14.31191406 -2.88710938 15.14335937 -3 16 C-3.33 16 -3.66 16 -4 16 C-4.144375 15.236875 -4.28875 14.47375 -4.4375 13.6875 C-4.9632594 10.91827092 -4.9632594 10.91827092 -6 8 C-4.22557591 5.00183515 -2.46459429 2.46459429 0 0 Z " fill="#2F2E2E" transform="translate(328,268)"/>
<path d="M0 0 C0.66 0 1.32 0 2 0 C2.02694851 1.95825873 2.04637218 3.91662226 2.0625 5.875 C2.07410156 6.96554688 2.08570313 8.05609375 2.09765625 9.1796875 C2 12 2 12 1 14 C0.34 14 -0.32 14 -1 14 C-0.67 9.38 -0.34 4.76 0 0 Z " fill="#222220" transform="translate(236,193)"/>
<path d="M0 0 C0.639375 0.495 1.27875 0.99 1.9375 1.5 C6.04023483 3.50950277 9.51443582 3.26385672 14 3 C13.67 3.66 13.34 4.32 13 5 C8.95245453 6.09193417 5.2462134 6.60790897 1.4375 4.75 C0 3 0 3 0 0 Z " fill="#C7D8EC" transform="translate(224,281)"/>
<path d="M0 0 C4.08963819 2.28538605 7.46362104 4.95706926 11 8 C10.01 8.495 10.01 8.495 9 9 C7.491987 8.07544441 5.99375083 7.1349253 4.5 6.1875 C3.6646875 5.66542969 2.829375 5.14335937 1.96875 4.60546875 C0.99421875 3.81076172 0.99421875 3.81076172 0 3 C0 2.01 0 1.02 0 0 Z " fill="#2D2E2F" transform="translate(177,295)"/>
<path d="M0 0 C0.66 0.33 1.32 0.66 2 1 C0.41641358 4.16717283 -0.45263699 5.73268318 -3.6875 7.3125 C-4.450625 7.539375 -5.21375 7.76625 -6 8 C-4.55746343 4.63408134 -2.66735273 2.48952921 0 0 Z " fill="#343432" transform="translate(185,173)"/>
<path d="M0 0 C2.29633824 3.44450737 2.54016485 5.93812283 3 10 C2.01 9.67 1.02 9.34 0 9 C-1.125 2.25 -1.125 2.25 0 0 Z " fill="#393937" transform="translate(328,215)"/>
<path d="M0 0 C0.99 0.33 1.98 0.66 3 1 C3.33 2.98 3.66 4.96 4 7 C3.34 7 2.68 7 2 7 C1.67 7.66 1.34 8.32 1 9 C0.67 6.03 0.34 3.06 0 0 Z " fill="#2D2D2C" transform="translate(340,194)"/>
<path d="M0 0 C0.66 0.33 1.32 0.66 2 1 C0.86500606 4.29148243 0.00716624 4.9959869 -3.125 6.75 C-4.548125 7.36875 -4.548125 7.36875 -6 8 C-4.73058503 4.08597051 -3.48832306 2.20927127 0 0 Z " fill="#2A2A29" transform="translate(320,305)"/>
<path d="M0 0 C-1 3 -1 3 -3 4 C-4.99960012 4.039992 -7.00047242 4.04346799 -9 4 C-8 2 -8 2 -5.0625 0.875 C-2 0 -2 0 0 0 Z " fill="#252524" transform="translate(312,264)"/>
<path d="M0 0 C1.98 0.495 1.98 0.495 4 1 C3.67 2.32 3.34 3.64 3 5 C1.68 4.67 0.36 4.34 -1 4 C-0.67 2.68 -0.34 1.36 0 0 Z " fill="#C5435C" transform="translate(375,239)"/>
<path d="M0 0 C3.3 0 6.6 0 10 0 C8.68 0.33 7.36 0.66 6 1 C6 1.66 6 2.32 6 3 C4.35 3 2.7 3 1 3 C0.67 2.01 0.34 1.02 0 0 Z " fill="#2F2F2D" transform="translate(192,233)"/>
<path d="M0 0 C0.33 0 0.66 0 1 0 C1 2.97 1 5.94 1 9 C0.01 8.34 -0.98 7.68 -2 7 C-2.3125 4.5 -2.3125 4.5 -2 2 C-1.34 1.34 -0.68 0.68 0 0 Z " fill="#1D1D1B" transform="translate(139,226)"/>
<path d="M0 0 C3.48670834 1.1094072 6.77484237 2.26337666 10 4 C9.67 4.99 9.34 5.98 9 7 C7.4972763 6.02501855 5.99788037 5.04490611 4.5 4.0625 C3.6646875 3.51722656 2.829375 2.97195313 1.96875 2.41015625 C1.3190625 1.94480469 0.669375 1.47945313 0 1 C0 0.67 0 0.34 0 0 Z " fill="#2A2729" transform="translate(159,308)"/>
<path d="M0 0 C0.33 0.99 0.66 1.98 1 3 C-0.32 4.32 -1.64 5.64 -3 7 C-3.99 6.67 -4.98 6.34 -6 6 C-4.02 4.02 -2.04 2.04 0 0 Z " fill="#333331" transform="translate(219,354)"/>
<path d="M0 0 C1.32 0 2.64 0 4 0 C3.67 1.65 3.34 3.3 3 5 C2.01 4.67 1.02 4.34 0 4 C0 2.68 0 1.36 0 0 Z " fill="#CE455F" transform="translate(137,276)"/>
<path d="M0 0 C2.475 0.495 2.475 0.495 5 1 C4.67 1.99 4.34 2.98 4 4 C2.68 4 1.36 4 0 4 C0 2.68 0 1.36 0 0 Z " fill="#CE455F" transform="translate(254,91)"/>
</svg>
