<?xml version="1.0" encoding="UTF-8"?>
<svg version="1.1" xmlns="http://www.w3.org/2000/svg" width="512" height="512">
<path d="M0 0 C2.00431965 14.03023758 2.00431965 14.03023758 -0.2109375 18.375 C-2.03209859 20.15495835 -3.8974254 21.56553321 -6 23 C-7.30480091 24.10973977 -8.5963249 25.23525539 -9.875 26.375 C-10.53371094 26.94605469 -11.19242188 27.51710938 -11.87109375 28.10546875 C-14.27963005 30.24884509 -16.62121974 32.44463592 -18.9375 34.6875 C-19.68902344 35.41324219 -20.44054687 36.13898438 -21.21484375 36.88671875 C-23.01986797 39.02351985 -23.81842283 40.2177691 -24 43 C-21.14557065 45.85442935 -18.25951868 45.28879557 -14.4375 45.375 C-5.58904871 45.78342034 0.64522764 47.18635196 6.9375 53.8125 C11.03884699 58.97962625 12.24716285 63.51047514 11.875 70.0625 C11.1173113 75.86850996 8.85314771 79.28940212 4.5625 83.25 C0.15450058 86.26034107 -3.2979486 87.24593841 -8.625 87.0625 C-11.87509648 86.9600997 -13.8863385 86.96211283 -17 88 C-17.21097393 90.78581482 -17.32565049 92.47570271 -15.828125 94.88671875 C-15.30734375 95.48097656 -14.7865625 96.07523437 -14.25 96.6875 C-7.12823808 105.76690264 -5.91843323 114.58760586 -7 126 C-7.74427389 129.22376917 -8.71103557 131.93870948 -10 135 C-9.15824219 135.25265625 -8.31648437 135.5053125 -7.44921875 135.765625 C10.97904887 142.36056562 27.27347789 156.49072954 42 169 C42.75539062 168.35933594 43.51078125 167.71867188 44.2890625 167.05859375 C47.68817036 164.47742683 49.74799022 164.07331051 54 164 C60.10899701 165.71480618 63.50421384 168.89592884 67 174 C68.375 176.9375 68.375 176.9375 69 179 C70.89742084 175.83036212 71.16874876 173.89125567 70.6875 170.25 C70.57921875 169.38117188 70.4709375 168.51234375 70.359375 167.6171875 C70.24078125 166.75351563 70.1221875 165.88984375 70 165 C69.81164193 163.45843794 69.62405012 161.9167819 69.4375 160.375 C69.293125 159.26125 69.14875 158.1475 69 157 C69.99 157 70.98 157 72 157 C75.34650255 165.22681878 76.88719695 173.9674748 73.6875 182.5 C72.54631384 184.19064616 71.40034218 185.87807038 70.25 187.5625 C68.80942459 189.88511787 68.80942459 189.88511787 69.078125 192.30078125 C70.33357302 195.97669049 72.71598204 198.05725762 75.5 200.625 C81.16825477 206.06595211 86.11566518 211.84110336 91 218 C91.72703125 218.85980469 92.4540625 219.71960938 93.203125 220.60546875 C104.78901579 234.3181402 113.80732843 248.37714469 118 266 C127.03969817 268.57977465 135.69454054 267.16508905 144 263 C154.97121879 256.19712256 162.31989252 246.28671191 168.28686523 235.06494141 C171.02717466 230.06943528 174.04440166 225.98322089 179 223 C182.09765625 222.484375 182.09765625 222.484375 185.0625 222.75 C189.65294692 222.99489977 192.66783013 222.63659751 197 221 C205.65832411 219.1603171 213.36554964 220.28470195 221.125 224.5625 C230.28220891 230.52834254 236.03843103 238.44941053 239 249 C239.1875 252.30078125 239.1875 252.30078125 239 255 C238 256 238 256 235.0625 256.1875 C232 256 232 256 230 254 C229.32795818 252.24647912 228.70941481 250.47213862 228.125 248.6875 C226.63903706 244.41954629 225.05867823 241.38639376 222 238 C222 237.34 222 236.68 222 236 C221.41347656 235.71382812 220.82695312 235.42765625 220.22265625 235.1328125 C218 234 218 234 216.24609375 232.9296875 C210.52706937 229.59461928 205.50858785 229.56928463 199 230 C199.28875 230.88300781 199.5775 231.76601563 199.875 232.67578125 C205.35126108 250.3785558 205.35126108 250.3785558 201.1875 258.5625 C198.19274749 261.89950994 196.70325596 262.93082728 192.1875 263.375 C187.75469721 263.22046192 185.30367104 262.07842074 182 259 C178.38866071 253.39233029 176.85938311 247.60241702 178 241 C179.1185041 237.5577072 180.46741625 234.27726613 182 231 C177.51613866 232.47455843 176.06440026 235.91277865 173.9375 239.8125 C165.66904977 254.19241345 155.14619031 266.42821633 139 272 C135.10697739 272.98295587 131.44649521 273.13429083 127.4375 273.125 C126.32246094 273.12757813 125.20742188 273.13015625 124.05859375 273.1328125 C121.50806272 273.02206147 119.42409171 272.7467862 117 272 C117.0825 272.86625 117.165 273.7325 117.25 274.625 C116.89949824 279.35677373 114.89655105 282.30616209 111.37597656 285.45043945 C108.01404621 287.64301775 104.43765105 289.07909235 100.734375 290.60546875 C99.89482773 290.95710083 99.05528046 291.30873291 98.19029236 291.67102051 C96.35264548 292.44020456 94.51396937 293.20693311 92.67440796 293.9715271 C87.57072551 296.09364536 82.47537771 298.2356358 77.37890625 300.375 C75.75339592 301.05655403 75.75339592 301.05655403 74.095047 301.75187683 C61.59738763 306.99727381 49.14187714 312.34034172 36.6875 317.6875 C34.31544509 318.70535816 31.94337466 319.72318016 29.57128906 320.7409668 C24.77306815 322.7999748 19.97509307 324.85955444 15.17724609 326.91943359 C4.6144953 331.45385101 -5.95155031 335.98057982 -16.51739502 340.50778198 C-22.31507237 342.99195651 -28.11263526 345.47639808 -33.91015625 347.9609375 C-35.06046326 348.45389816 -36.21077026 348.94685883 -37.39593506 349.45475769 C-43.38783816 352.02274226 -49.3794617 354.59137721 -55.37060547 357.16113281 C-56.2906614 357.5557573 -56.2906614 357.5557573 -57.22930431 357.958354 C-60.32137186 359.28461367 -63.41336893 360.61103732 -66.50526428 361.93769836 C-72.50632663 364.51214566 -78.50860909 367.08366118 -84.51391602 369.64819336 C-98.31876261 375.54150811 -98.31876261 375.54150811 -112.06895447 381.56079102 C-115.16018184 382.93115361 -118.25722476 384.28803577 -121.35501099 385.64349365 C-123.35292612 386.52517739 -125.34017483 387.42812015 -127.32788086 388.33251953 C-134.13590642 391.30378901 -138.69464721 392.86567471 -146 391 C-149.28657174 388.20641402 -150.57321006 385.46025841 -151.09033203 381.17871094 C-150.88540263 376.23603531 -148.56273119 371.69627041 -146.6875 367.1875 C-146.20474609 365.99334473 -145.72199219 364.79918945 -145.22460938 363.56884766 C-139.25244605 348.86683851 -132.91994246 334.30800363 -126.625 319.7421875 C-122.78017591 310.8447307 -118.99597206 301.92236621 -115.22485352 292.99345398 C-110.65040372 282.16417358 -106.04043806 271.35018482 -101.4281311 260.5369873 C-98.41358526 253.46677995 -95.40411079 246.39441215 -92.39433289 239.32217407 C-90.07065107 233.86241516 -87.74595359 228.4031016 -85.41650391 222.94580078 C-83.04244464 217.38309948 -80.67564421 211.81734596 -78.3125 206.25 C-77.93437164 205.36089935 -77.55624329 204.47179871 -77.16665649 203.55575562 C-72.47987041 192.51964659 -67.95743808 181.43055544 -63.5859375 170.265625 C-63.13351181 169.11475403 -62.68108612 167.96388306 -62.21495056 166.77813721 C-60.01095082 161.16941202 -57.82484466 155.55499184 -55.67114258 149.92675781 C-54.87910862 147.89881867 -54.08641782 145.87113589 -53.29296875 143.84375 C-52.9468454 142.9188678 -52.60072205 141.9939856 -52.24411011 141.04107666 C-49.76753002 134.78610085 -47.17252708 131.08626354 -41 128 C-33.62819576 127.60341559 -26.31521969 128.0936896 -19 129 C-17.24357385 125.9508442 -16.67971044 123.63741021 -16.625 120.125 C-16.59664062 119.30257812 -16.56828125 118.48015625 -16.5390625 117.6328125 C-17.39854453 112.7235677 -20.08921755 109.7424857 -23.875 106.65625 C-24.90625 105.9446875 -25.9375 105.233125 -27 104.5 C-32.13377076 100.95769818 -36.31058539 97.60928827 -37.53125 91.21875 C-37.46338312 85.31433129 -37.12449515 81.57038652 -33 77 C-26.92032674 71.5134656 -21.84416827 71.72214118 -14 72 C-11.3126122 72.25059243 -8.67252273 72.61126942 -6 73 C-5.34 73 -4.68 73 -4 73 C-4.33 70.69 -4.66 68.38 -5 66 C-7.87610396 65.18320768 -10.46354712 64.86823279 -13.44921875 64.82421875 C-14.29806641 64.80037109 -15.14691406 64.77652344 -16.02148438 64.75195312 C-17.77906108 64.70946226 -19.53694259 64.6779557 -21.29492188 64.65820312 C-28.63314775 64.42041585 -35.12340644 62.87659356 -40.4375 57.5625 C-43.41000199 52.68759673 -44.5574745 49.26482861 -43.7109375 43.57421875 C-38.6471639 25.23890664 -19.40699674 10.8270955 -4.21484375 1.21484375 C-2 0 -2 0 0 0 Z M48.25 170.25 C46.78165021 171.90034444 46.78165021 171.90034444 47.18359375 173.88671875 C48.22505691 176.58256358 49.59685851 177.7250385 51.8125 179.5625 C52.49957031 180.14128906 53.18664062 180.72007812 53.89453125 181.31640625 C54.93673828 182.14978516 54.93673828 182.14978516 56 183 C56.66386719 183.56589844 57.32773438 184.13179687 58.01171875 184.71484375 C60.165313 186.36189382 60.165313 186.36189382 64 186 C63.66953848 179.72123104 62.50567827 175.54343535 58 171 C54.67103375 169.17699467 51.60340661 167.85470956 48.25 170.25 Z M191 233 C187.10914509 237.6817828 185.26071476 241.83899572 185.640625 247.94921875 C186.1543076 250.88055966 187.04209997 252.76239996 189 255 C190.9254644 256.1490712 190.9254644 256.1490712 193 256 C194.93201178 254.48840155 195.87529058 253.53928398 196.43359375 251.125 C196.4457668 244.50286013 194.54189292 239.07103889 192 233 C191.67 233 191.34 233 191 233 Z " fill="#C080FF" transform="translate(186,79)"/>
<path d="M0 0 C2.00431965 14.03023758 2.00431965 14.03023758 -0.2109375 18.375 C-2.03209859 20.15495835 -3.8974254 21.56553321 -6 23 C-7.30480091 24.10973977 -8.5963249 25.23525539 -9.875 26.375 C-10.53371094 26.94605469 -11.19242188 27.51710938 -11.87109375 28.10546875 C-14.27963005 30.24884509 -16.62121974 32.44463592 -18.9375 34.6875 C-19.68902344 35.41324219 -20.44054687 36.13898438 -21.21484375 36.88671875 C-23.01986797 39.02351985 -23.81842283 40.2177691 -24 43 C-21.14557065 45.85442935 -18.25951868 45.28879557 -14.4375 45.375 C-5.58904871 45.78342034 0.64522764 47.18635196 6.9375 53.8125 C11.03884699 58.97962625 12.24716285 63.51047514 11.875 70.0625 C11.1173113 75.86850996 8.85314771 79.28940212 4.5625 83.25 C0.15450058 86.26034107 -3.2979486 87.24593841 -8.625 87.0625 C-11.87509648 86.9600997 -13.8863385 86.96211283 -17 88 C-17.21097393 90.78581482 -17.32565049 92.47570271 -15.828125 94.88671875 C-15.30734375 95.48097656 -14.7865625 96.07523437 -14.25 96.6875 C-7.12823808 105.76690264 -5.91843323 114.58760586 -7 126 C-7.74427389 129.22376917 -8.71103557 131.93870948 -10 135 C-8.73736328 135.37898438 -8.73736328 135.37898438 -7.44921875 135.765625 C10.97904887 142.36056562 27.27347789 156.49072954 42 169 C42.75539063 168.35933594 43.51078125 167.71867188 44.2890625 167.05859375 C47.68817036 164.47742683 49.74799022 164.07331051 54 164 C60.10899701 165.71480618 63.50421384 168.89592884 67 174 C68.375 176.9375 68.375 176.9375 69 179 C70.89742084 175.83036212 71.16874876 173.89125567 70.6875 170.25 C70.57921875 169.38117188 70.4709375 168.51234375 70.359375 167.6171875 C70.24078125 166.75351563 70.1221875 165.88984375 70 165 C69.81164193 163.45843794 69.62405012 161.9167819 69.4375 160.375 C69.293125 159.26125 69.14875 158.1475 69 157 C69.99 157 70.98 157 72 157 C75.34650255 165.22681878 76.88719695 173.9674748 73.6875 182.5 C72.54631384 184.19064616 71.40034218 185.87807038 70.25 187.5625 C68.80942459 189.88511787 68.80942459 189.88511787 69.078125 192.30078125 C70.33357302 195.97669049 72.71598204 198.05725762 75.5 200.625 C81.16825477 206.06595211 86.11566518 211.84110336 91 218 C91.72703125 218.85980469 92.4540625 219.71960938 93.203125 220.60546875 C104.78901579 234.3181402 113.80732843 248.37714469 118 266 C127.03969817 268.57977465 135.69454054 267.16508905 144 263 C154.97121879 256.19712256 162.31989252 246.28671191 168.28686523 235.06494141 C171.02717466 230.06943528 174.04440166 225.98322089 179 223 C182.09765625 222.484375 182.09765625 222.484375 185.0625 222.75 C189.65294692 222.99489977 192.66783013 222.63659751 197 221 C205.65832411 219.1603171 213.36554964 220.28470195 221.125 224.5625 C230.28220891 230.52834254 236.03843103 238.44941053 239 249 C239.1875 252.30078125 239.1875 252.30078125 239 255 C238 256 238 256 235.0625 256.1875 C232 256 232 256 230 254 C229.32795818 252.24647912 228.70941481 250.47213862 228.125 248.6875 C226.63903706 244.41954629 225.05867823 241.38639376 222 238 C222 237.34 222 236.68 222 236 C221.41347656 235.71382812 220.82695312 235.42765625 220.22265625 235.1328125 C218 234 218 234 216.24609375 232.9296875 C210.52706937 229.59461928 205.50858785 229.56928463 199 230 C199.28875 230.88300781 199.5775 231.76601563 199.875 232.67578125 C205.35126108 250.3785558 205.35126108 250.3785558 201.1875 258.5625 C198.19274749 261.89950994 196.70325596 262.93082728 192.1875 263.375 C187.75469721 263.22046192 185.30367104 262.07842074 182 259 C178.38866071 253.39233029 176.85938311 247.60241702 178 241 C179.1185041 237.5577072 180.46741625 234.27726613 182 231 C177.51613866 232.47455843 176.06440026 235.91277865 173.9375 239.8125 C165.66904977 254.19241345 155.14619031 266.42821633 139 272 C135.10697739 272.98295587 131.44649521 273.13429083 127.4375 273.125 C126.32246094 273.12757813 125.20742188 273.13015625 124.05859375 273.1328125 C121.50806272 273.02206147 119.42409171 272.7467862 117 272 C117.0825 272.86625 117.165 273.7325 117.25 274.625 C116.89061197 279.47673839 114.75183919 282.37549714 111.2265625 285.64453125 C105.85632369 288.91378189 98.56025461 287.60062845 92.703125 286.2265625 C76.10299787 280.73215423 60.99752111 271.31020419 47 261 C46.14631836 260.37375732 46.14631836 260.37375732 45.27539062 259.73486328 C33.86202809 251.30195386 22.91590902 242.19482316 13.015625 232.01953125 C11.03893267 230.03900812 8.99531213 228.19992514 6.875 226.375 C1.06023401 221.36624118 -4.1531031 215.94164859 -9.1484375 210.12109375 C-10.37657169 208.71418054 -11.63199376 207.33060253 -12.9140625 205.97265625 C-28.16958238 189.71724275 -49.71895154 165.00215246 -50.5625 141.3125 C-50.16217309 136.00149634 -48.40254126 133.33061607 -44.5625 129.6875 C-36.82305979 126.02144937 -27.29378871 127.97245096 -19 129 C-17.24357385 125.9508442 -16.67971044 123.63741021 -16.625 120.125 C-16.58246094 118.89136719 -16.58246094 118.89136719 -16.5390625 117.6328125 C-17.39854453 112.7235677 -20.08921755 109.7424857 -23.875 106.65625 C-24.90625 105.9446875 -25.9375 105.233125 -27 104.5 C-32.13377076 100.95769818 -36.31058539 97.60928827 -37.53125 91.21875 C-37.46338312 85.31433129 -37.12449515 81.57038652 -33 77 C-26.92032674 71.5134656 -21.84416827 71.72214118 -14 72 C-11.3126122 72.25059243 -8.67252273 72.61126942 -6 73 C-5.34 73 -4.68 73 -4 73 C-4.495 69.535 -4.495 69.535 -5 66 C-7.87610396 65.18320768 -10.46354712 64.86823279 -13.44921875 64.82421875 C-14.29806641 64.80037109 -15.14691406 64.77652344 -16.02148438 64.75195312 C-17.77906108 64.70946226 -19.53694259 64.6779557 -21.29492188 64.65820312 C-28.63314775 64.42041585 -35.12340644 62.87659356 -40.4375 57.5625 C-43.41000199 52.68759673 -44.5574745 49.26482861 -43.7109375 43.57421875 C-38.6471639 25.23890664 -19.40699674 10.8270955 -4.21484375 1.21484375 C-2 0 -2 0 0 0 Z M48.25 170.25 C46.78165021 171.90034444 46.78165021 171.90034444 47.18359375 173.88671875 C48.22505691 176.58256358 49.59685851 177.7250385 51.8125 179.5625 C52.49957031 180.14128906 53.18664062 180.72007812 53.89453125 181.31640625 C54.93673828 182.14978516 54.93673828 182.14978516 56 183 C56.66386719 183.56589844 57.32773438 184.13179687 58.01171875 184.71484375 C60.165313 186.36189382 60.165313 186.36189382 64 186 C63.66953848 179.72123104 62.50567827 175.54343535 58 171 C54.67103375 169.17699467 51.60340661 167.85470956 48.25 170.25 Z M191 233 C187.10914509 237.6817828 185.26071476 241.83899572 185.640625 247.94921875 C186.1543076 250.88055966 187.04209997 252.76239996 189 255 C190.9254644 256.1490712 190.9254644 256.1490712 193 256 C194.93201178 254.48840155 195.87529058 253.53928398 196.43359375 251.125 C196.4457668 244.50286013 194.54189292 239.07103889 192 233 C191.67 233 191.34 233 191 233 Z " fill="#474646" transform="translate(186,79)"/>
<path d="M0 0 C0.33 0 0.66 0 1 0 C1.06316406 0.680625 1.12632812 1.36125 1.19140625 2.0625 C3.16010394 17.64629643 10.89933372 30.51888933 20 43 C20.40621582 43.5578418 20.81243164 44.11568359 21.23095703 44.69042969 C35.08384296 63.5223077 51.04783945 81.01772451 68.45458984 96.60302734 C69.994114 97.99467935 71.50952522 99.40845158 73.01953125 100.83203125 C90.41256075 117.18136523 110.41808246 131.19575342 132 141.4375 C132.69383789 141.76758057 133.38767578 142.09766113 134.10253906 142.43774414 C140.0395683 145.17763583 145.88062427 147.08607871 152.4375 147.625 C153.30246094 147.69976562 154.16742188 147.77453125 155.05859375 147.8515625 C156.01958984 147.92503906 156.01958984 147.92503906 157 148 C153.1460059 151.28303201 150.09511729 152.14584947 145.04003906 151.79394531 C143.95948242 151.64022461 142.87892578 151.48650391 141.765625 151.328125 C140.56043213 151.15998291 139.35523926 150.99184082 138.11352539 150.81860352 C136.83856201 150.63096436 135.56359863 150.4433252 134.25 150.25 C132.92509102 150.05952075 131.60013956 149.86933678 130.27514648 149.67944336 C114.28979319 147.35715666 98.59504975 144.405824 82.87695312 140.67822266 C80.06171595 140.01454913 77.24215954 139.37229594 74.421875 138.73046875 C35.59091158 129.67781055 -3.43334391 114.8723286 -38 95 C-37.30790454 90.06087092 -35.34439646 85.78769653 -33.37890625 81.25 C-32.60839893 79.44624223 -31.8379764 77.64244824 -31.06762695 75.83862305 C-30.65920563 74.88708344 -30.2507843 73.93554382 -29.82998657 72.95516968 C-22.25438461 55.29250587 -14.92001556 37.54352597 -7.8125 19.6875 C-7.41555939 18.69049072 -7.01861877 17.69348145 -6.60964966 16.66625977 C-4.40035053 11.11323895 -2.19729866 5.55777965 0 0 Z " fill="#C080FE" transform="translate(135,218)"/>
<path d="M0 0 C4.19864455 1.31185687 8.04822554 2.90418927 11.98046875 4.87109375 C13.12999023 5.43981201 14.27951172 6.00853027 15.46386719 6.59448242 C16.06952515 6.8948642 16.67518311 7.19524597 17.29919434 7.50473022 C56.57805216 26.9073789 97.98669754 40.72542751 141 49 C142.41442383 49.2774707 142.41442383 49.2774707 143.85742188 49.56054688 C158.16751815 52.34879156 172.51758293 54.34464867 187 56 C187 56.66 187 57.32 187 58 C180.23807451 61.04353365 173.4598241 64.04817779 166.66918945 67.02709961 C164.36387307 68.04372781 162.06235319 69.0690127 159.76489258 70.10327148 C156.45067078 71.59341455 153.12378113 73.05129401 149.79296875 74.50390625 C148.27040718 75.20067223 148.27040718 75.20067223 146.71708679 75.91151428 C139.69217713 78.92528314 134.49402447 79.42064895 127 78 C125.80479736 77.78714355 124.60959473 77.57428711 123.37817383 77.35498047 C121.80845825 76.98977295 121.80845825 76.98977295 120.20703125 76.6171875 C119.01255371 76.34092529 117.81807617 76.06466309 116.58740234 75.7800293 C115.34168457 75.48136963 114.0959668 75.18270996 112.8125 74.875 C111.83231903 74.64207748 111.83231903 74.64207748 110.83233643 74.40444946 C74.08578799 65.65529779 39.04549802 52.61077502 4.91183472 36.49304199 C3.60340794 35.87635524 2.29297257 35.26391094 0.98049927 34.65588379 C-0.84413845 33.80744904 -2.65867682 32.93739589 -4.47265625 32.06640625 C-5.51687744 31.57084229 -6.56109863 31.07527832 -7.63696289 30.56469727 C-10 29 -10 29 -10.98974609 27.17456055 C-11.00435357 24.07673218 -9.96971656 21.95578028 -8.69140625 19.140625 C-8.19189453 18.02558594 -7.69238281 16.91054688 -7.17773438 15.76171875 C-6.64470703 14.60285156 -6.11167969 13.44398438 -5.5625 12.25 C-5.03333984 11.07566406 -4.50417969 9.90132813 -3.95898438 8.69140625 C-2.64956141 5.78944183 -1.32959531 2.89276389 0 0 Z " fill="#E3E1FF" transform="translate(96,313)"/>
<path d="M0 0 C4.16531585 1.3016612 7.97902419 2.87466786 11.875 4.8359375 C13.00905273 5.39949951 14.14310547 5.96306152 15.31152344 6.54370117 C15.91089722 6.84198822 16.510271 7.14027527 17.12780762 7.44760132 C52.87866387 25.15694426 90.19035455 37.68410381 129.01490784 46.61262512 C135.03005613 47.99613198 141.01937294 49.47395381 147 51 C141.61752581 55.45366292 134.94734129 58.01013346 128.62353516 60.85473633 C127.05412077 61.5706747 125.49288559 62.30485018 123.94091797 63.05786133 C113.69340033 68.01982875 106.61888519 70.1427208 95.65332031 66.34448242 C94.44772461 65.90080322 93.24212891 65.45712402 92 65 C89.9684717 64.42373417 87.93227564 63.8635259 85.890625 63.32421875 C60.49439804 56.02847919 35.44988936 47.3736603 12.01220703 35.04882812 C9.78878485 33.88990776 7.54965069 32.76503864 5.30859375 31.640625 C3.74696475 30.84459512 2.18575688 30.04773847 0.625 29.25 C-0.10759033 28.88519531 -0.84018066 28.52039063 -1.5949707 28.14453125 C-6.60649008 25.54194932 -6.60649008 25.54194932 -8.3203125 23.18164062 C-9.25692995 20.17531391 -8.50935706 18.85857511 -7.2265625 16.015625 C-6.8140625 15.08105469 -6.4015625 14.14648438 -5.9765625 13.18359375 C-5.53054687 12.21550781 -5.08453125 11.24742187 -4.625 10.25 C-4.18671875 9.26644531 -3.7484375 8.28289062 -3.296875 7.26953125 C-2.21172177 4.83973163 -1.11245584 2.41739124 0 0 Z " fill="#C080FF" transform="translate(84,341)"/>
<path d="M0 0 C2.00431965 14.03023758 2.00431965 14.03023758 -0.2109375 18.375 C-2.03209859 20.15495835 -3.8974254 21.56553321 -6 23 C-7.30480091 24.10973977 -8.5963249 25.23525539 -9.875 26.375 C-10.53371094 26.94605469 -11.19242188 27.51710938 -11.87109375 28.10546875 C-14.27963005 30.24884509 -16.62121974 32.44463592 -18.9375 34.6875 C-19.68902344 35.41324219 -20.44054687 36.13898438 -21.21484375 36.88671875 C-23.01986797 39.02351985 -23.81842283 40.2177691 -24 43 C-21.14557065 45.85442935 -18.25951868 45.28879557 -14.4375 45.375 C-5.58904871 45.78342034 0.64522764 47.18635196 6.9375 53.8125 C11.03884699 58.97962625 12.24716285 63.51047514 11.875 70.0625 C11.1173113 75.86850996 8.85314771 79.28940212 4.5625 83.25 C0.15450058 86.26034107 -3.2979486 87.24593841 -8.625 87.0625 C-11.87509648 86.9600997 -13.8863385 86.96211283 -17 88 C-17.21097393 90.78581482 -17.32565049 92.47570271 -15.828125 94.88671875 C-15.30734375 95.48097656 -14.7865625 96.07523437 -14.25 96.6875 C-7.10704621 105.79391976 -5.97523602 114.56107202 -7 126 C-8.35070912 133.58567891 -13.31145548 139.36199031 -19.46875 143.765625 C-25.39561046 147.4431348 -30.85236092 150.42044936 -38 150 C-39.30492469 145.84055256 -40.12019705 142.34963091 -40 138 C-38.96359375 137.73445312 -37.9271875 137.46890625 -36.859375 137.1953125 C-35.48952244 136.83877553 -34.11973412 136.4819917 -32.75 136.125 C-32.06808594 135.95097656 -31.38617188 135.77695313 -30.68359375 135.59765625 C-23.71991486 133.82475328 -23.71991486 133.82475328 -18.75 129 C-16.41724356 124.56591137 -15.97292357 119.88616507 -17 115 C-19.60647931 110.23579844 -22.56324006 107.56136436 -27 104.5 C-32.13377076 100.95769818 -36.31058539 97.60928827 -37.53125 91.21875 C-37.46338312 85.31433129 -37.12449515 81.57038652 -33 77 C-26.92032674 71.5134656 -21.84416827 71.72214118 -14 72 C-11.3126122 72.25059243 -8.67252273 72.61126942 -6 73 C-5.34 73 -4.68 73 -4 73 C-4.495 69.535 -4.495 69.535 -5 66 C-7.87610396 65.18320768 -10.46354712 64.86823279 -13.44921875 64.82421875 C-14.72249023 64.78844727 -14.72249023 64.78844727 -16.02148438 64.75195312 C-17.77906108 64.70946226 -19.53694259 64.6779557 -21.29492188 64.65820312 C-28.63314775 64.42041585 -35.12340644 62.87659356 -40.4375 57.5625 C-43.41000199 52.68759673 -44.5574745 49.26482861 -43.7109375 43.57421875 C-38.6471639 25.23890664 -19.40699674 10.8270955 -4.21484375 1.21484375 C-2 0 -2 0 0 0 Z " fill="#00D57E" transform="translate(186,79)"/>
<path d="M0 0 C3.70598839 1.40913548 7.16003735 3.07411086 10.65625 4.94140625 C32.51225914 16.51327616 54.59543803 25.95141181 78 34 C79.1859375 34.40992188 80.371875 34.81984375 81.59375 35.2421875 C86.76525656 36.92431732 92.00105707 38.26819007 97.296875 39.49609375 C98.43705078 39.76462158 99.57722656 40.03314941 100.75195312 40.30981445 C103.06093433 40.8478999 105.37212873 41.37658586 107.68554688 41.89526367 C108.74322266 42.13865479 109.80089844 42.3820459 110.890625 42.6328125 C111.85000977 42.84824707 112.80939453 43.06368164 113.79785156 43.28564453 C114.52456055 43.52138184 115.25126953 43.75711914 116 44 C116.33 44.66 116.66 45.32 117 46 C110.30821149 48.98458691 103.61394156 51.9633187 96.9140625 54.9296875 C93.04472962 56.64326407 89.18147615 58.36651682 85.3359375 60.1328125 C84.15257812 60.66648437 82.96921875 61.20015625 81.75 61.75 C80.77546875 62.19859375 79.8009375 62.6471875 78.796875 63.109375 C71.03620538 65.58064968 64.65437073 62.7921247 57.375 60.0625 C56.26979004 59.65499512 55.16458008 59.24749023 54.02587891 58.82763672 C31.68205658 50.49000654 9.84494754 40.5942163 -11 29 C-10.35952645 25.16022316 -9.22822779 21.84403286 -7.71484375 18.26171875 C-7.04291992 16.66166992 -7.04291992 16.66166992 -6.35742188 15.02929688 C-5.88884766 13.92650391 -5.42027344 12.82371094 -4.9375 11.6875 C-4.46505859 10.56537109 -3.99261719 9.44324219 -3.50585938 8.28710938 C-2.34138677 5.52295723 -1.17263728 2.760696 0 0 Z " fill="#E3E1FF" transform="translate(74,364)"/>
<path d="M0 0 C0.33 0 0.66 0 1 0 C1.06316406 0.680625 1.12632812 1.36125 1.19140625 2.0625 C3.16010394 17.64629643 10.89933372 30.51888933 20 43 C20.40621582 43.5578418 20.81243164 44.11568359 21.23095703 44.69042969 C34.08624528 62.16615433 48.73027244 79.40858719 65.33984375 93.3984375 C65.88769531 93.92695313 66.43554688 94.45546875 67 95 C67 95.66 67 96.32 67 97 C51.24630292 94.46338776 36.11304858 90.01299764 21 85 C20.10893555 84.70609375 19.21787109 84.4121875 18.29980469 84.109375 C3.22785137 79.10482912 -11.4149257 73.27648303 -26 67 C-25.39052171 63.50605913 -24.4802211 60.41729356 -23.12988281 57.140625 C-22.74568176 56.2019458 -22.36148071 55.2632666 -21.96563721 54.29614258 C-21.54900818 53.29091553 -21.13237915 52.28568848 -20.703125 51.25 C-20.27247742 50.20030029 -19.84182983 49.15060059 -19.39813232 48.0690918 C-18.0196323 44.71097881 -16.63511541 41.35538911 -15.25 38 C-13.44063888 33.60501584 -11.6337801 29.20900794 -9.828125 24.8125 C-9.39802124 23.76618408 -8.96791748 22.71986816 -8.52478027 21.6418457 C-5.58142413 14.46506791 -2.71273905 7.26768438 0 0 Z " fill="#E3E1FE" transform="translate(135,218)"/>
<path d="M0 0 C3.55738452 1.12738703 6.86705459 2.31618857 10.14453125 4.1015625 C10.89508789 4.50536133 11.64564453 4.90916016 12.41894531 5.32519531 C13.20881836 5.75413086 13.99869141 6.18306641 14.8125 6.625 C28.53979511 13.95366433 42.47482781 20.41827444 57 26 C56 29 56 29 53.86334229 30.22047424 C52.92133972 30.61637253 51.97933716 31.01227081 51.00878906 31.42016602 C49.94388245 31.87396133 48.87897583 32.32775665 47.78179932 32.79530334 C46.62146179 33.2766423 45.46112427 33.75798126 44.265625 34.25390625 C43.08031189 34.75542709 41.89499878 35.25694794 40.67376709 35.77366638 C37.51666701 37.10925654 34.35417546 38.43158718 31.19042969 39.75134277 C27.9855116 41.0910937 24.78600619 42.44363951 21.5859375 43.79492188 C15.06396707 46.54578253 8.54127531 49.29530215 2 52 C1.1091571 52.37410507 0.21831421 52.74821014 -0.69952393 53.13365173 C-4.55658305 54.58620172 -8.0862419 54.11926166 -12 53 C-15.08875421 50.37455892 -15.85426019 48.66002609 -16.72485352 44.71728516 C-17.02768201 40.62601041 -16.4348788 38.42220766 -14.90234375 34.6484375 C-14.42990234 33.46636719 -13.95746094 32.28429687 -13.47070312 31.06640625 C-12.96474609 29.84824219 -12.45878906 28.63007813 -11.9375 27.375 C-11.45861328 26.18003906 -10.97972656 24.98507812 -10.48632812 23.75390625 C-7.23389543 15.71643537 -3.70056005 7.83985051 0 0 Z " fill="#E3E0FF" transform="translate(52,417)"/>
<path d="M0 0 C1.65 0 3.3 0 5 0 C5.6509259 1.24735567 6.29551669 2.49801832 6.9375 3.75 C7.47697266 4.79414063 7.47697266 4.79414063 8.02734375 5.859375 C11.87515102 14.3276416 10.83029533 24.97702727 8.046875 33.62109375 C7 36 7 36 4.8359375 39.2734375 C2.48054098 43.31350644 3.01682339 46.73910674 3.875 51.1875 C5.96286063 64.88380646 2.95427896 77.38138588 -5.125 88.8125 C-9.59435801 94.21502067 -15.70483366 98.2543709 -22.19140625 100.890625 C-24.69938935 102.42899908 -25.16439937 104.11065066 -26.25 106.8125 C-28.72960761 112.1248482 -31.63831179 114.70822472 -37 117 C-46.34795349 120.01168376 -56.39599443 118.25630625 -65 114 C-69.6818252 111.31028783 -74.68016173 108.33022384 -78 104 C-78 102.68 -78 101.36 -78 100 C-76.2578125 99.26953125 -76.2578125 99.26953125 -74 99 C-71.9921875 100.51171875 -71.9921875 100.51171875 -69.875 102.6875 C-63.70227292 108.52353288 -56.21918829 111.59852398 -47.75 112.25 C-42.69564614 111.91304308 -38.15734424 111.04791374 -34.3828125 107.46484375 C-33.18445984 106.03291388 -32.08209246 104.52169252 -31 103 C-31.64066406 102.90203125 -32.28132813 102.8040625 -32.94140625 102.703125 C-39.69290943 101.53595008 -45.3723542 100.24076315 -49.875 94.6875 C-51.57796238 90.61931209 -52.60693397 87.21872551 -51.41015625 82.84375 C-49.73727687 78.8805336 -48.6022344 77.30679865 -44.6875 75.3125 C-40.28869301 74.93971975 -37.54356856 75.4688796 -34 78 C-28.92703519 82.71663826 -25.23566754 87.43272661 -23 94 C-12.71469818 88.44326551 -6.9689635 80.97205198 -3 70 C-2.04319191 66.2505083 -1.86531582 62.73898812 -1.875 58.875 C-1.87242188 57.84117187 -1.86984375 56.80734375 -1.8671875 55.7421875 C-1.88080119 52.90765695 -1.88080119 52.90765695 -3 50 C-3.58007812 50.40992188 -4.16015625 50.81984375 -4.7578125 51.2421875 C-12.44959575 56.54774096 -18.55855542 58.98412452 -28 58 C-32.69058422 56.34960926 -35.47379293 54.30390834 -38 50 C-39.40406462 45.26241421 -39.47617014 41.25313447 -37.5 36.6875 C-35.15651691 32.73435176 -32.46247098 30.25166869 -28 29 C-19.22403805 27.79702871 -12.3495281 29.02037731 -5 34 C-2.375 36.3125 -2.375 36.3125 -1 38 C-0.34865075 36.43979133 0.29582964 34.87671421 0.9375 33.3125 C1.29714844 32.44238281 1.65679687 31.57226562 2.02734375 30.67578125 C4.88647837 22.81029043 4.26882906 16.20941289 1.734375 8.37890625 C0.88079964 5.61386692 0.37723282 2.86696942 0 0 Z M-31 37 C-32.78279682 39.35005035 -33.00113938 41.00765009 -33.4375 43.9375 C-33.22270042 47.15966004 -33.22270042 47.15966004 -30.9375 49.8125 C-27.29966772 52.52152404 -25.54410681 53.07449355 -21 53 C-14.6314895 51.27140429 -9.76553288 48.51471536 -5 44 C-7.69574859 38.29135593 -11.54099084 36.72950458 -17 34 C-22.57971317 33.62801912 -26.19599256 33.79732837 -31 37 Z M-44.8125 82.0625 C-46.57675042 84.94101385 -46.53094898 86.68156887 -46 90 C-42.85815375 94.06591868 -39.9841055 95.85780916 -35 97 C-32.24934768 97.16857483 -32.24934768 97.16857483 -30 97 C-30.1253551 90.98295527 -32.10037038 88.08851359 -36.015625 83.6015625 C-38.79780268 81.35610413 -41.57213146 80.16297361 -44.8125 82.0625 Z " fill="#7777F7" transform="translate(102,179)"/>
<path d="M0 0 C1.32 0.66 2.64 1.32 4 2 C4.7972126 10.96864177 1.32050411 19.24410227 -4.296875 26.15234375 C-8.89133946 31.13670542 -13.64583014 35.4280741 -20 38 C-20.66 38 -21.32 38 -22 38 C-22.226875 39.299375 -22.45375 40.59875 -22.6875 41.9375 C-25.02852859 52.12973332 -30.96714111 59.44687828 -39 66 C-48.79032373 72.04110306 -57.51737332 74.40044 -68.859375 73.74609375 C-72.66031246 73.63029458 -74.65732993 73.76494533 -77.8359375 75.9453125 C-78.55007812 76.62335938 -79.26421875 77.30140625 -80 78 C-85.84559997 79.94853332 -92.81231656 80.1347588 -98.64453125 78.05859375 C-100.89342116 76.83645426 -102.93497551 75.50986516 -105 74 C-106.546875 72.948125 -106.546875 72.948125 -108.125 71.875 C-113.88054722 66.81076152 -117.96937931 59.30432006 -120 52 C-120.07522969 49.66787973 -120.09325876 47.3314689 -120 45 C-118.02 44.505 -118.02 44.505 -116 44 C-115.608125 45.11375 -115.21625 46.2275 -114.8125 47.375 C-112.00614004 54.79274957 -109.15823675 61.76549877 -103 67 C-102.175 67.721875 -101.35 68.44375 -100.5 69.1875 C-95.29706451 72.95962823 -91.28125593 73.3988099 -85 73 C-82.80673946 72.04734249 -82.80673946 72.04734249 -81 71 C-81.54269531 70.50371094 -82.08539063 70.00742187 -82.64453125 69.49609375 C-91.70429767 60.89339663 -91.70429767 60.89339663 -92.12109375 53.99609375 C-91.80210109 48.57321845 -89.78882929 45.78882929 -86 42 C-82.77659223 40.38829612 -79.48558081 40.40457449 -76 41 C-72.2233622 43.87352876 -70.41704502 46.52843571 -69 51 C-68.76953125 54.48046875 -68.76953125 54.48046875 -68.8125 58.1875 C-68.81894531 59.41855469 -68.82539063 60.64960938 -68.83203125 61.91796875 C-69 65 -69 65 -70 67 C-65.71967085 69.14016457 -60.52929462 67.89473789 -56 67 C-42.87689653 62.12126002 -34.97218502 55.11044016 -29.03125 42.34375 C-28.6909375 41.5703125 -28.350625 40.796875 -28 40 C-28.99 40.495 -28.99 40.495 -30 41 C-38.44420038 41.75059559 -45.66048104 40.73578369 -52.875 36.1875 C-56.42009952 32.53813285 -58.15209829 29.07828234 -58.375 24 C-58.18584071 20.03522128 -57.32181816 17.29548384 -55 14 C-50.22888764 10.29995368 -46.44014479 9.33345744 -40.41796875 9.625 C-33.65763912 10.67345177 -29.6358276 14.92163621 -25.4453125 19.9765625 C-22.59910188 23.96125737 -22 27.17346212 -22 32 C-12.75224981 26.38969822 -6.39802059 20.49970383 -3 10 C-2.53939419 7.33669513 -2.28320688 4.69046539 -2 2 C-1.34 1.34 -0.68 0.68 0 0 Z M-49.4375 17.0625 C-52.26147307 20.29973742 -53.08890832 21.73240079 -53 26 C-51.73027458 29.55523117 -49.83766207 31.38589873 -46.6875 33.3125 C-40.81343956 36.05666707 -34.32518035 35.31981249 -28 35 C-26.81089033 31.24973104 -27.28347762 28.77499068 -28.796875 25.1015625 C-31.39694253 20.55988609 -35.21404321 17.10917532 -40.08984375 15.16796875 C-43.85593989 14.39450947 -46.4105957 14.84469661 -49.4375 17.0625 Z M-84.3125 47.5 C-86.71114313 51.05354537 -86.77468424 52.77444962 -86 57 C-83.30107922 61.0340252 -80.67128714 64.44290429 -76 66 C-73.49801908 62.24702862 -73.48300086 58.34602405 -74 54 C-74.68292634 51.21494103 -75.50017283 49.53419074 -77 47 C-80.24747965 45.41789453 -81.28668664 45.53731025 -84.3125 47.5 Z " fill="#7878F7" transform="translate(226,418)"/>
<path d="M0 0 C4.8688816 3.05622438 7.68604107 6.816732 10 12 C9.75 14.9375 9.75 14.9375 9 17 C6.8125 17.5 6.8125 17.5 4 17 C2.53715609 15.10955556 1.42587554 13.11889236 0.25 11.0390625 C-2.44214512 6.64750078 -6.25619043 4.61344686 -11 3 C-13.72482695 2.68674262 -13.72482695 2.68674262 -16.5 2.75 C-17.87671875 2.74226562 -17.87671875 2.74226562 -19.28125 2.734375 C-22.1778282 3.01737402 -24.36375653 3.79649755 -27 5 C-26.2575 5.70125 -25.515 6.4025 -24.75 7.125 C-19.86051765 12.23673155 -17.7364945 15.32361506 -17.5 22.5 C-17.68015622 27.77257211 -18.13532591 31.13532591 -22 35 C-26.54499908 38.09886301 -30.64957791 38.77960242 -36 38 C-39.55586038 36.7252576 -41.444669 35.68937642 -43.8125 32.75 C-46.71889404 26.01940327 -46.0529942 19.86732564 -44 13 C-43.01 11.515 -43.01 11.515 -42 10 C-55.15612893 11.01200992 -65.18109308 22.4907226 -73.3046875 31.84765625 C-75.5921216 34.75174885 -77.32046317 37.71090704 -79 41 C-78.443125 41.06316406 -77.88625 41.12632812 -77.3125 41.19140625 C-70.58200786 42.27146833 -66.52846627 44.94007558 -62 50 C-59.35650867 54.18552793 -59.302269 59.17544538 -60 64 C-62.01043274 67.87726314 -64.12835271 70.89824862 -68 73 C-73.70675863 74.53643502 -77.93684384 73.86801874 -83 71 C-86.79231631 67.20768369 -88.82383757 63.3259413 -89.23046875 57.95703125 C-89.21628906 56.91933594 -89.20210938 55.88164062 -89.1875 54.8125 C-89.18105469 53.76707031 -89.17460937 52.72164062 -89.16796875 51.64453125 C-89 49 -89 49 -88 47 C-97.77936687 52.70260847 -104.36908378 59.14863369 -107.40234375 70.3203125 C-109.68200572 80.54154197 -108.78816569 90.65684107 -108 101 C-108.99 101 -109.98 101 -111 101 C-114.79132288 86.31462278 -114.85929454 70.46302597 -107.3046875 56.97265625 C-102.50009516 49.72686416 -96.71711588 44.86856261 -88.39453125 42.1484375 C-85.31316973 40.67059038 -84.53246873 39.15098466 -82.875 36.1875 C-74.39487707 22.17046383 -62.92802447 9.30934149 -47 4 C-45.20964632 3.87528496 -43.41763299 3.77344816 -41.625 3.6875 C-36.77476022 3.28649592 -34.58938042 2.3899704 -31 -1 C-21.54799243 -6.63098324 -9.33837257 -5.27221773 0 0 Z M-35 10 C-38.41951047 15.18441909 -40.33106476 19.68612217 -40 26 C-38.66498121 29.05147152 -37.97626566 30.51186717 -35 32 C-31.26328409 32.34599221 -28.88090447 32.53317902 -25.625 30.5625 C-23.26124096 26.83503382 -22.672125 23.39200004 -23 19 C-24.95658329 15.08683342 -27.15556048 12.16249723 -31 10 C-32.32 10 -33.64 10 -35 10 Z M-82 45 C-84.42487592 50.36382553 -84.69889882 55.18720733 -84 61 C-82.36394044 64.33054982 -81.09182626 66.19932741 -78.125 68.375 C-75.15938245 69.24724046 -73.08074453 69.44010636 -70 69 C-66.83652199 66.60981662 -65.30497188 64.87679416 -64 61.125 C-64 57.0319302 -65.01699686 54.56940565 -67 51 C-70.3231662 47.6768338 -73.46417819 46.15808216 -78 45 C-79.32 45 -80.64 45 -82 45 Z " fill="#FC6458" transform="translate(465,159)"/>
<path d="M0 0 C5.8869142 6.07432532 10.47266901 13.73256512 10.9609375 22.328125 C10.7734375 25.02734375 10.7734375 25.02734375 9.7734375 26.02734375 C6.8359375 26.21484375 6.8359375 26.21484375 3.7734375 26.02734375 C1.40802634 23.66193259 0.93396134 21.87704257 -0.1015625 18.71484375 C-1.58752544 14.44689004 -3.16788427 11.41373751 -6.2265625 8.02734375 C-6.2265625 7.36734375 -6.2265625 6.70734375 -6.2265625 6.02734375 C-6.81308594 5.74117188 -7.39960938 5.455 -8.00390625 5.16015625 C-10.2265625 4.02734375 -10.2265625 4.02734375 -11.98046875 2.95703125 C-17.69949313 -0.37803697 -22.71797465 -0.40337162 -29.2265625 0.02734375 C-28.9378125 0.91035156 -28.6490625 1.79335938 -28.3515625 2.703125 C-22.87530142 20.40589955 -22.87530142 20.40589955 -27.0390625 28.58984375 C-30.03381501 31.92685369 -31.52330654 32.95817103 -36.0390625 33.40234375 C-40.47186529 33.24780567 -42.92289146 32.10576449 -46.2265625 29.02734375 C-49.83790179 23.41967404 -51.36717939 17.62976077 -50.2265625 11.02734375 C-49.1080584 7.58505095 -47.75914625 4.30460988 -46.2265625 1.02734375 C-50.71042384 2.50190218 -52.16216224 5.9401224 -54.2890625 9.83984375 C-62.55751273 24.2197572 -73.08037219 36.45556008 -89.2265625 42.02734375 C-97.69387986 44.12321438 -107.47759215 44.40791799 -115.2265625 40.02734375 C-123.85202962 34.71936398 -131.13764252 27.60245743 -133.8515625 17.6796875 C-133.9753125 17.13441406 -134.0990625 16.58914063 -134.2265625 16.02734375 C-132.9065625 16.02734375 -131.5865625 16.02734375 -130.2265625 16.02734375 C-129.97003906 16.65640625 -129.71351563 17.28546875 -129.44921875 17.93359375 C-125.89292353 25.88436825 -121.05102847 31.93370757 -112.9140625 35.46484375 C-111.58375 35.74328125 -111.58375 35.74328125 -110.2265625 36.02734375 C-109.61554688 36.1975 -109.00453125 36.36765625 -108.375 36.54296875 C-98.9640443 38.66471149 -89.95341026 36.57836613 -81.8515625 31.5546875 C-72.1701262 24.44488272 -65.52487334 15.59603088 -59.93969727 5.09228516 C-57.19938784 0.09677903 -54.18216084 -3.98943536 -49.2265625 -6.97265625 C-46.12890625 -7.48828125 -46.12890625 -7.48828125 -43.1640625 -7.22265625 C-38.58590384 -6.97810864 -35.54118413 -7.30564335 -31.2265625 -8.97265625 C-19.26326434 -11.40586944 -9.07271267 -8.03810508 0 0 Z M-37.2265625 3.02734375 C-41.11741741 7.70912655 -42.96584774 11.86633947 -42.5859375 17.9765625 C-42.0722549 20.90790341 -41.18446253 22.78974371 -39.2265625 25.02734375 C-37.3010981 26.17641495 -37.3010981 26.17641495 -35.2265625 26.02734375 C-33.29455072 24.5157453 -32.35127192 23.56662773 -31.79296875 21.15234375 C-31.7807957 14.53020388 -33.68466958 9.09838264 -36.2265625 3.02734375 C-36.5565625 3.02734375 -36.8865625 3.02734375 -37.2265625 3.02734375 Z " fill="#F8B837" transform="translate(414.2265625,308.97265625)"/>
<path d="M0 0 C2.11126809 3.16690213 2.33483112 4.42327029 2.6328125 8.10546875 C2.71660156 9.08837891 2.80039062 10.07128906 2.88671875 11.08398438 C2.96535156 12.10814453 3.04398437 13.13230469 3.125 14.1875 C3.21136719 15.22326172 3.29773438 16.25902344 3.38671875 17.32617188 C3.59885449 19.88358608 3.80296419 22.44138541 4 25 C4.59014893 25.08040527 5.18029785 25.16081055 5.78833008 25.24365234 C8.46422373 25.6127956 11.1383045 25.9937576 13.8125 26.375 C14.74126953 26.50132812 15.67003906 26.62765625 16.62695312 26.7578125 C17.9659668 26.95117188 17.9659668 26.95117188 19.33203125 27.1484375 C20.15421143 27.26364746 20.9763916 27.37885742 21.82348633 27.49755859 C24 28 24 28 27 30 C26.4652002 30.29245605 25.93040039 30.58491211 25.37939453 30.88623047 C22.95929377 32.21226264 20.5421301 33.54356111 18.125 34.875 C17.28324219 35.33519531 16.44148438 35.79539062 15.57421875 36.26953125 C14.76855469 36.71425781 13.96289062 37.15898437 13.1328125 37.6171875 C12.38918457 38.02565918 11.64555664 38.43413086 10.87939453 38.85498047 C8.85678395 39.9859099 8.85678395 39.9859099 7 42 C6.72191783 44.52377655 6.72191783 44.52377655 6.8046875 47.4453125 C6.81435547 49.05986328 6.81435547 49.05986328 6.82421875 50.70703125 C6.84097656 51.83496094 6.85773438 52.96289062 6.875 54.125 C6.88402344 55.26066406 6.89304687 56.39632812 6.90234375 57.56640625 C6.92596902 60.37781299 6.95890987 63.18880298 7 66 C6.34 66 5.68 66 5 66 C3.57958984 64.34765625 3.57958984 64.34765625 1.9609375 62.0625 C1.38085938 61.25039063 0.80078125 60.43828125 0.203125 59.6015625 C-0.40015625 58.74304688 -1.0034375 57.88453125 -1.625 57 C-2.23601562 56.14148438 -2.84703125 55.28296875 -3.4765625 54.3984375 C-4.99030984 52.2697303 -6.4977693 50.13684266 -8 48 C-8.59014893 48.2673999 -9.18029785 48.5347998 -9.78833008 48.81030273 C-12.46236583 50.02089395 -15.13741859 51.22922128 -17.8125 52.4375 C-18.74126953 52.85837891 -19.67003906 53.27925781 -20.62695312 53.71289062 C-21.51962891 54.11572266 -22.41230469 54.51855469 -23.33203125 54.93359375 C-24.15421143 55.30540771 -24.9763916 55.67722168 -25.82348633 56.06030273 C-28 57 -28 57 -31 58 C-30.30842817 52.79345206 -27.84802343 48.60524664 -25.3515625 44.08398438 C-23.48258081 40.70942371 -23.48258081 40.70942371 -23.24243164 36.96557617 C-24.52638029 33.63426113 -27.4099379 31.64256166 -30.0625 29.375 C-32.09350291 27.622943 -34.05358348 25.84953606 -36 24 C-36 23.34 -36 22.68 -36 22 C-28.41 22.33 -20.82 22.66 -13 23 C-11.411875 20.31875 -9.82375 17.6375 -8.1875 14.875 C-7.6927417 14.04210449 -7.1979834 13.20920898 -6.68823242 12.35107422 C-4.29847641 8.3019667 -2.0392945 4.24119055 0 0 Z " fill="#7878F7" transform="translate(460,229)"/>
<path d="M0 0 C4.27826053 7.65217331 3.13144828 17.49967799 3 26 C4.46759766 26.07347656 4.46759766 26.07347656 5.96484375 26.1484375 C13.16248379 26.55892238 20.00303049 27.15869223 27 29 C24.85456353 31.33327222 22.7965192 32.80481335 19.98828125 34.26171875 C19.30548096 34.61967529 18.62268066 34.97763184 17.91918945 35.34643555 C17.05898193 35.78898682 16.19877441 36.23153809 15.3125 36.6875 C11.1978125 38.8221875 11.1978125 38.8221875 7 41 C7 49.25 7 57.5 7 66 C6.34 66 5.68 66 5 66 C3.57958984 64.34765625 3.57958984 64.34765625 1.9609375 62.0625 C1.38085938 61.25039062 0.80078125 60.43828125 0.203125 59.6015625 C-0.40015625 58.74304688 -1.0034375 57.88453125 -1.625 57 C-2.23601562 56.14148438 -2.84703125 55.28296875 -3.4765625 54.3984375 C-4.99030984 52.2697303 -6.4977693 50.13684266 -8 48 C-13.87309925 49.7453078 -19.04146307 52.48835544 -24.4296875 55.34179688 C-26.25805411 56.28508339 -28.12669258 57.14945123 -30 58 C-30.66 57.67 -31.32 57.34 -32 57 C-31.71688965 56.44538086 -31.4337793 55.89076172 -31.14208984 55.31933594 C-29.86980597 52.80422163 -28.62228974 50.27759597 -27.375 47.75 C-26.92898438 46.87730469 -26.48296875 46.00460938 -26.0234375 45.10546875 C-25.6109375 44.26113281 -25.1984375 43.41679688 -24.7734375 42.546875 C-24.19215088 41.38430176 -24.19215088 41.38430176 -23.59912109 40.19824219 C-22.77874818 37.9978625 -22.77874818 37.9978625 -23.7265625 35.87255859 C-25.99047302 32.54353373 -29.15016048 30.13967489 -32.1875 27.53515625 C-33.49135757 26.39341854 -34.7496855 25.20013466 -36 24 C-36 23.34 -36 22.68 -36 22 C-28.41 22.33 -20.82 22.66 -13 23 C-10.21798465 18.0498383 -10.21798465 18.0498383 -7.43652344 13.09936523 C-4.97561583 8.72249714 -2.49617402 4.3568542 0 0 Z " fill="#F9B837" transform="translate(336,36)"/>
<path d="M0 0 C2 3 2 3 1.75 5.625 C1.37875 6.800625 1.37875 6.800625 1 8 C-1.67149737 9.33574868 -4.16041014 9.44450567 -7.125 9.8125 C-15.35098014 11.06408243 -21.48070089 13.16757458 -26.67578125 19.9140625 C-32.31046297 28.78993281 -32.13542644 36.69704502 -31.18017578 46.84570312 C-30.02165556 60.69771186 -30.74133054 71.77396283 -39.97265625 82.83984375 C-50.2843842 93.82709915 -62.70531753 98.40869753 -77 101.9375 C-77.89630127 102.16139404 -78.79260254 102.38528809 -79.71606445 102.6159668 C-84.47244009 103.7130415 -88.16898166 104.27926637 -93 103 C-93.6875 100.6875 -93.6875 100.6875 -94 98 C-91.87910211 95.18908839 -89.91787321 94.48449679 -86.53515625 93.7890625 C-85.65819092 93.59900635 -84.78122559 93.4089502 -83.87768555 93.21313477 C-82.94867432 93.01905029 -82.01966309 92.82496582 -81.0625 92.625 C-64.65509833 88.94125029 -51.68918713 83.66635288 -42.1875 69.25 C-39.75389208 62.58959938 -39.79753455 56.09359057 -40.74658203 49.1328125 C-42.15005386 37.32093402 -42.28272663 25.20277462 -35.01171875 15.2890625 C-26.2115077 4.92335622 -14.11706777 -2.46143746 0 0 Z " fill="#FC6458" transform="translate(310,116)"/>
<path d="M0 0 C4.02165224 4.02165224 3.05547046 11.62163917 3.0625 17.0625 C3.041875 18.691875 3.02125 20.32125 3 22 C9.93 22.99 16.86 23.98 24 25 C24 25.66 24 26.32 24 27 C21.3773768 28.33819498 18.75213401 29.6707151 16.125 31 C15.37863281 31.3815625 14.63226563 31.763125 13.86328125 32.15625 C12.79013672 32.69765625 12.79013672 32.69765625 11.6953125 33.25 C11.03547363 33.58515625 10.37563477 33.9203125 9.69580078 34.265625 C8 35 8 35 6 35 C6 42.59 6 50.18 6 58 C2.45235012 54.45235012 -0.68396398 51.0631491 -3.8125 47.1875 C-4.60269531 46.21167969 -5.39289063 45.23585938 -6.20703125 44.23046875 C-6.79871094 43.49441406 -7.39039063 42.75835937 -8 42 C-8.5347998 42.27263672 -9.06959961 42.54527344 -9.62060547 42.82617188 C-12.03665007 44.05493614 -14.45576347 45.27753298 -16.875 46.5 C-17.71675781 46.92925781 -18.55851563 47.35851562 -19.42578125 47.80078125 C-20.23144531 48.20683594 -21.03710938 48.61289062 -21.8671875 49.03125 C-22.98262939 49.59682617 -22.98262939 49.59682617 -24.12060547 50.17382812 C-26 51 -26 51 -28 51 C-26.60121198 46.53202662 -24.86369228 42.36177921 -22.875 38.125 C-22.33617187 36.97257812 -21.79734375 35.82015625 -21.2421875 34.6328125 C-20.83226562 33.76398438 -20.42234375 32.89515625 -20 32 C-21.24676853 30.72599623 -22.4975648 29.45593346 -23.75 28.1875 C-24.44609375 27.47980469 -25.1421875 26.77210938 -25.859375 26.04296875 C-27.93721763 23.96718507 -27.93721763 23.96718507 -30.265625 22.36328125 C-31.12414062 21.68845703 -31.12414062 21.68845703 -32 21 C-32 20.34 -32 19.68 -32 19 C-29.43719792 19.14154136 -26.87484515 19.28808562 -24.3125 19.4375 C-23.59126953 19.47681641 -22.87003906 19.51613281 -22.12695312 19.55664062 C-18.33292718 19.78185678 -14.71348508 20.12839305 -11 21 C-10.76539063 20.34644531 -10.53078125 19.69289063 -10.2890625 19.01953125 C-8.60244541 15.06875848 -6.50573525 11.41295742 -4.375 7.6875 C-3.95476562 6.94693359 -3.53453125 6.20636719 -3.1015625 5.44335938 C-2.07051505 3.62730989 -1.03563954 1.81343467 0 0 Z " fill="#F9B937" transform="translate(269,439)"/>
<path d="M0 0 C0.495 2.475 0.495 2.475 1 5 C-1.99832447 6.02633229 -4.98342018 6.99550919 -8.04296875 7.82421875 C-16.00607309 10.01036292 -22.2872914 13.21097342 -29 18 C-28.32453125 18.3403125 -27.6490625 18.680625 -26.953125 19.03125 C-21.623201 21.92727807 -17.85703413 24.24295046 -15.55078125 29.9921875 C-13.89448024 36.03005075 -15.04181385 40.5936598 -18 46 C-22.88184784 50.63775545 -26.97228553 51.36280849 -33.49609375 51.27734375 C-38.58458462 50.71371996 -41.18290601 47.99376296 -44.3125 44.1875 C-46.6140175 39.84018916 -47.61228345 36.42588253 -46.3828125 31.5546875 C-45.65316325 29.33794358 -44.86912223 27.16544012 -44 25 C-49.77558484 25.1155117 -54.1822279 26.80190799 -59.3125 29.375 C-60.22829834 29.83144897 -60.22829834 29.83144897 -61.16259766 30.29711914 C-64.23912235 31.89161262 -66.62477077 33.49409473 -69 36 C-69.66 36 -70.32 36 -71 36 C-71.2475 36.639375 -71.495 37.27875 -71.75 37.9375 C-73 40 -73 40 -75.125 40.75 C-75.74375 40.8325 -76.3625 40.915 -77 41 C-77.66 39.68 -78.32 38.36 -79 37 C-70.99378483 26.47988791 -60.87453366 20.7806421 -48 18 C-46.29304133 17.90725775 -44.58421655 17.84229617 -42.875 17.8125 C-37.11861935 17.44171864 -34.09325182 14.06117347 -29.92578125 10.359375 C-21.85323478 3.84960455 -10.52294943 -0.67889996 0 0 Z M-36 24 C-38.78598925 28.25128463 -40.95281049 31.58431478 -41.125 36.75 C-39.76431665 40.680863 -38.28214687 42.4637956 -35 45 C-31.58838372 46.39963745 -30.34965773 46.13286994 -26.875 44.8125 C-23.99610166 42.99754235 -22.51199979 42.02399958 -21 39 C-20.48898498 34.98488202 -20.55106304 32.79012905 -22.5625 29.25 C-26.65279856 25.47433979 -30.46018242 24 -36 24 Z " fill="#00D67D" transform="translate(391,110)"/>
<path d="M0 0 C0 1.65 0 3.3 0 5 C-0.93199219 5.20753906 -1.86398437 5.41507813 -2.82421875 5.62890625 C-12.41993734 7.94779072 -22.81145569 10.81145569 -30 18 C-29.48050781 18.21914063 -28.96101563 18.43828125 -28.42578125 18.6640625 C-23.23385503 21.02490141 -20.28405391 23.32271109 -17 28 C-15.33973539 32.98079383 -15.40096575 37.30273629 -17.125 42.1875 C-19.94700747 46.42051121 -23.07728992 49.35909664 -28 51 C-34.15848362 51.51320697 -38.12473104 50.92490007 -43 47 C-46.75791395 43.14572928 -47.26729821 40.08269811 -47.375 34.875 C-47.32574 31.00316438 -46.99925556 28.3427553 -45 25 C-56.40652894 25.38021763 -65.15889678 30.39167813 -72.96484375 38.55859375 C-75 40 -75 40 -77.75390625 39.72265625 C-78.49511719 39.48417969 -79.23632812 39.24570313 -80 39 C-79.03863621 32.92038953 -73.72498061 29.14951886 -69.11328125 25.51171875 C-61.81756755 20.57143463 -53.58931766 17.92889055 -44.8125 17.75 C-38.8627863 17.42672966 -36.56283662 15.33754492 -32.48046875 11.203125 C-23.61158591 3.32588103 -11.67587936 -0.41699569 0 0 Z M-39.25 26.5625 C-41.13944122 30.2739024 -41.92435853 32.83971912 -42 37 C-40.42435501 40.64886208 -38.53250338 43.13562322 -35 45 C-30.75350057 45.54046356 -28.74176808 45.48376179 -25.125 43.125 C-22.43858355 40.43858355 -22.06403149 39.55493957 -21.625 35.75 C-22.1026488 30.97351198 -23.56623355 29.28115461 -27 26 C-31.69109494 23.41989778 -35.48592177 22.27563313 -39.25 26.5625 Z " fill="#7878F7" transform="translate(298,29)"/>
<path d="M0 0 C2.38171031 3.80273074 2.65510945 7.89003197 3.125 12.25 C3.21136719 12.99507812 3.29773438 13.74015625 3.38671875 14.5078125 C3.59786867 16.33777846 3.79984545 18.16879879 4 20 C5.04800781 20.12117188 6.09601563 20.24234375 7.17578125 20.3671875 C8.55473886 20.53603945 9.93364239 20.70533341 11.3125 20.875 C12.00279297 20.95363281 12.69308594 21.03226563 13.40429688 21.11328125 C16.95639471 21.55943847 18.9697029 21.97980193 22 24 C19.54429825 25.33838733 17.08570084 26.67086232 14.625 28 C13.57699219 28.57234375 13.57699219 28.57234375 12.5078125 29.15625 C7.2265625 32 7.2265625 32 5 32 C5.495 42.395 5.495 42.395 6 53 C2.09934676 51.69978225 0.63959215 49.2580763 -1.6875 46.0625 C-2.10322266 45.51142578 -2.51894531 44.96035156 -2.94726562 44.39257812 C-6 40.26712592 -6 40.26712592 -6 38 C-6.50450684 38.24234375 -7.00901367 38.4846875 -7.52880859 38.734375 C-9.80897784 39.82692327 -12.09193169 40.91352376 -14.375 42 C-15.56609375 42.57234375 -15.56609375 42.57234375 -16.78125 43.15625 C-17.92207031 43.69765625 -17.92207031 43.69765625 -19.0859375 44.25 C-19.7876709 44.58515625 -20.4894043 44.9203125 -21.21240234 45.265625 C-23 46 -23 46 -25 46 C-23.3532537 40.74442669 -21.4671236 35.93424719 -19 31 C-18.65053353 27.95705744 -18.65053353 27.95705744 -20.6796875 26.28125 C-21.40414062 25.6934375 -22.12859375 25.105625 -22.875 24.5 C-25.48194454 22.36959371 -27.10668572 20.83997143 -29 18 C-22.56688704 17.90492937 -16.34241995 17.84683274 -10 19 C-9.75507813 18.32582031 -9.51015625 17.65164062 -9.2578125 16.95703125 C-7.72738164 13.35909286 -5.84156692 10.06123937 -3.875 6.6875 C-3.50246094 6.04232422 -3.12992188 5.39714844 -2.74609375 4.73242188 C-1.83367787 3.15324055 -0.91724491 1.57638136 0 0 Z " fill="#F9B937" transform="translate(240,87)"/>
<path d="M0 0 C0.33 0 0.66 0 1 0 C1.06316406 0.680625 1.12632812 1.36125 1.19140625 2.0625 C3.53265717 20.59534941 14.15696278 36.25439046 25.8203125 50.36328125 C27 52 27 52 27 54 C18.8339735 52.51526791 11.42495691 49.59506172 3.75 46.5 C2.48462294 45.99547146 1.21899927 45.49156098 -0.046875 44.98828125 C-3.36715016 43.66513741 -6.68412912 42.33413259 -10 41 C-11.66651147 40.33294546 -13.33312024 39.66613368 -15 39 C-12.36205514 30.64187998 -9.09132953 22.5582885 -5.8125 14.4375 C-5.24780461 13.03330053 -4.68334957 11.62900437 -4.11914062 10.22460938 C-2.74886215 6.81528748 -1.37533859 3.40728428 0 0 Z " fill="#BF80FD" transform="translate(135,218)"/>
<path d="M0 0 C4.84184769 1.56457411 8.3752673 4.3274511 12.3125 7.4375 C13.28026367 8.17323242 13.28026367 8.17323242 14.26757812 8.92382812 C15.90592354 10.20849897 17.46070067 11.59817531 19 13 C19 17.37366654 16.39178622 19.80382552 13.8125 23.125 C13.27584717 23.82786133 12.73919434 24.53072266 12.1862793 25.25488281 C10.46387166 27.50820197 8.73197306 29.75402825 7 32 C5.87415897 33.47071073 4.74914811 34.94205737 3.625 36.4140625 C1.4426417 39.27148587 -0.74255925 42.1266953 -2.9296875 44.98046875 C-6.99314465 50.29040854 -11.00310774 55.63982666 -15 61 C-15.66 60.67 -16.32 60.34 -17 60 C-14.93357865 52.47160609 -12.864921 44.94383064 -10.79338932 37.41684151 C-9.83161297 33.92191438 -8.87061443 30.42677723 -7.91137695 26.93115234 C-6.98600107 23.559036 -6.05860368 20.18748169 -5.12978935 16.81631088 C-4.6026981 14.90113199 -4.07771358 12.98537369 -3.55274963 11.0696106 C-3.23249313 9.90855804 -2.91223663 8.74750549 -2.58227539 7.55126953 C-2.30025772 6.52534698 -2.01824005 5.49942444 -1.72767639 4.44241333 C-1 2 -1 2 0 0 Z " fill="#F9B937" transform="translate(305,177)"/>
<path d="M0 0 C0.66 0.33 1.32 0.66 2 1 C2.47618812 3.87182587 2.84167597 6.67120147 3.125 9.5625 C3.21136719 10.36880859 3.29773438 11.17511719 3.38671875 12.00585938 C3.59943628 14.00304064 3.80077855 16.00142737 4 18 C11.425 18.99 11.425 18.99 19 20 C19 20.99 19 21.98 19 23 C17.04414675 24.00484204 15.08523763 25.00373805 13.125 26 C12.03445312 26.556875 10.94390625 27.11375 9.8203125 27.6875 C7 29 7 29 5 29 C5.33 35.27 5.66 41.54 6 48 C2.82270675 44.82270675 0.25915942 42.21605594 -2.3125 38.6875 C-2.82425781 37.99011719 -3.33601563 37.29273438 -3.86328125 36.57421875 C-4.23839844 36.05472656 -4.61351563 35.53523438 -5 35 C-5.80824219 35.33773437 -6.61648437 35.67546875 -7.44921875 36.0234375 C-8.51785156 36.46945313 -9.58648437 36.91546875 -10.6875 37.375 C-11.74324219 37.81585938 -12.79898438 38.25671875 -13.88671875 38.7109375 C-16.58356657 39.82757462 -19.28716264 40.92291801 -22 42 C-20.25192871 36.53262809 -18.34205919 31.24175152 -16 26 C-16.6496875 25.44570312 -17.299375 24.89140625 -17.96875 24.3203125 C-18.8040625 23.59585938 -19.639375 22.87140625 -20.5 22.125 C-21.3353125 21.40570313 -22.170625 20.68640625 -23.03125 19.9453125 C-23.6809375 19.30335938 -24.330625 18.66140625 -25 18 C-25 17.34 -25 16.68 -25 16 C-19.39 16.33 -13.78 16.66 -8 17 C-7.34 15.35 -6.68 13.7 -6 12 C-4.97658867 9.88689422 -3.93420868 7.78289108 -2.875 5.6875 C-2.33617188 4.61886719 -1.79734375 3.55023438 -1.2421875 2.44921875 C-0.83226563 1.64097656 -0.42234375 0.83273438 0 0 Z " fill="#F9B937" transform="translate(58,144)"/>
<path d="M0 0 C2.95238098 5.90476196 2.63467051 11.4240691 3 18 C8.28 18.66 13.56 19.32 19 20 C19 20.66 19 21.32 19 22 C18.07316406 22.29648437 17.14632812 22.59296875 16.19140625 22.8984375 C10.54222596 25.12295505 10.54222596 25.12295505 6 29 C4.04823395 34.7364834 4.61537134 41.0414084 5 47 C1.11145901 43.21602482 -1.94276872 39.45482273 -5 35 C-8.82859106 35.59800255 -11.77235864 36.74901344 -15.1875 38.5625 C-19.79320113 41 -19.79320113 41 -22 41 C-20.99861373 37.76475205 -19.95163931 34.9122343 -18.3125 31.9375 C-16.85659072 29.15466618 -16.85659072 29.15466618 -16.875 26.5 C-18.3774358 23.16125378 -20.6264009 21.52634619 -23.50390625 19.33203125 C-23.99761719 18.89246094 -24.49132813 18.45289063 -25 18 C-25 17.34 -25 16.68 -25 16 C-19.72 16 -14.44 16 -9 16 C-6.03 10.72 -3.06 5.44 0 0 Z " fill="#00D67E" transform="translate(40,342)"/>
<path d="M0 0 C3.40237717 2.62910963 4.37173282 5.90230184 5 10 C5.94971043 23.14857714 5.94971043 23.14857714 2 29 C1.319375 30.1446875 1.319375 30.1446875 0.625 31.3125 C0.08875 32.199375 -0.4475 33.08625 -1 34 C-1.33644531 34.68191406 -1.67289063 35.36382812 -2.01953125 36.06640625 C-6.03882134 44.01088934 -11.64713243 49.64701892 -20 53 C-23.01198551 53.41277594 -25.96401676 53.42008886 -29 53.375 C-30.17175781 53.39240234 -30.17175781 53.39240234 -31.3671875 53.41015625 C-36.32472486 53.38511818 -39.65708821 52.63080233 -44 50 C-43.67 48.68 -43.34 47.36 -43 46 C-41.7625 46.165 -40.525 46.33 -39.25 46.5 C-29.28869342 47.5320977 -20.37335799 48.44457717 -12 42 C-9.94385784 39.48900021 -8.38221839 36.93175794 -7 34 C-7.804375 34.12375 -8.60875 34.2475 -9.4375 34.375 C-15.69605159 33.7162051 -20.2980759 29.82956841 -24.5 25.3125 C-27.23915229 21.08964023 -27.71746478 16.90950896 -27 12 C-24.82664624 9.30504134 -23.03439499 9.00908547 -19.6875 8.125 C-14.58809906 7.95213895 -11.08548254 9.05801397 -7.296875 12.5859375 C-4.40203677 15.80398582 -2.2722697 18.80151 -1 23 C0.89742084 19.83036212 1.16874876 17.89125567 0.6875 14.25 C0.58050781 13.37988281 0.47351563 12.50976562 0.36328125 11.61328125 C0.24339844 10.75089844 0.12351562 9.88851562 0 9 C-0.36977567 6.33326486 -0.70793894 3.67722637 -1 1 C-0.67 0.67 -0.34 0.34 0 0 Z M-21.75 14.25 C-23.21834979 15.90034444 -23.21834979 15.90034444 -22.81640625 17.88671875 C-21.77494309 20.58256358 -20.40314149 21.7250385 -18.1875 23.5625 C-17.50042969 24.14128906 -16.81335938 24.72007812 -16.10546875 25.31640625 C-15.06326172 26.14978516 -15.06326172 26.14978516 -14 27 C-13.33613281 27.56589844 -12.67226562 28.13179688 -11.98828125 28.71484375 C-9.834687 30.36189382 -9.834687 30.36189382 -6 30 C-6.33046152 23.72123104 -7.49432173 19.54343535 -12 15 C-15.32896625 13.17699467 -18.39659339 11.85470956 -21.75 14.25 Z " fill="#01D27D" transform="translate(256,235)"/>
<path d="M0 0 C-1.83047559 15.02637998 -3.80027048 30.02311817 -6 45 C-6.66 45 -7.32 45 -8 45 C-9.75186421 42.65809819 -11.38832653 40.31122481 -13 37.875 C-13.98426958 36.40921014 -14.9699781 34.94438562 -15.95703125 33.48046875 C-16.45928223 32.73458496 -16.9615332 31.98870117 -17.47900391 31.22021484 C-18.93500036 29.09488069 -20.4287122 27.00532006 -21.94921875 24.92578125 C-22.41005859 24.29494629 -22.87089844 23.66411133 -23.34570312 23.01416016 C-24.22586599 21.81594718 -25.11112632 20.62145844 -26.00195312 19.43115234 C-29 15.32901235 -29 15.32901235 -29 12 C-25.19351264 10.28628308 -21.38489706 8.57741719 -17.57421875 6.87304688 C-16.27772132 6.29235113 -14.98181873 5.71032542 -13.68652344 5.12695312 C-11.82641271 4.28947601 -9.96422706 3.45677862 -8.1015625 2.625 C-6.98088379 2.12226563 -5.86020508 1.61953125 -4.70556641 1.1015625 C-2 0 -2 0 0 0 Z " fill="#FC6559" transform="translate(318,384)"/>
<path d="M0 0 C3.5625 0.1875 3.5625 0.1875 5.5625 2.1875 C6.14453125 5.3203125 6.14453125 5.3203125 5.5625 9.1875 C3.48489375 12.19297663 0.91932378 14.58273344 -1.75 17.0625 C-2.48331543 17.76721436 -3.21663086 18.47192871 -3.97216797 19.19799805 C-9.56029405 24.51351767 -15.33095162 29.47502359 -21.4375 34.1875 C-22.61839287 35.12217704 -23.79800389 36.0584751 -24.9765625 36.99609375 C-31.30016376 42.01242002 -31.30016376 42.01242002 -33.74023438 43.88476562 C-34.92898952 44.79719333 -36.106551 45.724305 -37.27539062 46.66210938 C-39.109375 48.078125 -39.109375 48.078125 -42.4375 50.1875 C-44.64550781 49.81933594 -44.64550781 49.81933594 -46.4375 49.1875 C-45.90805354 45.22547562 -44.18760231 43.77105372 -41.1875 41.25 C-30.9836629 32.35996167 -21.81497535 22.82750518 -13.4375 12.1875 C-11.77475733 10.14263634 -10.10815262 8.10090634 -8.4375 6.0625 C-7.695 5.15242188 -6.9525 4.24234375 -6.1875 3.3046875 C-3.61912018 0.19740656 -3.61912018 0.19740656 0 0 Z " fill="#7878F7" transform="translate(465.4375,376.8125)"/>
<path d="M0 0 C0 1.32 0 2.64 0 4 C-6.69529436 6.53445944 -13.39948463 9.04446179 -20.10791016 11.54394531 C-22.83445844 12.56173786 -25.55749109 13.58842275 -28.27880859 14.62011719 C-31.98792049 16.0260424 -35.70225045 17.41737376 -39.41995239 18.80041504 C-40.88527759 19.34837832 -42.34874699 19.90133112 -43.81027222 20.45935059 C-45.88181549 21.24926864 -47.9593476 22.02096316 -50.0390625 22.7890625 C-51.23740723 23.23975098 -52.43575195 23.69043945 -53.67041016 24.15478516 C-57.27203619 25.06905626 -59.44499518 25.00861727 -63 24 C-65 22 -65 22 -65.3125 19.0625 C-65 16 -65 16 -63.94042969 14.42529297 C-61.10609398 12.34340421 -58.02111504 11.8275188 -54.640625 11.1328125 C-53.90720383 10.97279755 -53.17378265 10.81278259 -52.4181366 10.6479187 C-50.03090532 10.12966913 -47.64065971 9.62717356 -45.25 9.125 C-43.61314742 8.77313509 -41.97651021 8.42026681 -40.34008789 8.06640625 C-37.08156094 7.36326926 -33.82186524 6.66600777 -30.56103516 5.97363281 C-26.57129923 5.12493876 -22.58735978 4.25205217 -18.60546875 3.3671875 C-17.54618164 3.13241699 -16.48689453 2.89764648 -15.39550781 2.65576172 C-13.46886642 2.22864396 -11.54242355 1.80062939 -9.61621094 1.37158203 C-8.77219727 1.18708496 -7.92818359 1.00258789 -7.05859375 0.8125 C-6.33986084 0.65394531 -5.62112793 0.49539063 -4.88061523 0.33203125 C-3 0 -3 0 0 0 Z " fill="#00D67E" transform="translate(401,440)"/>
<path d="M0 0 C2.98945595 4.48418393 2.62259378 8.65341189 3 14 C7.62 14.99 12.24 15.98 17 17 C14.46930592 19.53069408 13.01985937 20.68376954 9.9375 22.1875 C9.24527344 22.53167969 8.55304688 22.87585938 7.83984375 23.23046875 C6 24 6 24 4 24 C4.495 31.92 4.495 31.92 5 40 C1.68908998 36.68908998 -1.17663266 33.65992062 -4 30 C-7.66172475 30.62678171 -10.8818995 31.64451846 -14.3125 33.0625 C-15.63701172 33.60583984 -15.63701172 33.60583984 -16.98828125 34.16015625 C-17.65214844 34.43730469 -18.31601562 34.71445312 -19 35 C-17.99143754 31.74156745 -16.91253474 28.83478785 -15.3125 25.8125 C-13.61354164 23.01313401 -13.61354164 23.01313401 -15 20 C-16.99665598 18.32932867 -18.99651034 16.66247014 -21 15 C-21 14.34 -21 13.68 -21 13 C-14.07 13.495 -14.07 13.495 -7 14 C-6.34 12.35 -5.68 10.7 -5 9 C-4.15106911 7.38188627 -3.27647368 5.77694044 -2.375 4.1875 C-1.92898438 3.39730469 -1.48296875 2.60710937 -1.0234375 1.79296875 C-0.68570312 1.20128906 -0.34796875 0.60960937 0 0 Z " fill="#7777F7" transform="translate(297,256)"/>
<path d="M0 0 C5.96423886 1.67557212 11.19172386 4.5957488 16.625 7.5 C18.49207089 8.48980333 20.35925409 9.47939483 22.2265625 10.46875 C23.04721191 10.90638672 23.86786133 11.34402344 24.71337891 11.79492188 C26.7956127 12.89228532 28.89040504 13.95640123 31 15 C27.5892322 18.76351335 23.47000528 20.27668485 18.875 22.25 C18.05773437 22.62640625 17.24046875 23.0028125 16.3984375 23.390625 C10.76063622 25.81702049 6.00236196 26.79552466 0 25 C-3.14622996 22.32570453 -4.80416253 19.41653178 -5.25 15.24609375 C-4.65557418 9.90554931 -2.12445143 4.88844359 0 0 Z " fill="#C07FFF" transform="translate(40,445)"/>
<path d="M0 0 C3.0625 1.1875 3.0625 1.1875 4.10624695 2.84635925 C6.80503861 9.20546213 8.85862984 15.66589537 10.76953125 22.30078125 C11.09918381 23.43275436 11.42883636 24.56472748 11.76847839 25.73100281 C12.45824115 28.1075564 13.1446581 30.4850834 13.82788086 32.86352539 C14.87777425 36.50963451 15.94515796 40.15032582 17.01367188 43.79101562 C17.68335619 46.10646321 18.35201252 48.42220842 19.01953125 50.73828125 C19.50061089 52.37111809 19.50061089 52.37111809 19.9914093 54.03694153 C20.27888535 55.04866928 20.56636139 56.06039703 20.86254883 57.1027832 C21.2474926 58.43440239 21.2474926 58.43440239 21.64021301 59.79292297 C22.08309198 62.30426677 21.87959397 63.79701822 21.0625 66.1875 C16.75243957 62.61711791 15.07614453 58.30996916 12.9453125 53.28515625 C12.56567352 52.41160995 12.18603455 51.53806366 11.79489136 50.63804626 C10.58348011 47.84580162 9.38510513 45.04819017 8.1875 42.25 C6.99742286 39.49241573 5.80467436 36.73600506 4.61077881 33.98007202 C3.83771951 32.19252168 3.06770697 30.40365043 2.30084229 28.61343384 C0.6465452 24.7642466 -1.02704108 20.94136796 -2.87988281 17.18310547 C-3.71664551 15.48178467 -3.71664551 15.48178467 -4.5703125 13.74609375 C-5.0564502 12.79919678 -5.54258789 11.8522998 -6.04345703 10.87670898 C-7.15351532 7.53774337 -6.94558596 5.53904703 -5.9375 2.1875 C-2.9375 0.1875 -2.9375 0.1875 0 0 Z " fill="#00D67D" transform="translate(385.9375,366.8125)"/>
<path d="M0 0 C5.39677053 1.00775076 10.74133304 2.16709841 16.07348633 3.47045898 C27.73197585 6.30694398 39.2458708 8.09429176 51.2578125 8.55859375 C54.35819288 9.05765783 55.78272246 9.79833709 58 12 C58.5 15 58.5 15 58 18 C56.34765625 19.71875 56.34765625 19.71875 54 21 C35.90669546 21.20301043 14.91334349 12.95667175 -1 5 C-0.67 3.35 -0.34 1.7 0 0 Z " fill="#00D67E" transform="translate(427,439)"/>
<path d="M0 0 C4.10229861 2.28578262 7.59221178 5.05998994 11.125 8.125 C12.28063079 9.11530637 13.43689061 10.10487913 14.59375 11.09375 C15.16738281 11.58488281 15.74101562 12.07601563 16.33203125 12.58203125 C18.73793292 14.62732939 21.17855401 16.62847512 23.625 18.625 C24.5015625 19.34429687 25.378125 20.06359375 26.28125 20.8046875 C28.20010527 22.35410799 30.13980711 23.87788174 32.09375 25.3828125 C33.0940625 26.16398437 34.094375 26.94515625 35.125 27.75 C36.49011719 28.79414063 36.49011719 28.79414063 37.8828125 29.859375 C40.29499152 32.29825711 40.81076194 33.61041236 41 37 C40 39.3125 40 39.3125 38 41 C34.875 41.875 34.875 41.875 31 41 C27.56599108 38.02344117 24.82115113 34.5502662 22 31 C20.5429409 29.20729692 19.08460905 27.41562753 17.625 25.625 C16.8928125 24.71878906 16.160625 23.81257813 15.40625 22.87890625 C12.29628844 19.15805938 9.03121044 15.59830366 5.71728516 12.05908203 C0.81547343 6.80573167 0.81547343 6.80573167 -1 4 C-0.6875 1.75 -0.6875 1.75 0 0 Z " fill="#7777F7" transform="translate(426,447)"/>
<path d="M0 0 C1.58748047 0.17595703 1.58748047 0.17595703 3.20703125 0.35546875 C4.39453125 2.54296875 4.39453125 2.54296875 5.20703125 5.35546875 C3.07745375 9.88566088 -0.27113182 13.14320212 -3.79296875 16.60546875 C-4.37256348 17.1782959 -4.9521582 17.75112305 -5.54931641 18.34130859 C-10.69751242 23.36823787 -16.08042201 27.97734894 -21.79296875 32.35546875 C-22.4159082 32.83886719 -23.03884766 33.32226562 -23.68066406 33.8203125 C-25.70799652 35.38746492 -27.74792816 36.93651458 -29.79296875 38.48046875 C-30.44056152 38.97885254 -31.0881543 39.47723633 -31.75537109 39.99072266 C-33.37712324 41.19387528 -35.08058818 42.2852309 -36.79296875 43.35546875 C-37.78296875 43.02546875 -38.77296875 42.69546875 -39.79296875 42.35546875 C-39.42097872 37.83844691 -36.18471152 35.6890699 -32.98046875 32.91796875 C-28.32796619 28.75201923 -23.8489299 24.50207472 -19.60546875 19.91796875 C-19.11369141 19.38800293 -18.62191406 18.85803711 -18.11523438 18.31201172 C-15.59171559 15.53128169 -13.25974664 12.6935766 -11.06640625 9.64453125 C-10.62965576 9.04181396 -10.19290527 8.43909668 -9.74291992 7.81811523 C-8.55171755 6.14315248 -7.39572781 4.44330715 -6.2421875 2.7421875 C-3.79296875 0.35546875 -3.79296875 0.35546875 0 0 Z " fill="#7878F7" transform="translate(125.79296875,22.64453125)"/>
<path d="M0 0 C-1 3 -1 3 -2.90887451 4.00614929 C-3.74428772 4.30149063 -4.57970093 4.59683197 -5.44042969 4.90112305 C-6.38521179 5.24124924 -7.3299939 5.58137543 -8.30340576 5.93180847 C-9.33250061 6.28817886 -10.36159546 6.64454926 -11.421875 7.01171875 C-13.00008026 7.57135063 -13.00008026 7.57135063 -14.61016846 8.14228821 C-16.84099196 8.93033447 -19.07387267 9.71257718 -21.30859375 10.48950195 C-24.72675163 11.67940694 -28.13706723 12.8899179 -31.546875 14.10351562 C-33.71310456 14.86582659 -35.8797581 15.62693402 -38.046875 16.38671875 C-39.06787292 16.74916183 -40.08887085 17.11160492 -41.14080811 17.48503113 C-42.57689423 17.98103569 -42.57689423 17.98103569 -44.04199219 18.48706055 C-44.88058777 18.78001511 -45.71918335 19.07296967 -46.58319092 19.37480164 C-49.19684917 20.05092242 -51.3126405 20.25486025 -54 20 C-56 18 -56 18 -56.4375 15.0625 C-56 12 -56 12 -54.13696289 10.46582031 C-49.69022543 8.38797677 -45.16095376 7.48323424 -40.37109375 6.484375 C-39.34444107 6.26428772 -38.31778839 6.04420044 -37.26002502 5.81744385 C-35.09496758 5.35585079 -32.92891631 4.89889792 -30.76196289 4.44628906 C-27.4430891 3.7511706 -24.12877367 3.03678953 -20.81445312 2.3203125 C-18.70857912 1.87383914 -16.60246678 1.42848811 -14.49609375 0.984375 C-13.50435654 0.76988708 -12.51261932 0.55539917 -11.49082947 0.33441162 C-10.10402733 0.04851166 -10.10402733 0.04851166 -8.68920898 -0.24316406 C-7.47272926 -0.49939545 -7.47272926 -0.49939545 -6.23167419 -0.76080322 C-3.87305343 -1.01360647 -2.24422082 -0.71957907 0 0 Z " fill="#00D67E" transform="translate(71,78)"/>
<path d="M0 0 C0.94875 0.04125 1.8975 0.0825 2.875 0.125 C5.80260931 6.29647199 8.0360493 12.44699495 9.890625 19.015625 C10.15131775 19.92326599 10.4120105 20.83090698 10.68060303 21.76605225 C11.22488257 23.66765371 11.76588189 25.5701969 12.30371094 27.47363281 C13.12748592 30.383782 13.96539186 33.28960635 14.8046875 36.1953125 C15.33418112 38.05184175 15.86285598 39.90860475 16.390625 41.765625 C16.64056213 42.63028381 16.89049927 43.49494263 17.14801025 44.38580322 C18.26837057 48.38473615 19.21543943 51.92624706 18.875 56.125 C15.875 55.125 15.875 55.125 14.25268555 52.09667969 C13.66142953 50.75149774 13.08193209 49.40111091 12.51171875 48.046875 C12.19725296 47.32445618 11.88278717 46.60203735 11.55879211 45.85772705 C10.54988068 43.53438907 9.55582476 41.20503887 8.5625 38.875 C7.58000265 36.59678736 6.59448314 34.31990431 5.60818481 32.04333496 C4.96147242 30.54784936 4.31748046 29.05118434 3.67623901 27.55334473 C2.19805483 24.11181262 0.69120805 20.69684231 -0.94287109 17.32617188 C-1.49152832 16.19244141 -2.04018555 15.05871094 -2.60546875 13.890625 C-3.09297607 12.91383789 -3.5804834 11.93705078 -4.08276367 10.93066406 C-5.25703374 7.76956975 -5.46687403 5.47105144 -5.125 2.125 C-3.125 0.125 -3.125 0.125 0 0 Z " fill="#00D67D" transform="translate(57.125,14.875)"/>
<path d="M0 0 C4.7817889 0.59620269 9.24174641 1.56714505 13.875 2.875 C22.37779386 5.1670212 30.99796181 6.08986669 39.74560547 6.96044922 C41.30625732 7.12311279 41.30625732 7.12311279 42.8984375 7.2890625 C43.83349121 7.37881348 44.76854492 7.46856445 45.73193359 7.56103516 C48 8 48 8 50 10 C50.3125 13 50.3125 13 50 16 C45.49918009 19.0005466 42.19528021 17.93735598 37 17 C27.05347736 14.87848881 17.3819088 11.98034183 7.875 8.375 C7.09898438 8.08608887 6.32296875 7.79717773 5.5234375 7.49951172 C3.64367436 6.75756716 1.81505451 5.88857657 0 5 C-0.33 4.01 -0.66 3.02 -1 2 C-0.67 1.34 -0.34 0.68 0 0 Z " fill="#00D67E" transform="translate(92,76)"/>
<path d="M0 0 C1.06041504 0.29277832 2.12083008 0.58555664 3.21337891 0.88720703 C4.37401855 1.22220215 5.5346582 1.55719727 6.73046875 1.90234375 C7.97489746 2.24378418 9.21932617 2.58522461 10.50146484 2.93701172 C13.80945383 3.84590563 17.10554634 4.79126339 20.39819336 5.75415039 C21.76241537 6.14974674 23.12871112 6.53825063 24.49682617 6.92016602 C26.5003336 7.48012612 28.49639329 8.06166228 30.4921875 8.6484375 C31.66740967 8.98544678 32.84263184 9.32245605 34.0534668 9.66967773 C36.73046875 10.90234375 36.73046875 10.90234375 37.62036133 13.04321289 C37.65669678 13.65672607 37.69303223 14.27023926 37.73046875 14.90234375 C29.0589468 15.22545182 20.74780877 14.16140499 12.18725586 12.9309082 C9.77568163 12.58738121 7.3618455 12.26499402 4.94726562 11.94335938 C3.40737215 11.72653452 1.86765117 11.5084802 0.328125 11.2890625 C-0.39060287 11.19517746 -1.10933075 11.10129242 -1.84983826 11.00456238 C-4.6919894 10.57975496 -6.87642355 10.17953197 -9.24829102 8.50708008 C-10.26953125 6.90234375 -10.26953125 6.90234375 -10.20703125 3.83984375 C-9.26953125 0.90234375 -9.26953125 0.90234375 -7.5402832 -0.34985352 C-4.56839986 -1.32855244 -3.00110143 -0.84801813 0 0 Z " fill="#FC6458" transform="translate(365.26953125,420.09765625)"/>
<path d="M0 0 C2.5 0.25 2.5 0.25 4.5 2.25 C4.31568796 8.65903225 1.62657003 13.746227 -1.125 19.4375 C-6.01010155 29.81856085 -9.93135083 40.35498498 -13.5 51.25 C-14.82 51.25 -16.14 51.25 -17.5 51.25 C-16.71860989 42.19225347 -14.677514 33.76244754 -12.125 25.0625 C-11.83294678 24.06605469 -11.54089355 23.06960938 -11.23999023 22.04296875 C-4.76910586 0.47691059 -4.76910586 0.47691059 0 0 Z " fill="#FC6458" transform="translate(427.5,373.75)"/>
<path d="M0 0 C0.625 2.875 0.625 2.875 1 6 C-1.40249986 8.40249986 -2.2620358 8.34614044 -5.56640625 8.67578125 C-6.51580078 8.77914795 -7.46519531 8.88251465 -8.44335938 8.98901367 C-9.47267578 9.09576416 -10.50199219 9.20251465 -11.5625 9.3125 C-24.54235202 10.77819124 -37.23684778 13.25689904 -50 16 C-50.33 14.68 -50.66 13.36 -51 12 C-38.9979328 6.87348888 -26.61417214 2.39642231 -13.75 0.0625 C-13.05962646 -0.06584229 -12.36925293 -0.19418457 -11.65795898 -0.32641602 C-7.52375914 -1.00486184 -4.08286518 -0.91927865 0 0 Z " fill="#FC6558" transform="translate(477,420)"/>
<path d="M0 0 C4.99620771 1.52058495 8.15053079 4.50879762 11.9375 7.9375 C18.23459394 13.52689662 24.70818558 18.80306905 31.3671875 23.953125 C34 26 34 26 35 27 C35.125 30.5 35.125 30.5 35 34 C34 35 34 35 31 35.6875 C28.08674241 35.63993661 27.09628497 35.08263001 24.8515625 33.15625 C22.46439706 30.50942797 20.2183792 27.78977991 18 25 C16.50070638 23.16608895 15.00071175 21.33275076 13.5 19.5 C12.7678125 18.5925 12.035625 17.685 11.28125 16.75 C8.23352999 13.07603615 5.00968665 9.57980378 1.75 6.09375 C0 4 0 4 -1 1 C-0.67 0.67 -0.34 0.34 0 0 Z " fill="#7777F7" transform="translate(91,83)"/>
<path d="M0 0 C0.99 0 1.98 0 3 0 C3.16777313 5.43109442 2.55917239 10.37921158 1.5390625 15.70703125 C1.38843353 16.51363693 1.23780457 17.32024261 1.08261108 18.15129089 C0.76464193 19.84356877 0.44343468 21.53524114 0.11914062 23.22631836 C-0.37647709 25.82023063 -0.85676377 28.41667764 -1.3359375 31.01367188 C-1.64752042 32.66163199 -1.95998908 34.30942494 -2.2734375 35.95703125 C-2.41623138 36.73407913 -2.55902527 37.51112701 -2.70614624 38.3117218 C-3.77044274 43.77044274 -3.77044274 43.77044274 -6 46 C-8.5625 46.1875 -8.5625 46.1875 -11 46 C-11.33 45.67 -11.66 45.34 -12 45 C-11.72213027 36.1863196 -9.24285691 28.15107164 -6.70703125 19.77416992 C-5.99291338 17.4140794 -5.29231648 15.05028223 -4.59375 12.68554688 C-4.14660149 11.18466677 -3.69871244 9.68400704 -3.25 8.18359375 C-3.03956055 7.47641708 -2.82912109 6.76924042 -2.61230469 6.04063416 C-1.11700163 1.11700163 -1.11700163 1.11700163 0 0 Z " fill="#00D67D" transform="translate(412,451)"/>
<path d="M0 0 C2.09555957 0.6148251 4.19700456 1.20585922 6.29931641 1.79711914 C7.63177417 2.18824719 8.96382192 2.58077535 10.29541016 2.97485352 C11.50245605 3.32459229 12.70950195 3.67433105 13.953125 4.03466797 C16.70947266 5.29907227 16.70947266 5.29907227 17.61035156 7.44433594 C17.64306152 8.05639893 17.67577148 8.66846191 17.70947266 9.29907227 C8.58127836 8.88087695 -0.47014811 8.02508452 -9.54052734 6.92407227 C-10.55252197 6.81023193 -11.5645166 6.6963916 -12.60717773 6.57910156 C-13.55971436 6.45833252 -14.51225098 6.33756348 -15.49365234 6.21313477 C-16.34604492 6.10952637 -17.1984375 6.00591797 -18.07666016 5.89916992 C-20.66496086 5.19757716 -21.72143807 4.46188841 -23.29052734 2.29907227 C-23.10302734 -0.82592773 -23.10302734 -0.82592773 -22.29052734 -3.70092773 C-16.22458249 -6.73390016 -6.26871963 -1.85357377 0 0 Z " fill="#FC6357" transform="translate(54.29052734375,63.700927734375)"/>
<path d="M0 0 C5.62010959 0.08704193 8.25419817 1.57133781 12.06211853 5.38233948 C12.63845535 5.98964401 13.21479218 6.59694855 13.80859375 7.22265625 C14.42017838 7.84273056 15.031763 8.46280487 15.66188049 9.10166931 C17.60168947 11.07492033 19.51953292 13.06803555 21.4375 15.0625 C22.75315871 16.40826976 24.07020228 17.75268712 25.38867188 19.09570312 C28.60869635 22.38168998 31.80918868 25.68564888 35 29 C34.505 30.485 34.505 30.485 34 32 C28.93734237 30.44225919 25.4788059 27.34845737 21.5 24 C20.08321372 22.82669568 18.66522637 21.65484029 17.24609375 20.484375 C16.5382373 19.89978516 15.83038086 19.31519531 15.10107422 18.71289062 C11.43041481 15.72040324 7.66757205 12.85104071 3.8984375 9.984375 C0.07510081 7.07510081 0.07510081 7.07510081 -1 6 C-1.125 3.5 -1.125 3.5 -1 1 C-0.67 0.67 -0.34 0.34 0 0 Z " fill="#7777F7" transform="translate(363,395)"/>
<path d="M0 0 C1.98 0 3.96 0 6 0 C7.85772335 6.04482001 5.71313187 9.48467769 2.9375 14.75 C-1.67182422 23.91724334 -5.01403869 33.19902112 -8 43 C-9.32 43 -10.64 43 -12 43 C-11.12259112 34.84614852 -9.35774118 27.12580324 -7.125 19.25 C-6.88056152 18.37577393 -6.63612305 17.50154785 -6.38427734 16.60083008 C-4.70699481 10.83060762 -2.58084779 5.42521545 0 0 Z " fill="#FC6358" transform="translate(90,21)"/>
<path d="M0 0 C0.66 0.66 1.32 1.32 2 2 C1.44444444 6.55555556 1.44444444 6.55555556 0 8 C-2.62516392 8.30758881 -5.24364808 8.57032925 -7.875 8.8125 C-15.62586713 9.58326977 -23.12857537 10.9303702 -30.71630859 12.67895508 C-34.55679582 13.55179308 -38.02911033 14.23777782 -42 14 C-42 12.68 -42 11.36 -42 10 C-38.04466349 8.69903332 -34.08523694 7.41096458 -30.125 6.125 C-28.46210937 5.57779297 -28.46210937 5.57779297 -26.765625 5.01953125 C-8.94634789 -0.74552899 -8.94634789 -0.74552899 0 0 Z " fill="#FC6458" transform="translate(134,59)"/>
<path d="M0 0 C1.32 0.33 2.64 0.66 4 1 C0.80596867 6.92492812 -2.97582359 12.23698138 -7 17.625 C-7.61617188 18.45773437 -8.23234375 19.29046875 -8.8671875 20.1484375 C-10.5678005 22.44025073 -12.28213607 24.72110809 -14 27 C-14.74894531 28.010625 -15.49789063 29.02125 -16.26953125 30.0625 C-18 32 -18 32 -20.6875 32.375 C-23 32 -23 32 -24 31 C-24.37475586 28.28417969 -24.37475586 28.28417969 -24 25 C-22.38185915 22.86811875 -20.93350945 21.2511003 -19.00390625 19.453125 C-18.49576889 18.955849 -17.98763153 18.458573 -17.46409607 17.94622803 C-15.8438278 16.36603487 -14.20428029 14.80780238 -12.5625 13.25 C-10.92883394 11.67374405 -9.29936355 10.09329031 -7.6716156 8.51092529 C-6.65878624 7.52922123 -5.64170036 6.55188591 -4.62001038 5.57940674 C-1.96016177 3.0608685 -1.96016177 3.0608685 0 0 Z " fill="#7777F7" transform="translate(403,450)"/>
<path d="M0 0 C0.99 0 1.98 0 3 0 C4.70607707 3.95885075 6.396001 7.92411448 8.07202148 11.89575195 C8.64294741 13.24262178 9.21805714 14.58772682 9.79760742 15.9309082 C15.87089926 30.02157407 15.87089926 30.02157407 16 38 C15 39 15 39 12.4375 39.0625 C11.633125 39.041875 10.82875 39.02125 10 39 C6.89281214 32.69001851 5.38913487 26.07093247 3.78295898 19.24658203 C3.30999321 17.23936144 2.82663354 15.2348515 2.34179688 13.23046875 C0 3.41389592 0 3.41389592 0 0 Z " fill="#FC6458" transform="translate(419,456)"/>
<path d="M0 0 C4.81290853 0.3050435 7.08683608 2.50561891 10.5 5.75 C11.00756836 6.22864502 11.51513672 6.70729004 12.03808594 7.20043945 C18.14943979 13.00548078 24.08345853 18.99757325 30 25 C29.67 25.99 29.34 26.98 29 28 C23.61282124 26.42741133 19.87371535 22.81398985 15.6875 19.25 C14.23455605 18.02428142 12.78013518 16.80031135 11.32421875 15.578125 C10.61442871 14.97677734 9.90463867 14.37542969 9.17333984 13.75585938 C6.38522778 11.5033204 3.44528332 9.50438242 0.44458008 7.54589844 C-1 6 -1 6 -1.27856445 3.38378906 C-1 1 -1 1 0 0 Z " fill="#7676F7" transform="translate(38,38)"/>
<path d="M0 0 C0.34765625 2.1171875 0.34765625 2.1171875 0 5 C-1.79106579 7.27734166 -3.48323497 9.14483288 -5.5625 11.125 C-6.42367432 11.96345459 -6.42367432 11.96345459 -7.30224609 12.81884766 C-11.67812764 16.97622881 -16.29152111 20.76336487 -21.125 24.375 C-21.76381104 24.85727051 -22.40262207 25.33954102 -23.06079102 25.83642578 C-24.8828125 27.1484375 -24.8828125 27.1484375 -28 29 C-28.99 28.67 -29.98 28.34 -31 28 C-27.88947443 24.26736931 -24.76342601 20.7313216 -21.25 17.375 C-17.14145613 13.3537032 -13.73459431 8.91623745 -10.32519531 4.30419922 C-6.81931904 -0.40620996 -5.73900973 -1.35923915 0 0 Z " fill="#7777F7" transform="translate(489,21)"/>
<path d="M0 0 C0.99 0.33 1.98 0.66 3 1 C2.21009979 5.45864814 1.41775636 9.91685887 0.625 14.375 C0.40328125 15.62667969 0.1815625 16.87835938 -0.046875 18.16796875 C-1.03772967 23.73424056 -2.03539032 29.29915933 -3.1015625 34.8515625 C-3.25189941 35.63611816 -3.40223633 36.42067383 -3.55712891 37.22900391 C-4 39 -4 39 -5 40 C-7.5 40.125 -7.5 40.125 -10 40 C-10.33 39.67 -10.66 39.34 -11 39 C-10.62701534 31.60557908 -8.28917745 24.6663862 -6.13427734 17.6340332 C-5.49474488 15.54533693 -4.86580952 13.45365877 -4.23828125 11.36132812 C-1.14778474 1.14778474 -1.14778474 1.14778474 0 0 Z " fill="#00D67D" transform="translate(80,86)"/>
<path d="M0 0 C0 0.99 0 1.98 0 3 C-8.5796269 6.37543144 -17.16490933 9.73945372 -25.8125 12.9375 C-26.89144531 13.33839844 -27.97039062 13.73929688 -29.08203125 14.15234375 C-31.91195571 14.97442355 -34.07511466 15.25730589 -37 15 C-38 14 -38 14 -38.0625 11.4375 C-38.041875 10.633125 -38.02125 9.82875 -38 9 C-30.74212073 5.95607834 -23.31452479 4.40628584 -15.625 2.8125 C-13.70107422 2.40354492 -13.70107422 2.40354492 -11.73828125 1.98632812 C-2.30944549 0 -2.30944549 0 0 0 Z " fill="#00D67D" transform="translate(448,57)"/>
<path d="M0 0 C1.65 0 3.3 0 5 0 C8.10656929 7.32554348 10.54890866 14.73258414 12.75 22.375 C13.06582031 23.44105469 13.38164062 24.50710937 13.70703125 25.60546875 C14.15369141 27.14267578 14.15369141 27.14267578 14.609375 28.7109375 C14.87717773 29.63181152 15.14498047 30.55268555 15.42089844 31.50146484 C16 34 16 34 16 38 C13 37 13 37 11.35839844 34.02832031 C10.76346683 32.71693286 10.18129068 31.39971235 9.609375 30.078125 C9.30050354 29.38112488 8.99163208 28.68412476 8.67340088 27.96600342 C8.02264485 26.48881324 7.3774202 25.00917585 6.73730469 23.52734375 C5.75658832 21.26519679 4.75076901 19.01546176 3.7421875 16.765625 C3.11302578 15.32880602 2.48537158 13.89132579 1.859375 12.453125 C1.40640045 11.44659882 1.40640045 11.44659882 0.9442749 10.41973877 C-0.69857754 6.55324723 -1.34744207 4.03844868 0 0 Z " fill="#00D67D" transform="translate(436,15)"/>
<path d="M0 0 C5.3457431 0.61910611 10.59617871 1.44877248 15.875 2.5 C21.33550878 3.56419065 26.71953381 4.39936631 32.27734375 4.7890625 C34 5 34 5 35 6 C35.125 8.5 35.125 8.5 35 11 C34 12 34 12 30.9921875 12.203125 C26.42953943 11.97097461 22.49061139 11.0226508 18.125 9.75 C16.93898193 9.41319214 16.93898193 9.41319214 15.72900391 9.06958008 C10.24657196 7.47162005 5.11660477 5.55830238 0 3 C0 2.01 0 1.02 0 0 Z " fill="#00D67E" transform="translate(462,57)"/>
<path d="M0 0 C0.66 0.33 1.32 0.66 2 1 C1.37923187 4.46374887 0.04539763 6.6061365 -2.0546875 9.40625 C-2.66957031 10.23253906 -3.28445312 11.05882813 -3.91796875 11.91015625 C-4.56378906 12.76480469 -5.20960937 13.61945313 -5.875 14.5 C-6.51308594 15.35464844 -7.15117188 16.20929688 -7.80859375 17.08984375 C-9.53319733 19.39771618 -11.26530912 21.69970624 -13 24 C-14.00036612 25.33305866 -15.0004834 26.66630425 -16 28 C-17.65 27.67 -19.3 27.34 -21 27 C-21.65625 25.20703125 -21.65625 25.20703125 -22 23 C-21.09375 21.38671875 -21.09375 21.38671875 -19.5 19.6875 C-18.86964844 19.01074219 -18.23929688 18.33398438 -17.58984375 17.63671875 C-11.77110505 11.71266351 -5.90854999 5.83447945 0 0 Z " fill="#7676F7" transform="translate(73,85)"/>
<path d="M0 0 C3 1 3 1 4.36621094 3.62036133 C4.81770508 4.7627124 5.26919922 5.90506348 5.734375 7.08203125 C5.97665833 7.69261887 6.21894165 8.30320648 6.46856689 8.93229675 C6.97825151 10.225557 7.48224075 11.52107412 7.98095703 12.81860352 C8.74546743 14.80074841 9.53334961 16.77238805 10.32421875 18.74414062 C10.81654255 20.00204215 11.30747445 21.26048952 11.796875 22.51953125 C12.24385742 23.66526611 12.69083984 24.81100098 13.15136719 25.99145508 C13.98264995 28.93849118 14.11655212 30.2073373 13 33 C10.525 33.495 10.525 33.495 8 34 C5.54619282 27.86188409 3.81711466 21.74461403 2.3125 15.3125 C2.08755859 14.38888672 1.86261719 13.46527344 1.63085938 12.51367188 C1.41880859 11.61841797 1.20675781 10.72316406 0.98828125 9.80078125 C0.79790283 8.99809814 0.60752441 8.19541504 0.41137695 7.3684082 C-0.02292971 4.86798748 -0.07111314 2.53280827 0 0 Z " fill="#FC6357" transform="translate(86,90)"/>
<path d="M0 0 C3.0994973 0.58773407 4.88460517 1.4651723 7.2421875 3.546875 C7.83386719 4.0625 8.42554688 4.578125 9.03515625 5.109375 C9.64230469 5.65078125 10.24945313 6.1921875 10.875 6.75 C12.08041271 7.80765244 13.28613907 8.86494753 14.4921875 9.921875 C15.36762207 10.69821289 15.36762207 10.69821289 16.26074219 11.49023438 C17.93398999 12.9426999 19.64986123 14.32297157 21.3828125 15.703125 C24 18 24 18 25 21 C24.34 21.99 23.68 22.98 23 24 C18.52878355 23.75387799 16.53564607 21.89564501 13.59667969 18.64404297 C13.09040039 18.06025879 12.58412109 17.47647461 12.0625 16.875 C11.27407715 15.98965576 11.27407715 15.98965576 10.46972656 15.08642578 C9.43524536 13.92143191 8.40561162 12.75211197 7.38134766 11.578125 C6.23319835 10.2664182 5.06268651 8.97432609 3.88671875 7.6875 C0 3.38335322 0 3.38335322 0 0 Z " fill="#7676F7" transform="translate(462,62)"/>
<path d="M0 0 C0.38218767 1.65614657 0.71395102 3.32457024 1 5 C-0.99260442 6.99260442 -4.75767817 6.63576778 -7.5 6.9375 C-12.12117378 7.47285804 -16.65613486 8.04024196 -21.1875 9.125 C-24.31988826 9.84390878 -26.81878543 10.20523965 -30 10 C-29 7 -29 7 -27.31347656 6.12451172 C-26.59643555 5.89521973 -25.87939453 5.66592773 -25.140625 5.4296875 C-24.35429687 5.17316406 -23.56796875 4.91664062 -22.7578125 4.65234375 C-21.93023437 4.39582031 -21.10265625 4.13929687 -20.25 3.875 C-19.43789063 3.61074219 -18.62578125 3.34648438 -17.7890625 3.07421875 C-11.74057641 1.13358071 -6.39887273 -0.14881099 0 0 Z " fill="#FC6558" transform="translate(492,45)"/>
<path d="M0 0 C0 0.99 0 1.98 0 3 C-25.61702128 1.38297872 -25.61702128 1.38297872 -28 -1 C-28.04063832 -2.66617115 -28.042721 -4.33388095 -28 -6 C-21.08951511 -9.45524244 -7.06229774 -2.29568487 0 0 Z " fill="#FC6558" transform="translate(449,52)"/>
<path d="M0 0 C1.2065625 0.0309375 1.2065625 0.0309375 2.4375 0.0625 C1.90569305 5.65740054 0.38175399 9.99824102 -2 15.0625 C-4.29898685 20.01124695 -6.19184518 24.77273668 -7.5625 30.0625 C-8.5525 30.0625 -9.5425 30.0625 -10.5625 30.0625 C-7.13350976 0.17398804 -7.13350976 0.17398804 0 0 Z " fill="#FC6559" transform="translate(463.5625,18.9375)"/>
<path d="M0 0 C4.53377841 0.49297769 6.65472116 2.09141948 9.9375 5.1875 C10.79988281 5.99832031 11.66226562 6.80914062 12.55078125 7.64453125 C13.35902344 8.42183594 14.16726563 9.19914062 15 10 C15.98033203 10.90298828 15.98033203 10.90298828 16.98046875 11.82421875 C18.38607969 13.14969985 19.70379228 14.56734937 21 16 C21 16.99 21 17.98 21 19 C15.72626793 17.39811688 11.89597127 14.03991681 7.6875 10.625 C6.57665039 9.75875 6.57665039 9.75875 5.44335938 8.875 C4.74404297 8.31039062 4.04472656 7.74578125 3.32421875 7.1640625 C2.68572998 6.65311035 2.04724121 6.1421582 1.3894043 5.61572266 C0 4 0 4 0 0 Z " fill="#7575F7" transform="translate(425,31)"/>
<path d="M0 0 C0.66 0 1.32 0 2 0 C2.25668426 5.91175936 1.2956568 11.18145712 0 16.9375 C-0.19078125 17.81212891 -0.3815625 18.68675781 -0.578125 19.58789062 C-1.04563934 21.72676873 -1.51971817 23.86395935 -2 26 C-3.65 26.33 -5.3 26.66 -7 27 C-6.4135419 21.12209036 -5.23153557 15.76485872 -3.5 10.125 C-3.27441406 9.36703125 -3.04882812 8.6090625 -2.81640625 7.828125 C-1.16012137 2.32024275 -1.16012137 2.32024275 0 0 Z " fill="#00D67D" transform="translate(454,64)"/>
<path d="M0 0 C-0.92388876 4.482821 -3.1402777 7.50296433 -5.75 11.1875 C-6.18054688 11.82880859 -6.61109375 12.47011719 -7.0546875 13.13085938 C-10.3359823 17.78263509 -10.3359823 17.78263509 -13.828125 18.92578125 C-14.54484375 18.95027344 -15.2615625 18.97476563 -16 19 C-15.47264472 15.0482598 -14.51359469 12.97825122 -11.8125 10.0625 C-11.18601562 9.38316406 -10.55953125 8.70382813 -9.9140625 8.00390625 C-9.28242188 7.34261719 -8.65078125 6.68132812 -8 6 C-7.43023437 5.39027344 -6.86046875 4.78054687 -6.2734375 4.15234375 C-2.28797281 0 -2.28797281 0 0 0 Z " fill="#7676F7" transform="translate(451,63)"/>
<path d="M0 0 C0.99 0 1.98 0 3 0 C4.20866585 2.88744312 5.38802937 5.78599827 6.5625 8.6875 C6.90474609 9.50412109 7.24699219 10.32074219 7.59960938 11.16210938 C10.61142744 18.67644333 10.61142744 18.67644333 9 23 C7.68 22.67 6.36 22.34 5 22 C4.16285091 18.70929159 3.33093104 15.41728353 2.5 12.125 C2.14228516 10.71927734 2.14228516 10.71927734 1.77734375 9.28515625 C1.55175781 8.38925781 1.32617188 7.49335937 1.09375 6.5703125 C0.88427734 5.74289551 0.67480469 4.91547852 0.45898438 4.06298828 C0 2 0 2 0 0 Z " fill="#FC6559" transform="translate(458,67)"/>
<path d="M0 0 C4.94515667 2.62711448 8.87775489 6.26645294 13 10 C11.26171875 10.69921875 11.26171875 10.69921875 9 11 C6.89453125 9.70703125 6.89453125 9.70703125 4.8125 7.8125 C4.11769531 7.20019531 3.42289063 6.58789062 2.70703125 5.95703125 C0.923991 3.91285924 0.39351528 2.64888641 0 0 Z " fill="#454F4B" transform="translate(233,254)"/>
</svg>
