<?xml version="1.0" encoding="UTF-8"?>
<svg version="1.1" xmlns="http://www.w3.org/2000/svg" width="512" height="512">
<path d="M0 0 C13.91763213 9.00471829 26.45809341 19.72787092 38.59912109 30.96728516 C39.24018799 31.56057617 39.88125488 32.15386719 40.54174805 32.76513672 C44.45195919 36.43797698 47.97859992 40.18731845 51.03662109 44.61962891 C53.31648797 46.18703739 54.90184133 45.73066914 57.54281616 45.29606628 C62.10810775 44.2155324 66.4218958 42.39108901 70.77490234 40.66650391 C71.82888718 40.25568069 72.88287201 39.84485748 73.96879578 39.42158508 C77.32752021 38.11047361 80.68206177 36.78901189 84.03662109 35.46728516 C86.28049709 34.58965513 88.52463527 33.71269515 90.76904297 32.83642578 C94.9149333 31.21572457 99.05968402 29.59221805 103.2019043 27.9621582 C104.12129791 27.60108978 105.04069153 27.24002136 105.98794556 26.86801147 C107.84838047 26.12808298 109.703552 25.37481118 111.55380249 24.60977173 C112.44427277 24.24282196 113.33474304 23.87587219 114.25219727 23.49780273 C115.04220627 23.16726395 115.83221527 22.83672516 116.64616394 22.49617004 C118.72412109 21.77978516 118.72412109 21.77978516 121.72412109 21.77978516 C121.64162109 20.52166016 121.55912109 19.26353516 121.47412109 17.96728516 C121.50978425 10.41858389 123.81431588 3.37646175 128.97412109 -2.22021484 C133.05436397 -5.83936417 137.25251791 -8.06725149 142.76318359 -8.31005859 C148.61233169 -7.86967872 153.46927164 -5.69795746 157.42333984 -1.35302734 C162.96877651 5.7633926 165.26922696 12.54135141 164.47802734 21.59619141 C163.16209261 30.15558992 159.94486977 35.03344831 153.40771484 40.58056641 C149.98127274 43.02121078 146.78637882 42.91474167 142.72412109 42.90478516 C141.67224609 42.90736328 140.62037109 42.90994141 139.53662109 42.91259766 C136.72412109 42.77978516 136.72412109 42.77978516 133.72412109 41.77978516 C133.45188721 42.66158447 133.17965332 43.54338379 132.89916992 44.4519043 C131.80534964 47.54973607 130.54062053 50.17510144 128.92333984 53.02587891 C128.36445068 54.0170874 127.80556152 55.0082959 127.22973633 56.02954102 C126.32976929 57.60747437 126.32976929 57.60747437 125.41162109 59.21728516 C124.79295166 60.31242432 124.17428223 61.40756348 123.53686523 62.53588867 C121.60477755 65.95366908 119.66546335 69.36725417 117.72412109 72.77978516 C115.92776691 75.94000277 114.13198888 79.10053668 112.33862305 82.26245117 C111.25406657 84.17341158 110.16684267 86.08286164 109.07641602 87.99047852 C108.08616905 89.73232214 107.11175028 91.48328287 106.15527344 93.24389648 C104.72412109 95.77978516 104.72412109 95.77978516 103.015625 98.2746582 C101.39387935 100.8400246 100.31931581 102.79921771 99.72412109 105.77978516 C101.07262287 110.01037127 103.55580328 113.2088912 106.22412109 116.71728516 C107.65650797 118.74441151 109.0848486 120.77440261 110.50927734 122.80712891 C111.22744629 123.81114746 111.94561523 124.81516602 112.68554688 125.84960938 C115.59052561 130.02512492 118.15608039 134.35626009 120.66162109 138.77978516 C121.10417236 139.55837891 121.54672363 140.33697266 122.00268555 141.13916016 C122.85319722 142.64493171 123.69995028 144.15283399 124.54248047 145.66308594 C125.30084982 147.02156988 126.06470935 148.37701174 126.83544922 149.72851562 C138.26888908 169.7791475 147.07009414 192.7552396 149.72412109 215.77978516 C149.83369141 216.66150391 149.94326172 217.54322266 150.05615234 218.45166016 C152.56414837 241.59210346 152.56414837 241.59210346 147.72412109 248.77978516 C140.85635029 256.40558806 133.61642441 258.3558848 123.59399414 258.89419556 C121.33497367 258.95962956 119.07773269 258.99610757 116.81787109 259.01806641 C115.98377716 259.02781494 115.14968323 259.03756348 114.29031372 259.04760742 C91.14833421 259.26241955 69.72933635 257.86483758 47.4296875 251.17944336 C45.54996365 250.63047713 43.63820941 250.19329644 41.72412109 249.77978516 C41.06412109 250.43978516 40.40412109 251.09978516 39.72412109 251.77978516 C32.94548215 251.58264353 27.66434105 249.27826268 21.59912109 246.40478516 C20.2978125 245.80537109 20.2978125 245.80537109 18.97021484 245.19384766 C14.51523602 243.13248759 10.10010755 241.00364713 5.72412109 238.77978516 C9.08666911 252.68006912 12.70877443 266.39108325 17.41162109 279.90478516 C17.96354126 281.49202393 17.96354126 281.49202393 18.52661133 283.11132812 C20.45555542 288.53982244 22.54360528 293.82111524 25.00073242 299.03320312 C25.72412109 300.77978516 25.72412109 300.77978516 25.72412109 302.77978516 C27.51849609 302.68697266 27.51849609 302.68697266 29.34912109 302.59228516 C34.83904423 302.62138369 38.15099457 304.2480567 42.09912109 308.09228516 C45.1562426 313.15764129 44.45673802 320.13665476 43.72412109 325.77978516 C41.8450731 329.93060822 39.61569368 332.42259697 35.72412109 334.77978516 C31.83800267 335.38919713 27.9794748 335.33624959 24.05249023 335.31323242 C22.87146225 335.32184799 21.69043427 335.33046356 20.47361755 335.33934021 C17.24200132 335.35813188 14.01103234 335.35890195 10.77939153 335.35001874 C8.07812073 335.34490088 5.37694146 335.3522079 2.6756801 335.35949081 C-3.69879823 335.3764804 -10.07303713 335.37293396 -16.44750977 335.35620117 C-23.01595497 335.33928176 -29.58373552 335.35511318 -36.15210813 335.38742405 C-41.79901502 335.41414605 -47.44571534 335.42138898 -53.09267908 335.41290897 C-56.46207689 335.40798706 -59.8310749 335.41015452 -63.20042229 335.43069649 C-66.95905943 335.44810604 -70.71627375 335.43362644 -74.47485352 335.41088867 C-75.58621674 335.42258087 -76.69757996 335.43427307 -77.84262085 335.44631958 C-86.255389 335.34271883 -86.255389 335.34271883 -89.92897034 332.39292908 C-94.59967016 327.192381 -94.71258031 322.42978084 -94.59619141 315.66259766 C-94.05060405 310.75231147 -91.81381126 308.13130147 -88.21337891 304.96728516 C-83.98205448 302.37389277 -79.87414591 302.66294894 -75.08837891 302.71728516 C-74.33878906 302.72179687 -73.58919922 302.72630859 -72.81689453 302.73095703 C-70.96985508 302.74272161 -69.12285677 302.7606565 -67.27587891 302.77978516 C-67.17355957 302.20800537 -67.07124023 301.63622559 -66.96582031 301.04711914 C-65.60896061 293.84746998 -63.6681982 286.88073703 -61.65087891 279.84228516 C-57.51430441 265.08364294 -53.88584435 250.23525063 -50.67855835 235.24705505 C-49.91505796 231.68211015 -49.12963726 228.12613401 -48.28027344 224.58056641 C-44.1530127 210.3047389 -44.1530127 210.3047389 -45.74462891 196.17431641 C-47.89956577 193.86195721 -50.10049252 192.0308198 -52.64208984 190.16552734 C-55.94393893 187.36497513 -58.29417894 183.73474813 -60.77587891 180.21728516 C-61.32566406 179.44900391 -61.87544922 178.68072266 -62.44189453 177.88916016 C-68.07355984 169.88381774 -72.81108294 161.47879119 -77.27587891 152.77978516 C-77.5975 152.16635254 -77.91912109 151.55291992 -78.25048828 150.92089844 C-93.82170132 120.96540384 -105.96802916 74.6326155 -96.48681641 40.97900391 C-95.27587891 38.77978516 -95.27587891 38.77978516 -93.15087891 37.96728516 C-92.53212891 37.90541016 -91.91337891 37.84353516 -91.27587891 37.77978516 C-91.21400391 36.52166016 -91.15212891 35.26353516 -91.08837891 33.96728516 C-89.34493299 16.84761488 -83.95132386 -5.92310814 -70.27587891 -17.22021484 C-50.03336937 -31.70081155 -17.62757911 -11.1611594 0 0 Z M101.89526367 49.15673828 C101.13470169 49.45704956 100.37413971 49.75736084 99.5905304 50.06677246 C98.36695076 50.5589325 98.36695076 50.5589325 97.11865234 51.06103516 C96.27944748 51.39397583 95.44024261 51.7269165 94.5756073 52.06994629 C91.89401084 53.13510319 89.21531343 54.20734855 86.53662109 55.27978516 C84.71975016 56.00290982 82.90269504 56.72557187 81.08544922 57.44775391 C76.62951759 59.2197355 72.17617311 60.99807982 67.72412109 62.77978516 C70.12950868 66.42473071 72.58018501 70.01113082 75.17724609 73.52197266 C75.79599609 74.35986328 76.41474609 75.19775391 77.05224609 76.06103516 C77.68646484 76.91697266 78.32068359 77.77291016 78.97412109 78.65478516 C79.94865234 79.97349609 79.94865234 79.97349609 80.94287109 81.31884766 C82.53537889 83.47341703 84.1291589 85.62703243 85.72412109 87.77978516 C88.09336803 84.76619536 90.00440911 81.65464538 91.86865234 78.30712891 C92.46355469 77.24171875 93.05845703 76.17630859 93.67138672 75.07861328 C94.28691406 73.969375 94.90244141 72.86013672 95.53662109 71.71728516 C96.14054687 70.63511719 96.74447266 69.55294922 97.36669922 68.43798828 C101.19222812 61.57344934 104.97359238 54.6855617 108.72412109 47.77978516 C105.83698344 47.77978516 104.50679973 48.11559434 101.89526367 49.15673828 Z " fill="#FE5E6D" transform="translate(164.27587890625,147.22021484375)"/>
<path d="M0 0 C4.29358567 3.61051522 8.41871966 7.33785989 12.5 11.1875 C16.92218959 15.29281519 21.51316533 19.05178387 26.375 22.625 C27.31255127 23.32036865 27.31255127 23.32036865 28.26904297 24.02978516 C31.38053294 26.28695276 34.46675162 28.30614295 37.890625 30.05859375 C43.0240303 32.7510827 47.59118241 35.17624877 49.7734375 40.859375 C50.9409753 44.69409187 51.72820912 48.59455041 52.48583984 52.52783203 C53.34823629 56.67437831 54.5788114 60.70120728 55.8125 64.75 C56.17843262 65.97481079 56.17843262 65.97481079 56.55175781 67.22436523 C59.38082656 76.539878 62.78553076 85.64439177 66.18164062 94.76464844 C67.17977748 97.49106284 68.10655715 100.23762059 69 103 C70.19625 102.938125 71.3925 102.87625 72.625 102.8125 C78.11492314 102.84159853 81.42687347 104.46827154 85.375 108.3125 C88.4321215 113.37785613 87.73261693 120.3568696 87 126 C85.12095201 130.15082306 82.89157259 132.64281182 79 135 C75.11388158 135.60941197 71.2553537 135.55646443 67.32836914 135.53344727 C66.14734116 135.54206284 64.96631317 135.55067841 63.74949646 135.55955505 C60.51788023 135.57834672 57.28691125 135.57911679 54.05527043 135.57023358 C51.35399964 135.56511572 48.65282037 135.57242274 45.95155901 135.57970566 C39.57708068 135.59669524 33.20284178 135.59314881 26.82836914 135.57641602 C20.25992393 135.5594966 13.69214339 135.57532802 7.12377077 135.6076389 C1.47686389 135.63436089 -4.16983643 135.64160382 -9.81680018 135.63312382 C-13.18619798 135.6282019 -16.55519599 135.63036937 -19.92454338 135.65091133 C-23.68318053 135.66832088 -27.44039484 135.65384128 -31.19897461 135.63110352 C-32.31033783 135.64279572 -33.42170105 135.65448792 -34.56674194 135.66653442 C-42.9795101 135.56293368 -42.9795101 135.56293368 -46.65309143 132.61314392 C-51.32379125 127.41259584 -51.4367014 122.64999569 -51.3203125 115.8828125 C-50.77472515 110.97252631 -48.53793235 108.35151631 -44.9375 105.1875 C-40.70617558 102.59410761 -36.598267 102.88316378 -31.8125 102.9375 C-31.06291016 102.94201172 -30.31332031 102.94652344 -29.54101562 102.95117188 C-27.69397617 102.96293646 -25.84697787 102.98087135 -24 103 C-23.89768066 102.42822021 -23.79536133 101.85644043 -23.68994141 101.26733398 C-22.33308685 94.06771218 -20.39257317 87.10086321 -18.375 80.0625 C-11.36027365 55.06415479 -5.81518731 29.74107333 -1.44555664 4.15014648 C-1 2 -1 2 0 0 Z " fill="#5BD8C2" transform="translate(121,347)"/>
<path d="M0 0 C5.8361112 4.7836977 9.25830114 11.13025266 10.41796875 18.4921875 C11.03593953 25.22245103 10.05225152 31.6498917 6.98046875 37.6796875 C3.44546728 41.78793245 -0.11987857 45.62980327 -5.33203125 47.3671875 C-7.33023853 47.46154729 -9.33160328 47.49709051 -11.33203125 47.4921875 C-12.38390625 47.49476563 -13.43578125 47.49734375 -14.51953125 47.5 C-17.33203125 47.3671875 -17.33203125 47.3671875 -20.33203125 46.3671875 C-20.60426514 47.24898682 -20.87649902 48.13078613 -21.15698242 49.03930664 C-22.25080271 52.13713841 -23.51553181 54.76250378 -25.1328125 57.61328125 C-25.69162109 58.60448975 -26.25042969 59.59569824 -26.82617188 60.61694336 C-27.42623047 61.66889893 -28.02628906 62.72085449 -28.64453125 63.8046875 C-29.26392578 64.89982666 -29.88332031 65.99496582 -30.52148438 67.12329102 C-31.81249717 69.40500868 -33.10565736 71.68551256 -34.40087891 73.96484375 C-36.25419856 77.23006026 -38.09776803 80.50054976 -39.9375 83.7734375 C-41.0688719 85.78393212 -42.20037664 87.794352 -43.33203125 89.8046875 C-43.84677002 90.71984131 -44.36150879 91.63499512 -44.8918457 92.57788086 C-49.49743551 100.73175773 -54.31870017 108.735637 -59.2578125 116.69140625 C-63.20051581 123.08788789 -66.89410606 129.59934271 -70.51953125 136.1796875 C-71.15737549 137.32880615 -71.79521973 138.4779248 -72.45239258 139.66186523 C-75.70970987 145.53914923 -78.91397392 151.44026813 -82.05078125 157.3828125 C-82.63577393 158.48520264 -83.2207666 159.58759277 -83.82348633 160.72338867 C-84.93242129 162.81978177 -86.03164971 164.92134573 -87.11987305 167.02856445 C-87.61656494 167.96659912 -88.11325684 168.90463379 -88.625 169.87109375 C-89.26731567 171.10581421 -89.26731567 171.10581421 -89.92260742 172.36547852 C-91.50797774 174.61707236 -92.79715651 175.37169395 -95.33203125 176.3671875 C-96.60603502 175.12041897 -97.87609779 173.8696227 -99.14453125 172.6171875 C-99.85222656 171.92109375 -100.55992187 171.225 -101.2890625 170.5078125 C-105.0960729 166.51882264 -105.0960729 166.51882264 -106.33203125 164.3671875 C-105.89116949 160.59664886 -104.66137404 157.74558301 -102.84765625 154.4375 C-102.0728894 153.01449585 -102.0728894 153.01449585 -101.2824707 151.56274414 C-100.72132568 150.54946045 -100.16018066 149.53617676 -99.58203125 148.4921875 C-99.00219482 147.43443115 -98.4223584 146.3766748 -97.82495117 145.28686523 C-90.09055173 131.21967186 -82.24669447 117.21509727 -74.01953125 103.4296875 C-70.62480598 97.7303722 -67.56101582 91.95052936 -64.66870117 85.98266602 C-59.37227071 75.19530715 -53.26086163 64.81512636 -47.33203125 54.3671875 C-51.08529534 54.3671875 -53.99504402 55.64233144 -57.4296875 57 C-58.13741806 57.27431854 -58.84514862 57.54863708 -59.57432556 57.83126831 C-61.84961033 58.7134882 -64.12230527 59.60212171 -66.39453125 60.4921875 C-75.21926736 63.94631646 -84.0323489 67.32771071 -93.046875 70.2578125 C-103.7978199 73.76192695 -114.30117783 77.8822393 -124.83203125 81.9921875 C-126.78500898 82.75037945 -128.73813344 83.50819356 -130.69140625 84.265625 C-134.2762589 85.6574462 -137.86074521 87.05017976 -141.44335938 88.44775391 C-142.24523682 88.75771301 -143.04711426 89.06767212 -143.87329102 89.38702393 C-145.59426151 90.07307956 -147.302423 90.79175054 -148.99975586 91.53436279 C-149.87188721 91.91022522 -150.74401855 92.28608765 -151.64257812 92.67333984 C-152.42274292 93.0210141 -153.20290771 93.36868835 -154.00671387 93.72689819 C-156.84207168 94.50763002 -158.54601584 94.25507519 -161.33203125 93.3671875 C-163.16796875 91.22265625 -163.16796875 91.22265625 -164.70703125 88.5546875 C-165.23039063 87.68199219 -165.75375 86.80929688 -166.29296875 85.91015625 C-167.33203125 83.3671875 -167.33203125 83.3671875 -167.30859375 81.29296875 C-165.0345499 76.80855429 -160.4512186 74.77156009 -155.93774414 73.08056641 C-154.88216812 72.67979889 -153.8265921 72.27903137 -152.73902893 71.86611938 C-151.03902992 71.23629654 -151.03902992 71.23629654 -149.3046875 70.59375 C-148.1241832 70.14752289 -146.94367889 69.70129578 -145.72740173 69.24154663 C-142.59023561 68.05702284 -139.4504296 66.88015265 -136.30883789 65.7074585 C-130.71961151 63.61907232 -125.1372434 61.5123866 -119.5546875 59.40625 C-118.35836197 58.95547592 -117.16203644 58.50470184 -115.92945862 58.04026794 C-109.27541225 55.52132311 -102.73074569 52.87676235 -96.22094727 50.0078125 C-86.96439259 46.0253918 -77.46655815 42.58460628 -68.05200195 38.99731445 C-64.87639603 37.78713889 -61.70323085 36.57069657 -58.53064632 35.35262585 C-55.47496575 34.18061 -52.41705461 33.0144448 -49.359375 31.84765625 C-48.22604233 31.4122905 -47.09270966 30.97692474 -45.92503357 30.52836609 C-44.86945755 30.12737198 -43.81388153 29.72637787 -42.72631836 29.31323242 C-41.80257919 28.96048752 -40.87884003 28.60774261 -39.92710876 28.24430847 C-37.4050434 27.39186518 -34.95170835 26.82547621 -32.33203125 26.3671875 C-32.41453125 25.1090625 -32.49703125 23.8509375 -32.58203125 22.5546875 C-32.54636809 15.00598624 -30.24183646 7.96386409 -25.08203125 2.3671875 C-17.48990734 -4.36697784 -8.76001211 -5.49254764 0 0 Z " fill="#FEC271" transform="translate(318.33203125,142.6328125)"/>
<path d="M0 0 C1.4921875 1.60058594 1.4921875 1.60058594 2.875 3.484375 C3.38546875 4.17273438 3.8959375 4.86109375 4.421875 5.5703125 C5.20304687 6.64925781 5.20304687 6.64925781 6 7.75 C6.78117187 8.80574219 6.78117187 8.80574219 7.578125 9.8828125 C8.59695941 11.26698652 9.60636465 12.6581585 10.60546875 14.05664062 C11.48272744 15.27915098 12.37880841 16.48858322 13.30078125 17.67773438 C16.05602759 21.37506666 16.05602759 21.37506666 15.79394531 24.29833984 C14.85367067 27.49793368 13.48663781 30.11066409 11.859375 33.0234375 C11.54083557 33.59779541 11.22229614 34.17215332 10.894104 34.76391602 C9.85253868 36.63796668 8.80139728 38.50645057 7.75 40.375 C7.02289155 41.67889492 6.2963346 42.98309753 5.5703125 44.28759766 C0.55846927 53.27887105 -4.51332376 62.23668063 -9.59741211 71.18725586 C-13.86843014 78.72064072 -17.9873383 86.32623911 -22 94 C-25.58853909 91.29450456 -28.3977241 88.51731595 -31.1875 85 C-34.27938098 81.13641802 -37.41479808 77.32821108 -40.625 73.5625 C-50.68632962 61.49201942 -59.88263324 48.70932993 -68.9375 35.875 C-69.5469043 35.01583984 -70.15630859 34.15667969 -70.78417969 33.27148438 C-71.33879883 32.47806641 -71.89341797 31.68464844 -72.46484375 30.8671875 C-72.955896 30.16706543 -73.44694824 29.46694336 -73.95288086 28.74560547 C-75 27 -75 27 -75 25 C-71.85425155 23.79274745 -68.70839182 22.58578514 -65.5625 21.37890625 C-64.09318779 20.81516548 -64.09318779 20.81516548 -62.5941925 20.24003601 C-57.22717058 18.18148744 -51.85907618 16.12579997 -46.48901367 14.07519531 C-44.34032258 13.25458203 -42.19164087 12.4339442 -40.04296875 11.61328125 C-38.9869194 11.20999603 -37.93087006 10.80671082 -36.84281921 10.39120483 C-31.72241921 8.43325931 -26.6071723 6.46434392 -21.50759888 4.45274353 C-19.77572467 3.76987585 -18.04125693 3.09359649 -16.30664062 2.41772461 C-14.36693252 1.66123212 -12.43166466 0.89321272 -10.50195312 0.11157227 C-9.67244141 -0.20884033 -8.84292969 -0.52925293 -7.98828125 -0.859375 C-6.96021362 -1.26881348 -6.96021362 -1.26881348 -5.91137695 -1.68652344 C-3.28344889 -2.11751841 -2.19215255 -1.4638378 0 0 Z " fill="#FE5F6D" transform="translate(234,212)"/>
<path d="M0 0 C0 1.65 0 3.3 0 5 C0.99 5 1.98 5 3 5 C3.66 3.35 4.32 1.7 5 0 C15.32680717 -0.20039035 25.65376426 -0.38408805 35.98124123 -0.54658794 C40.77691022 -0.6225687 45.57233926 -0.70425673 50.36767578 -0.79907227 C54.99702355 -0.8903944 59.62639809 -0.96661423 64.25617599 -1.03244972 C66.02085999 -1.06018196 67.78546775 -1.09331894 69.54994583 -1.13199425 C72.0250102 -1.18531371 74.49965061 -1.21925916 76.97509766 -1.2487793 C78.0648288 -1.27898415 78.0648288 -1.27898415 79.17657471 -1.30979919 C85.15238835 -1.34742459 89.10217131 0.15211417 93.375 4.3125 C96.4321215 9.37785613 95.73261693 16.3568696 95 22 C93.12095201 26.15082306 90.89157259 28.64281182 87 31 C83.11388158 31.60941197 79.2553537 31.55646443 75.32836914 31.53344727 C74.14734116 31.54206284 72.96631317 31.55067841 71.74949646 31.55955505 C68.51788023 31.57834672 65.28691125 31.57911679 62.05527043 31.57023358 C59.35399964 31.56511572 56.65282037 31.57242274 53.95155901 31.57970566 C47.57708068 31.59669524 41.20284178 31.59314881 34.82836914 31.57641602 C28.25992393 31.5594966 21.69214339 31.57532802 15.12377077 31.6076389 C9.47686389 31.63436089 3.83016357 31.64160382 -1.81680018 31.63312382 C-5.18619798 31.6282019 -8.55519599 31.63036937 -11.92454338 31.65091133 C-15.68318053 31.66832088 -19.44039484 31.65384128 -23.19897461 31.63110352 C-24.31033783 31.64279572 -25.42170105 31.65448792 -26.56674194 31.66653442 C-34.9795101 31.56293368 -34.9795101 31.56293368 -38.65309143 28.61314392 C-43.32379125 23.41259584 -43.4367014 18.64999569 -43.3203125 11.8828125 C-42.77472515 6.97252631 -40.53793235 4.35151631 -36.9375 1.1875 C-27.74016734 -4.44957486 -10.51284881 -0.78287172 0 0 Z " fill="#FEC371" transform="translate(113,451)"/>
<path d="M0 0 C2.5625 0.1875 2.5625 0.1875 4.5625 2.1875 C4.68968483 5.00663727 4.69693266 7.72793149 4.6171875 10.54296875 C4.5885064 12.28749865 4.56096292 14.03204753 4.53442383 15.77661133 C4.51779694 16.69165436 4.50117004 17.60669739 4.48403931 18.54946899 C4.21438454 34.92096133 4.68547676 50.20604955 8.5625 66.1875 C8.789375 67.28835937 9.01625 68.38921875 9.25 69.5234375 C15.69600158 98.93331969 30.40160667 126.96504164 50.5625 149.1875 C51.77099609 150.55841797 51.77099609 150.55841797 53.00390625 151.95703125 C55.16300541 154.39378106 57.35164107 156.79772763 59.5625 159.1875 C60.09746094 159.77660156 60.63242188 160.36570312 61.18359375 160.97265625 C66.99598024 167.10392679 73.84942453 172.09681762 80.5625 177.1875 C81.74585938 178.09822266 81.74585938 178.09822266 82.953125 179.02734375 C97.59308195 189.7966646 114.03988765 197.73323516 130.85449219 204.43823242 C132.5625 205.1875 132.5625 205.1875 133.5625 206.1875 C133.75 209.125 133.75 209.125 133.5625 212.1875 C132.9025 212.8475 132.2425 213.5075 131.5625 214.1875 C124.90003556 213.97234246 119.66572254 211.80509606 113.6875 209 C112.79691895 208.58854736 111.90633789 208.17709473 110.98876953 207.75317383 C104.9197959 204.9124843 99.14503632 201.90375775 93.5625 198.1875 C92.16046618 197.28077059 90.75808674 196.37457549 89.35546875 195.46875 C77.78880675 187.93916526 67.27650725 179.81812671 57.08984375 170.484375 C55.37622763 168.92702372 53.63809537 167.39630652 51.87890625 165.890625 C44.36274358 159.36595613 38.41936199 152.17634849 32.5625 144.1875 C31.96308594 143.37708252 31.96308594 143.37708252 31.3515625 142.55029297 C3.44585772 104.54281669 -12.50620028 53.46776886 -5.4375 6.1875 C-3.37047321 0.25926717 -3.37047321 0.25926717 0 0 Z " fill="#030101" transform="translate(72.4375,184.8125)"/>
<path d="M0 0 C2.83205318 0.18038555 4.4402576 0.44614963 6.484375 2.46875 C10.01052072 8.12799622 13.12097325 13.95652649 16.19702148 19.86767578 C40.00478866 65.28212387 70.25022789 108.62799469 104.76953125 146.5234375 C106.03849753 147.93241231 107.30029428 149.34812792 108.53881836 150.78393555 C112.81882326 155.74409392 117.29222852 160.44410569 121.9375 165.0625 C122.60201172 165.73087891 123.26652344 166.39925781 123.95117188 167.08789062 C128.46904358 171.59699827 133.15386342 175.84770609 138 180 C139.02092733 180.88921501 140.04176811 181.77852941 141.0625 182.66796875 C148.22087266 188.80779636 155.59402971 194.56803999 163.17578125 200.17578125 C163.79404785 200.63807129 164.41231445 201.10036133 165.04931641 201.57666016 C166.43147162 202.5851664 167.83769525 203.56105848 169.25927734 204.51318359 C169.99227051 205.0180127 170.72526367 205.5228418 171.48046875 206.04296875 C172.49016724 206.71428833 172.49016724 206.71428833 173.52026367 207.39916992 C175 209 175 209 175.3449707 211.55981445 C175 214 175 214 173 216 C169.13691561 216.45273 167.12982224 215.82240045 164.03125 213.54296875 C163.30147949 213.01268066 162.57170898 212.48239258 161.81982422 211.93603516 C161.05428223 211.35901855 160.28874023 210.78200195 159.5 210.1875 C158.70480957 209.6001709 157.90961914 209.0128418 157.09033203 208.40771484 C150.14023189 203.2227639 143.50878988 197.72404217 137 192 C136.26652344 191.36578125 135.53304687 190.7315625 134.77734375 190.078125 C132.83956352 188.39845863 130.91885419 186.70124984 129 185 C127.91017822 184.03743286 127.91017822 184.03743286 126.79833984 183.05541992 C120.60397288 177.53846339 114.66369004 171.81567478 108.8125 165.9375 C107.96236328 165.09123047 107.11222656 164.24496094 106.23632812 163.37304688 C101.28180891 158.41087589 96.54816921 153.33552903 92 148 C91.02685425 146.88210461 90.05292639 145.76488946 89.078125 144.6484375 C82.12688713 136.62432808 75.44075675 128.43901506 69 120 C68.50902832 119.3615918 68.01805664 118.72318359 67.51220703 118.06542969 C45.5069192 89.32525358 26.11310131 58.36322019 8.54443359 26.75390625 C7.02848383 24.05079001 5.48249429 21.36730965 3.92578125 18.6875 C3.45164795 17.86209717 2.97751465 17.03669434 2.48901367 16.1862793 C1.60390252 14.64592925 0.71001958 13.11057402 -0.1940918 11.58129883 C-3.06888592 6.52872102 -3.06888592 6.52872102 -2.72705078 3.9050293 C-2 2 -2 2 0 0 Z " fill="#060202" transform="translate(108,160)"/>
<path d="M0 0 C5.8361112 4.7836977 9.25830114 11.13025266 10.41796875 18.4921875 C11.03593953 25.22245103 10.05225152 31.6498917 6.98046875 37.6796875 C2.75890908 42.58582442 -1.28203802 47.00600389 -8.00390625 47.60546875 C-14.77237032 47.76866776 -18.92464225 47.56067285 -24.33203125 43.3671875 C-30.74360568 36.95561307 -32.18353187 31.00334803 -32.64453125 22.1171875 C-32.51907283 14.76532409 -30.09101 7.80026743 -25.08203125 2.3671875 C-17.48990734 -4.36697784 -8.76001211 -5.49254764 0 0 Z " fill="#3A97D3" transform="translate(318.33203125,142.6328125)"/>
<path d="M0 0 C4.4925174 -0.7159608 6.46554057 -0.3522862 10.2890625 2.16796875 C11.41822269 3.15516587 12.52949642 4.16308173 13.625 5.1875 C14.22691162 5.72995361 14.82882324 6.27240723 15.44897461 6.83129883 C17.31932083 8.53390318 19.16125178 10.26337705 21 12 C21.56058105 12.51820312 22.12116211 13.03640625 22.69873047 13.5703125 C53.4689585 42.13416596 71.3952767 81.39049811 76.3125 122.75 C76.40112305 123.47638672 76.48974609 124.20277344 76.58105469 124.95117188 C77.05564108 129.47767143 76.95677565 133.54623734 76 138 C74 140 74 140 71.5625 140.375 C69 140 69 140 67.390625 138.51953125 C65.40398151 134.92013504 65.41944169 131.33177429 65.1875 127.3125 C61.74929444 84.95756681 41.21909797 45.55810941 10 17 C7.08311609 14.65372915 4.15062209 12.34681847 1.15234375 10.10546875 C-1.32369897 7.68335074 -1.90584904 6.4392791 -2 3 C-1.34 2.01 -0.68 1.02 0 0 Z " fill="#000000" transform="translate(369,30)"/>
<path d="M0 0 C16.87095919 5.53187237 29.60318902 27.98382292 37.3828125 42.73828125 C42.57490774 53.47182385 46.12736505 65.02268336 47.6328125 76.86328125 C47.77847656 77.9925 47.92414063 79.12171875 48.07421875 80.28515625 C49.01417683 89.19002223 49.01417683 89.19002223 47.30078125 92.21484375 C45.6328125 93.86328125 45.6328125 93.86328125 43.1328125 94.30078125 C40.17409325 93.78300538 39.47900281 93.1747426 37.6328125 90.86328125 C37.09619141 88.84887695 37.09619141 88.84887695 36.859375 86.5390625 C36.75987549 85.6833667 36.66037598 84.8276709 36.55786133 83.94604492 C36.45884521 83.03185791 36.3598291 82.1176709 36.2578125 81.17578125 C33.59524497 60.29789911 26.17636697 42.13869799 12.6328125 25.86328125 C11.88902344 24.96738281 11.14523437 24.07148437 10.37890625 23.1484375 C6.71904842 18.91573235 3.15020171 15.40105534 -1.4296875 12.17578125 C-5.27226127 9.3458229 -5.27226127 9.3458229 -6.1171875 5.05078125 C-5.21388396 1.21174122 -4.11386443 -0.23759943 0 0 Z " fill="#000000" transform="translate(354.3671875,72.13671875)"/>
<path d="M0 0 C11.25970194 6.28448481 17.18303213 17.40393348 20.6875 29.5 C22.93758688 39.46038457 22.93758688 39.46038457 20.5 43.4375 C18.06646796 44.86405327 16.46207104 44.85571424 13.6875 44.5 C10.92495262 41.73745262 10.67954772 38.63230479 9.875 34.9375 C7.68581611 25.59628873 3.95221042 15.39427945 -4.625 10.0625 C-6.3125 8.5 -6.3125 8.5 -6.5625 4.8125 C-6.48 3.719375 -6.3975 2.62625 -6.3125 1.5 C-3.93611029 -0.08425981 -2.83862809 -0.61375742 0 0 Z " fill="#000000" transform="translate(338.3125,115.5)"/>
<path d="M0 0 C1.32 0 2.64 0 4 0 C4.17255631 5.13023185 3.6083401 9.73042151 2.375 14.6875 C2.11203125 15.76161133 2.11203125 15.76161133 1.84375 16.85742188 C1.24679317 19.24320483 0.62736975 21.6220363 0 24 C-0.35336426 25.34698975 -0.35336426 25.34698975 -0.71386719 26.72119141 C-1.45248873 29.48788424 -2.22064945 32.2445276 -3 35 C-3.35505615 36.31810669 -3.35505615 36.31810669 -3.71728516 37.6628418 C-3.95495605 38.475354 -4.19262695 39.28786621 -4.4375 40.125 C-4.64246094 40.84945312 -4.84742187 41.57390625 -5.05859375 42.3203125 C-6 44 -6 44 -8.09765625 44.7421875 C-8.72542969 44.82726562 -9.35320312 44.91234375 -10 45 C-10.98585243 41.25177168 -10.98288154 38.98113626 -9.70703125 35.33203125 C-9.40804932 34.44660645 -9.10906738 33.56118164 -8.80102539 32.64892578 C-8.47481201 31.71290527 -8.14859863 30.77688477 -7.8125 29.8125 C-4.51872613 19.97800929 -2.02055831 10.16554179 0 0 Z " fill="#090F0C" transform="translate(123,412)"/>
</svg>
